<?xml version="1.0" encoding="UTF-8" standalone="no"?>
<svg width="25px" height="26px" viewBox="0 0 25 26" version="1.1" xmlns="http://www.w3.org/2000/svg" xmlns:xlink="http://www.w3.org/1999/xlink" xmlns:sketch="http://www.bohemiancoding.com/sketch/ns">
    <!-- Generator: sketchtool 3.4.4 (395) - http://www.bohemiancoding.com/sketch -->
    <title>Group 3</title>
    <desc>Created with sketchtool.</desc>
    <defs></defs>
    <g id="Reports---Independent-Reading" stroke="none" stroke-width="1" fill="none" fill-rule="evenodd" sketch:type="MSPage">
        <g id="Independent-Reading---Student-(Hide-Sidebar)" sketch:type="MSArtboardGroup" transform="translate(-701.000000, -1017.000000)" fill="darkgreen">
            <g id="Body" sketch:type="MSLayerGroup" transform="translate(34.000000, 121.000000)">
                <g id="Table" transform="translate(0.000000, 706.000000)" sketch:type="MSShapeGroup">
                    <g id="Table-Data" transform="translate(10.000000, 67.000000)">
                        <g id="Faces" transform="translate(657.000000, 0.000000)">
                            <g id="Group-3" transform="translate(0.000000, 123.000000)">
                                <path d="M20.2261,14.9762 C19.3471,17.6642 16.1371,19.6142 12.5921,19.6142 C9.0431,19.6142 5.8301,17.6632 4.9511,14.9762 C4.9011,14.8232 4.9281,14.4972 5.0231,14.3662 C5.1171,14.2352 5.2691,14.0002 5.4301,14.0002 L19.7481,14.0002 C19.9091,14.0002 20.0611,14.2352 20.1551,14.3662 C20.2501,14.4972 20.2761,14.8232 20.2261,14.9762 M7.9141,8.3102 C8.9501,8.3102 9.7931,9.1402 9.7931,10.1752 C9.7931,11.2112 8.9501,12.0412 7.9141,12.0412 C6.8921,12.0412 6.0491,11.2112 6.0491,10.1752 C6.0491,9.1402 6.8921,8.3102 7.9141,8.3102 M17.2691,8.3102 C18.2911,8.3102 19.1351,9.1402 19.1351,10.1752 C19.1351,11.2112 18.2911,12.0412 17.2691,12.0412 C16.2341,12.0412 15.3901,11.2112 15.3901,10.1752 C15.3901,9.1402 16.2341,8.3102 17.2691,8.3102 M14.4581,0.0002 L10.7261,0.0002 C2.3041,0.0002 9.99999975e-05,2.6992 9.99999975e-05,11.1082 L9.99999975e-05,14.8532 C9.99999975e-05,23.2622 2.3041,26.0002 10.7261,26.0002 L14.4581,26.0002 C22.8791,26.0002 25.0001,23.2622 25.0001,14.8532 L25.0001,11.1082 C25.0001,2.6992 22.8791,0.0002 14.4581,0.0002" id="Fill-1"></path>
                                <path d="M12.5918,18.2843 C15.3548,18.2843 17.9548,18.0003 18.9848,15.0003 L6.1928,15.0003 C7.2228,18.0003 9.8248,18.2843 12.5918,18.2843" id="Fill-4"></path>
                            </g>
                        </g>
                    </g>
                </g>
            </g>
        </g>
    </g>
</svg>
