<?xml version="1.0" encoding="UTF-8" standalone="no"?>
<svg width="26px" height="26px" viewBox="0 0 26 26" version="1.1" xmlns="http://www.w3.org/2000/svg" xmlns:xlink="http://www.w3.org/1999/xlink" xmlns:sketch="http://www.bohemiancoding.com/sketch/ns">
    <!-- Generator: sketchtool 3.4.4 (395) - http://www.bohemiancoding.com/sketch -->
    <title>Fill 1</title>
    <desc>Created with sketchtool.</desc>
    <defs></defs>
    <g id="Reports---Independent-Reading" stroke="none" stroke-width="1" fill="none" fill-rule="evenodd" sketch:type="MSPage">
        <g id="Independent-Reading---Student-(Hide-Sidebar)" sketch:type="MSArtboardGroup" transform="translate(-701.000000, -894.000000)" fill="#555559">
            <g id="Body" sketch:type="MSLayerGroup" transform="translate(34.000000, 121.000000)">
                <g id="Table" transform="translate(0.000000, 706.000000)" sketch:type="MSShapeGroup">
                    <g id="Table-Data" transform="translate(10.000000, 67.000000)">
                        <g id="Faces" transform="translate(657.000000, 0.000000)">
                            <path d="M19.877,18 L5.449,18 C5.433,18 5.417,17.707 5.401,17.707 C5.144,17.707 4.925,17.66 4.901,17.399 C4.875,17.122 5.079,17 5.356,17 L19.784,17 C20.058,17 20.306,17.176 20.331,17.453 C20.357,17.73 20.154,18 19.877,18 M7.771,8.31 C8.806,8.31 9.65,9.141 9.65,10.176 C9.65,11.211 8.806,12.041 7.771,12.041 C6.749,12.041 5.905,11.211 5.905,10.176 C5.905,9.141 6.749,8.31 7.771,8.31 M17.126,8.31 C18.148,8.31 18.992,9.141 18.992,10.176 C18.992,11.211 18.148,12.041 17.126,12.041 C16.091,12.041 15.247,11.211 15.247,10.176 C15.247,9.141 16.091,8.31 17.126,8.31 M14.314,0 L10.583,0 C2.161,0 0,2.7 0,11.109 L0,14.853 C0,23.262 2.161,26 10.583,26 L14.314,26 C22.736,26 26,23.262 26,14.853 L26,11.109 C26,2.7 22.736,0 14.314,0" id="Fill-1"></path>
                        </g>
                    </g>
                </g>
            </g>
        </g>
    </g>
</svg>