<?xml version="1.0" encoding="UTF-8" standalone="no"?>
<svg width="70px" height="26px" viewBox="0 0 70 26" version="1.1" xmlns="http://www.w3.org/2000/svg" xmlns:xlink="http://www.w3.org/1999/xlink">
    <!-- Generator: sketchtool 3.6.1 (26313) - http://www.bohemiancoding.com/sketch -->
    <title>READ 180 Logo</title>
    <desc>Created with sketchtool.</desc>
    <defs>
        <path id="path-1" d="M19.2218216,25.9847059 C24.4858388,25.9567783 30.4980929,25.3697155 36.8092533,24.1680196 C55.9727078,20.5234314 70.6327262,12.5967451 69.5569473,6.46354902 C68.4799485,0.333411765 52.073162,-1.68158824 32.9121474,1.96503922 C13.7494248,5.61217647 -0.910105493,13.538098 0.166405348,19.6700196 C0.870281611,23.6795254 8.13388528,25.9293339 18.4374155,25.9847059 L19.2218224,25.9847059"></path>
    </defs>
    <g id="Reports---Independent-Reading" stroke="none" stroke-width="1" fill="none" fill-rule="evenodd">
        <g id="Independent-Reading---Class-(Hide-Sidebar)" transform="translate(-919.000000, -129.000000)">
            <g id="Body" transform="translate(32.000000, 121.000000)">
                <g id="Header">
                    <g id="READ-180-Logo" transform="translate(887.000000, 8.000000)">
                        <mask id="mask-2" fill="white">
                            <use xlink:href="#path-1"></use>
                        </mask>
                        <g id="Clip-2"></g>
                        <path d="M69.5569473,6.46354902 C70.6327262,12.5967451 55.9727078,20.5234314 36.8092533,24.1680196 C17.6482387,27.8164314 1.2424282,25.7993922 0.166405348,19.6700196 C-0.910105493,13.538098 13.7494248,5.61217647 32.9121474,1.96503922 C52.073162,-1.68158824 68.4799485,0.333411765 69.5569473,6.46354902" id="Fill-1" fill="#FF193D" mask="url(#mask-2)"></path>
                        <path d="M13.0215844,17.5938431 C12.9015384,17.5938431 12.8571311,17.5540784 12.8271195,17.464098 L11.9514175,14.3731569 L10.8058558,14.3731569 C10.7470527,14.3731569 10.7180172,14.3991569 10.7036214,14.4498824 L10.0928991,17.464098 C10.0799673,17.5410784 10.0197003,17.5938431 9.92990972,17.5938431 L7.70173724,17.5938431 C7.62731842,17.5938431 7.56778337,17.5410784 7.58266714,17.464098 L9.32065143,8.78239216 C9.33651118,8.70286275 9.39580224,8.65009804 9.47022105,8.65009804 L13.4368658,8.65009804 C15.4132343,8.65009804 16.4680295,9.59807843 16.4680295,10.9521176 C16.4680295,12.425451 15.5920835,13.4909412 14.2693806,14.0170588 L15.3539433,17.4375882 C15.368095,17.5150784 15.3241757,17.5938431 15.2346292,17.5938431 L13.0215844,17.5938431 L13.0215844,17.5938431 Z M13.8970425,11.2926667 C13.8970425,10.8205882 13.5261684,10.5435098 12.9015384,10.5435098 L11.5649277,10.5435098 C11.5063686,10.5435098 11.4746491,10.5700196 11.4604973,10.6243137 L11.0891352,12.451451 C11.0752275,12.5044706 11.103775,12.5307255 11.1633101,12.5307255 L12.5013847,12.5307255 C13.2741204,12.5177255 13.8970425,12.0823529 13.8970425,11.2926667 L13.8970425,11.2926667 Z" id="Fill-3" fill="#FFFFFF" mask="url(#mask-2)"></path>
                        <path d="M32.4256192,17.464098 L30.8508683,8.78239216 C30.8508683,8.70286275 30.7906012,8.65009804 30.6876349,8.65009804 L28.3538121,8.65009804 C28.2488937,8.65009804 28.1908227,8.70286275 28.1464154,8.78239216 L24.0721683,15.7009412 L19.2156697,15.7009412 C19.1563787,15.7009412 19.1427149,15.6744314 19.1427149,15.6216667 L19.4538099,14.0958235 C19.4694257,14.0435686 19.4989492,14.0170588 19.5438445,14.0170588 L22.7682531,14.0170588 C22.8563357,14.0170588 22.9312425,13.9637843 22.9468582,13.8847647 L23.2584413,12.2804118 C23.272593,12.2006275 23.2279418,12.149902 23.1386392,12.149902 L19.9300903,12.149902 C19.8705553,12.149902 19.8407877,12.1244118 19.8551835,12.0711373 L20.1523708,10.6243137 C20.1523708,10.5700196 20.1965341,10.5435098 20.2421614,10.5435098 L24.1790386,10.5435098 C24.2539454,10.5435098 24.3278762,10.4925294 24.342028,10.4135098 L24.6697148,8.78239216 C24.6845985,8.70286275 24.6399473,8.65009804 24.5516207,8.65009804 L18.1613625,8.65009804 C18.0874317,8.65009804 18.0276526,8.70286275 18.0132569,8.78239216 L16.2755166,17.464098 C16.2586808,17.5410784 16.3182159,17.5938431 16.3936107,17.5938431 L25.5610326,17.5938431 C25.6639989,17.5938431 25.72451,17.5410784 25.7696492,17.464098 L26.5272572,16.042 L29.676515,16.042 L29.8553641,17.464098 C29.8702479,17.5410784 29.928807,17.5938431 30.0332373,17.5938431 L32.3219208,17.5938431 C32.3958516,17.5938431 32.4400149,17.5410784 32.4256192,17.464098 L32.4256192,17.464098 Z M27.5064136,14.175098 L29.0528609,11.2801765 L29.0816525,11.2801765 L29.4381308,14.175098 L27.5064136,14.175098 L27.5064136,14.175098 Z" id="Fill-4" fill="#FFFFFF" mask="url(#mask-2)"></path>
                        <path d="M34.5640011,8.78239216 C34.5793728,8.70286275 34.6384199,8.65009804 34.7135707,8.65009804 L38.4869705,8.65009804 C40.4782228,8.65009804 41.5637615,9.51829412 41.5637615,11.2669216 C41.5637615,12.3326667 41.1472601,14.6214314 40.5819211,15.6479216 C39.7791739,17.1077451 38.4420753,17.5938431 36.7182427,17.5938431 L32.9445989,17.5938431 C32.8711561,17.5938431 32.810645,17.5410784 32.8260168,17.464098 L34.5640011,8.78239216 L34.5640011,8.78239216 Z M36.5850209,15.6086667 C37.4765826,15.6086667 37.9677468,15.3981176 38.3381329,14.7402157 C38.6504479,14.175098 39.0066823,12.3726863 39.0066823,11.7808039 C39.0066823,10.9653725 38.5757851,10.6355294 37.5514895,10.6355294 L36.7933935,10.6355294 C36.7328825,10.6355294 36.7182427,10.6620392 36.703847,10.7142941 L35.7383544,15.5291373 C35.7227386,15.5826667 35.7527501,15.6086667 35.7988654,15.6086667 L36.5850209,15.6086667 L36.5850209,15.6086667 Z" id="Fill-5" fill="#FFFFFF" mask="url(#mask-2)"></path>
                        <path d="M44.5636937,10.9653725 L44.5346581,10.9653725 L42.6776037,11.9793725 C42.5878132,12.0311176 42.4982666,12.0048627 42.5277901,11.8995882 L42.8847564,10.0444118 C42.8993962,9.96513725 42.9286757,9.91262745 43.0040705,9.85935294 L45.0097186,8.72937255 C45.0995091,8.67660784 45.1873477,8.65009804 45.2761623,8.65009804 L47.2827863,8.65009804 C47.3716009,8.65009804 47.430648,8.70286275 47.4167402,8.78239216 L45.6780239,17.464098 C45.6641161,17.5410784 45.6040931,17.5938431 45.5160105,17.5938431 L43.3895844,17.5938431 C43.2997938,17.5938431 43.2402588,17.5410784 43.2568505,17.464098 L44.5636937,10.9653725" id="Fill-6" fill="#FFFFFF" mask="url(#mask-2)"></path>
                        <path d="M49.0666419,12.9510588 L49.0807937,12.9248039 C48.7684787,12.6625098 48.4854432,12.2006275 48.4854432,11.583 C48.4854432,10.017902 49.9711355,8.49180392 52.2749468,8.49180392 C54.0875939,8.49180392 55.0389347,9.45252941 55.0389347,10.6487843 C55.0389347,11.583 54.5636303,12.3726863 53.7318475,12.9248039 L53.7159878,12.9510588 C54.1322452,13.2541373 54.5031193,13.7537451 54.5031193,14.4758824 C54.5031193,16.3188235 52.7500072,17.7521373 50.4630316,17.7521373 C48.7086996,17.7521373 47.489939,16.9101961 47.489939,15.5163922 C47.489939,14.5156471 48.0257545,13.5442157 49.0666419,12.9510588 L49.0666419,12.9510588 Z M50.8041382,15.9884706 C51.5758979,15.9884706 52.1851562,15.4108627 52.1851562,14.674451 C52.1851562,14.1618431 51.7989104,13.819 51.2196636,13.819 C50.4466839,13.819 49.8374256,14.3991569 49.8374256,15.1358235 C49.8374256,15.6479216 50.2241595,15.9884706 50.8041382,15.9884706 L50.8041382,15.9884706 Z M52.7356114,10.9781176 C52.7356114,10.5582941 52.4540399,10.2554706 51.948236,10.2554706 C51.3094542,10.2554706 50.7594869,10.7543137 50.7594869,11.372451 C50.7594869,11.7943137 51.0564302,12.0973922 51.5617461,12.0973922 C52.199796,12.0973922 52.7356114,11.5965098 52.7356114,10.9781176 L52.7356114,10.9781176 Z" id="Fill-7" fill="#FFFFFF" mask="url(#mask-2)"></path>
                        <path d="M56.5829421,10.3344902 C57.2666192,9.11019608 58.4546363,8.49180392 60.0452469,8.49180392 C61.6951486,8.49180392 62.8690139,9.29423529 62.8690139,10.7808235 C62.8690139,11.7282941 62.2743954,15.004549 61.7685914,15.912 C61.0997981,17.1342549 59.912025,17.7521373 58.3219024,17.7521373 C56.6573609,17.7521373 55.4839836,16.9491961 55.4839836,15.4638824 C55.4839836,14.5156471 56.0932419,11.2421961 56.5829421,10.3344902 L56.5829421,10.3344902 Z M58.6195776,15.9884706 C59.0197313,15.9884706 59.3169185,15.8067255 59.4974756,15.4763725 C59.7617234,15.017549 60.4615043,11.5307451 60.4615043,10.8993529 C60.4615043,10.5055294 60.2236081,10.2554706 59.7487916,10.2554706 C59.34693,10.2554706 59.0494988,10.4397647 58.8708936,10.7675686 C58.6195776,11.2286863 57.905889,14.7142157 57.905889,15.3445882 C57.905889,15.7399412 58.156717,15.9884706 58.6195776,15.9884706 L58.6195776,15.9884706 Z" id="Fill-8" fill="#FFFFFF" mask="url(#mask-2)"></path>
                        <path d="M62.8204587,8.11735294 C62.8204587,7.57058824 63.2230523,7.15076471 63.7466679,7.15076471 C64.2754075,7.15076471 64.6733651,7.57058824 64.6733651,8.11735294 C64.6733651,8.66921569 64.2754075,9.08878431 63.7466679,9.08878431 C63.2230523,9.08878431 62.8204587,8.66921569 62.8204587,8.11735294 L62.8204587,8.11735294 Z M64.5079358,8.11735294 C64.5079358,7.65776471 64.182201,7.31619608 63.7466679,7.31619608 C63.3106469,7.31619608 62.985888,7.65776471 62.985888,8.11735294 C62.985888,8.57847059 63.3106469,8.92284314 63.7466679,8.92284314 C64.182201,8.92284314 64.5079358,8.57847059 64.5079358,8.11735294 L64.5079358,8.11735294 Z M63.4221531,8.64831373 C63.4023894,8.64831373 63.3884816,8.63939216 63.3884816,8.61288235 L63.3884816,7.61060784 C63.3884816,7.58588235 63.4023894,7.57696078 63.4221531,7.57696078 L63.8088869,7.57696078 C64.0323874,7.57696078 64.1626813,7.69166667 64.1626813,7.89507843 C64.1626813,8.04190196 64.0860665,8.14768627 63.9601645,8.19254902 L64.1685372,8.61288235 C64.1773211,8.63352941 64.1685372,8.64831373 64.1497495,8.64831373 L64.0133557,8.64831373 C63.994324,8.64831373 63.9794402,8.63939216 63.9684604,8.61288235 L63.7757035,8.21854902 L63.5905104,8.21854902 C63.5773346,8.21854902 63.5712347,8.22441176 63.5712347,8.23970588 L63.5712347,8.61288235 C63.5712347,8.63939216 63.5575709,8.64831373 63.5387832,8.64831373 L63.4221531,8.64831373 L63.4221531,8.64831373 Z M63.9794402,7.89507843 C63.9794402,7.79872549 63.9250291,7.7477451 63.8088869,7.7477451 L63.5905104,7.7477451 C63.5773346,7.7477451 63.5712347,7.75386275 63.5712347,7.76864706 L63.5712347,8.02737255 C63.5712347,8.03629412 63.5773346,8.04521569 63.5905104,8.04521569 L63.8088869,8.04521569 C63.9250291,8.04521569 63.9794402,7.99092157 63.9794402,7.89507843 L63.9794402,7.89507843 Z" id="Fill-9" fill="#FFFFFF" mask="url(#mask-2)"></path>
                    </g>
                </g>
            </g>
        </g>
    </g>
</svg>