<?xml version="1.0" encoding="UTF-8" standalone="no"?>
<svg width="16px" height="16px" viewBox="0 0 16 16" version="1.1" xmlns="http://www.w3.org/2000/svg" xmlns:xlink="http://www.w3.org/1999/xlink">
    <!-- Generator: sketchtool 39.1 (31720) - http://www.bohemiancoding.com/sketch -->
    <title>DCBADE93-8CA5-4C30-B84D-B688F7326211</title>
    <desc>Created with sketchtool.</desc>
    <defs></defs>
    <g id="Final-Iteration" stroke="none" stroke-width="1" fill="none" fill-rule="evenodd">
        <g id="LC_MyDistrict_Usage" transform="translate(-881.000000, -882.000000)">
            <g id="Group" transform="translate(882.000000, 881.000000)">
                <g id="About-Icon" transform="translate(0.000000, 2.000000)">
                    <circle id="Oval" stroke="#3397E1" cx="7" cy="7" r="7"></circle>
                    <path d="M9.61520421,5.144 C9.61520421,4.124 8.72720421,3.26 7.28720421,3.26 C5.84720421,3.26 5.06720421,3.98 4.88720421,4.16 L5.52320421,5.12 C5.70320421,4.94 6.27920421,4.448 7.08320421,4.448 C7.87520421,4.448 8.24720421,4.844 8.24720421,5.324 C8.24720421,5.804 7.82720421,6.104 7.52720421,6.344 L6.87920421,6.872 C6.39920421,7.268 6.35120421,7.58 6.37520421,8.12 L6.37520421,8.636 L7.56320421,8.636 L7.57520421,8.24 C7.58720421,7.94 7.62320421,7.796 7.94720421,7.52 L8.66720421,6.92 C8.99120421,6.656 9.61520421,6.164 9.61520421,5.144 L9.61520421,5.144 Z M7.83920421,10.28 C7.83920421,9.8 7.47920421,9.44 6.97520421,9.44 C6.45920421,9.44 6.09920421,9.8 6.09920421,10.28 C6.09920421,10.76 6.45920421,11.12 6.97520421,11.12 C7.47920421,11.12 7.83920421,10.76 7.83920421,10.28 L7.83920421,10.28 Z" id="?" fill="#3397E1"></path>
                </g>
            </g>
        </g>
    </g>
</svg>