<?xml version="1.0" encoding="UTF-8" standalone="no"?>
<svg width="18px" height="18px" viewBox="0 0 18 18" version="1.1" xmlns="http://www.w3.org/2000/svg" xmlns:xlink="http://www.w3.org/1999/xlink">
    <!-- Generator: sketchtool 41.2 (35397) - http://www.bohemiancoding.com/sketch -->
    <title>72C44F8F-2CBD-433E-A732-42D1DBD40184</title>
    <desc>Created with sketchtool.</desc>
    <defs></defs>
    <g id="Final-Iteration" stroke="none" stroke-width="1" fill="none" fill-rule="evenodd">
        <g id="School-R180-Table" transform="translate(-972.000000, -372.000000)">
            <g id="Group-Copy-3" transform="translate(52.000000, 54.000000)">
                <g id="Group-Copy">
                    <g id="Group-2-Copy">
                        <g id="Group" transform="translate(162.000000, 0.000000)">
                            <g id="Warning-Exclam-Copy-4" transform="translate(767.000000, 327.000000) rotate(-180.000000) translate(-767.000000, -327.000000) translate(759.000000, 319.000000)">
                                <path d="M7.81693364,15.6338673 C10.3887277,15.6338673 12.6704437,14.3918955 14.0950266,12.4750069 C15.0618371,11.1740872 15.6338673,9.56231284 15.6338673,7.81693364 C15.6338673,3.4997604 12.1341069,2.84217094e-14 7.81693364,2.84217094e-14 C3.4997604,2.84217094e-14 0,3.4997604 0,7.81693364 C0,12.1341069 3.4997604,15.6338673 7.81693364,15.6338673 Z" id="Oval-363" stroke="#EF4E45"></path>
                                <path d="M7.69668787,6.5 C7.1226927,6.5 6.73684211,6.85496856 6.73684211,7.38362205 L6.73684211,11.6163779 C6.73684211,12.1450314 7.1226927,12.5 7.69668787,12.5 C8.27099147,12.5 8.65684206,12.1450314 8.65684206,11.6163779 L8.65684206,7.38362205 C8.65684206,6.85496856 8.27099147,6.5 7.69668787,6.5" id="Fill-2" fill="#EF4E45"></path>
                                <path d="M7.69668787,2.89473684 C7.1226927,2.89473684 6.73684211,3.00832678 6.73684211,3.17749589 L6.73684211,4.53197775 C6.73684211,4.70114686 7.1226927,4.8147368 7.69668787,4.8147368 C8.27099147,4.8147368 8.65684206,4.70114686 8.65684206,4.53197775 L8.65684206,3.17749589 C8.65684206,3.00832678 8.27099147,2.89473684 7.69668787,2.89473684" id="Fill-2-Copy" fill="#EF4E45"></path>
                            </g>
                        </g>
                    </g>
                </g>
            </g>
        </g>
    </g>
</svg>