<?xml version="1.0" encoding="UTF-8" standalone="no"?>
<svg width="123px" height="25px" viewBox="0 0 123 25" version="1.1" xmlns="http://www.w3.org/2000/svg" xmlns:xlink="http://www.w3.org/1999/xlink">
    <!-- Generator: sketchtool 3.6.1 (26313) - http://www.bohemiancoding.com/sketch -->
    <title>RI_MI_PI_logo_v8-08</title>
    <desc>Created with sketchtool.</desc>
    <defs>
        <path id="path-1" d="M7.9587156,6.37614679 C7.1559633,7.69495413 5.73394495,8.41743119 4.27752294,8.41743119 C3.53211009,8.41743119 2.77522936,8.22247706 2.08715596,7.82110092 C0.0573394495,6.62844037 -0.596330275,4.04816514 0.607798165,2.06422018 C1.41055046,0.745412844 2.83256881,0.0344036697 4.28899083,0.0344036697 L4.28899083,0.0344036697 C5.03440367,0.0344036697 5.7912844,0.217889908 6.4793578,0.619266055 C8.50917431,1.81192661 9.17431193,4.39220183 7.9587156,6.37614679 L7.9587156,6.37614679 Z"></path>
    </defs>
    <g id="Reports---Whole-Group-&amp;-Small-Group" stroke="none" stroke-width="1" fill="none" fill-rule="evenodd">
        <g id="Workshop-Assessment---Student" transform="translate(-872.000000, -121.000000)">
            <g id="Body" transform="translate(237.000000, 121.000000)">
                <g id="Header">
                    <g id="RI_MI_PI_logo_v8-08" transform="translate(635.000000, 0.000000)">
                        <g id="Layer_1">
                            <g id="New_Symbol_9_1_"></g>
                            <g id="New_Symbol_9">
                                <g id="Group" transform="translate(24.770642, 2.752294)" fill="#818282">
                                    <rect id="Rectangle-path" transform="translate(9.721354, 16.903599) rotate(-14.104332) translate(-9.721354, -16.903599) " x="8.13297503" y="14.598443" width="3.1767575" height="4.61031233"></rect>
                                    <path d="M12.0298165,19.6100917 L8.94495413,20.3899083 L9.02522936,20.7110092 C9.12844037,21.1353211 9.40366972,21.4793578 9.74770642,21.6857798 C9.98853211,21.8348624 10.2752294,21.9151376 10.5619266,21.9151376 C10.6880734,21.9151376 10.8142202,21.9036697 10.9518349,21.8692661 C11.8004587,21.6513761 12.3165138,20.7912844 12.1100917,19.9426606 L12.0298165,19.6100917 L12.0298165,19.6100917 Z" id="Shape"></path>
                                    <path d="M10.4816514,1.05504587 C9.38073394,0.389908257 8.16513761,0.0802752294 6.96100917,0.0802752294 C4.62155963,0.0802752294 2.32798165,1.27293578 1.04357798,3.42889908 C-0.905963303,6.68577982 0.160550459,10.9174312 3.41743119,12.8669725 C4.51834862,13.5321101 5.73394495,13.8417431 6.93807339,13.8417431 C7.06422018,13.8417431 7.19036697,13.8417431 7.30504587,13.8302752 L7.39678899,14.1972477 L10.4816514,13.4174312 L10.3555046,12.9243119 C11.353211,12.3623853 12.2247706,11.5366972 12.8555046,10.4816514 C14.8050459,7.23623853 13.7385321,3.00458716 10.4816514,1.05504587 L10.4816514,1.05504587 Z M11.0321101,9.40366972 C10.1376147,10.8944954 8.55504587,11.7201835 6.93807339,11.7201835 C6.10091743,11.7201835 5.26376147,11.5022936 4.49541284,11.043578 C4.28899083,10.9174312 4.08256881,10.7798165 3.89908257,10.6192661 C3.84174312,10.5733945 3.77293578,10.516055 3.71559633,10.4587156 C3.60091743,10.3555046 3.48623853,10.2408257 3.38302752,10.1261468 C3.32568807,10.0688073 3.27981651,10.0114679 3.23394495,9.94266055 C2.01834862,8.42889908 1.78899083,6.26146789 2.8440367,4.49541284 C3.73853211,3.00458716 5.32110092,2.17889908 6.93807339,2.17889908 C7.77522936,2.17889908 8.61238532,2.39678899 9.38073394,2.85550459 C11.6513761,4.22018349 12.3853211,7.14449541 11.0321101,9.40366972 L11.0321101,9.40366972 Z" id="Shape"></path>
                                </g>
                                <g id="Group" fill="#F3487A">
                                    <path d="M33.2224771,2.40825688 L33.853211,0 L28.1536697,0 L27.1100917,3.85321101 C28.4059633,2.83256881 30.0344037,2.25917431 31.7201835,2.25917431 C32.2362385,2.25917431 32.7293578,2.30504587 33.2224771,2.40825688 L33.2224771,2.40825688 Z" id="Shape"></path>
                                    <path d="M24.7821101,12.4426606 L24.1743119,14.690367 L19.793578,0 L14.1399083,0 L9.75917431,14.6788991 L5.77981651,0 L0,0 L6.51376147,24.6559633 L12.4311927,24.6559633 L16.9495413,7.66055046 L21.4678899,24.6559633 L27.3853211,24.6559633 L29.4495413,16.8119266 C28.9105505,16.6399083 28.3944954,16.3990826 27.9013761,16.1123853 C26.4220183,15.2293578 25.3669725,13.9220183 24.7821101,12.4426606 L24.7821101,12.4426606 Z" id="Shape"></path>
                                </g>
                                <g id="Clipped" transform="translate(27.522936, 5.504587)">
                                    <mask id="mask-2" fill="white">
                                        <use xlink:href="#path-1"></use>
                                    </mask>
                                    <g id="SVGID_17_"></g>
                                    <path d="M7.3853211,-5.91743119 L7.3853211,-5.91743119 C3.38302752,-5.91743119 -0.217889908,-4.2087156 -2.23623853,-0.894495413 C-3.73853211,1.58256881 -4.18577982,4.34633028 -3.48623853,7.14449541 C-2.77522936,9.98853211 -0.963302752,12.3165138 1.60550459,13.8302752 C2.06422018,14.1055046 2.55733945,14.3004587 3.05045872,14.5068807 L8.53211009,-6.10091743 C8.15366972,-6.1353211 7.77522936,-5.91743119 7.3853211,-5.91743119 L7.3853211,-5.91743119 Z" id="Shape" fill="#F3487A" mask="url(#mask-2)"></path>
                                </g>
                            </g>
                            <g id="Layer_5"></g>
                            <g id="Group" transform="translate(46.100917, 2.064220)">
                                <g transform="translate(0.458716, 0.000000)" id="Shape" fill="#818282">
                                    <path d="M11.8348624,10.6651376 L9.03669725,10.6651376 L7.28211009,3.44036697 L5.53899083,10.6651376 L2.75229358,10.6651376 L0.103211009,0.355504587 L2.7293578,0.355504587 L4.30045872,7.64908257 L5.97477064,0.355504587 L8.60091743,0.355504587 L10.2752294,7.64908257 L11.8463303,0.355504587 L14.4724771,0.355504587 L11.8348624,10.6651376 L11.8348624,10.6651376 Z"></path>
                                    <path d="M18.5206422,10.837156 C16.0665138,10.837156 14.4266055,9.3233945 14.4266055,6.81192661 C14.4266055,4.31192661 16.0665138,2.79816514 18.4977064,2.79816514 C20.9518349,2.79816514 22.5917431,4.28899083 22.5917431,6.81192661 C22.5917431,9.33486239 20.9633028,10.837156 18.5206422,10.837156 L18.5206422,10.837156 Z M18.5206422,4.64449541 C17.4655963,4.64449541 16.9724771,5.61926606 16.9724771,6.80045872 C16.9724771,7.98165138 17.4426606,8.9793578 18.4977064,8.9793578 C19.5527523,8.9793578 20.0458716,8.00458716 20.0458716,6.80045872 C20.0458716,5.61926606 19.5756881,4.64449541 18.5206422,4.64449541 L18.5206422,4.64449541 Z"></path>
                                    <path d="M28.8876147,5.2293578 C28.8876147,5.2293578 28.5779817,5.1146789 28.1880734,5.1146789 C27.8669725,5.1146789 27.5688073,5.18348624 27.293578,5.35550459 C26.8922018,5.61926606 26.5252294,6.08944954 26.3876147,6.76605505 L26.3876147,10.6651376 L23.8876147,10.6651376 L23.8876147,2.9587156 L26.2385321,2.9587156 L26.3876147,4.22018349 C26.7316514,3.50917431 27.5573394,2.78669725 28.543578,2.78669725 C29.0022936,2.78669725 29.162844,2.86697248 29.162844,2.86697248 L28.8876147,5.2293578 L28.8876147,5.2293578 Z"></path>
                                    <path d="M35.1490826,10.6651376 L33.3830275,7.76376147 L32.6720183,8.50917431 L32.6720183,10.6651376 L30.1720183,10.6651376 L30.1720183,0.0458715596 L32.6720183,0.0458715596 L32.6720183,5.73394495 L35.0229358,2.9587156 L37.8784404,2.9587156 L35.0344037,5.95183486 L37.9931193,10.6766055 L35.1490826,10.6766055 L35.1490826,10.6651376 Z"></path>
                                    <path d="M44.0137615,10.0802752 C43.6582569,10.3669725 42.9931193,10.8256881 41.3990826,10.8256881 C39.8279817,10.8256881 38.5779817,10.0917431 38.0733945,9.62155963 L39.0825688,8.0733945 C39.8165138,8.72706422 40.9288991,9.04816514 41.4908257,9.04816514 C42.0527523,9.04816514 42.5344037,8.95642202 42.5344037,8.50917431 C42.5344037,8.05045872 41.8004587,7.91284404 41.2958716,7.77522936 C40.7912844,7.62614679 40.4013761,7.51146789 40.0344037,7.37385321 C39.6559633,7.21330275 38.4747706,6.75458716 38.4747706,5.25229358 C38.4747706,3.76146789 39.7362385,2.76376147 41.7545872,2.76376147 C43.7729358,2.76376147 44.8738532,3.78440367 44.8738532,3.78440367 L44.0022936,5.27522936 C43.2683486,4.70183486 42.3623853,4.48394495 41.8463303,4.48394495 C41.3302752,4.48394495 40.8256881,4.57568807 40.8256881,5.02293578 C40.8256881,5.47018349 41.5252294,5.59633028 42.1100917,5.75688073 C42.6834862,5.91743119 43.1536697,6.07798165 43.4288991,6.19266055 C43.7155963,6.30733945 44.9082569,6.78899083 44.9082569,8.21100917 C44.896789,9.22018349 44.3807339,9.79357798 44.0137615,10.0802752 L44.0137615,10.0802752 Z"></path>
                                    <path d="M51.1353211,10.6651376 L51.1353211,6.31880734 C51.1353211,5.44724771 50.8944954,4.87385321 50.0114679,4.87385321 C49.1284404,4.87385321 48.7155963,5.65366972 48.6123853,6.22706422 L48.6123853,10.6651376 L46.1123853,10.6651376 L46.1123853,0.0458715596 L48.6123853,0.0458715596 L48.6123853,4.13990826 C49.0711009,3.48623853 49.8279817,2.78669725 50.9977064,2.78669725 C52.912844,2.78669725 53.6238532,3.96788991 53.6238532,5.7912844 L53.6238532,10.6651376 L51.1353211,10.6651376 L51.1353211,10.6651376 Z"></path>
                                    <path d="M58.9220183,10.837156 C56.4678899,10.837156 54.8279817,9.3233945 54.8279817,6.81192661 C54.8279817,4.31192661 56.4678899,2.79816514 58.8990826,2.79816514 C61.353211,2.79816514 62.9931193,4.28899083 62.9931193,6.81192661 C62.9931193,9.33486239 61.3646789,10.837156 58.9220183,10.837156 L58.9220183,10.837156 Z M58.9220183,4.64449541 C57.8669725,4.64449541 57.3738532,5.61926606 57.3738532,6.80045872 C57.3738532,7.98165138 57.8440367,8.9793578 58.8990826,8.9793578 C59.9541284,8.9793578 60.4472477,8.00458716 60.4472477,6.80045872 C60.4472477,5.61926606 59.9770642,4.64449541 58.9220183,4.64449541 L58.9220183,4.64449541 Z"></path>
                                    <path d="M69.0252294,10.837156 C67.6146789,10.837156 67.0298165,9.98853211 66.8004587,9.66743119 L66.8004587,13.337156 L64.3004587,13.337156 L64.3004587,2.9587156 L66.6743119,2.9587156 L66.8004587,3.9793578 C66.9266055,3.75 67.6605505,2.79816514 69.1169725,2.79816514 C71.1123853,2.79816514 72.4082569,4.43807339 72.4082569,6.81192661 C72.4082569,9.18577982 71.043578,10.837156 69.0252294,10.837156 L69.0252294,10.837156 Z M68.3142202,4.67889908 C67.2706422,4.67889908 66.7201835,5.64220183 66.7201835,6.78899083 C66.7201835,7.92431193 67.2591743,8.89908257 68.2912844,8.89908257 C69.3119266,8.89908257 69.8623853,7.93577982 69.8623853,6.78899083 C69.8623853,5.64220183 69.3463303,4.67889908 68.3142202,4.67889908 L68.3142202,4.67889908 Z"></path>
                                </g>
                                <g transform="translate(0.000000, 12.155963)" id="Shape" fill="#818282">
                                    <path d="M7.79816514,10.3669725 L6.8233945,7.64908257 L2.23623853,7.64908257 L1.26146789,10.3669725 L0.0344036697,10.3669725 L3.87614679,0.0802752294 L5.27522936,0.0802752294 L9.13990826,10.3669725 L7.79816514,10.3669725 L7.79816514,10.3669725 Z M4.5412844,1.23853211 L2.58027523,6.62844037 L6.4793578,6.62844037 L4.5412844,1.23853211 L4.5412844,1.23853211 Z"></path>
                                    <path d="M14.0137615,9.83944954 C13.5779817,10.2293578 12.9013761,10.516055 11.9266055,10.516055 C10.3669725,10.516055 9.33486239,9.52981651 9.08256881,9.2087156 L9.78211009,8.47477064 C10.1720183,8.91055046 11.0091743,9.56422018 11.9724771,9.56422018 C12.9357798,9.56422018 13.5550459,9.17431193 13.5550459,8.45183486 C13.5550459,7.7293578 12.7981651,7.46559633 12.3738532,7.30504587 C11.9495413,7.1559633 11.2844037,6.96100917 10.9288991,6.80045872 C10.5733945,6.65137615 9.46100917,6.20412844 9.46100917,4.91972477 C9.46100917,3.6353211 10.5619266,2.78669725 12.0986239,2.78669725 C13.6582569,2.78669725 14.5756881,3.70412844 14.6215596,3.77293578 L14.0711009,4.58715596 C13.6811927,4.19724771 12.9357798,3.72706422 12.0986239,3.72706422 C11.2614679,3.72706422 10.5733945,4.07110092 10.5733945,4.78211009 C10.5733945,5.51605505 11.2844037,5.73394495 11.7889908,5.91743119 C12.2706422,6.10091743 12.8211009,6.26146789 13.1766055,6.39908257 C13.5321101,6.53669725 14.7018349,7.02981651 14.7018349,8.2912844 C14.690367,8.93348624 14.4151376,9.46100917 14.0137615,9.83944954 L14.0137615,9.83944954 Z"></path>
                                    <path d="M19.9541284,9.83944954 C19.5183486,10.2293578 18.8417431,10.516055 17.8669725,10.516055 C16.3073394,10.516055 15.2752294,9.52981651 15.0229358,9.2087156 L15.7224771,8.47477064 C16.1123853,8.91055046 16.9495413,9.56422018 17.912844,9.56422018 C18.8761468,9.56422018 19.4954128,9.17431193 19.4954128,8.45183486 C19.4954128,7.7293578 18.7385321,7.46559633 18.3142202,7.30504587 C17.8899083,7.1559633 17.2247706,6.96100917 16.8692661,6.80045872 C16.5137615,6.65137615 15.4013761,6.20412844 15.4013761,4.91972477 C15.4013761,3.6353211 16.5022936,2.78669725 18.0389908,2.78669725 C19.5986239,2.78669725 20.516055,3.70412844 20.5619266,3.77293578 L20.0114679,4.58715596 C19.6215596,4.19724771 18.8761468,3.72706422 18.0389908,3.72706422 C17.2018349,3.72706422 16.5137615,4.07110092 16.5137615,4.78211009 C16.5137615,5.51605505 17.2247706,5.73394495 17.7293578,5.91743119 C18.2110092,6.10091743 18.7614679,6.26146789 19.1169725,6.39908257 C19.4724771,6.53669725 20.6422018,7.02981651 20.6422018,8.2912844 C20.6422018,8.93348624 20.3669725,9.46100917 19.9541284,9.83944954 L19.9541284,9.83944954 Z"></path>
                                    <path d="M22.5917431,6.86926606 C22.603211,8.45183486 23.4633028,9.5412844 24.9197248,9.5412844 C26.3876147,9.5412844 27.2018349,8.72706422 27.2477064,8.68119266 L27.7637615,9.46100917 C27.7637615,9.46100917 26.8119266,10.516055 24.8050459,10.516055 C22.7981651,10.516055 21.353211,9.07110092 21.353211,6.66284404 C21.353211,4.23165138 22.8555046,2.79816514 24.7821101,2.79816514 C26.7201835,2.79816514 27.9243119,4.26605505 27.9243119,6.3646789 L27.9243119,6.88073394 L22.5917431,6.88073394 L22.5917431,6.86926606 Z M24.7706422,3.70412844 C23.3027523,3.70412844 22.6834862,4.98853211 22.5802752,5.99770642 L26.7775229,5.99770642 C26.7775229,4.85091743 26.2270642,3.70412844 24.7706422,3.70412844 L24.7706422,3.70412844 Z"></path>
                                    <path d="M33.3830275,9.83944954 C32.9472477,10.2293578 32.2706422,10.516055 31.2958716,10.516055 C29.7362385,10.516055 28.7041284,9.52981651 28.4518349,9.2087156 L29.1513761,8.47477064 C29.5412844,8.91055046 30.3784404,9.56422018 31.3417431,9.56422018 C32.3050459,9.56422018 32.9243119,9.17431193 32.9243119,8.45183486 C32.9243119,7.7293578 32.1674312,7.46559633 31.7431193,7.30504587 C31.3188073,7.1559633 30.6536697,6.96100917 30.2981651,6.80045872 C29.9426606,6.65137615 28.8302752,6.20412844 28.8302752,4.91972477 C28.8302752,3.6353211 29.9311927,2.78669725 31.4678899,2.78669725 C33.0275229,2.78669725 33.9449541,3.70412844 33.9908257,3.77293578 L33.440367,4.58715596 C33.0504587,4.19724771 32.3050459,3.72706422 31.4678899,3.72706422 C30.6307339,3.72706422 29.9426606,4.07110092 29.9426606,4.78211009 C29.9426606,5.51605505 30.6536697,5.73394495 31.1582569,5.91743119 C31.6399083,6.10091743 32.190367,6.26146789 32.5458716,6.39908257 C32.9013761,6.53669725 34.0711009,7.02981651 34.0711009,8.2912844 C34.059633,8.93348624 33.7844037,9.46100917 33.3830275,9.83944954 L33.3830275,9.83944954 Z"></path>
                                    <path d="M39.3233945,9.83944954 C38.8876147,10.2293578 38.2110092,10.516055 37.2362385,10.516055 C35.6766055,10.516055 34.6444954,9.52981651 34.3922018,9.2087156 L35.0917431,8.47477064 C35.4816514,8.91055046 36.3188073,9.56422018 37.2821101,9.56422018 C38.2454128,9.56422018 38.8646789,9.17431193 38.8646789,8.45183486 C38.8646789,7.7293578 38.1077982,7.46559633 37.6834862,7.30504587 C37.2591743,7.1559633 36.5940367,6.96100917 36.2385321,6.80045872 C35.8830275,6.65137615 34.7706422,6.20412844 34.7706422,4.91972477 C34.7706422,3.6353211 35.8715596,2.78669725 37.4082569,2.78669725 C38.9678899,2.78669725 39.8853211,3.70412844 39.9311927,3.77293578 L39.3807339,4.58715596 C38.9908257,4.19724771 38.2454128,3.72706422 37.4082569,3.72706422 C36.5711009,3.72706422 35.8830275,4.07110092 35.8830275,4.78211009 C35.8830275,5.51605505 36.5940367,5.73394495 37.0986239,5.91743119 C37.5802752,6.10091743 38.1307339,6.26146789 38.4862385,6.39908257 C38.8417431,6.53669725 40.0114679,7.02981651 40.0114679,8.2912844 C40,8.93348624 39.7247706,9.46100917 39.3233945,9.83944954 L39.3233945,9.83944954 Z"></path>
                                    <path d="M50.5733945,10.3669725 L50.5733945,5.65366972 C50.5733945,4.63302752 50.3669725,3.84174312 49.1972477,3.84174312 C48.016055,3.84174312 47.2362385,5.36697248 47.1559633,5.91743119 L47.1559633,10.3669725 L45.9747706,10.3669725 L45.9747706,5.65366972 C45.9747706,4.63302752 45.7683486,3.84174312 44.587156,3.84174312 C43.4059633,3.84174312 42.6261468,5.36697248 42.5458716,5.91743119 L42.5458716,10.3669725 L41.3646789,10.3669725 L41.3646789,2.94724771 L42.4541284,2.94724771 L42.5458716,4.35779817 C42.9816514,3.48623853 43.9334862,2.78669725 44.9426606,2.78669725 C45.9747706,2.78669725 46.7889908,3.26834862 47.0527523,4.44954128 C47.5573394,3.49770642 48.5206422,2.78669725 49.5642202,2.78669725 C50.6766055,2.78669725 51.766055,3.41743119 51.766055,5.35550459 L51.766055,10.3555046 L50.5733945,10.3555046 L50.5733945,10.3669725 Z"></path>
                                    <path d="M54.3463303,6.86926606 C54.3577982,8.45183486 55.2178899,9.5412844 56.6743119,9.5412844 C58.1422018,9.5412844 58.956422,8.72706422 59.0022936,8.68119266 L59.5183486,9.46100917 C59.5183486,9.46100917 58.5665138,10.516055 56.559633,10.516055 C54.5527523,10.516055 53.1077982,9.07110092 53.1077982,6.66284404 C53.1077982,4.23165138 54.6100917,2.79816514 56.5366972,2.79816514 C58.4747706,2.79816514 59.6788991,4.26605505 59.6788991,6.3646789 L59.6788991,6.88073394 L54.3463303,6.88073394 L54.3463303,6.86926606 Z M56.5137615,3.70412844 C55.0458716,3.70412844 54.4266055,4.98853211 54.3233945,5.99770642 L58.5206422,5.99770642 C58.5206422,4.85091743 57.9701835,3.70412844 56.5137615,3.70412844 L56.5137615,3.70412844 Z"></path>
                                    <path d="M65.9862385,10.3669725 L65.9862385,5.88302752 C65.9862385,4.6559633 65.6307339,3.84174312 64.4151376,3.84174312 C63.1880734,3.84174312 62.396789,5.14908257 62.2477064,5.91743119 L62.2477064,10.3669725 L61.0665138,10.3669725 L61.0665138,2.94724771 L62.1559633,2.94724771 L62.2477064,4.35779817 C62.6720183,3.57798165 63.4977064,2.78669725 64.7706422,2.78669725 C66.1582569,2.78669725 67.1674312,3.60091743 67.1674312,5.52752294 L67.1674312,10.3669725 L65.9862385,10.3669725 L65.9862385,10.3669725 Z"></path>
                                    <path d="M70.5848624,3.8646789 L70.5848624,7.92431193 C70.5848624,8.70412844 70.6766055,9.05963303 70.9059633,9.26605505 C71.1353211,9.49541284 71.4220183,9.55275229 71.7431193,9.55275229 C72.0642202,9.55275229 72.4426606,9.46100917 72.5,9.43807339 L72.6490826,10.3440367 C72.3738532,10.4243119 71.8348624,10.5275229 71.3876147,10.5275229 C70.7912844,10.5275229 70.2866972,10.3669725 69.896789,9.96559633 C69.5068807,9.5412844 69.3922018,8.9793578 69.3922018,8.02752294 L69.3922018,3.8646789 L68.2912844,3.8646789 L68.2912844,2.9587156 L69.3922018,2.9587156 L69.5183486,0.871559633 L70.5733945,0.871559633 L70.5733945,2.9587156 L72.6949541,2.9587156 L72.6949541,3.8646789 L70.5848624,3.8646789 L70.5848624,3.8646789 Z"></path>
                                </g>
                                <path d="M74.3119266,13.1995413 L74.3119266,14.5298165 L74.059633,14.5298165 L74.059633,13.1995413 L73.5779817,13.1995413 L73.5779817,12.9931193 L74.793578,12.9931193 L74.793578,13.1995413 L74.3119266,13.1995413 L74.3119266,13.1995413 Z M76.5366972,14.5298165 L76.5366972,13.2454128 L76.5252294,13.2454128 L76.0206422,14.5298165 L75.8600917,14.5298165 L75.3555046,13.2454128 L75.3440367,13.2454128 L75.3440367,14.5298165 L75.0917431,14.5298165 L75.0917431,12.9931193 L75.4816514,12.9931193 L75.940367,14.162844 L76.3876147,12.9931193 L76.7775229,12.9931193 L76.7775229,14.5298165 L76.5366972,14.5298165 L76.5366972,14.5298165 Z" id="Shape" fill="#717272"></path>
                            </g>
                        </g>
                        <g id="Layer_3"></g>
                    </g>
                </g>
            </g>
        </g>
    </g>
</svg>