<?xml version="1.0" encoding="UTF-8" standalone="no"?>
<svg width="26px" height="26px" viewBox="0 0 26 26" version="1.1" xmlns="http://www.w3.org/2000/svg" xmlns:xlink="http://www.w3.org/1999/xlink" xmlns:sketch="http://www.bohemiancoding.com/sketch/ns">
    <!-- Generator: sketchtool 3.4.4 (395) - http://www.bohemiancoding.com/sketch -->
    <title>Fill 1 Copy</title>
    <desc>Created with sketchtool.</desc>
    <defs></defs>
    <g id="Reports---Independent-Reading" stroke="none" stroke-width="1" fill="none" fill-rule="evenodd" sketch:type="MSPage">
        <g id="Independent-Reading---Student-(Hide-Sidebar)" sketch:type="MSArtboardGroup" transform="translate(-701.000000, -1140.000000)" fill="darkblue">
            <g id="Body" sketch:type="MSLayerGroup" transform="translate(34.000000, 121.000000)">
                <g id="Table" transform="translate(0.000000, 706.000000)" sketch:type="MSShapeGroup">
                    <g id="Table-Data" transform="translate(10.000000, 67.000000)">
                        <g id="Faces" transform="translate(657.000000, 0.000000)">
                            <path d="M18.264,261.731 C17.737,262.594 16.974,263.336 16.056,263.915 C14.67,264.791 12.929,265.297 11.11,265.297 C9.37,265.297 7.64,264.822 6.238,263.958 C6.002,263.812 5.928,263.502 6.074,263.266 C6.22,263.029 6.53,262.956 6.766,263.101 C8.012,263.868 9.554,264.291 11.11,264.291 C13.749,264.291 16.279,263.051 17.405,261.207 C17.55,260.969 17.86,260.894 18.097,261.039 C18.334,261.184 18.409,261.494 18.264,261.731 M5.627,256.176 C5.627,255.141 6.47,254.31 7.492,254.31 C8.528,254.31 9.371,255.141 9.371,256.176 C9.371,257.211 8.528,258.042 7.492,258.042 C6.47,258.042 5.627,257.211 5.627,256.176 M16.847,254.31 C17.869,254.31 18.713,255.141 18.713,256.176 C18.713,257.211 17.869,258.042 16.847,258.042 C15.812,258.042 14.968,257.211 14.968,256.176 C14.968,255.141 15.812,254.31 16.847,254.31 M14.035,246 L10.304,246 C1.882,246 0,248.7 0,257.109 L0,260.853 C0,269.262 1.882,272 10.304,272 L14.035,272 C22.457,272 26,269.262 26,260.853 L26,257.109 C26,248.7 22.457,246 14.035,246" id="Fill-1-Copy"></path>
                        </g>
                    </g>
                </g>
            </g>
        </g>
    </g>
</svg>
