<?xml version="1.0" encoding="UTF-8" standalone="no"?>
<svg width="26px" height="26px" viewBox="0 0 26 26" version="1.1" xmlns="http://www.w3.org/2000/svg" xmlns:xlink="http://www.w3.org/1999/xlink" xmlns:sketch="http://www.bohemiancoding.com/sketch/ns">
    <!-- Generator: sketchtool 3.4.4 (395) - http://www.bohemiancoding.com/sketch -->
    <title>Fill 1 Copy 2</title>
    <desc>Created with sketchtool.</desc>
    <defs></defs>
    <g id="Reports---Independent-Reading" stroke="none" stroke-width="1" fill="none" fill-rule="evenodd" sketch:type="MSPage">
        <g id="Independent-Reading---Student-(Hide-Sidebar)" sketch:type="MSArtboardGroup" transform="translate(-701.000000, -1099.000000)" fill="darkgreen">
            <g id="Body" sketch:type="MSLayerGroup" transform="translate(34.000000, 121.000000)">
                <g id="Table" transform="translate(0.000000, 706.000000)" sketch:type="MSShapeGroup">
                    <g id="Table-Data" transform="translate(10.000000, 67.000000)">
                        <g id="Faces" transform="translate(657.000000, 0.000000)">
                            <path d="M19.23,221.961 L4.802,223.303 C4.786,223.305 4.77,223.305 4.754,223.305 C4.497,223.305 4.278,223.11 4.254,222.849 C4.228,222.572 4.432,222.327 4.709,222.301 L19.137,220.959 C19.411,220.928 19.659,221.136 19.684,221.413 C19.71,221.69 19.507,221.935 19.23,221.961 M7.124,213.31 C8.159,213.31 9.003,214.14 9.003,215.175 C9.003,216.211 8.159,217.041 7.124,217.041 C6.102,217.041 5.258,216.211 5.258,215.175 C5.258,214.14 6.102,213.31 7.124,213.31 M16.479,213.31 C17.501,213.31 18.345,214.14 18.345,215.175 C18.345,216.211 17.501,217.041 16.479,217.041 C15.444,217.041 14.6,216.211 14.6,215.175 C14.6,214.14 15.444,213.31 16.479,213.31 M13.667,205 L9.936,205 C1.514,205 0,207.699 0,216.108 L0,219.853 C0,228.262 1.514,231 9.936,231 L13.667,231 C22.089,231 26,228.262 26,219.853 L26,216.108 C26,207.699 22.089,205 13.667,205" id="Fill-1-Copy-2"></path>
                        </g>
                    </g>
                </g>
            </g>
        </g>
    </g>
</svg>
