<?xml version="1.0" encoding="UTF-8" standalone="no"?>
<svg width="11px" height="8px" viewBox="0 0 11 8" version="1.1" xmlns="http://www.w3.org/2000/svg" xmlns:xlink="http://www.w3.org/1999/xlink" xmlns:sketch="http://www.bohemiancoding.com/sketch/ns">
    <!-- Generator: sketchtool 3.4.4 (395) - http://www.bohemiancoding.com/sketch -->
    <title>Fill 245 Copy 7</title>
    <desc>Created with sketchtool.</desc>
    <defs></defs>
    <g id="Reports---Independent-Reading" stroke="none" stroke-width="1" fill="none" fill-rule="evenodd" sketch:type="MSPage">
        <g id="Independent-Reading---Student-(Hide-Sidebar)" sketch:type="MSArtboardGroup" transform="translate(-349.000000, -853.000000)" stroke="#FFFFFF" stroke-width="0.75" fill="#FFFFFF">
            <g id="Body" sketch:type="MSLayerGroup" transform="translate(34.000000, 121.000000)">
                <g id="Table" transform="translate(0.000000, 706.000000)" sketch:type="MSShapeGroup">
                    <g id="Table-Headers" transform="translate(7.000000, 14.000000)">
                        <g id="Triangles" transform="translate(94.000000, 13.000000)">
                            <path d="M216.919759,7.68591563 C217.079437,7.83802812 217.337841,7.83802812 217.497519,7.68591563 L222.5467,3.36672122 C222.596492,3.35070938 222.643279,3.32268866 222.683199,3.28265905 C222.768189,3.2066028 222.804675,3.10252583 222.799524,2.99844885 C222.803387,2.89477218 222.766472,2.79029491 222.68234,2.71423866 C222.64285,2.67861231 222.596921,2.65019129 222.547988,2.63017648 L217.497948,-1.68861762 C217.33827,-1.83712746 217.079866,-1.83712746 216.920188,-1.68861762 C216.76051,-1.54090838 216.76051,-1.30073075 216.920188,-1.14821795 L221.770629,2.99844885 L216.919759,7.14991921 C216.76008,7.29762845 216.76008,7.53780609 216.919759,7.68591563 Z" id="Fill-245-Copy-7" transform="translate(219.800000, 3.000000) scale(-1, 1) rotate(-270.000000) translate(-219.800000, -3.000000) "></path>
                        </g>
                    </g>
                </g>
            </g>
        </g>
    </g>
</svg>