<?xml version="1.0" encoding="UTF-8" standalone="no"?>
<svg width="11px" height="8px" viewBox="0 0 11 8" version="1.1" xmlns="http://www.w3.org/2000/svg" xmlns:xlink="http://www.w3.org/1999/xlink" xmlns:sketch="http://www.bohemiancoding.com/sketch/ns">
    <!-- Generator: sketchtool 3.4.4 (395) - http://www.bohemiancoding.com/sketch -->
    <title>Fill 245 Copy 4</title>
    <desc>Created with sketchtool.</desc>
    <defs></defs>
    <g id="Reports---Independent-Reading" stroke="none" stroke-width="1" fill="none" fill-rule="evenodd" sketch:type="MSPage">
        <g id="Independent-Reading---Student-(Hide-Sidebar)" sketch:type="MSArtboardGroup" transform="translate(-134.000000, -853.000000)" stroke="#FFFFFF" stroke-width="0.75" fill="#FFFFFF">
            <g id="Body" sketch:type="MSLayerGroup" transform="translate(34.000000, 121.000000)">
                <g id="Table" transform="translate(0.000000, 706.000000)" sketch:type="MSShapeGroup">
                    <g id="Table-Headers" transform="translate(7.000000, 14.000000)">
                        <g id="Triangles" transform="translate(94.000000, 13.000000)">
                            <path d="M1.91975868,7.68591563 C2.07943693,7.83802812 2.33784097,7.83802812 2.49751921,7.68591563 L7.54669981,3.36672122 C7.59649195,3.35070938 7.64327939,3.32268866 7.68319895,3.28265905 C7.76818898,3.2066028 7.8046746,3.10252583 7.79952369,2.99844885 C7.80338688,2.89477218 7.76647201,2.79029491 7.68234047,2.71423866 C7.64285015,2.67861231 7.59692119,2.65019129 7.54798754,2.63017648 L2.49794845,-1.68861762 C2.33827021,-1.83712746 2.07986617,-1.83712746 1.92018793,-1.68861762 C1.76050968,-1.54090838 1.76050968,-1.30073075 1.92018793,-1.14821795 L6.7706292,2.99844885 L1.91975868,7.14991921 C1.76008044,7.29762845 1.76008044,7.53780609 1.91975868,7.68591563 Z" id="Fill-245-Copy-4" transform="translate(4.800000, 3.000000) scale(-1, -1) rotate(-270.000000) translate(-4.800000, -3.000000) "></path>
                        </g>
                    </g>
                </g>
            </g>
        </g>
    </g>
</svg>