<?xml version="1.0" encoding="UTF-8" standalone="no"?>
<svg width="26px" height="19px" viewBox="0 0 26 19" version="1.1" xmlns="http://www.w3.org/2000/svg" xmlns:xlink="http://www.w3.org/1999/xlink" xmlns:sketch="http://www.bohemiancoding.com/sketch/ns">
    <!-- Generator: sketchtool 3.4.4 (395) - http://www.bohemiancoding.com/sketch -->
    <title>PDF Icon</title>
    <desc>Created with sketchtool.</desc>
    <defs></defs>
    <g id="Reports---Phonics" stroke="none" stroke-width="1" fill="none" fill-rule="evenodd" sketch:type="MSPage">
        <g id="Phonics-Proficiency---Student" sketch:type="MSArtboardGroup" transform="translate(-237.000000, -199.000000)" fill="#9B9B9B">
            <g id="Body" sketch:type="MSLayerGroup" transform="translate(237.000000, 121.000000)">
                <g id="Header" sketch:type="MSShapeGroup">
                    <g id="Tools" transform="translate(0.000000, 77.000000)">
                        <g id="PDF-Export" transform="translate(0.000000, 1.000000)">
                            <g id="PDF-Icon">
                                <path d="M23.6967103,11.3943311 L13.7206373,11.3943311 C13.3403948,11.3943311 13.028028,11.6856644 13.028028,12.0446287 C13.028028,12.403593 13.3403948,12.6949263 13.7206373,12.6949263 L23.6967103,12.6949263 L21.3903214,14.8623683 C21.1264373,15.110782 21.1264373,15.5126659 21.3903214,15.7604293 C21.6528203,16.008843 22.0822381,16.008843 22.3454296,15.7604293 L25.7461411,12.5681183 C25.7745381,12.5473088 25.8154021,12.5356034 25.8431064,12.5089412 C25.9753948,12.3827835 26.037037,12.2169576 26.037037,12.0511317 C26.037037,12.0225186 26.0301109,12.0101629 26.0301109,11.9965067 C26.0301109,11.9483847 26.0169514,11.9015632 26.0024066,11.8566927 C25.9753948,11.7558966 25.9262196,11.6596525 25.8431064,11.5803162 C25.808476,11.5530037 25.7745381,11.5393475 25.739215,11.5185379 L22.3454296,8.32882813 C22.0822381,8.08041443 21.6528203,8.08041443 21.3903214,8.32882813 C21.1264373,8.57659152 21.1264373,8.97847545 21.3903214,9.22688914 L23.6967103,11.3943311 L23.6967103,11.3943311 Z M18.8098098,14.9285714 L17.3643644,14.9285714 L17.3643644,16.2857143 C17.3643644,16.6602857 17.0391391,16.9642857 16.6416416,16.9642857 L2.18718719,16.9642857 C1.79041241,16.9642857 1.46446446,16.6602857 1.46446446,16.2857143 L1.46446446,2.71428571 C1.46446446,2.33971429 1.79041241,2.03571429 2.18718719,2.03571429 L16.6416416,2.03571429 C17.0391391,2.03571429 17.3643644,2.33971429 17.3643644,2.71428571 L17.3643644,8.82142857 L18.8098098,8.82142857 L18.8098098,2.03571429 C18.8098098,1.28589286 18.1665866,0.678571429 17.3643644,0.678571429 L1.46446446,0.678571429 C0.669469469,0.678571429 0.019019019,1.28589286 0.019019019,2.03571429 L0.019019019,16.9642857 C0.019019019,17.7134286 0.669469469,18.3214286 1.46446446,18.3214286 L17.3643644,18.3214286 C18.1665866,18.3214286 18.8098098,17.7134286 18.8098098,16.9642857 L18.8098098,14.9285714 L18.8098098,14.9285714 Z" id="Fill-229"></path>
                            </g>
                        </g>
                    </g>
                </g>
            </g>
        </g>
    </g>
</svg>