<?xml version="1.0" encoding="UTF-8" standalone="no"?>
<svg width="11px" height="11px" viewBox="0 0 11 11" version="1.1" xmlns="http://www.w3.org/2000/svg" xmlns:xlink="http://www.w3.org/1999/xlink">
    <!-- Generator: sketchtool 3.7 (28169) - http://www.bohemiancoding.com/sketch -->
    <title>Reset Icon</title>
    <desc>Created with sketchtool.</desc>
    <defs></defs>
    <g id="Documentation" stroke="none" stroke-width="1" fill="none" fill-rule="evenodd">
        <g id="Clear-Calendar-Button" transform="translate(-763.000000, -205.000000)" stroke="#9B9B9B" stroke-width="0.5" fill="#9B9B9B">
            <g id="Group-3" transform="translate(762.000000, 205.000000)">
                <g id="Reset-Icon" transform="translate(0.812422, 0.364833)">
                    <path d="M4.05884741,0.1639375 L1.14808671,0.580530887 L2.21793584,1.66311631 C1.47323742,2.44962191 1.01761822,3.433082 0.883722446,4.46223361 C0.745443621,5.52507448 0.943977901,6.63186527 1.50194928,7.60967316 C2.61784862,9.56550296 4.89645204,10.5209961 7.05222202,9.93646574 C9.20799214,9.3520067 10.7106316,7.37133829 10.7106379,5.11289953 C10.7106323,2.85460344 9.20799425,0.873863909 7.05222202,0.289333462 L6.87047158,0.979011465 C8.72133488,1.48086297 10.0056877,3.17529839 10.0056665,5.1142928 C10.0056778,7.0532158 8.7213229,8.74493616 6.87047158,9.24678766 C5.01959503,9.74863916 3.06997856,8.93224983 2.11191477,7.25299122 C1.17168549,5.60516363 1.42760822,3.54126006 2.71774955,2.16888019 L3.64302449,3.1051703 L3.74353797,2.39877283 L4.05884741,0.1639375 Z" id="Shape"></path>
                </g>
            </g>
        </g>
    </g>
</svg>