<?xml version="1.0" standalone="no"?>
<!DOCTYPE svg PUBLIC "-//W3C//DTD SVG 1.1//EN" "http://www.w3.org/Graphics/SVG/1.1/DTD/svg11.dtd" >
<svg>
<metadata>
Created by FontForge 20120731 at Fri Mar 11 04:50:42 2016
 By www-data
Please review the description of this font at http://www.monotypeimaging.com.
</metadata>
<defs>
<font id="SlatePro-Light" horiz-adv-x="500" >
  <font-face 
    font-family="Slate Pro Light"
    font-weight="300"
    font-stretch="normal"
    units-per-em="1000"
    panose-1="2 0 3 6 4 0 0 2 0 4"
    ascent="655"
    descent="-345"
    x-height="455"
    cap-height="635"
    bbox="-144 -192 995 835"
    underline-thickness="50"
    underline-position="-50"
    stemh="45"
    stemv="57"
    unicode-range="U+0020-FE6A"
  />
<missing-glyph 
d="M12 0v665h475v-665h-475zM88 618l162 -243l161 243h-323zM60 575v-484l161 242zM440 575l-162 -242l162 -243v485zM411 48l-161 242l-162 -242h323z" />
    <glyph glyph-name="fi" unicode="fi" horiz-adv-x="474" 
d="M411 613c0 -25 -20 -46 -45 -46s-45 20 -45 45s20 46 45 46s45 -20 45 -45zM394 0h-57v455h57v-455zM298 644l-12 -44s-23 13 -57 13s-54 -13 -65 -32s-14 -41 -14 -76v-50h126v-45h-126v-410h-57v410h-72v45h72v60c0 55 15 84 33 104c17 20 49 40 94 40s67 -11 78 -15z
" />
    <glyph glyph-name="fl" unicode="fl" horiz-adv-x="474" 
d="M394 0h-57v655h57v-655zM298 644l-12 -44s-23 13 -57 13s-54 -13 -65 -32s-14 -41 -14 -76v-50h126v-45h-126v-410h-57v410h-72v45h72v60c0 55 15 84 33 104c17 20 49 40 94 40s67 -11 78 -15z" />
    <glyph glyph-name="f_f" unicode="ff" horiz-adv-x="514" 
d="M298 644l-12 -44s-23 13 -57 13s-54 -13 -65 -32s-14 -41 -14 -76v-50h200v60c0 55 15 84 33 104c17 20 49 40 94 40s67 -11 78 -15l-12 -44s-23 13 -57 13s-54 -13 -65 -32s-14 -41 -14 -76v-50h126v-45h-126v-410h-57v410h-200v-410h-57v410h-72v45h72v60
c0 55 15 84 33 104c17 20 49 40 94 40s67 -11 78 -15z" />
    <glyph glyph-name="f_f_i" unicode="ffi" horiz-adv-x="731" 
d="M668 613c0 -25 -20 -46 -45 -46s-45 20 -45 45s20 46 45 46s45 -20 45 -45zM651 0h-57v455h57v-455zM298 644l-12 -44s-23 13 -57 13s-54 -13 -65 -32s-14 -41 -14 -76v-50h200v60c0 55 15 84 33 104c17 20 49 40 94 40s67 -11 78 -15l-12 -44s-23 13 -57 13
s-54 -13 -65 -32s-14 -41 -14 -76v-50h126v-45h-126v-410h-57v410h-200v-410h-57v410h-72v45h72v60c0 55 15 84 33 104c17 20 49 40 94 40s67 -11 78 -15z" />
    <glyph glyph-name="f_f_l" unicode="ffl" horiz-adv-x="731" 
d="M298 644l-12 -44s-23 13 -57 13s-54 -13 -65 -32s-14 -41 -14 -76v-50h200v60c0 55 15 84 33 104c17 20 49 40 94 40s67 -11 78 -15l-12 -44s-23 13 -57 13s-54 -13 -65 -32s-14 -41 -14 -76v-50h126v-45h-126v-410h-57v410h-200v-410h-57v410h-72v45h72v60
c0 55 15 84 33 104c17 20 49 40 94 40s67 -11 78 -15zM651 0h-57v655h57v-655z" />
    <glyph glyph-name="IJ" unicode="IJ" horiz-adv-x="485" 
d="M150 0h-60v635h60v-635zM335 -25v660h60v-645c0 -60 -15 -95 -35 -120s-55 -45 -95 -45s-65 12 -65 12l10 48s20 -10 55 -10s70 25 70 100z" />
    <glyph glyph-name="ij" unicode="ij" horiz-adv-x="434" 
d="M154 613c0 -25 -20 -46 -45 -46s-46 20 -46 45s20 46 45 46s46 -20 46 -45zM137 0h-57v455h57v-455zM371 613c0 -25 -20 -46 -45 -46s-46 20 -46 45s21 46 45 46c25 0 46 -20 46 -45zM354 455v-470c0 -44 -5 -83 -22 -110c-22 -35 -56 -50 -94 -50c-30 0 -56 10 -56 10
l5 45c12 -4 30 -7 47 -7c18 0 35 5 45 17c14 16 18 38 18 95v470h57z" />
    <glyph glyph-name="napostrophe" unicode="&#x2019;n" horiz-adv-x="550" 
d="M475 0h-57v279c0 80 -23 133 -103 133s-133 -87 -143 -137v-275h-57v455h52l5 -90c26 49 78 99 158 99s145 -45 145 -165v-299zM59 645l60 -15c0 -75 -55 -155 -105 -190l-30 25c50 50 75 105 75 180z" />
    <glyph glyph-name=".notdef" 
d="M12 0v665h475v-665h-475zM88 618l162 -243l161 243h-323zM60 575v-484l161 242zM440 575l-162 -242l162 -243v485zM411 48l-161 242l-162 -242h323z" />
    <glyph glyph-name="space" unicode=" " horiz-adv-x="177" 
 />
    <glyph glyph-name="exclam" unicode="!" horiz-adv-x="270" 
d="M168 635l-13 -460h-40l-13 460h66zM180 35c0 -25 -20 -45 -45 -45s-45 20 -45 45s20 45 45 45s45 -20 45 -45z" />
    <glyph glyph-name="quotedbl" unicode="&#x22;" horiz-adv-x="400" 
d="M305 650l-15 -215h-35l-15 215h65zM160 650l-14 -215h-36l-15 215h65z" />
    <glyph glyph-name="numbersign" unicode="#" 
d="M485 405h-113l-34 -175h107v-45h-116l-34 -180h-45l34 180h-120l-34 -180h-45l34 180h-104v45h113l34 175h-107v45h116l34 180h45l-34 -180h120l34 180h45l-34 -180h104v-45zM327 405h-120l-34 -175h120z" />
    <glyph glyph-name="dollar" unicode="$" 
d="M450 170c0 -85 -71 -159 -170 -165v-95h-45v94c-75 0 -150 41 -190 96l36 39c39 -51 94 -82 154 -85v251l-45 20c-65 29 -122 65 -122 155s81 151 167 155v75h45v-74c75 -5 132 -36 161 -77l-35 -35c-30 35 -66 60 -126 65v-239l45 -20c70 -31 125 -75 125 -160zM235 363
v225c-40 0 -113 -28 -113 -105c0 -78 63 -100 113 -120zM395 165c0 60 -35 94 -85 115l-30 13v-238c61 0 115 50 115 110z" />
    <glyph glyph-name="percent" unicode="%" horiz-adv-x="750" 
d="M690 165c0 -105 -55 -175 -135 -175s-135 70 -135 175s55 175 135 175s135 -70 135 -175zM575 645l-363 -660l-37 20l363 660zM330 485c0 -105 -55 -175 -135 -175s-135 70 -135 175s55 175 135 175s135 -70 135 -175zM640 165c0 75 -30 133 -85 133s-85 -58 -85 -133
s30 -133 85 -133s85 58 85 133zM280 485c0 75 -30 133 -85 133s-85 -58 -85 -133s30 -133 85 -133s85 58 85 133z" />
    <glyph glyph-name="ampersand" unicode="&#x26;" horiz-adv-x="610" 
d="M600 0h-70l-80 90c-18 -20 -85 -99 -210 -99s-190 79 -190 164s56 137 130 180l30 17l-17 18c-34 34 -68 84 -68 140c0 75 60 135 150 135s150 -60 150 -135s-55 -117 -110 -150l-25 -15l157 -176c25 33 58 111 63 161l50 -12c-5 -58 -51 -154 -79 -187zM373 505
c0 60 -43 97 -98 97s-95 -42 -95 -92c0 -48 25 -77 52 -105l28 -30l25 15c57 34 88 66 88 115zM415 128l-175 195l-30 -18c-55 -32 -103 -70 -103 -140s53 -123 143 -123s145 64 165 86z" />
    <glyph glyph-name="quoteright" unicode="&#x2019;" horiz-adv-x="250" 
d="M130 645l60 -15c0 -75 -55 -155 -105 -190l-30 25c50 50 75 105 75 180z" />
    <glyph glyph-name="parenleft" unicode="(" horiz-adv-x="300" 
d="M265 -110l-25 -25c-75 60 -195 195 -195 415s120 355 195 415l25 -25c-70 -70 -160 -190 -160 -390s90 -320 160 -390z" />
    <glyph glyph-name="parenright" unicode=")" horiz-adv-x="300" 
d="M255 280c0 -220 -120 -355 -195 -415l-25 25c70 70 160 190 160 390s-90 320 -160 390l25 25c75 -60 195 -195 195 -415z" />
    <glyph glyph-name="asterisk" unicode="*" horiz-adv-x="420" 
d="M360 515l-125 -33l83 -101l-35 -26l-73 105l-72 -105l-36 26l83 101l-125 33l14 43l119 -43l-6 125h46l-6 -125l119 43z" />
    <glyph glyph-name="plus" unicode="+" 
d="M450 273h-178v-178h-45v178h-177v45h177v178h45v-178h178v-45z" />
    <glyph glyph-name="comma" unicode="," horiz-adv-x="250" 
d="M112 95l61 -15c0 -75 -55 -155 -105 -190l-31 25c50 50 75 105 75 180z" />
    <glyph glyph-name="hyphen" unicode="-" horiz-adv-x="300" 
d="M255 205h-210v50h210v-50z" />
    <glyph glyph-name="period" unicode="." horiz-adv-x="250" 
d="M170 40c0 -25 -20 -45 -45 -45s-45 20 -45 45s20 45 45 45s45 -20 45 -45z" />
    <glyph glyph-name="slash" unicode="/" horiz-adv-x="375" 
d="M390 675l-365 -770l-40 20l365 770z" />
    <glyph glyph-name="zero" unicode="0" 
d="M463 318c0 -175 -68 -327 -213 -327s-213 152 -213 327s68 327 213 327s213 -152 213 -327zM403 319c0 148 -48 280 -153 280s-153 -132 -153 -280s48 -280 153 -280s153 132 153 280z" />
    <glyph glyph-name="one" unicode="1" 
d="M305 0h-57v545c-15 -12 -44 -22 -53 -25s-32 -10 -52 -13l-8 43c20 2 55 12 75 25c20 12 40 32 47 63h48v-638z" />
    <glyph glyph-name="two" unicode="2" 
d="M455 0h-410c16 149 151 240 200 281s130 104 130 184s-55 132 -135 132s-125 -52 -146 -81l-39 29c31 44 90 100 190 100s188 -65 188 -175s-98 -180 -153 -225s-148 -112 -168 -197h343v-48z" />
    <glyph glyph-name="three" unicode="3" 
d="M430 175c0 -110 -83 -184 -210 -184s-180 99 -180 99l40 30c9 -16 60 -81 145 -81s148 46 148 136s-73 136 -153 136h-50v48h50c75 0 135 46 135 121s-56 119 -126 119s-111 -40 -135 -71l-35 31c21 29 76 86 171 86s180 -60 180 -160s-81 -139 -115 -145
c51 -9 135 -55 135 -165z" />
    <glyph glyph-name="four" unicode="4" 
d="M485 155h-100v-155h-57v155h-308v45l290 435h75v-434h100v-46zM328 201v379l-249 -379h249z" />
    <glyph glyph-name="five" unicode="5" 
d="M445 200c0 -130 -95 -209 -220 -209s-181 88 -181 88l37 35c4 -6 53 -75 146 -75s161 56 161 158c0 103 -68 157 -160 157c-50 0 -88 -19 -108 -39l-41 20l56 300h305v-47h-262l-42 -213c19 11 49 25 104 25c110 0 205 -70 205 -200z" />
    <glyph glyph-name="six" unicode="6" 
d="M465 200c0 -115 -75 -209 -200 -209c-110 0 -156 68 -175 104s-40 100 -40 220s39 206 75 250s91 80 170 80s131 -34 150 -55l-31 -36c-15 15 -55 43 -115 43s-99 -22 -129 -57s-64 -100 -64 -230c21 24 69 85 174 85s185 -80 185 -195zM408 195c0 85 -43 152 -143 152
s-155 -102 -155 -102c0 -110 55 -208 155 -208s143 73 143 158z" />
    <glyph glyph-name="seven" unicode="7" 
d="M465 590l-285 -590h-60l288 588h-353v47h410v-45z" />
    <glyph glyph-name="eight" unicode="8" 
d="M460 170c0 -115 -90 -179 -210 -179s-210 64 -210 179s100 155 137 170c-27 10 -112 47 -112 147s85 158 185 158s185 -57 185 -157s-85 -138 -113 -148c38 -15 138 -55 138 -170zM380 487c0 75 -60 113 -130 113s-130 -37 -130 -112s80 -118 150 -128
c60 15 110 52 110 127zM402 172c0 88 -92 133 -172 148c-65 -20 -132 -60 -132 -147c0 -88 67 -136 152 -136s152 48 152 135z" />
    <glyph glyph-name="nine" unicode="9" 
d="M450 320c0 -115 -39 -205 -75 -249s-90 -80 -170 -80s-131 33 -155 59l33 39c20 -20 57 -50 117 -50s100 21 130 56s64 100 64 231c-21 -26 -69 -87 -174 -87s-185 82 -185 197s75 209 200 209c110 0 156 -69 175 -105s40 -105 40 -220zM390 390c0 111 -55 209 -155 209
s-143 -71 -143 -156s43 -156 143 -156s155 103 155 103z" />
    <glyph glyph-name="colon" unicode=":" horiz-adv-x="250" 
d="M175 410c0 -25 -20 -45 -45 -45s-45 20 -45 45s20 45 45 45s45 -20 45 -45zM170 40c0 -25 -20 -45 -45 -45s-45 20 -45 45s20 45 45 45s45 -20 45 -45z" />
    <glyph glyph-name="semicolon" unicode=";" horiz-adv-x="250" 
d="M175 410c0 -25 -20 -45 -45 -45s-45 20 -45 45s20 45 45 45s45 -20 45 -45zM112 95l61 -15c0 -75 -55 -155 -105 -190l-31 25c50 50 75 105 75 180z" />
    <glyph glyph-name="less" unicode="&#x3c;" 
d="M450 94l-400 179v45l400 179v-52l-345 -149l345 -150v-52z" />
    <glyph glyph-name="equal" unicode="=" 
d="M450 358l-400 -1v46h400v-45zM450 188h-400v46h400v-46z" />
    <glyph glyph-name="greater" unicode="&#x3e;" 
d="M450 273l-400 -179v52l345 149l-345 150v52l400 -179v-45z" />
    <glyph glyph-name="question" unicode="?" horiz-adv-x="420" 
d="M375 500c0 -80 -55 -130 -80 -155s-76 -65 -78 -120l-2 -50h-45v25c0 35 -1 61 14 91s41 54 61 74s75 65 75 125s-45 107 -115 107s-110 -47 -125 -67l-35 30c24 36 72 85 167 85s163 -65 163 -145zM238 35c0 -25 -20 -45 -45 -45s-46 20 -46 45s20 45 45 45
s46 -20 46 -45z" />
    <glyph glyph-name="at" unicode="@" horiz-adv-x="810" 
d="M750 295c0 -175 -115 -260 -190 -260s-93 43 -93 73c0 0 -42 -73 -122 -73s-125 55 -125 145s40 165 80 205s80 55 130 55s85 -25 95 -45l15 35h45l-65 -260c-4 -15 -6 -28 -6 -40c0 -31 15 -50 51 -50c50 0 140 75 140 215s-110 255 -280 255s-315 -135 -315 -325
s125 -298 295 -298s240 63 240 63l20 -35s-75 -73 -265 -73s-340 122 -340 345s180 368 365 368s325 -125 325 -300zM507 330c-2 35 -32 65 -77 65s-75 -20 -100 -50s-55 -90 -55 -165s40 -98 80 -98s101 42 117 108z" />
    <glyph glyph-name="A" unicode="A" horiz-adv-x="550" 
d="M550 0h-65l-65 178h-295l-65 -178h-60l242 635h65zM402 228l-129 352l-130 -352h259z" />
    <glyph glyph-name="B" unicode="B" horiz-adv-x="555" 
d="M510 180c0 -61 -27 -110 -70 -140c-42 -30 -100 -40 -165 -40h-185v635h170c50 0 109 -3 144 -28s64 -62 64 -122c0 -61 -38 -120 -113 -140v-2c95 -13 155 -73 155 -163zM407 475c0 50 -23 81 -49 95s-65 15 -105 15h-103v-225h102c40 0 81 4 105 20s50 45 50 95z
M448 180c0 55 -29 89 -53 105s-60 25 -110 25h-135v-260h135c50 0 86 9 110 25s53 50 53 105z" />
    <glyph glyph-name="C" unicode="C" horiz-adv-x="600" 
d="M566 520l-45 -35s-47 105 -182 105s-227 -112 -227 -272s87 -272 223 -272s193 109 193 109l42 -35s-65 -129 -235 -129s-285 127 -285 327s130 326 290 326s221 -114 226 -124z" />
    <glyph glyph-name="D" unicode="D" horiz-adv-x="640" 
d="M590 318c0 -108 -40 -188 -90 -238s-115 -80 -210 -80h-200v635h200c95 0 160 -30 210 -80s90 -130 90 -237zM528 317c0 83 -28 158 -73 203s-100 65 -165 65h-140v-535h140c65 0 120 20 165 65s73 120 73 202z" />
    <glyph glyph-name="E" unicode="E" horiz-adv-x="510" 
d="M465 0h-375v635h365v-49h-305v-221h285v-50h-285v-264h315v-51z" />
    <glyph glyph-name="F" unicode="F" horiz-adv-x="465" 
d="M435 586h-285v-236h260v-50h-260v-300h-60v635h345v-49z" />
    <glyph glyph-name="G" unicode="G" horiz-adv-x="655" 
d="M585 0h-43l-8 80s-64 -89 -204 -89c-165 0 -280 127 -280 327s130 326 290 326s225 -119 225 -119l-45 -35s-46 100 -181 100s-227 -112 -227 -272s87 -272 223 -272s191 94 191 94v125h-176v50h235v-315z" />
    <glyph glyph-name="H" unicode="H" horiz-adv-x="665" 
d="M575 0h-60v315h-365v-315h-60v635h60v-270h365v270h60v-635z" />
    <glyph glyph-name="I" unicode="I" horiz-adv-x="240" 
d="M150 0h-60v635h60v-635z" />
    <glyph glyph-name="J" unicode="J" horiz-adv-x="245" 
d="M95 -25v660h60v-645c0 -60 -15 -95 -35 -120s-55 -45 -95 -45s-65 12 -65 12l10 48s20 -10 55 -10s70 25 70 100z" />
    <glyph glyph-name="K" unicode="K" horiz-adv-x="535" 
d="M525 0h-72l-221 333l-82 -88v-245h-60v635h60v-320l292 320h73l-244 -261z" />
    <glyph glyph-name="L" unicode="L" horiz-adv-x="425" 
d="M415 0h-325v635h60v-584h265v-51z" />
    <glyph glyph-name="M" unicode="M" horiz-adv-x="785" 
d="M710 0h-62l-18 570l-215 -570h-50l-215 570l-17 -570h-58l25 635h85l207 -555l208 555h85z" />
    <glyph glyph-name="N" unicode="N" horiz-adv-x="660" 
d="M570 0h-55l-370 560v-560h-55v635h72l353 -535v535h55v-635z" />
    <glyph glyph-name="O" unicode="O" horiz-adv-x="695" 
d="M645 318c0 -188 -117 -327 -297 -327s-298 139 -298 326c0 188 117 327 297 327s298 -139 298 -326zM583 318c0 160 -93 273 -235 273c-143 0 -236 -113 -236 -273s93 -273 235 -273c143 0 236 113 236 273z" />
    <glyph glyph-name="P" unicode="P" horiz-adv-x="520" 
d="M475 443c0 -63 -20 -113 -60 -145c-40 -33 -90 -48 -150 -48h-115v-250h-60v635h175c60 0 110 -15 150 -47c40 -33 60 -83 60 -145zM415 443c0 57 -21 91 -50 112s-60 30 -115 30h-100v-285h100c55 0 86 9 115 30s50 55 50 113z" />
    <glyph glyph-name="Q" unicode="Q" horiz-adv-x="695" 
d="M645 318c0 -188 -110 -274 -176 -303c5 -40 36 -85 86 -110l-39 -41c-50 20 -93 74 -104 134c0 0 -32 -7 -64 -7c-180 0 -298 139 -298 326c0 188 117 327 297 327s298 -139 298 -326zM583 318c0 160 -93 273 -235 273c-143 0 -236 -113 -236 -273s93 -273 235 -273
c143 0 236 113 236 273z" />
    <glyph glyph-name="R" unicode="R" horiz-adv-x="545" 
d="M515 0h-72l-183 275h-110v-275h-60v635h185c120 0 203 -75 203 -180s-83 -162 -151 -175zM418 455c0 45 -23 85 -53 105s-60 25 -110 25h-105v-260h105c50 0 80 5 110 25s53 60 53 105z" />
    <glyph glyph-name="S" unicode="S" horiz-adv-x="486" 
d="M445 170c0 -101 -80 -179 -213 -179c-132 0 -197 94 -203 105l41 37c6 -9 64 -91 164 -91s153 53 153 123s-61 96 -92 110s-115 46 -135 55s-104 48 -104 150s85 165 195 165s172 -70 186 -91l-37 -39c-14 21 -69 80 -149 80s-138 -40 -138 -110s61 -96 92 -110
s115 -46 135 -55s105 -49 105 -150z" />
    <glyph glyph-name="T" unicode="T" horiz-adv-x="480" 
d="M470 585h-200v-585h-60v585h-200v50h460v-50z" />
    <glyph glyph-name="U" unicode="U" horiz-adv-x="615" 
d="M475 245v390h60v-385c0 -75 -5 -135 -45 -185s-97 -74 -182 -74s-143 24 -183 74s-45 110 -45 185v385h60v-390c0 -75 5 -105 30 -140s65 -59 137 -59c73 0 113 24 138 59s30 65 30 140z" />
    <glyph glyph-name="V" unicode="V" horiz-adv-x="540" 
d="M530 635l-230 -635h-60l-230 635h65l197 -570l198 570h60z" />
    <glyph glyph-name="W" unicode="W" horiz-adv-x="840" 
d="M815 635l-165 -635h-70l-160 565l-160 -565h-70l-165 635h62l140 -565l160 565h70l160 -565l140 565h58z" />
    <glyph glyph-name="X" unicode="X" horiz-adv-x="520" 
d="M505 0h-70l-175 285l-175 -285h-70l210 325l-195 310h70l160 -270l160 270h70l-195 -310z" />
    <glyph glyph-name="Y" unicode="Y" horiz-adv-x="515" 
d="M505 635l-217 -370v-265h-60v265l-218 370h67l183 -320l182 320h63z" />
    <glyph glyph-name="Z" unicode="Z" horiz-adv-x="525" 
d="M490 0h-455v46l375 540h-365v49h435v-45l-375 -539h385v-51z" />
    <glyph glyph-name="bracketleft" unicode="[" horiz-adv-x="300" 
d="M260 -135h-175v815h175v-40h-122v-735h122v-40z" />
    <glyph glyph-name="backslash" unicode="\" horiz-adv-x="375" 
d="M390 -75l-40 -20l-365 770l40 20z" />
    <glyph glyph-name="bracketright" unicode="]" horiz-adv-x="300" 
d="M215 -135h-175v40h122v735h-122v40h175v-815z" />
    <glyph glyph-name="asciicircum" unicode="^" 
d="M450 315h-50l-150 280l-150 -280h-50l175 320h50z" />
    <glyph glyph-name="underscore" unicode="_" 
d="M500 -130h-500v45h500v-45z" />
    <glyph glyph-name="quoteleft" unicode="&#x2018;" horiz-adv-x="250" 
d="M165 650l30 -25c-50 -50 -75 -105 -75 -180l-60 15c0 75 55 155 105 190z" />
    <glyph glyph-name="a" unicode="a" horiz-adv-x="450" 
d="M405 0h-65s-10 30 -10 60c-27 -35 -75 -69 -150 -69s-140 44 -140 137s80 123 115 133s96 19 173 19v35c0 75 -53 102 -113 102s-109 -22 -135 -41l-23 44c34 21 90 44 155 44s104 -19 128 -40s45 -54 45 -124v-210c0 -45 10 -70 20 -90zM328 120v116
c-25 0 -89 -5 -118 -10s-110 -21 -110 -96s55 -94 95 -94s103 24 133 84z" />
    <glyph glyph-name="b" unicode="b" horiz-adv-x="530" 
d="M490 228c0 -135 -85 -237 -205 -237c-95 0 -137 65 -148 84l-10 -75h-47v655h57v-280c5 10 53 89 158 89c120 0 195 -101 195 -236zM430 228c0 102 -55 189 -145 189s-150 -86 -150 -189c0 -102 55 -189 145 -189s150 86 150 189z" />
    <glyph glyph-name="c" unicode="c" horiz-adv-x="437" 
d="M376 114l38 -33c-4 -6 -57 -91 -174 -91s-200 97 -200 237s90 237 210 237s163 -90 163 -90l-40 -30s-36 71 -121 71s-153 -65 -153 -187s68 -187 148 -187s123 64 129 73z" />
    <glyph glyph-name="d" unicode="d" horiz-adv-x="530" 
d="M450 0h-47l-10 75s-44 -84 -159 -84c-120 0 -194 102 -194 237s85 236 205 236c105 0 143 -79 148 -89v280h57v-655zM395 228c0 102 -55 189 -145 189s-150 -86 -150 -189c0 -102 55 -189 145 -189s150 86 150 189z" />
    <glyph glyph-name="e" unicode="e" horiz-adv-x="468" 
d="M433 220h-333c0 -105 54 -179 150 -179s145 54 145 54l28 -39s-58 -65 -178 -65s-205 89 -205 236c0 148 90 237 205 237s188 -89 188 -214v-30zM375 265c0 75 -35 152 -132 152c-98 0 -138 -87 -143 -152h275z" />
    <glyph glyph-name="f" unicode="f" horiz-adv-x="257" 
d="M298 644l-12 -44s-23 13 -57 13s-54 -13 -65 -32s-14 -41 -14 -76v-50h126v-45h-126v-410h-57v410h-72v45h72v60c0 55 15 84 33 104c17 20 49 40 94 40s67 -11 78 -15z" />
    <glyph glyph-name="g" unicode="g" horiz-adv-x="525" 
d="M445 80c0 -100 -15 -145 -40 -180s-80 -75 -175 -75s-157 43 -167 53l28 43c10 -10 71 -46 139 -46s107 25 126 49s32 66 32 131v40c-3 -6 -43 -90 -158 -90s-190 95 -190 230s90 229 200 229s144 -78 148 -89l10 80h47v-375zM390 235c0 100 -55 182 -142 182
c-88 0 -148 -82 -148 -182s55 -182 142 -182c88 0 148 82 148 182z" />
    <glyph glyph-name="h" unicode="h" horiz-adv-x="515" 
d="M440 0h-57v279c0 80 -23 133 -103 133s-133 -87 -143 -137v-275h-57v655h57v-290c26 49 78 99 158 99s145 -45 145 -165v-299z" />
    <glyph glyph-name="i" unicode="i" horiz-adv-x="217" 
d="M154 613c0 -25 -20 -46 -45 -46s-46 20 -46 45s20 46 45 46s46 -20 46 -45zM137 0h-57v455h57v-455z" />
    <glyph glyph-name="j" unicode="j" horiz-adv-x="222" 
d="M159 613c0 -25 -20 -46 -45 -46s-46 20 -46 45s21 46 45 46c25 0 46 -20 46 -45zM142 455v-470c0 -44 -5 -83 -22 -110c-22 -35 -56 -50 -94 -50c-30 0 -56 10 -56 10l5 45c12 -4 30 -7 47 -7c18 0 35 5 45 17c14 16 18 38 18 95v470h57z" />
    <glyph glyph-name="k" unicode="k" horiz-adv-x="455" 
d="M445 0h-70l-173 235l-65 -62v-173h-57v655h57v-420l218 220h75l-190 -183z" />
    <glyph glyph-name="l" unicode="l" horiz-adv-x="217" 
d="M137 0h-57v655h57v-655z" />
    <glyph glyph-name="m" unicode="m" horiz-adv-x="778" 
d="M703 0h-57v295c0 65 -13 117 -90 117c-78 0 -131 -102 -136 -137v-275h-57v295c0 65 -13 117 -90 117c-78 0 -131 -102 -136 -137v-275h-57v455h52l5 -90c26 54 88 99 150 99c63 0 113 -30 128 -105c30 60 93 105 155 105c63 0 133 -34 133 -154v-310z" />
    <glyph glyph-name="n" unicode="n" horiz-adv-x="515" 
d="M440 0h-57v279c0 80 -23 133 -103 133s-133 -87 -143 -137v-275h-57v455h52l5 -90c26 49 78 99 158 99s145 -45 145 -165v-299z" />
    <glyph glyph-name="o" unicode="o" 
d="M460 228c0 -143 -85 -237 -210 -237s-210 94 -210 236c0 143 85 237 210 237s210 -94 210 -236zM400 228c0 112 -55 188 -150 188s-150 -76 -150 -188c0 -113 55 -189 150 -189s150 76 150 189z" />
    <glyph glyph-name="p" unicode="p" horiz-adv-x="530" 
d="M490 228c0 -135 -85 -237 -205 -237c-95 0 -137 65 -148 84v-245h-57v625h52l5 -80c5 10 53 89 158 89c120 0 195 -101 195 -236zM430 228c0 102 -55 189 -145 189s-150 -86 -150 -189c0 -102 55 -189 145 -189s150 86 150 189z" />
    <glyph glyph-name="q" unicode="q" horiz-adv-x="530" 
d="M450 -170h-57v245s-44 -84 -159 -84c-120 0 -194 102 -194 237s85 236 205 236c105 0 143 -79 148 -89l10 80h47v-625zM395 228c0 102 -55 189 -145 189s-150 -86 -150 -189c0 -102 55 -189 145 -189s150 86 150 189z" />
    <glyph glyph-name="r" unicode="r" horiz-adv-x="325" 
d="M315 460l-10 -58s-10 6 -30 6s-44 -4 -70 -23s-59 -59 -68 -115v-270h-57v455h52l5 -95c25 55 78 105 143 105c20 0 35 -5 35 -5z" />
    <glyph glyph-name="s" unicode="s" horiz-adv-x="390" 
d="M355 124c0 -75 -61 -133 -161 -133s-159 67 -169 82l37 35c20 -25 68 -69 133 -69s105 29 105 78s-46 66 -72 76s-72 24 -93 33s-88 38 -88 113s65 126 155 126s144 -54 148 -60l-30 -40c-19 21 -64 53 -120 53s-100 -24 -100 -73s46 -64 75 -75s60 -20 85 -30
s95 -41 95 -116z" />
    <glyph glyph-name="t" unicode="t" horiz-adv-x="300" 
d="M285 410h-134v-265c0 -55 7 -76 22 -90c16 -14 35 -17 55 -17s44 7 44 7l8 -45c-15 -5 -45 -10 -70 -10c-35 0 -65 10 -87 35c-23 25 -29 60 -29 120v265h-69v45h69l8 130h49v-130h134v-45z" />
    <glyph glyph-name="u" unicode="u" horiz-adv-x="510" 
d="M430 0h-52l-5 90c-26 -49 -78 -99 -153 -99s-145 39 -145 164v300h57v-285c0 -80 28 -127 100 -127c73 0 131 77 141 134v278h57v-455z" />
    <glyph glyph-name="v" unicode="v" horiz-adv-x="430" 
d="M420 455l-175 -455h-60l-175 455h60l145 -400l145 400h60z" />
    <glyph glyph-name="w" unicode="w" horiz-adv-x="660" 
d="M640 455l-132 -455h-60l-118 390l-117 -390h-60l-133 455h57l108 -385l112 385h66l112 -385l107 385h58z" />
    <glyph glyph-name="x" unicode="x" horiz-adv-x="415" 
d="M410 0h-67l-138 200l-137 -200h-63l170 235l-160 220h68l127 -185l127 185h63l-160 -220z" />
    <glyph glyph-name="y" unicode="y" horiz-adv-x="435" 
d="M425 455l-215 -550c-19 -50 -50 -80 -95 -80s-70 18 -70 18l15 45s25 -13 50 -13s37 10 55 55l28 70l-178 455h60l145 -400l145 400h60z" />
    <glyph glyph-name="z" unicode="z" horiz-adv-x="405" 
d="M380 0h-355v40l278 370h-268v45h335v-37l-278 -370h288v-48z" />
    <glyph glyph-name="braceleft" unicode="{" horiz-adv-x="300" 
d="M265 -98l-6 -40l-59 10c-75 13 -90 50 -93 125l-5 140c-3 75 -12 115 -72 115h-15v43h15c60 0 69 40 72 115l5 140c3 75 18 112 93 125l59 10l6 -40l-55 -10c-45 -8 -49 -35 -50 -80l-5 -155c-2 -75 -30 -120 -90 -125v-3c60 -5 88 -50 90 -124l5 -155
c1 -45 5 -73 50 -81z" />
    <glyph glyph-name="bar" unicode="|" horiz-adv-x="250" 
d="M148 -135h-46v815h46v-815z" />
    <glyph glyph-name="braceright" unicode="}" horiz-adv-x="300" 
d="M285 252h-15c-60 0 -69 -40 -72 -115l-5 -140c-3 -75 -18 -112 -93 -125l-59 -10l-6 40l55 10c45 8 49 35 50 80l5 155c2 75 30 120 90 125v3c-60 5 -88 50 -90 124l-5 155c-1 45 -5 73 -50 81l-55 10l6 40l59 -10c75 -13 90 -50 93 -125l5 -140c3 -75 12 -115 72 -115
h15v-43z" />
    <glyph glyph-name="asciitilde" unicode="~" 
d="M430 363l40 -15c-20 -90 -75 -125 -125 -125s-79 26 -110 55s-47 45 -82 45s-68 -30 -83 -95l-40 15c20 90 75 125 125 125s79 -26 110 -55s47 -45 82 -45s68 30 83 95z" />
    <glyph glyph-name="exclamdown" unicode="&#xa1;" horiz-adv-x="270" 
d="M180 420c0 -25 -20 -45 -45 -45s-45 20 -45 45s20 45 45 45s45 -20 45 -45zM168 -180h-66l13 460h40z" />
    <glyph glyph-name="cent" unicode="&#xa2;" 
d="M445 165c0 0 -44 -70 -150 -79v-97h-45v97c-110 10 -190 91 -190 231s86 220 190 231v97h45v-97c105 -7 150 -78 150 -78l-35 -35s-39 62 -115 66v-366c80 5 115 65 115 65zM250 135v366c-80 -10 -133 -76 -133 -183s52 -174 133 -183z" />
    <glyph glyph-name="sterling" unicode="&#xa3;" 
d="M470 0h-410v35l75 13c25 25 53 92 53 147s-14 86 -20 105h-98v40h84l-9 25c-8 22 -20 60 -20 110s21 96 56 126s84 44 129 44s115 -19 155 -85l-40 -30s-36 69 -120 69s-123 -64 -123 -119s14 -95 20 -113l9 -27h179v-40h-165c6 -19 19 -50 19 -105s-29 -117 -54 -147
h280v-48z" />
    <glyph glyph-name="fraction" unicode="&#x2044;" horiz-adv-x="112" 
d="M256 645l-363 -660l-37 20l363 660z" />
    <glyph glyph-name="yen" unicode="&#xa5;" 
d="M468 635l-157 -295h132v-40h-151l-15 -27v-58h166v-40h-165v-175h-55v175h-166v40h166v57l-14 28h-152v40h132l-157 295h63l155 -310l155 310h63z" />
    <glyph glyph-name="florin" unicode="&#x192;" 
d="M478 641l-15 -45s-28 18 -69 18c-56 0 -79 -38 -91 -103l-23 -131h120v-40h-127l-63 -360c-8 -44 -18 -79 -42 -110s-60 -45 -95 -45s-64 16 -71 20l19 44s21 -15 56 -15s65 28 78 101l63 365h-98v40h105l22 126c12 68 32 105 63 129c20 15 50 26 85 26s65 -10 83 -20z
" />
    <glyph glyph-name="section" unicode="&#xa7;" 
d="M453 250c0 -85 -63 -122 -63 -122s33 -30 33 -83c0 -100 -83 -158 -188 -158s-170 58 -190 83l35 40c24 -26 75 -75 155 -75s135 42 135 102s-65 80 -80 85l-130 45c-15 5 -98 43 -98 128s63 122 63 122s-33 23 -33 83c0 90 78 144 178 144s152 -44 173 -64l-30 -40
c-25 25 -78 57 -143 57s-125 -29 -125 -92c0 -62 65 -77 80 -82l130 -45c15 -5 98 -43 98 -128zM400 237c0 60 -50 84 -90 98l-87 30c-28 10 -43 15 -63 25c0 0 -45 -22 -45 -82s50 -84 90 -98l87 -30c28 -10 43 -15 63 -25c0 0 45 22 45 82z" />
    <glyph glyph-name="currency" unicode="&#xa4;" 
d="M463 138l-33 -33l-81 82c-9 -9 -49 -34 -99 -34s-90 24 -99 34l-81 -82l-33 33l82 81c-9 9 -34 49 -34 99s24 90 34 99l-82 81l33 33l81 -82c9 9 49 34 99 34s90 -24 99 -34l81 82l33 -33l-82 -81c9 -9 34 -49 34 -99s-24 -90 -34 -99zM370 318c0 66 -54 120 -120 120
s-120 -54 -120 -120s54 -120 120 -120s120 54 120 120z" />
    <glyph glyph-name="quotesingle" unicode="'" horiz-adv-x="250" 
d="M158 650l-15 -215h-35l-16 215h66z" />
    <glyph glyph-name="quotedblleft" unicode="&#x201c;" horiz-adv-x="400" 
d="M345 625c-50 -50 -75 -105 -75 -180l-60 15c0 75 55 155 105 190zM195 625c-50 -50 -75 -105 -75 -180l-60 15c0 75 55 155 105 190z" />
    <glyph glyph-name="guillemotleft" unicode="&#xab;" horiz-adv-x="450" 
d="M396 87l-36 -30l-135 168v35l135 168l36 -29l-126 -156zM221 87l-36 -30l-135 168v35l135 168l36 -29l-126 -156z" />
    <glyph glyph-name="guilsinglleft" unicode="&#x2039;" horiz-adv-x="275" 
d="M221 87l-36 -30l-135 168v35l135 168l36 -29l-126 -156z" />
    <glyph glyph-name="guilsinglright" unicode="&#x203a;" horiz-adv-x="275" 
d="M225 225l-135 -168l-36 29l126 156l-126 156l36 30l135 -168v-35z" />
    <glyph glyph-name="endash" unicode="&#x2013;" horiz-adv-x="485" 
d="M448 207h-411v46h411v-46z" />
    <glyph glyph-name="dagger" unicode="&#x2020;" 
d="M455 408l-188 10l11 -218l-15 -325h-30l-11 325l11 218l-188 -11v51l188 -11l-11 223h56l-11 -223l188 11v-50z" />
    <glyph glyph-name="daggerdbl" unicode="&#x2021;" 
d="M455 78l-188 10l11 -223h-56l11 223l-188 -11v51l188 -11l-8 150l8 151l-188 -11v51l188 -11l-11 223h56l-11 -223l188 11v-51l-188 11l8 -150l-8 -151l188 11v-50z" />
    <glyph glyph-name="periodcentered" unicode="&#xb7;" horiz-adv-x="250" 
d="M170 280c0 -25 -20 -45 -45 -45s-45 20 -45 45s20 45 45 45s45 -20 45 -45z" />
    <glyph glyph-name="paragraph" unicode="&#xb6;" 
d="M460 595h-55v-730h-45v730h-65v-405h-15c-150 0 -235 90 -235 222c0 133 85 223 235 223h180v-40z" />
    <glyph glyph-name="bullet" unicode="&#x2022;" 
d="M363 315c0 -62 -50 -113 -112 -113c-63 0 -114 50 -114 113c0 62 50 113 112 113c63 0 114 -50 114 -113z" />
    <glyph glyph-name="quotesinglbase" unicode="&#x201a;" horiz-adv-x="250" 
d="M114 95l61 -15c0 -75 -55 -155 -105 -190l-31 25c50 50 75 105 75 180z" />
    <glyph glyph-name="quotedblbase" unicode="&#x201e;" horiz-adv-x="400" 
d="M264 95l61 -15c0 -75 -55 -155 -105 -190l-31 25c50 50 75 105 75 180zM114 95l61 -15c0 -75 -55 -155 -105 -190l-31 25c50 50 75 105 75 180z" />
    <glyph glyph-name="quotedblright" unicode="&#x201d;" horiz-adv-x="400" 
d="M340 630c0 -75 -55 -155 -105 -190l-30 25c50 50 75 105 75 180zM190 630c0 -75 -55 -155 -105 -190l-30 25c50 50 75 105 75 180z" />
    <glyph glyph-name="guillemotright" unicode="&#xbb;" horiz-adv-x="450" 
d="M400 225l-135 -168l-36 29l126 156l-126 156l36 30l135 -168v-35zM225 225l-135 -168l-36 29l126 156l-126 156l36 30l135 -168v-35z" />
    <glyph glyph-name="ellipsis" unicode="&#x2026;" horiz-adv-x="750" 
d="M670 40c0 -25 -20 -45 -45 -45s-45 20 -45 45s20 45 45 45s45 -20 45 -45zM420 40c0 -25 -20 -45 -45 -45s-45 20 -45 45s20 45 45 45s45 -20 45 -45zM170 40c0 -25 -20 -45 -45 -45s-45 20 -45 45s20 45 45 45s45 -20 45 -45z" />
    <glyph glyph-name="perthousand" unicode="&#x2030;" horiz-adv-x="1050" 
d="M990 165c0 -105 -55 -175 -135 -175s-135 70 -135 175s55 175 135 175s135 -70 135 -175zM680 165c0 -105 -55 -175 -135 -175s-135 70 -135 175s55 175 135 175s135 -70 135 -175zM570 645l-363 -660l-37 20l363 660zM330 485c0 -105 -55 -175 -135 -175
s-135 70 -135 175s55 175 135 175s135 -70 135 -175zM940 165c0 75 -30 133 -85 133s-85 -58 -85 -133s30 -133 85 -133s85 58 85 133zM630 165c0 75 -30 133 -85 133s-85 -58 -85 -133s30 -133 85 -133s85 58 85 133zM280 485c0 75 -30 133 -85 133s-85 -58 -85 -133
s30 -133 85 -133s85 58 85 133z" />
    <glyph glyph-name="questiondown" unicode="&#xbf;" horiz-adv-x="420" 
d="M273 420c0 -25 -21 -45 -45 -45c-25 0 -46 20 -46 45s20 45 45 45s46 -20 46 -45zM375 -105c-24 -36 -72 -85 -167 -85s-163 65 -163 145s55 130 80 155s76 65 78 120l2 50h45v-25c0 -35 1 -61 -14 -91s-41 -54 -61 -74s-75 -65 -75 -125s45 -107 115 -107s110 47 125 67
z" />
    <glyph glyph-name="grave" unicode="`" horiz-adv-x="375" 
d="M255 510h-45l-90 125h70z" />
    <glyph glyph-name="acute" unicode="&#xb4;" horiz-adv-x="375" 
d="M255 635l-90 -125h-45l65 125h70z" />
    <glyph glyph-name="circumflex" unicode="&#x2c6;" horiz-adv-x="375" 
d="M300 510h-45l-67 90l-68 -90h-45l80 125h65z" />
    <glyph glyph-name="tilde" unicode="&#x2dc;" horiz-adv-x="375" 
d="M287 620l35 -5c0 -50 -35 -90 -75 -90s-62 22 -77 32c-15 11 -28 21 -43 21s-35 -13 -40 -53l-35 5c0 50 35 90 75 90s62 -22 77 -32c15 -11 28 -21 43 -21s35 13 40 53z" />
    <glyph glyph-name="macron" unicode="&#xaf;" horiz-adv-x="375" 
d="M315 550h-255v45h255v-45z" />
    <glyph glyph-name="breve" unicode="&#x2d8;" horiz-adv-x="375" 
d="M280 635l35 -10c-15 -70 -55 -115 -127 -115c-73 0 -113 45 -128 115l35 10c15 -50 42 -80 92 -80s78 30 93 80z" />
    <glyph glyph-name="dotaccent" unicode="&#x2d9;" horiz-adv-x="375" 
d="M238 573c0 -28 -23 -51 -50 -51c-28 0 -51 23 -51 50c0 28 23 51 50 51c28 0 51 -23 51 -50z" />
    <glyph glyph-name="dieresis" unicode="&#xa8;" horiz-adv-x="375" 
d="M303 573c0 -23 -18 -43 -43 -43s-43 20 -43 42c0 23 18 43 43 43s43 -20 43 -42zM158 573c0 -23 -18 -43 -43 -43s-43 20 -43 42c0 23 18 43 43 43s43 -20 43 -42z" />
    <glyph glyph-name="ring" unicode="&#x2da;" horiz-adv-x="375" 
d="M265 573c0 -44 -34 -78 -78 -78s-78 33 -78 77s34 78 78 78s78 -33 78 -77zM232 573c0 24 -20 45 -45 45s-45 -20 -45 -45s20 -46 45 -46s45 20 45 46z" />
    <glyph glyph-name="cedilla" unicode="&#xb8;" horiz-adv-x="375" 
d="M230 0l-60 -125h-65l80 125h45z" />
    <glyph glyph-name="hungarumlaut" unicode="&#x2dd;" horiz-adv-x="375" 
d="M358 635l-90 -125h-46l65 125h71zM232 635l-89 -125h-46l65 125h70z" />
    <glyph glyph-name="ogonek" unicode="&#x2db;" horiz-adv-x="375" 
d="M357 -120l15 -25s-35 -40 -90 -40s-95 30 -95 90s55 95 55 95h40c-16 -14 -45 -45 -45 -85s25 -55 55 -55s54 11 65 20z" />
    <glyph glyph-name="caron" unicode="&#x2c7;" horiz-adv-x="375" 
d="M300 635l-80 -125h-65l-80 125h45l67 -90l68 90h45z" />
    <glyph glyph-name="emdash" unicode="&#x2014;" horiz-adv-x="775" 
d="M735 207h-695v46h695v-46z" />
    <glyph glyph-name="AE" unicode="&#xc6;" horiz-adv-x="800" 
d="M755 0h-355v200h-255l-120 -200h-65l392 635h393v-49h-285v-221h265v-50h-265v-264h295v-51zM400 250v336h-23l-202 -336h225z" />
    <glyph glyph-name="ordfeminine" unicode="&#xaa;" horiz-adv-x="350" 
d="M310 307h-55s-10 23 -10 43c-14 -21 -50 -50 -105 -50s-105 30 -105 100s65 92 95 100c30 7 85 13 115 13v22c0 50 -35 70 -85 70s-90 -25 -96 -29l-17 36c14 11 63 32 113 32s80 -11 100 -29s35 -45 35 -95v-143c0 -35 10 -60 15 -70zM245 400v78c-24 0 -59 -4 -80 -8
s-78 -15 -78 -67c0 -53 43 -63 73 -63s75 25 85 60z" />
    <glyph glyph-name="Lslash" unicode="&#x141;" horiz-adv-x="425" 
d="M415 0h-325v263l-60 -33v50l60 32v323h60v-290l120 65v-50l-120 -65v-244h265v-51z" />
    <glyph glyph-name="Oslash" unicode="&#xd8;" horiz-adv-x="695" 
d="M645 318c0 -188 -117 -327 -297 -327c-71 0 -132 21 -180 58l-68 -87l-35 28l70 89c-54 59 -85 142 -85 238c0 188 117 327 297 327c73 0 136 -23 184 -62l64 81l35 -28l-66 -84c52 -58 81 -140 81 -233zM583 318c0 74 -20 139 -56 186l-323 -410c38 -31 87 -49 143 -49
c143 0 236 113 236 273zM496 537c-39 34 -89 54 -148 54c-143 0 -236 -113 -236 -273c0 -77 22 -144 61 -192z" />
    <glyph glyph-name="OE" unicode="&#x152;" horiz-adv-x="905" 
d="M860 0h-355v40c-10 -10 -60 -49 -160 -49c-175 0 -295 139 -295 326c0 188 120 327 295 327c100 0 150 -39 160 -49v40h345v-49h-285v-221h265v-50h-265v-264h295v-51zM505 105v425s-50 61 -160 61c-135 0 -233 -108 -233 -273s98 -273 233 -273c110 0 160 60 160 60z
" />
    <glyph glyph-name="ordmasculine" unicode="&#xba;" horiz-adv-x="385" 
d="M350 472c0 -100 -62 -172 -157 -172s-158 72 -158 172s62 172 157 172s158 -72 158 -172zM298 472c0 80 -40 131 -105 131s-106 -51 -106 -131s40 -131 105 -131s106 51 106 131z" />
    <glyph glyph-name="ae" unicode="&#xe6;" horiz-adv-x="753" 
d="M718 229h-333v-9c0 -105 55 -179 150 -179s145 54 145 54l28 -39s-58 -65 -178 -65c-85 0 -140 44 -170 94c-45 -65 -100 -94 -175 -94s-145 41 -145 131s80 121 115 131s93 19 173 19v43c0 75 -53 102 -113 102s-109 -22 -135 -41l-23 44c34 21 90 44 155 44
s104 -19 128 -40s30 -49 30 -49c4 9 45 89 160 89s188 -89 188 -209v-26zM385 272h275c0 63 -33 145 -132 145s-138 -87 -143 -145zM340 130c-4 11 -12 39 -12 99c-15 0 -73 -4 -108 -9s-120 -20 -120 -95s63 -89 100 -89s101 18 140 94z" />
    <glyph glyph-name="dotlessi" unicode="&#x131;" horiz-adv-x="217" 
d="M137 0h-57v455h57v-455z" />
    <glyph glyph-name="lslash" unicode="&#x142;" horiz-adv-x="217" 
d="M202 370l-65 -42v-328h-57v292l-65 -42v50l65 42v313h57v-277l65 42v-50z" />
    <glyph glyph-name="oslash" unicode="&#xf8;" 
d="M460 228c0 -143 -85 -237 -210 -237c-50 0 -93 15 -127 42l-49 -61l-30 28l49 61c-34 41 -53 98 -53 166c0 143 85 237 210 237c52 0 97 -16 132 -45l47 59l30 -28l-49 -61c32 -40 50 -96 50 -161zM348 378c-24 24 -58 38 -98 38c-95 0 -150 -76 -150 -188
c0 -49 10 -90 29 -122zM400 227c0 46 -9 86 -26 117l-219 -270c25 -23 57 -35 95 -35c95 0 150 76 150 188z" />
    <glyph glyph-name="oe" unicode="&#x153;" horiz-adv-x="825" 
d="M790 220h-333c0 -105 54 -179 150 -179s145 54 145 54l28 -39s-58 -65 -178 -65s-163 83 -174 112c-9 -21 -53 -112 -178 -112s-210 94 -210 236c0 143 85 237 210 237s169 -89 179 -114c14 31 58 114 173 114s188 -89 188 -214v-30zM457 265h275c0 75 -35 152 -132 152
c-98 0 -138 -87 -143 -152zM400 227c0 113 -55 189 -150 189s-150 -76 -150 -188c0 -113 55 -189 150 -189s150 76 150 188z" />
    <glyph glyph-name="germandbls" unicode="&#xdf;" horiz-adv-x="510" 
d="M465 195c0 -115 -80 -204 -185 -204c-35 0 -65 5 -81 14l14 47c10 -5 37 -12 72 -12c55 0 120 46 120 156s-85 158 -160 158h-30v47h25c70 0 115 43 115 113s-55 99 -100 99s-69 -18 -80 -28s-38 -36 -38 -101v-484h-57v470c0 95 41 134 60 150s55 40 120 40
s150 -42 150 -142s-85 -136 -95 -136c71 -14 150 -72 150 -187z" />
    <glyph glyph-name="one.superior" unicode="&#xb9;" horiz-adv-x="375" 
d="M225 382h-52v319c-8 -5 -18 -10 -33 -15s-30 -8 -35 -8l-8 35c13 2 34 9 48 17c14 9 35 28 37 41h43v-389z" />
    <glyph glyph-name="logicalnot" unicode="&#xac;" 
d="M440 188h-45v169h-355v46h400v-215z" />
    <glyph glyph-name="mu" unicode="&#xb5;" 
d="M420 0h-52l-5 90c-21 -46 -73 -99 -138 -99s-88 34 -88 34v-195h-57v625h57v-280c0 -85 23 -132 93 -132s128 86 133 134v278h57v-455z" />
    <glyph glyph-name="trademark" unicode="&#x2122;" horiz-adv-x="675" 
d="M635 306l-45 -1l-12 290l-88 -290h-42l-88 290l-12 -290h-43l17 330h70l78 -270l77 270h70zM270 598h-95v-293h-45v293h-95v37h235v-37z" />
    <glyph glyph-name="Eth" unicode="&#xd0;" horiz-adv-x="640" 
d="M590 318c0 -108 -40 -188 -90 -238s-115 -80 -210 -80h-200v308h-60v47h60v280h200c95 0 160 -30 210 -80s90 -130 90 -237zM528 317c0 83 -28 158 -73 203s-100 65 -165 65h-140v-230h155v-47h-155v-258h140c65 0 120 20 165 65s73 120 73 202z" />
    <glyph glyph-name="onehalf" unicode="&#xbd;" horiz-adv-x="750" 
d="M160 262h-52v319c-8 -5 -18 -10 -33 -15s-30 -8 -35 -8l-8 35c13 2 34 9 48 17c14 9 35 28 37 41h43v-389zM710 0h-260c10 90 75 141 110 171s83 64 83 107s-28 70 -73 70s-78 -27 -93 -47l-27 32c20 25 55 58 125 58s120 -42 120 -110s-65 -112 -90 -132
s-78 -59 -88 -104h193v-45zM524 645l-363 -660l-37 20l363 660z" />
    <glyph glyph-name="plusminus" unicode="&#xb1;" 
d="M450 273h-178v-178h-45v178h-177v45h177v178h45v-178h178v-45zM450 0h-400v45h400v-45z" />
    <glyph glyph-name="Thorn" unicode="&#xde;" horiz-adv-x="520" 
d="M470 335c0 -60 -20 -110 -60 -142c-40 -33 -90 -48 -150 -48h-110v-145h-60v635h60v-110h110c60 0 110 -15 150 -47c40 -33 60 -83 60 -143zM410 335c0 55 -21 89 -50 110s-60 30 -115 30h-95v-280h95c55 0 86 9 115 30s50 55 50 110z" />
    <glyph glyph-name="onequarter" unicode="&#xbc;" horiz-adv-x="750" 
d="M160 262h-52v319c-8 -5 -18 -10 -33 -15s-30 -8 -35 -8l-8 35c13 2 34 9 48 17c14 9 35 28 37 41h43v-389zM524 645l-363 -660l-37 20l363 660zM673 82h-59v-82h-51v82h-196v44l182 257h65v-255h59v-46zM563 128v205l-144 -205h144z" />
    <glyph glyph-name="divide" unicode="&#xf7;" 
d="M295 453c0 -25 -20 -45 -45 -45s-45 20 -45 45s20 45 45 45s45 -20 45 -45zM450 273h-400v45h400v-45zM295 138c0 -25 -20 -45 -45 -45s-45 20 -45 45s20 45 45 45s45 -20 45 -45z" />
    <glyph glyph-name="brokenbar" unicode="&#xa6;" horiz-adv-x="250" 
d="M148 355h-46v325h46v-325zM148 -135h-46v325h46v-325z" />
    <glyph glyph-name="degree" unicode="&#xb0;" horiz-adv-x="375" 
d="M320 513c0 -75 -57 -133 -132 -133s-133 57 -133 132s57 133 132 133s133 -57 133 -132zM275 513c0 51 -36 88 -87 88c-50 0 -88 -36 -88 -88c0 -53 37 -89 87 -89s88 36 88 89z" />
    <glyph glyph-name="thorn" unicode="&#xfe;" horiz-adv-x="530" 
d="M490 228c0 -135 -85 -237 -205 -237c-95 0 -137 65 -148 84v-245h-57v825h57v-280c5 10 53 89 158 89c120 0 195 -101 195 -236zM430 228c0 102 -55 189 -145 189s-150 -86 -150 -189c0 -102 55 -189 145 -189s150 86 150 189z" />
    <glyph glyph-name="threequarters" unicode="&#xbe;" horiz-adv-x="750" 
d="M276 367c0 -65 -58 -113 -133 -113s-115 58 -120 63l30 30c5 -5 40 -50 90 -50s80 27 80 72s-35 73 -75 73h-40v42h35c40 0 73 25 73 65s-33 63 -73 63s-69 -19 -85 -38l-25 30c16 19 50 50 112 50c63 0 121 -35 121 -95s-48 -87 -73 -92c30 -5 83 -35 83 -100zM591 645
l-363 -660l-37 20l363 660zM735 82h-59v-82h-51v82h-196v44l182 257h65v-255h59v-46zM625 128v205l-144 -205h144z" />
    <glyph glyph-name="two.superior" unicode="&#xb2;" horiz-adv-x="375" 
d="M316 382h-260c10 90 75 141 110 171s83 64 83 107s-28 70 -73 70s-78 -27 -93 -47l-27 32c20 25 55 58 125 58s120 -42 120 -110s-65 -112 -90 -132s-78 -59 -88 -104h193v-45z" />
    <glyph glyph-name="registered" unicode="&#xae;" horiz-adv-x="625" 
d="M605 470c0 -157 -125 -283 -282 -283c-158 0 -283 125 -283 283c0 157 125 283 282 283c158 0 283 -125 283 -283zM568 470c0 137 -108 245 -245 245c-138 0 -246 -107 -246 -245c0 -137 108 -245 245 -245c138 0 246 107 246 245zM455 306h-52l-83 135h-50v-135h-45v330
h100c60 0 113 -30 113 -97c0 -68 -55 -90 -71 -93zM390 539c0 41 -24 62 -67 62h-53v-125h52c43 0 68 20 68 63z" />
    <glyph glyph-name="minus" unicode="&#x2212;" 
d="M450 273h-400v45h400v-45z" />
    <glyph glyph-name="eth" unicode="&#xf0;" 
d="M460 235c0 -145 -85 -244 -210 -244s-210 99 -210 221c0 123 80 223 205 223c90 0 135 -55 145 -70c-25 75 -69 134 -129 189l-106 -67l-19 29l98 62c-30 25 -77 51 -106 62l17 35c29 -11 88 -39 128 -72l107 67l19 -29l-99 -62c19 -16 56 -53 77 -82s83 -117 83 -262z
M400 215c0 100 -55 176 -150 176s-150 -76 -150 -176s55 -176 150 -176s150 76 150 176z" />
    <glyph glyph-name="multiply" unicode="&#xd7;" 
d="M408 171l-33 -33l-125 125l-125 -125l-33 32l126 125l-126 125l33 33l125 -125l125 125l33 -32l-126 -125z" />
    <glyph glyph-name="three.superior" unicode="&#xb3;" horiz-adv-x="375" 
d="M306 487c0 -65 -58 -113 -133 -113s-115 58 -120 63l30 30c5 -5 40 -50 90 -50s80 27 80 72s-35 73 -75 73h-40v42h35c40 0 73 25 73 65s-33 63 -73 63s-69 -19 -85 -38l-25 30c16 19 50 50 112 50c63 0 121 -35 121 -95s-48 -87 -73 -92c30 -5 83 -35 83 -100z" />
    <glyph glyph-name="copyright" unicode="&#xa9;" horiz-adv-x="745" 
d="M700 318c0 -188 -140 -328 -327 -328c-188 0 -328 140 -328 327c0 188 140 328 327 328c188 0 328 -140 328 -327zM660 318c0 157 -130 287 -287 287c-158 0 -288 -130 -288 -287c0 -158 130 -288 287 -288c158 0 288 130 288 288zM515 196c-9 -11 -50 -64 -140 -64
s-175 70 -175 188s85 188 175 188s131 -52 140 -63l-30 -35c-4 6 -40 50 -105 50s-125 -42 -125 -139s60 -140 125 -140s101 44 105 50z" />
    <glyph glyph-name="Aacute" unicode="&#xc1;" horiz-adv-x="550" 
d="M550 0h-65l-65 178h-295l-65 -178h-60l242 635h65zM402 228l-129 352l-130 -352h259zM383 815l-90 -125h-45l65 125h70z" />
    <glyph glyph-name="Acircumflex" unicode="&#xc2;" horiz-adv-x="550" 
d="M550 0h-65l-65 178h-295l-65 -178h-60l242 635h65zM402 228l-129 352l-130 -352h259zM388 690h-45l-67 90l-68 -90h-45l80 125h65z" />
    <glyph glyph-name="Adieresis" unicode="&#xc4;" horiz-adv-x="550" 
d="M550 0h-65l-65 178h-295l-65 -178h-60l242 635h65zM402 228l-129 352l-130 -352h259zM390 753c0 -23 -18 -43 -43 -43s-43 20 -43 42c0 23 18 43 43 43s43 -20 43 -42zM245 753c0 -23 -18 -43 -43 -43s-43 20 -43 42c0 23 18 43 43 43s43 -20 43 -42z" />
    <glyph glyph-name="Agrave" unicode="&#xc0;" horiz-adv-x="550" 
d="M550 0h-65l-65 178h-295l-65 -178h-60l242 635h65zM402 228l-129 352l-130 -352h259zM303 690h-45l-90 125h70z" />
    <glyph glyph-name="Aring" unicode="&#xc5;" horiz-adv-x="550" 
d="M550 0h-65l-65 178h-295l-65 -178h-60l242 635h65zM402 228l-129 352l-130 -352h259zM353 753c0 -44 -34 -78 -78 -78s-78 33 -78 77s34 78 78 78s78 -33 78 -77zM320 753c0 24 -20 45 -45 45s-45 -20 -45 -45s20 -46 45 -46s45 20 45 46z" />
    <glyph glyph-name="Atilde" unicode="&#xc3;" horiz-adv-x="550" 
d="M550 0h-65l-65 178h-295l-65 -178h-60l242 635h65zM402 228l-129 352l-130 -352h259zM375 800l35 -5c0 -50 -35 -90 -75 -90s-62 22 -77 32c-15 11 -28 21 -43 21s-35 -13 -40 -53l-35 5c0 50 35 90 75 90s62 -22 77 -32c15 -11 28 -21 43 -21s35 13 40 53z" />
    <glyph glyph-name="Ccedilla" unicode="&#xc7;" horiz-adv-x="600" 
d="M566 520l-45 -35s-47 105 -182 105s-227 -112 -227 -272s87 -272 223 -272s193 109 193 109l42 -35s-59 -115 -204 -127l-63 -123h-66l78 122c-152 8 -265 126 -265 326s130 326 290 326s221 -114 226 -124z" />
    <glyph glyph-name="Eacute" unicode="&#xc9;" horiz-adv-x="510" 
d="M465 0h-375v635h365v-49h-305v-221h285v-50h-285v-264h315v-51zM365 815l-90 -125h-45l65 125h70z" />
    <glyph glyph-name="Ecircumflex" unicode="&#xca;" horiz-adv-x="510" 
d="M465 0h-375v635h365v-49h-305v-221h285v-50h-285v-264h315v-51zM385 690h-45l-67 90l-68 -90h-45l80 125h65z" />
    <glyph glyph-name="Edieresis" unicode="&#xcb;" horiz-adv-x="510" 
d="M465 0h-375v635h365v-49h-305v-221h285v-50h-285v-264h315v-51zM388 753c0 -23 -18 -43 -43 -43s-43 20 -43 42c0 23 18 43 43 43s43 -20 43 -42zM243 753c0 -23 -18 -43 -43 -43s-43 20 -43 42c0 23 18 43 43 43s43 -20 43 -42z" />
    <glyph glyph-name="Egrave" unicode="&#xc8;" horiz-adv-x="510" 
d="M465 0h-375v635h365v-49h-305v-221h285v-50h-285v-264h315v-51zM315 690h-45l-90 125h70z" />
    <glyph glyph-name="Iacute" unicode="&#xcd;" horiz-adv-x="240" 
d="M150 0h-60v635h60v-635zM225 815l-90 -125h-45l65 125h70z" />
    <glyph glyph-name="Icircumflex" unicode="&#xce;" horiz-adv-x="240" 
d="M150 0h-60v635h60v-635zM233 690h-45l-67 90l-68 -90h-45l80 125h65z" />
    <glyph glyph-name="Idieresis" unicode="&#xcf;" horiz-adv-x="240" 
d="M150 0h-60v635h60v-635zM235 753c0 -23 -18 -43 -43 -43s-43 20 -43 42c0 23 18 43 43 43s43 -20 43 -42zM90 753c0 -23 -18 -43 -43 -43s-43 20 -43 42c0 23 18 43 43 43s43 -20 43 -42z" />
    <glyph glyph-name="Igrave" unicode="&#xcc;" horiz-adv-x="240" 
d="M150 0h-60v635h60v-635zM150 690h-45l-90 125h70z" />
    <glyph glyph-name="Ntilde" unicode="&#xd1;" horiz-adv-x="660" 
d="M570 0h-55l-370 560v-560h-55v635h72l353 -535v535h55v-635zM430 800l35 -5c0 -50 -35 -90 -75 -90s-62 22 -77 32c-15 11 -28 21 -43 21s-35 -13 -40 -53l-35 5c0 50 35 90 75 90s62 -22 77 -32c15 -11 28 -21 43 -21s35 13 40 53z" />
    <glyph glyph-name="Oacute" unicode="&#xd3;" horiz-adv-x="695" 
d="M645 318c0 -188 -117 -327 -297 -327s-298 139 -298 326c0 188 117 327 297 327s298 -139 298 -326zM583 318c0 160 -93 273 -235 273c-143 0 -236 -113 -236 -273s93 -273 235 -273c143 0 236 113 236 273zM460 815l-90 -125h-45l65 125h70z" />
    <glyph glyph-name="Ocircumflex" unicode="&#xd4;" horiz-adv-x="695" 
d="M645 318c0 -188 -117 -327 -297 -327s-298 139 -298 326c0 188 117 327 297 327s298 -139 298 -326zM583 318c0 160 -93 273 -235 273c-143 0 -236 -113 -236 -273s93 -273 235 -273c143 0 236 113 236 273zM460 690h-45l-67 90l-68 -90h-45l80 125h65z" />
    <glyph glyph-name="Odieresis" unicode="&#xd6;" horiz-adv-x="695" 
d="M645 318c0 -188 -117 -327 -297 -327s-298 139 -298 326c0 188 117 327 297 327s298 -139 298 -326zM583 318c0 160 -93 273 -235 273c-143 0 -236 -113 -236 -273s93 -273 235 -273c143 0 236 113 236 273zM463 753c0 -23 -18 -43 -43 -43s-43 20 -43 42
c0 23 18 43 43 43s43 -20 43 -42zM318 753c0 -23 -18 -43 -43 -43s-43 20 -43 42c0 23 18 43 43 43s43 -20 43 -42z" />
    <glyph glyph-name="Ograve" unicode="&#xd2;" horiz-adv-x="695" 
d="M645 318c0 -188 -117 -327 -297 -327s-298 139 -298 326c0 188 117 327 297 327s298 -139 298 -326zM583 318c0 160 -93 273 -235 273c-143 0 -236 -113 -236 -273s93 -273 235 -273c143 0 236 113 236 273zM370 690h-45l-90 125h70z" />
    <glyph glyph-name="Otilde" unicode="&#xd5;" horiz-adv-x="695" 
d="M645 318c0 -188 -117 -327 -297 -327s-298 139 -298 326c0 188 117 327 297 327s298 -139 298 -326zM583 318c0 160 -93 273 -235 273c-143 0 -236 -113 -236 -273s93 -273 235 -273c143 0 236 113 236 273zM448 800l35 -5c0 -50 -35 -90 -75 -90s-62 22 -77 32
c-15 11 -28 21 -43 21s-35 -13 -40 -53l-35 5c0 50 35 90 75 90s62 -22 77 -32c15 -11 28 -21 43 -21s35 13 40 53z" />
    <glyph glyph-name="Scaron" unicode="&#x160;" horiz-adv-x="486" 
d="M445 170c0 -101 -80 -179 -213 -179c-132 0 -197 94 -203 105l41 37c6 -9 64 -91 164 -91s153 53 153 123s-61 96 -92 110s-115 46 -135 55s-104 48 -104 150s85 165 195 165s172 -70 186 -91l-37 -39c-14 21 -69 80 -149 80s-138 -40 -138 -110s61 -96 92 -110
s115 -46 135 -55s105 -49 105 -150zM364 815l-80 -125h-65l-80 125h45l67 -90l68 90h45z" />
    <glyph glyph-name="Uacute" unicode="&#xda;" horiz-adv-x="615" 
d="M475 245v390h60v-385c0 -75 -5 -135 -45 -185s-97 -74 -182 -74s-143 24 -183 74s-45 110 -45 185v385h60v-390c0 -75 5 -105 30 -140s65 -59 137 -59c73 0 113 24 138 59s30 65 30 140zM410 815l-90 -125h-45l65 125h70z" />
    <glyph glyph-name="Ucircumflex" unicode="&#xdb;" horiz-adv-x="615" 
d="M475 245v390h60v-385c0 -75 -5 -135 -45 -185s-97 -74 -182 -74s-143 24 -183 74s-45 110 -45 185v385h60v-390c0 -75 5 -105 30 -140s65 -59 137 -59c73 0 113 24 138 59s30 65 30 140zM420 690h-45l-67 90l-68 -90h-45l80 125h65z" />
    <glyph glyph-name="Udieresis" unicode="&#xdc;" horiz-adv-x="615" 
d="M475 245v390h60v-385c0 -75 -5 -135 -45 -185s-97 -74 -182 -74s-143 24 -183 74s-45 110 -45 185v385h60v-390c0 -75 5 -105 30 -140s65 -59 137 -59c73 0 113 24 138 59s30 65 30 140zM423 753c0 -23 -18 -43 -43 -43s-43 20 -43 42c0 23 18 43 43 43s43 -20 43 -42z
M278 753c0 -23 -18 -43 -43 -43s-43 20 -43 42c0 23 18 43 43 43s43 -20 43 -42z" />
    <glyph glyph-name="Ugrave" unicode="&#xd9;" horiz-adv-x="615" 
d="M475 245v390h60v-385c0 -75 -5 -135 -45 -185s-97 -74 -182 -74s-143 24 -183 74s-45 110 -45 185v385h60v-390c0 -75 5 -105 30 -140s65 -59 137 -59c73 0 113 24 138 59s30 65 30 140zM340 690h-45l-90 125h70z" />
    <glyph glyph-name="Yacute" unicode="&#xdd;" horiz-adv-x="515" 
d="M505 635l-217 -370v-265h-60v265l-218 370h67l183 -320l182 320h63zM358 815l-90 -125h-45l65 125h70z" />
    <glyph glyph-name="Ydieresis" unicode="&#x178;" horiz-adv-x="515" 
d="M505 635l-217 -370v-265h-60v265l-218 370h67l183 -320l182 320h63zM373 753c0 -23 -18 -43 -43 -43s-43 20 -43 42c0 23 18 43 43 43s43 -20 43 -42zM228 753c0 -23 -18 -43 -43 -43s-43 20 -43 42c0 23 18 43 43 43s43 -20 43 -42z" />
    <glyph glyph-name="Zcaron" unicode="&#x17d;" horiz-adv-x="525" 
d="M490 0h-455v46l375 540h-365v49h435v-45l-375 -539h385v-51zM375 815l-80 -125h-65l-80 125h45l67 -90l68 90h45z" />
    <glyph glyph-name="aacute" unicode="&#xe1;" horiz-adv-x="450" 
d="M405 0h-65s-10 30 -10 60c-27 -35 -75 -69 -150 -69s-140 44 -140 137s80 123 115 133s96 19 173 19v35c0 75 -53 102 -113 102s-109 -22 -135 -41l-23 44c34 21 90 44 155 44s104 -19 128 -40s45 -54 45 -124v-210c0 -45 10 -70 20 -90zM328 120v116
c-25 0 -89 -5 -118 -10s-110 -21 -110 -96s55 -94 95 -94s103 24 133 84zM315 635l-90 -125h-45l65 125h70z" />
    <glyph glyph-name="acircumflex" unicode="&#xe2;" horiz-adv-x="450" 
d="M405 0h-65s-10 30 -10 60c-27 -35 -75 -69 -150 -69s-140 44 -140 137s80 123 115 133s96 19 173 19v35c0 75 -53 102 -113 102s-109 -22 -135 -41l-23 44c34 21 90 44 155 44s104 -19 128 -40s45 -54 45 -124v-210c0 -45 10 -70 20 -90zM328 120v116
c-25 0 -89 -5 -118 -10s-110 -21 -110 -96s55 -94 95 -94s103 24 133 84zM333 510h-45l-67 90l-68 -90h-45l80 125h65z" />
    <glyph glyph-name="adieresis" unicode="&#xe4;" horiz-adv-x="450" 
d="M405 0h-65s-10 30 -10 60c-27 -35 -75 -69 -150 -69s-140 44 -140 137s80 123 115 133s96 19 173 19v35c0 75 -53 102 -113 102s-109 -22 -135 -41l-23 44c34 21 90 44 155 44s104 -19 128 -40s45 -54 45 -124v-210c0 -45 10 -70 20 -90zM328 120v116
c-25 0 -89 -5 -118 -10s-110 -21 -110 -96s55 -94 95 -94s103 24 133 84zM335 573c0 -23 -18 -43 -43 -43s-43 20 -43 42c0 23 18 43 43 43s43 -20 43 -42zM190 573c0 -23 -18 -43 -43 -43s-43 20 -43 42c0 23 18 43 43 43s43 -20 43 -42z" />
    <glyph glyph-name="agrave" unicode="&#xe0;" horiz-adv-x="450" 
d="M254 510h-45l-90 125h70zM405 0h-65s-10 30 -10 60c-27 -35 -75 -69 -150 -69s-140 44 -140 137s80 123 115 133s96 19 173 19v35c0 75 -53 102 -113 102s-109 -22 -135 -41l-23 44c34 21 90 44 155 44s104 -19 128 -40s45 -54 45 -124v-210c0 -45 10 -70 20 -90z
M328 120v116c-25 0 -89 -5 -118 -10s-110 -21 -110 -96s55 -94 95 -94s103 24 133 84z" />
    <glyph glyph-name="aring" unicode="&#xe5;" horiz-adv-x="450" 
d="M405 0h-65s-10 30 -10 60c-27 -35 -75 -69 -150 -69s-140 44 -140 137s80 123 115 133s96 19 173 19v35c0 75 -53 102 -113 102s-109 -22 -135 -41l-23 44c34 21 90 44 155 44s104 -19 128 -40s45 -54 45 -124v-210c0 -45 10 -70 20 -90zM328 120v116
c-25 0 -89 -5 -118 -10s-110 -21 -110 -96s55 -94 95 -94s103 24 133 84zM303 573c0 -44 -34 -78 -78 -78s-78 33 -78 77s34 78 78 78s78 -33 78 -77zM270 573c0 24 -20 45 -45 45s-45 -20 -45 -45s20 -46 45 -46s45 20 45 46z" />
    <glyph glyph-name="atilde" unicode="&#xe3;" horiz-adv-x="450" 
d="M405 0h-65s-10 30 -10 60c-27 -35 -75 -69 -150 -69s-140 44 -140 137s80 123 115 133s96 19 173 19v35c0 75 -53 102 -113 102s-109 -22 -135 -41l-23 44c34 21 90 44 155 44s104 -19 128 -40s45 -54 45 -124v-210c0 -45 10 -70 20 -90zM328 120v116
c-25 0 -89 -5 -118 -10s-110 -21 -110 -96s55 -94 95 -94s103 24 133 84zM325 620l35 -5c0 -50 -35 -90 -75 -90s-62 22 -77 32c-15 11 -28 21 -43 21s-35 -13 -40 -53l-35 5c0 50 35 90 75 90s62 -22 77 -32c15 -11 28 -21 43 -21s35 13 40 53z" />
    <glyph glyph-name="ccedilla" unicode="&#xe7;" horiz-adv-x="437" 
d="M376 114l38 -33c-4 -6 -50 -81 -154 -90l-55 -116h-65l75 116c-96 11 -175 99 -175 236c0 140 90 237 210 237s163 -90 163 -90l-40 -30s-36 71 -121 71s-153 -65 -153 -187s68 -187 148 -187s123 64 129 73z" />
    <glyph glyph-name="eacute" unicode="&#xe9;" horiz-adv-x="468" 
d="M433 220h-333c0 -105 54 -179 150 -179s145 54 145 54l28 -39s-58 -65 -178 -65s-205 89 -205 236c0 148 90 237 205 237s188 -89 188 -214v-30zM375 265c0 75 -35 152 -132 152c-98 0 -138 -87 -143 -152h275zM335 635l-90 -125h-45l65 125h70z" />
    <glyph glyph-name="ecircumflex" unicode="&#xea;" horiz-adv-x="468" 
d="M433 220h-333c0 -105 54 -179 150 -179s145 54 145 54l28 -39s-58 -65 -178 -65s-205 89 -205 236c0 148 90 237 205 237s188 -89 188 -214v-30zM375 265c0 75 -35 152 -132 152c-98 0 -138 -87 -143 -152h275zM360 510h-45l-67 90l-68 -90h-45l80 125h65z" />
    <glyph glyph-name="edieresis" unicode="&#xeb;" horiz-adv-x="468" 
d="M433 220h-333c0 -105 54 -179 150 -179s145 54 145 54l28 -39s-58 -65 -178 -65s-205 89 -205 236c0 148 90 237 205 237s188 -89 188 -214v-30zM375 265c0 75 -35 152 -132 152c-98 0 -138 -87 -143 -152h275zM360 573c0 -23 -18 -43 -43 -43s-43 20 -43 42
c0 23 18 43 43 43s43 -20 43 -42zM215 573c0 -23 -18 -43 -43 -43s-43 20 -43 42c0 23 18 43 43 43s43 -20 43 -42z" />
    <glyph glyph-name="egrave" unicode="&#xe8;" horiz-adv-x="468" 
d="M433 220h-333c0 -105 54 -179 150 -179s145 54 145 54l28 -39s-58 -65 -178 -65s-205 89 -205 236c0 148 90 237 205 237s188 -89 188 -214v-30zM375 265c0 75 -35 152 -132 152c-98 0 -138 -87 -143 -152h275zM270 510h-45l-90 125h70z" />
    <glyph glyph-name="iacute" unicode="&#xed;" horiz-adv-x="217" 
d="M137 0h-57v455h57v-455zM215 635l-90 -125h-45l65 125h70z" />
    <glyph glyph-name="icircumflex" unicode="&#xee;" horiz-adv-x="217" 
d="M137 0h-57v455h57v-455zM221 510h-45l-67 90l-68 -90h-45l80 125h65z" />
    <glyph glyph-name="idieresis" unicode="&#xef;" horiz-adv-x="217" 
d="M137 0h-57v455h57v-455zM224 573c0 -23 -18 -43 -43 -43s-43 20 -43 42c0 23 18 43 43 43s43 -20 43 -42zM79 573c0 -23 -18 -43 -43 -43s-43 20 -43 42c0 23 18 43 43 43s43 -20 43 -42z" />
    <glyph glyph-name="igrave" unicode="&#xec;" horiz-adv-x="217" 
d="M137 0h-57v455h57v-455zM140 510h-45l-90 125h70z" />
    <glyph glyph-name="ntilde" unicode="&#xf1;" horiz-adv-x="515" 
d="M440 0h-57v279c0 80 -23 133 -103 133s-133 -87 -143 -137v-275h-57v455h52l5 -90c26 49 78 99 158 99s145 -45 145 -165v-299zM360 620l35 -5c0 -50 -35 -90 -75 -90s-62 22 -77 32c-15 11 -28 21 -43 21s-35 -13 -40 -53l-35 5c0 50 35 90 75 90s62 -22 77 -32
c15 -11 28 -21 43 -21s35 13 40 53z" />
    <glyph glyph-name="oacute" unicode="&#xf3;" 
d="M460 228c0 -143 -85 -237 -210 -237s-210 94 -210 236c0 143 85 237 210 237s210 -94 210 -236zM400 228c0 112 -55 188 -150 188s-150 -76 -150 -188c0 -113 55 -189 150 -189s150 76 150 189zM350 635l-90 -125h-45l65 125h70z" />
    <glyph glyph-name="ocircumflex" unicode="&#xf4;" 
d="M460 228c0 -143 -85 -237 -210 -237s-210 94 -210 236c0 143 85 237 210 237s210 -94 210 -236zM400 228c0 112 -55 188 -150 188s-150 -76 -150 -188c0 -113 55 -189 150 -189s150 76 150 189zM363 510h-45l-67 90l-68 -90h-45l80 125h65z" />
    <glyph glyph-name="odieresis" unicode="&#xf6;" 
d="M460 228c0 -143 -85 -237 -210 -237s-210 94 -210 236c0 143 85 237 210 237s210 -94 210 -236zM400 228c0 112 -55 188 -150 188s-150 -76 -150 -188c0 -113 55 -189 150 -189s150 76 150 189zM365 573c0 -23 -18 -43 -43 -43s-43 20 -43 42c0 23 18 43 43 43
s43 -20 43 -42zM220 573c0 -23 -18 -43 -43 -43s-43 20 -43 42c0 23 18 43 43 43s43 -20 43 -42z" />
    <glyph glyph-name="ograve" unicode="&#xf2;" 
d="M460 228c0 -143 -85 -237 -210 -237s-210 94 -210 236c0 143 85 237 210 237s210 -94 210 -236zM400 228c0 112 -55 188 -150 188s-150 -76 -150 -188c0 -113 55 -189 150 -189s150 76 150 189zM285 510h-45l-90 125h70z" />
    <glyph glyph-name="otilde" unicode="&#xf5;" 
d="M460 228c0 -143 -85 -237 -210 -237s-210 94 -210 236c0 143 85 237 210 237s210 -94 210 -236zM400 228c0 112 -55 188 -150 188s-150 -76 -150 -188c0 -113 55 -189 150 -189s150 76 150 189zM352 620l35 -5c0 -50 -35 -90 -75 -90s-62 22 -77 32c-15 11 -28 21 -43 21
s-35 -13 -40 -53l-35 5c0 50 35 90 75 90s62 -22 77 -32c15 -11 28 -21 43 -21s35 13 40 53z" />
    <glyph glyph-name="scaron" unicode="&#x161;" horiz-adv-x="390" 
d="M355 124c0 -75 -61 -133 -161 -133s-159 67 -169 82l37 35c20 -25 68 -69 133 -69s105 29 105 78s-46 66 -72 76s-72 24 -93 33s-88 38 -88 113s65 126 155 126s144 -54 148 -60l-30 -40c-19 21 -64 53 -120 53s-100 -24 -100 -73s46 -64 75 -75s60 -20 85 -30
s95 -41 95 -116zM314 635l-80 -125h-65l-80 125h45l67 -90l68 90h45z" />
    <glyph glyph-name="uacute" unicode="&#xfa;" horiz-adv-x="510" 
d="M430 0h-52l-5 90c-26 -49 -78 -99 -153 -99s-145 39 -145 164v300h57v-285c0 -80 28 -127 100 -127c73 0 131 77 141 134v278h57v-455zM355 635l-90 -125h-45l65 125h70z" />
    <glyph glyph-name="ucircumflex" unicode="&#xfb;" horiz-adv-x="510" 
d="M430 0h-52l-5 90c-26 -49 -78 -99 -153 -99s-145 39 -145 164v300h57v-285c0 -80 28 -127 100 -127c73 0 131 77 141 134v278h57v-455zM365 510h-45l-67 90l-68 -90h-45l80 125h65z" />
    <glyph glyph-name="udieresis" unicode="&#xfc;" horiz-adv-x="510" 
d="M430 0h-52l-5 90c-26 -49 -78 -99 -153 -99s-145 39 -145 164v300h57v-285c0 -80 28 -127 100 -127c73 0 131 77 141 134v278h57v-455zM368 573c0 -23 -18 -43 -43 -43s-43 20 -43 42c0 23 18 43 43 43s43 -20 43 -42zM223 573c0 -23 -18 -43 -43 -43s-43 20 -43 42
c0 23 18 43 43 43s43 -20 43 -42z" />
    <glyph glyph-name="ugrave" unicode="&#xf9;" horiz-adv-x="510" 
d="M430 0h-52l-5 90c-26 -49 -78 -99 -153 -99s-145 39 -145 164v300h57v-285c0 -80 28 -127 100 -127c73 0 131 77 141 134v278h57v-455zM285 510h-45l-90 125h70z" />
    <glyph glyph-name="yacute" unicode="&#xfd;" horiz-adv-x="435" 
d="M425 455l-215 -550c-19 -50 -50 -80 -95 -80s-70 18 -70 18l15 45s25 -13 50 -13s37 10 55 55l28 70l-178 455h60l145 -400l145 400h60zM325 635l-90 -125h-45l65 125h70z" />
    <glyph glyph-name="ydieresis" unicode="&#xff;" horiz-adv-x="435" 
d="M425 455l-215 -550c-19 -50 -50 -80 -95 -80s-70 18 -70 18l15 45s25 -13 50 -13s37 10 55 55l28 70l-178 455h60l145 -400l145 400h60zM338 573c0 -23 -18 -43 -43 -43s-43 20 -43 42c0 23 18 43 43 43s43 -20 43 -42zM193 573c0 -23 -18 -43 -43 -43s-43 20 -43 42
c0 23 18 43 43 43s43 -20 43 -42z" />
    <glyph glyph-name="zcaron" unicode="&#x17e;" horiz-adv-x="405" 
d="M380 0h-355v40l278 370h-268v45h335v-37l-278 -370h288v-48zM315 635l-80 -125h-65l-80 125h45l67 -90l68 90h45z" />
    <glyph glyph-name="exclam.sc" unicode="&#xe08b;" horiz-adv-x="220" 
d="M142 464l-12 -324h-40l-12 324h64zM155 35c0 -25 -20 -45 -45 -45s-45 20 -45 45s20 45 45 45s45 -20 45 -45z" />
    <glyph glyph-name="dollar.oldstyle" unicode="&#xf724;" horiz-adv-x="475" 
d="M400 130c0 -80 -70 -121 -135 -129v-96h-45v96c-70 5 -120 44 -145 79l35 35c19 -26 55 -61 110 -69v176l-27 10c-39 15 -101 43 -101 118s68 119 128 124v91h45v-90c80 -10 110 -45 125 -57l-30 -38c-15 15 -50 45 -95 50v-167l45 -18c20 -8 90 -35 90 -115zM220 278
v152c-30 -2 -78 -25 -78 -75s49 -66 78 -77zM348 127c0 48 -46 66 -63 73l-20 8v-163c45 7 83 35 83 82z" />
    <glyph glyph-name="ampersand.sc" unicode="&#xe08c;" 
d="M490 0h-70l-57 59c-25 -25 -68 -68 -168 -68s-155 49 -155 124s80 116 105 130l22 12l-3 3c-15 15 -64 50 -64 110s50 107 125 107s125 -47 125 -107c0 -55 -43 -89 -88 -115l-14 -8l117 -119c9 11 24 38 30 52s19 48 21 63l43 -13c-2 -15 -13 -46 -24 -70
s-27 -51 -38 -65zM300 370c0 40 -34 65 -74 65s-74 -25 -74 -65s37 -66 52 -80l16 -15l22 12c35 19 58 43 58 83zM331 92l-136 137l-25 -14c-49 -28 -75 -55 -75 -100s41 -78 111 -78s111 39 125 55z" />
    <glyph glyph-name="zero.oldstyle" unicode="&#xf730;" horiz-adv-x="520" 
d="M470 233c0 -140 -80 -242 -210 -242s-210 102 -210 242s80 242 210 242s210 -102 210 -242zM410 235c0 112 -55 195 -150 195s-150 -83 -150 -195c0 -113 55 -196 150 -196s150 83 150 196z" />
    <glyph glyph-name="one.oldstyle" unicode="&#xf731;" horiz-adv-x="340" 
d="M235 0h-57v378c-13 -14 -42 -24 -53 -28s-38 -12 -58 -12l-7 42c25 2 61 14 80 25s41 29 50 65h45v-470z" />
    <glyph glyph-name="two.oldstyle" unicode="&#xf732;" 
d="M455 0h-410c20 130 136 185 196 220s120 60 120 115s-46 92 -126 92s-130 -61 -135 -66l-33 34s63 80 173 80s178 -60 178 -140s-87 -120 -138 -149s-140 -71 -165 -136h340v-50z" />
    <glyph glyph-name="three.oldstyle" unicode="&#xf733;" horiz-adv-x="460" 
d="M400 15c0 -115 -90 -180 -200 -180s-164 69 -175 83l40 33c10 -15 60 -67 135 -67s143 41 143 131s-78 133 -158 133h-45v48h45c80 0 140 49 140 119s-55 114 -120 114s-104 -33 -125 -59l-35 30c19 21 65 75 165 75s170 -70 170 -155s-65 -132 -115 -142
c40 -8 135 -48 135 -163z" />
    <glyph glyph-name="four.oldstyle" unicode="&#xf734;" horiz-adv-x="510" 
d="M490 1h-105v-171h-57v171h-308v47l290 418h75v-416h105v-49zM328 49v361l-249 -361h249z" />
    <glyph glyph-name="five.oldstyle" unicode="&#xf735;" horiz-adv-x="495" 
d="M435 40c0 -125 -95 -205 -215 -205s-175 85 -175 85l38 34s52 -70 142 -70s153 63 153 153s-63 152 -138 152s-104 -25 -120 -39l-41 20l56 295h295v-49h-253l-42 -206c36 19 65 25 115 25c95 0 185 -70 185 -195z" />
    <glyph glyph-name="six.oldstyle" unicode="&#xf736;" horiz-adv-x="520" 
d="M470 190c0 -110 -80 -200 -195 -200s-161 74 -175 100s-40 85 -40 210s39 206 75 250s90 80 175 80s136 -41 145 -52l-30 -38c-16 14 -55 42 -115 42s-99 -21 -130 -57s-65 -100 -65 -220c0 0 60 85 175 85s180 -90 180 -200zM413 187c0 85 -43 155 -138 155
s-151 -92 -156 -102c0 -120 61 -203 151 -203s143 65 143 150z" />
    <glyph glyph-name="seven.oldstyle" unicode="&#xf737;" horiz-adv-x="465" 
d="M430 419l-285 -589h-60l288 586h-343v49h400v-46z" />
    <glyph glyph-name="eight.oldstyle" unicode="&#xf738;" horiz-adv-x="520" 
d="M460 170c0 -110 -80 -179 -200 -179s-200 69 -200 174s78 155 128 175c-19 6 -103 45 -103 145s80 160 175 160s175 -60 175 -160s-84 -139 -103 -145c35 -15 128 -60 128 -170zM380 488c0 70 -50 112 -120 112s-120 -42 -120 -112s70 -118 140 -128
c60 15 100 58 100 128zM402 172c0 85 -82 133 -162 148c-65 -20 -122 -63 -122 -148s57 -135 142 -135s142 50 142 135z" />
    <glyph glyph-name="nine.oldstyle" unicode="&#xf739;" horiz-adv-x="520" 
d="M460 165c0 -125 -39 -206 -75 -250s-90 -80 -175 -80s-140 42 -150 52l30 38c19 -14 60 -42 120 -42s99 21 130 57s65 100 65 220c-4 -6 -60 -85 -175 -85s-180 90 -180 200s80 200 195 200s159 -71 175 -100s40 -85 40 -210zM401 225c0 120 -61 204 -151 204
s-143 -65 -143 -150s43 -155 138 -155s150 92 156 101z" />
    <glyph glyph-name="question.sc" unicode="&#xe08d;" horiz-adv-x="335" 
d="M300 360c0 -57 -45 -90 -65 -110l-40 -40c-14 -14 -18 -25 -20 -45l-2 -25h-42l-1 20c-1 25 0 38 11 57s49 53 49 53c14 16 57 45 57 85s-32 72 -87 72s-86 -33 -100 -49l-30 32c4 6 45 63 135 63s135 -56 135 -113zM197 35c0 -25 -20 -45 -45 -45s-45 20 -45 45
s20 45 45 45s45 -20 45 -45z" />
    <glyph glyph-name="a.sc" unicode="&#xe000;" horiz-adv-x="440" 
d="M439 0h-61l-47 122h-226l-47 -122h-57l187 464h64zM314 167l-96 249l-96 -249h192z" />
    <glyph glyph-name="b.sc" unicode="&#xe008;" horiz-adv-x="460" 
d="M420 132c0 -45 -22 -82 -56 -103s-77 -29 -127 -29h-157v464h152c40 0 79 -5 104 -20s51 -44 51 -89s-25 -88 -85 -103v-2c89 -11 118 -73 118 -118zM329 344c0 35 -17 55 -37 65s-42 10 -77 10h-79v-151h79c35 0 56 2 76 12s38 29 38 64zM361 135c0 40 -25 62 -39 71
s-35 17 -85 17h-101v-177h106c40 0 61 4 80 15s39 34 39 74z" />
    <glyph glyph-name="c.sc" unicode="&#xe009;" horiz-adv-x="477" 
d="M416 117l36 -32s-50 -94 -185 -94s-227 96 -227 241s97 241 232 241s177 -91 177 -91l-40 -31c-4 6 -39 74 -139 74s-171 -76 -171 -193s73 -192 173 -192s144 77 144 77z" />
    <glyph glyph-name="d.sc" unicode="&#xe00b;" horiz-adv-x="518" 
d="M478 232c0 -80 -32 -139 -71 -175s-85 -57 -165 -57h-162v464h162c80 0 126 -21 165 -57s71 -95 71 -175zM418 232c0 65 -22 114 -56 145s-73 42 -123 42h-102v-374h102c50 0 89 11 123 42s56 80 56 145z" />
    <glyph glyph-name="e.sc" unicode="&#xe00d;" horiz-adv-x="425" 
d="M380 0h-300v464h292v-45h-235v-149h220v-45h-220v-179h243v-46z" />
    <glyph glyph-name="f.sc" unicode="&#xe012;" horiz-adv-x="387" 
d="M357 419h-220v-160h201v-45h-201v-214h-57v464h277v-45z" />
    <glyph glyph-name="g.sc" unicode="&#xe013;" horiz-adv-x="530" 
d="M468 0h-39l-12 55s-45 -64 -150 -64c-135 0 -227 96 -227 241s97 241 232 241s177 -89 177 -89l-40 -33c-4 6 -39 74 -139 74s-171 -75 -171 -192c0 -118 67 -193 172 -193s142 72 142 72v79h-132v45h187v-236z" />
    <glyph glyph-name="h.sc" unicode="&#xe014;" horiz-adv-x="546" 
d="M466 0h-57v224h-272v-224h-57v464h57v-195h272v195h57v-464z" />
    <glyph glyph-name="i.sc" unicode="&#xe015;" horiz-adv-x="217" 
d="M137 0h-57v464h57v-464z" />
    <glyph glyph-name="j.sc" unicode="&#xe01a;" horiz-adv-x="217" 
d="M80 -15v479h57v-464c0 -60 -18 -84 -32 -98c-15 -15 -40 -30 -75 -30s-65 14 -65 14l15 44s20 -10 45 -10s55 15 55 65z" />
    <glyph glyph-name="k.sc" unicode="&#xe01b;" horiz-adv-x="445" 
d="M432 0h-69l-163 235l-63 -64v-171h-57v464h57v-229l216 229h71l-186 -190z" />
    <glyph glyph-name="l.sc" unicode="&#xe01c;" horiz-adv-x="363" 
d="M343 0h-263v464h57v-418h206v-46z" />
    <glyph glyph-name="m.sc" unicode="&#xe01e;" horiz-adv-x="640" 
d="M570 0h-56l-15 404l-155 -404h-54l-155 404l-15 -404h-50l20 464h78l152 -396l152 396h78z" />
    <glyph glyph-name="n.sc" unicode="&#xe01f;" horiz-adv-x="543" 
d="M463 0h-58l-272 395v-395h-53v464h70l260 -378v378h53v-464z" />
    <glyph glyph-name="o.sc" unicode="&#xe021;" horiz-adv-x="544" 
d="M504 232c0 -140 -92 -241 -232 -241s-232 101 -232 241s92 241 232 241s232 -101 232 -241zM445 232c0 110 -63 193 -173 193s-173 -82 -173 -192s63 -193 173 -193s173 82 173 192z" />
    <glyph glyph-name="p.sc" unicode="&#xe029;" horiz-adv-x="435" 
d="M391 321c0 -50 -17 -84 -48 -108s-73 -35 -123 -35h-83v-178h-57v464h140c50 0 92 -11 123 -35s48 -58 48 -108zM332 321c0 40 -16 65 -37 79s-42 19 -82 19h-76v-196h76c40 0 61 5 82 19s37 39 37 79z" />
    <glyph glyph-name="q.sc" unicode="&#xe02b;" horiz-adv-x="544" 
d="M504 232c0 -140 -87 -201 -132 -221c6 -29 28 -61 63 -76l-45 -35c-30 15 -61 50 -71 95c0 0 -22 -4 -47 -4c-140 0 -232 101 -232 241s92 241 232 241s232 -101 232 -241zM445 232c0 110 -63 193 -173 193s-173 -82 -173 -192s63 -193 173 -193s173 82 173 192z" />
    <glyph glyph-name="r.sc" unicode="&#xe02c;" horiz-adv-x="455" 
d="M425 0h-69l-136 196h-83v-196h-57v464h150c50 0 90 -13 115 -33s49 -51 49 -101c0 -75 -62 -119 -113 -128zM335 330c0 35 -16 58 -37 72s-40 18 -85 18h-76v-180h76c45 0 64 4 85 18s37 37 37 72z" />
    <glyph glyph-name="s.sc" unicode="&#xe02d;" horiz-adv-x="405" 
d="M365 129c0 -52 -25 -84 -50 -104s-66 -34 -126 -34s-125 29 -159 79l36 33c9 -11 54 -65 129 -65s114 36 114 83s-45 66 -70 76s-102 36 -127 51s-60 45 -60 97s29 82 50 98s54 30 114 30s120 -32 144 -68l-34 -35c-6 9 -51 57 -116 57s-103 -28 -103 -75s46 -65 71 -75
s102 -36 127 -51s60 -45 60 -97z" />
    <glyph glyph-name="t.sc" unicode="&#xe02f;" horiz-adv-x="385" 
d="M375 419h-154v-419h-57v419h-154v45h365v-45z" />
    <glyph glyph-name="u.sc" unicode="&#xe030;" horiz-adv-x="514" 
d="M382 180v284h57v-279c0 -56 -8 -104 -39 -140s-73 -54 -143 -54s-112 18 -143 54s-39 80 -39 140v279h57v-284c0 -50 4 -74 24 -99s51 -40 101 -40s81 15 101 40s24 49 24 99z" />
    <glyph glyph-name="v.sc" unicode="&#xe035;" horiz-adv-x="445" 
d="M430 464l-177 -464h-61l-177 464h60l148 -404l148 404h59z" />
    <glyph glyph-name="w.sc" unicode="&#xe036;" horiz-adv-x="686" 
d="M656 464l-128 -464h-65l-120 401l-120 -401h-65l-128 464h59l104 -402l119 402h65l119 -402l104 402h56z" />
    <glyph glyph-name="x.sc" unicode="&#xe037;" horiz-adv-x="430" 
d="M414 0h-66l-133 204l-133 -204h-66l165 237l-155 227h65l124 -194l124 194h65l-155 -227z" />
    <glyph glyph-name="y.sc" unicode="&#xe038;" horiz-adv-x="425" 
d="M410 464l-169 -274v-190h-57v190l-169 274h64l134 -229l134 229h63z" />
    <glyph glyph-name="z.sc" unicode="&#xe03b;" horiz-adv-x="420" 
d="M390 0h-360v40l282 379h-274v45h342v-40l-282 -378h292v-46z" />
    <glyph glyph-name="exclamdown.sc" unicode="&#xe08f;" horiz-adv-x="220" 
d="M155 429c0 -25 -20 -45 -45 -45s-45 20 -45 45s20 45 45 45s45 -20 45 -45zM142 0h-64l12 324h40z" />
    <glyph glyph-name="cent.oldstyle" unicode="&#xf7a2;" horiz-adv-x="475" 
d="M405 90c0 0 -40 -55 -125 -60v-80h-45v80c-95 10 -165 87 -165 202s75 190 165 203v80h45v-80c85 -5 125 -57 125 -57l-27 -38s-38 45 -98 50v-310c65 5 97 50 97 50zM235 80v310c-60 -10 -108 -65 -108 -157c0 -93 48 -143 108 -153z" />
    <glyph glyph-name="lslash.sc" unicode="&#xe01d;" horiz-adv-x="363" 
d="M343 0h-263v183l-45 -23v45l45 23v236h57v-207l93 48v-45l-93 -48v-166h206v-46z" />
    <glyph glyph-name="scaron.sc" unicode="&#xe02e;" horiz-adv-x="405" 
d="M365 129c0 -52 -25 -84 -50 -104s-66 -34 -126 -34s-125 29 -159 79l36 33c9 -11 54 -65 129 -65s114 36 114 83s-45 66 -70 76s-102 36 -127 51s-60 45 -60 97s29 82 50 98s54 30 114 30s120 -32 144 -68l-34 -35c-6 9 -51 57 -116 57s-103 -28 -103 -75s46 -65 71 -75
s102 -36 127 -51s60 -45 60 -97zM329 635l-80 -125h-65l-80 125h45l67 -90l68 90h45z" />
    <glyph glyph-name="zcaron.sc" unicode="&#xe03c;" horiz-adv-x="420" 
d="M390 0h-360v40l282 379h-274v45h342v-40l-282 -378h292v-46zM322 635l-80 -125h-65l-80 125h45l67 -90l68 90h45z" />
    <glyph glyph-name="questiondown.sc" unicode="&#xe094;" horiz-adv-x="335" 
d="M228 428c0 -25 -20 -45 -45 -45s-45 20 -45 45s20 45 45 45s45 -20 45 -45zM305 53c-4 -6 -45 -63 -135 -63s-135 56 -135 113s45 90 65 110l40 40c14 14 18 25 20 45l2 25h42l1 -20c1 -25 0 -38 -11 -57s-49 -53 -49 -53c-14 -16 -57 -45 -57 -85s32 -72 87 -72
s86 33 100 49z" />
    <glyph glyph-name="oneeighth" unicode="&#x215b;" horiz-adv-x="789" 
d="M160 262h-52v319c-8 -5 -18 -10 -33 -15s-30 -8 -35 -8l-8 35c13 2 34 9 48 17c14 9 35 28 37 41h43v-389zM524 645l-363 -660l-37 20l363 660zM711 102c0 -71 -61 -109 -140 -109s-140 38 -140 109c0 66 54 92 81 101c-25 11 -66 32 -66 88c0 62 58 99 125 99
s124 -37 124 -99c0 -54 -42 -77 -65 -86c32 -11 81 -39 81 -103zM647 291c0 38 -38 58 -76 58c-39 0 -76 -20 -76 -58s41 -59 87 -67c32 10 65 30 65 67zM661 105c0 46 -55 69 -101 78c-35 -9 -79 -32 -79 -78s43 -70 90 -70c46 0 90 24 90 70z" />
    <glyph glyph-name="threeeighths" unicode="&#x215c;" horiz-adv-x="789" 
d="M771 102c0 -71 -61 -109 -140 -109s-140 38 -140 109c0 66 54 92 81 101c-25 11 -66 32 -66 88c0 62 58 99 125 99s124 -37 124 -99c0 -54 -42 -77 -65 -86c32 -11 81 -39 81 -103zM707 291c0 38 -38 58 -76 58c-39 0 -76 -20 -76 -58s41 -59 87 -67c32 10 65 30 65 67z
M721 105c0 46 -55 69 -101 78c-35 -9 -79 -32 -79 -78s43 -70 90 -70c46 0 90 24 90 70zM584 645l-363 -660l-37 20l363 660zM266 367c0 -65 -58 -113 -133 -113s-115 58 -120 63l30 30c5 -5 40 -50 90 -50s80 27 80 72s-35 73 -75 73h-40v42h35c40 0 73 25 73 65
s-33 63 -73 63s-69 -19 -85 -38l-25 30c16 19 50 50 112 50c63 0 121 -35 121 -95s-48 -87 -73 -92c30 -5 83 -35 83 -100z" />
    <glyph glyph-name="fiveeighths" unicode="&#x215d;" horiz-adv-x="789" 
d="M781 102c0 -71 -61 -109 -140 -109s-140 38 -140 109c0 66 54 92 81 101c-25 11 -66 32 -66 88c0 62 58 99 125 99s124 -37 124 -99c0 -54 -42 -77 -65 -86c32 -11 81 -39 81 -103zM717 291c0 38 -38 58 -76 58c-39 0 -76 -20 -76 -58s41 -59 87 -67c32 10 65 30 65 67z
M731 105c0 46 -55 69 -101 78c-35 -9 -79 -32 -79 -78s43 -70 90 -70c46 0 90 24 90 70zM594 645l-363 -660l-37 20l363 660zM283 382c0 -79 -58 -127 -141 -127c-84 0 -122 53 -124 58l30 32c7 -8 38 -47 95 -47c54 0 90 29 90 84c0 54 -42 84 -82 84
c-42 0 -65 -15 -74 -24l-38 16l36 186h206v-46h-170c-7 -36 -15 -68 -21 -105c8 4 30 14 69 14c64 0 124 -46 124 -125z" />
    <glyph glyph-name="seveneighths" unicode="&#x215e;" horiz-adv-x="789" 
d="M731 102c0 -71 -61 -109 -140 -109s-140 38 -140 109c0 66 54 92 81 101c-25 11 -66 32 -66 88c0 62 58 99 125 99s124 -37 124 -99c0 -54 -42 -77 -65 -86c32 -11 81 -39 81 -103zM667 291c0 38 -38 58 -76 58c-39 0 -76 -20 -76 -58s41 -59 87 -67c32 10 65 30 65 67z
M681 105c0 46 -55 69 -101 78c-35 -9 -79 -32 -79 -78s43 -70 90 -70c46 0 90 24 90 70zM544 645l-363 -660l-37 20l363 660zM317 600l-178 -338h-54l178 335h-215v47h269v-44z" />
    <glyph glyph-name="onethird" unicode="&#x2153;" horiz-adv-x="789" 
d="M160 262h-52v319c-8 -5 -18 -10 -33 -15s-30 -8 -35 -8l-8 35c13 2 34 9 48 17c14 9 35 28 37 41h43v-389zM524 645l-363 -660l-37 20l363 660zM701 105c0 -65 -58 -113 -133 -113s-115 58 -120 63l30 30c5 -5 40 -50 90 -50s80 27 80 72s-35 73 -75 73h-40v42h35
c40 0 73 25 73 65s-33 63 -73 63s-69 -19 -85 -38l-25 30c16 19 50 50 112 50c63 0 121 -35 121 -95s-48 -87 -73 -92c30 -5 83 -35 83 -100z" />
    <glyph glyph-name="twothirds" unicode="&#x2154;" horiz-adv-x="789" 
d="M801 105c0 -65 -58 -113 -133 -113s-115 58 -120 63l30 30c5 -5 40 -50 90 -50s80 27 80 72s-35 73 -75 73h-40v42h35c40 0 73 25 73 65s-33 63 -73 63s-69 -19 -85 -38l-25 30c16 19 50 50 112 50c63 0 121 -35 121 -95s-48 -87 -73 -92c30 -5 83 -35 83 -100zM624 645
l-363 -660l-37 20l363 660zM286 262h-260c10 90 75 141 110 171s83 64 83 107s-28 70 -73 70s-78 -27 -93 -47l-27 32c20 25 55 58 125 58s120 -42 120 -110s-65 -112 -90 -132s-78 -59 -88 -104h193v-45z" />
    <glyph glyph-name="zero.superior" unicode="&#x2070;" horiz-adv-x="375" 
d="M330 573c0 -108 -49 -199 -144 -199s-144 91 -144 199s49 199 144 199s144 -91 144 -199zM278 573c0 83 -29 156 -92 156s-92 -73 -92 -156s29 -156 92 -156s92 73 92 156z" />
    <glyph glyph-name="four.superior" unicode="&#x2074;" horiz-adv-x="375" 
d="M335 464h-59v-82h-51v82h-196v44l182 257h65v-255h59v-46zM225 510v205l-144 -205h144z" />
    <glyph glyph-name="five.superior" unicode="&#x2075;" horiz-adv-x="375" 
d="M312 502c0 -79 -58 -127 -141 -127c-84 0 -122 53 -124 58l30 32c7 -8 38 -47 95 -47c54 0 90 29 90 84c0 54 -42 84 -82 84c-42 0 -65 -15 -74 -24l-38 16l36 186h206v-46h-170c-7 -36 -15 -68 -21 -105c8 4 30 14 69 14c64 0 124 -46 124 -125z" />
    <glyph glyph-name="six.superior" unicode="&#x2076;" horiz-adv-x="375" 
d="M327 507c0 -71 -52 -132 -135 -132c-81 0 -113 59 -122 79c-9 16 -20 49 -20 117c0 70 24 123 49 152c26 29 58 49 111 49c54 0 90 -25 103 -39l-26 -33c-11 12 -41 30 -77 30c-35 0 -55 -10 -74 -31c-17 -18 -35 -57 -37 -118c16 16 54 44 108 44c67 0 120 -47 120 -118
zM278 503c0 46 -29 82 -83 82c-52 0 -86 -44 -94 -55c2 -61 33 -113 91 -113c59 0 86 40 86 86z" />
    <glyph glyph-name="seven.superior" unicode="&#x2077;" horiz-adv-x="375" 
d="M317 720l-178 -338h-54l178 335h-215v47h269v-44z" />
    <glyph glyph-name="eight.superior" unicode="&#x2078;" horiz-adv-x="375" 
d="M326 484c0 -71 -61 -109 -140 -109s-140 38 -140 109c0 66 54 92 81 101c-25 11 -66 32 -66 88c0 62 58 99 125 99s124 -37 124 -99c0 -54 -42 -77 -65 -86c32 -11 81 -39 81 -103zM262 673c0 38 -38 58 -76 58c-39 0 -76 -20 -76 -58s41 -59 87 -67c32 10 65 30 65 67z
M276 487c0 46 -55 69 -101 78c-35 -9 -79 -32 -79 -78s43 -70 90 -70c46 0 90 24 90 70z" />
    <glyph glyph-name="nine.superior" unicode="&#x2079;" horiz-adv-x="375" 
d="M322 576c0 -70 -25 -123 -49 -152c-26 -30 -59 -49 -112 -49s-84 19 -106 43l29 32c16 -18 43 -33 77 -33s55 11 75 31c18 20 35 56 37 116c-16 -17 -50 -44 -108 -44c-67 0 -120 51 -120 122c0 70 52 130 135 130c81 0 112 -59 121 -79c9 -16 21 -49 21 -117zM177 563
c53 0 87 44 94 53c0 64 -33 114 -91 114c-59 0 -86 -38 -86 -85c0 -46 29 -82 83 -82z" />
    <glyph glyph-name="zero.inferior" unicode="&#x2080;" horiz-adv-x="375" 
d="M330 71c0 -108 -49 -199 -144 -199s-144 91 -144 199s49 199 144 199s144 -91 144 -199zM278 71c0 83 -29 156 -92 156s-92 -73 -92 -156s29 -156 92 -156s92 73 92 156z" />
    <glyph glyph-name="one.inferior" unicode="&#x2081;" horiz-adv-x="375" 
d="M225 -120h-52v319c-8 -5 -18 -10 -33 -15s-30 -8 -35 -8l-8 35c13 2 34 9 48 17c14 9 35 28 37 41h43v-389z" />
    <glyph glyph-name="two.inferior" unicode="&#x2082;" horiz-adv-x="375" 
d="M316 -120h-260c10 90 75 141 110 171s83 64 83 107s-28 70 -73 70s-78 -27 -93 -47l-27 32c20 25 55 58 125 58s120 -42 120 -110s-65 -112 -90 -132s-78 -59 -88 -104h193v-45z" />
    <glyph glyph-name="three.inferior" unicode="&#x2083;" horiz-adv-x="375" 
d="M306 -15c0 -65 -58 -113 -133 -113s-115 58 -120 63l30 30c5 -5 40 -50 90 -50s80 27 80 72s-35 73 -75 73h-40v42h35c40 0 73 25 73 65s-33 63 -73 63s-69 -19 -85 -38l-25 30c16 19 50 50 112 50c63 0 121 -35 121 -95s-48 -87 -73 -92c30 -5 83 -35 83 -100z" />
    <glyph glyph-name="four.inferior" unicode="&#x2084;" horiz-adv-x="375" 
d="M335 -38h-59v-82h-51v82h-196v44l182 257h65v-255h59v-46zM225 8v205l-144 -205h144z" />
    <glyph glyph-name="five.inferior" unicode="&#x2085;" horiz-adv-x="375" 
d="M312 0c0 -79 -58 -127 -141 -127c-84 0 -122 53 -124 58l30 32c7 -8 38 -47 95 -47c54 0 90 29 90 84c0 54 -42 84 -82 84c-42 0 -65 -15 -74 -24l-38 16l36 186h206v-46h-170c-7 -36 -15 -68 -21 -105c8 4 30 14 69 14c64 0 124 -46 124 -125z" />
    <glyph glyph-name="six.inferior" unicode="&#x2086;" horiz-adv-x="375" 
d="M327 5c0 -71 -52 -132 -135 -132c-81 0 -113 59 -122 79c-9 16 -20 49 -20 117c0 70 24 123 49 152c26 29 58 49 111 49c54 0 90 -25 103 -39l-26 -33c-11 12 -41 30 -77 30c-35 0 -55 -10 -74 -31c-17 -18 -35 -57 -37 -118c16 16 54 44 108 44c67 0 120 -47 120 -118z
M278 1c0 46 -29 82 -83 82c-52 0 -86 -44 -94 -55c2 -61 33 -113 91 -113c59 0 86 40 86 86z" />
    <glyph glyph-name="seven.inferior" unicode="&#x2087;" horiz-adv-x="375" 
d="M317 218l-178 -338h-54l178 335h-215v47h269v-44z" />
    <glyph glyph-name="eight.inferior" unicode="&#x2088;" horiz-adv-x="375" 
d="M326 -18c0 -71 -61 -109 -140 -109s-140 38 -140 109c0 66 54 92 81 101c-25 11 -66 32 -66 88c0 62 58 99 125 99s124 -37 124 -99c0 -54 -42 -77 -65 -86c32 -11 81 -39 81 -103zM262 171c0 38 -38 58 -76 58c-39 0 -76 -20 -76 -58s41 -59 87 -67c32 10 65 30 65 67z
M276 -15c0 46 -55 69 -101 78c-35 -9 -79 -32 -79 -78s43 -70 90 -70c46 0 90 24 90 70z" />
    <glyph glyph-name="nine.inferior" unicode="&#x2089;" horiz-adv-x="375" 
d="M322 74c0 -70 -25 -123 -49 -152c-26 -30 -59 -49 -112 -49s-84 19 -106 43l29 32c16 -18 43 -33 77 -33s55 11 75 31c18 20 35 56 37 116c-16 -17 -50 -44 -108 -44c-67 0 -120 51 -120 122c0 70 52 130 135 130c81 0 112 -59 121 -79c9 -16 21 -49 21 -117zM177 61
c53 0 87 44 94 53c0 64 -33 114 -91 114c-59 0 -86 -38 -86 -85c0 -46 29 -82 83 -82z" />
    <glyph glyph-name="agrave.sc" unicode="&#xe005;" horiz-adv-x="440" 
d="M439 0h-61l-47 122h-226l-47 -122h-57l187 464h64zM314 167l-96 249l-96 -249h192zM249 518h-45l-90 125h70z" />
    <glyph glyph-name="aacute.sc" unicode="&#xe002;" horiz-adv-x="440" 
d="M439 0h-61l-47 122h-226l-47 -122h-57l187 464h64zM314 167l-96 249l-96 -249h192zM325 643l-90 -125h-45l65 125h70z" />
    <glyph glyph-name="acircumflex.sc" unicode="&#xe003;" horiz-adv-x="440" 
d="M439 0h-61l-47 122h-226l-47 -122h-57l187 464h64zM314 167l-96 249l-96 -249h192zM333 518h-45l-67 90l-68 -90h-45l80 125h65z" />
    <glyph glyph-name="atilde.sc" unicode="&#xe007;" horiz-adv-x="440" 
d="M439 0h-61l-47 122h-226l-47 -122h-57l187 464h64zM314 167l-96 249l-96 -249h192zM318 628l35 -5c0 -50 -35 -90 -75 -90s-62 22 -77 32c-15 11 -28 21 -43 21s-35 -13 -40 -53l-35 5c0 50 35 90 75 90s62 -22 77 -32c15 -11 28 -21 43 -21s35 13 40 53z" />
    <glyph glyph-name="adieresis.sc" unicode="&#xe004;" horiz-adv-x="440" 
d="M439 0h-61l-47 122h-226l-47 -122h-57l187 464h64zM314 167l-96 249l-96 -249h192zM335 581c0 -23 -18 -43 -43 -43s-43 20 -43 42c0 23 18 43 43 43s43 -20 43 -42zM190 581c0 -23 -18 -43 -43 -43s-43 20 -43 42c0 23 18 43 43 43s43 -20 43 -42z" />
    <glyph glyph-name="aring.sc" unicode="&#xe006;" horiz-adv-x="440" 
d="M439 0h-61l-47 122h-226l-47 -122h-57l187 464h64zM314 167l-96 249l-96 -249h192zM298 581c0 -44 -34 -78 -78 -78s-78 33 -78 77s34 78 78 78s78 -33 78 -77zM265 581c0 24 -20 45 -45 45s-45 -20 -45 -45s20 -46 45 -46s45 20 45 46z" />
    <glyph glyph-name="ae.sc" unicode="&#xe001;" horiz-adv-x="645" 
d="M600 0h-285v137h-198l-87 -137h-65l305 464h322v-45h-220v-149h205v-45h-205v-179h228v-46zM315 182v237h-20l-150 -237h170z" />
    <glyph glyph-name="ccedilla.sc" unicode="&#xe00a;" horiz-adv-x="477" 
d="M237 -125h-65l75 117c-117 8 -207 95 -207 240s97 241 232 241s177 -91 177 -91l-40 -31c-4 6 -39 74 -139 74s-171 -76 -171 -193s73 -192 173 -192s144 77 144 77l36 -32s-44 -82 -159 -93z" />
    <glyph glyph-name="egrave.sc" unicode="&#xe011;" horiz-adv-x="425" 
d="M380 0h-300v464h292v-45h-235v-149h220v-45h-220v-179h243v-46zM265 518h-45l-90 125h70z" />
    <glyph glyph-name="eacute.sc" unicode="&#xe00e;" horiz-adv-x="425" 
d="M380 0h-300v464h292v-45h-235v-149h220v-45h-220v-179h243v-46zM320 643l-90 -125h-45l65 125h70z" />
    <glyph glyph-name="ecircumflex.sc" unicode="&#xe00f;" horiz-adv-x="425" 
d="M380 0h-300v464h292v-45h-235v-149h220v-45h-220v-179h243v-46zM339 518h-45l-67 90l-68 -90h-45l80 125h65z" />
    <glyph glyph-name="edieresis.sc" unicode="&#xe010;" horiz-adv-x="425" 
d="M380 0h-300v464h292v-45h-235v-149h220v-45h-220v-179h243v-46zM341 581c0 -23 -18 -43 -43 -43s-43 20 -43 42c0 23 18 43 43 43s43 -20 43 -42zM196 581c0 -23 -18 -43 -43 -43s-43 20 -43 42c0 23 18 43 43 43s43 -20 43 -42z" />
    <glyph glyph-name="igrave.sc" unicode="&#xe019;" horiz-adv-x="217" 
d="M137 0h-57v464h57v-464zM141 518h-45l-90 125h70z" />
    <glyph glyph-name="iacute.sc" unicode="&#xe016;" horiz-adv-x="217" 
d="M137 0h-57v464h57v-464zM211 643l-90 -125h-45l65 125h70z" />
    <glyph glyph-name="icircumflex.sc" unicode="&#xe017;" horiz-adv-x="217" 
d="M137 0h-57v464h57v-464zM221 518h-45l-67 90l-68 -90h-45l80 125h65z" />
    <glyph glyph-name="idieresis.sc" unicode="&#xe018;" horiz-adv-x="217" 
d="M137 0h-57v464h57v-464zM224 581c0 -23 -18 -43 -43 -43s-43 20 -43 42c0 23 18 43 43 43s43 -20 43 -42zM79 581c0 -23 -18 -43 -43 -43s-43 20 -43 42c0 23 18 43 43 43s43 -20 43 -42z" />
    <glyph glyph-name="eth.sc" unicode="&#xe00c;" horiz-adv-x="518" 
d="M478 232c0 -80 -32 -139 -71 -175s-85 -57 -165 -57h-162v220h-45v44h45v200h162c80 0 126 -21 165 -57s71 -95 71 -175zM418 232c0 65 -22 114 -56 145s-73 42 -123 42h-102v-155h118v-44h-118v-175h102c50 0 89 11 123 42s56 80 56 145z" />
    <glyph glyph-name="ntilde.sc" unicode="&#xe020;" horiz-adv-x="543" 
d="M463 0h-58l-272 395v-395h-53v464h70l260 -378v378h53v-464zM378 628l35 -5c0 -50 -35 -90 -75 -90s-62 22 -77 32c-15 11 -28 21 -43 21s-35 -13 -40 -53l-35 5c0 50 35 90 75 90s62 -22 77 -32c15 -11 28 -21 43 -21s35 13 40 53z" />
    <glyph glyph-name="ograve.sc" unicode="&#xe026;" horiz-adv-x="544" 
d="M504 232c0 -140 -92 -241 -232 -241s-232 101 -232 241s92 241 232 241s232 -101 232 -241zM445 232c0 110 -63 193 -173 193s-173 -82 -173 -192s63 -193 173 -193s173 82 173 192zM296 518h-45l-90 125h70z" />
    <glyph glyph-name="oacute.sc" unicode="&#xe023;" horiz-adv-x="544" 
d="M504 232c0 -140 -92 -241 -232 -241s-232 101 -232 241s92 241 232 241s232 -101 232 -241zM445 232c0 110 -63 193 -173 193s-173 -82 -173 -192s63 -193 173 -193s173 82 173 192zM383 643l-90 -125h-45l65 125h70z" />
    <glyph glyph-name="ocircumflex.sc" unicode="&#xe024;" horiz-adv-x="544" 
d="M504 232c0 -140 -92 -241 -232 -241s-232 101 -232 241s92 241 232 241s232 -101 232 -241zM445 232c0 110 -63 193 -173 193s-173 -82 -173 -192s63 -193 173 -193s173 82 173 192zM385 518h-45l-67 90l-68 -90h-45l80 125h65z" />
    <glyph glyph-name="otilde.sc" unicode="&#xe028;" horiz-adv-x="544" 
d="M504 232c0 -140 -92 -241 -232 -241s-232 101 -232 241s92 241 232 241s232 -101 232 -241zM445 232c0 110 -63 193 -173 193s-173 -82 -173 -192s63 -193 173 -193s173 82 173 192zM368 628l35 -5c0 -50 -35 -90 -75 -90s-62 22 -77 32c-15 11 -28 21 -43 21
s-35 -13 -40 -53l-35 5c0 50 35 90 75 90s62 -22 77 -32c15 -11 28 -21 43 -21s35 13 40 53z" />
    <glyph glyph-name="odieresis.sc" unicode="&#xe025;" horiz-adv-x="544" 
d="M504 232c0 -140 -92 -241 -232 -241s-232 101 -232 241s92 241 232 241s232 -101 232 -241zM445 232c0 110 -63 193 -173 193s-173 -82 -173 -192s63 -193 173 -193s173 82 173 192zM387 581c0 -23 -18 -43 -43 -43s-43 20 -43 42c0 23 18 43 43 43s43 -20 43 -42z
M242 581c0 -23 -18 -43 -43 -43s-43 20 -43 42c0 23 18 43 43 43s43 -20 43 -42z" />
    <glyph glyph-name="oe.sc" unicode="&#xe022;" horiz-adv-x="722" 
d="M677 0h-285v26c-10 -10 -50 -35 -120 -35c-140 0 -232 101 -232 241s92 241 232 241c70 0 109 -26 120 -35v26h277v-45h-220v-149h205v-45h-205v-179h228v-46zM392 85v295c-25 25 -65 45 -120 45c-110 0 -173 -82 -173 -192s63 -193 173 -193c55 0 95 20 120 45z" />
    <glyph glyph-name="oslash.sc" unicode="&#xe027;" horiz-adv-x="544" 
d="M504 232c0 -140 -92 -241 -232 -241c-55 0 -102 15 -139 42l-54 -63l-30 25l54 64c-40 43 -63 103 -63 173c0 140 92 241 232 241c57 0 105 -17 143 -45l49 57l30 -25l-50 -59c38 -42 60 -101 60 -169zM445 232c0 50 -13 94 -37 127l-241 -285c27 -22 63 -34 105 -34
c110 0 173 82 173 192zM382 388c-28 23 -65 37 -110 37c-110 0 -173 -82 -173 -192c0 -52 14 -98 40 -132z" />
    <glyph glyph-name="ugrave.sc" unicode="&#xe034;" horiz-adv-x="514" 
d="M382 180v284h57v-279c0 -56 -8 -104 -39 -140s-73 -54 -143 -54s-112 18 -143 54s-39 80 -39 140v279h57v-284c0 -50 4 -74 24 -99s51 -40 101 -40s81 15 101 40s24 49 24 99zM295 518h-45l-90 125h70z" />
    <glyph glyph-name="uacute.sc" unicode="&#xe031;" horiz-adv-x="514" 
d="M382 180v284h57v-279c0 -56 -8 -104 -39 -140s-73 -54 -143 -54s-112 18 -143 54s-39 80 -39 140v279h57v-284c0 -50 4 -74 24 -99s51 -40 101 -40s81 15 101 40s24 49 24 99zM354 643l-90 -125h-45l65 125h70z" />
    <glyph glyph-name="ucircumflex.sc" unicode="&#xe032;" horiz-adv-x="514" 
d="M382 180v284h57v-279c0 -56 -8 -104 -39 -140s-73 -54 -143 -54s-112 18 -143 54s-39 80 -39 140v279h57v-284c0 -50 4 -74 24 -99s51 -40 101 -40s81 15 101 40s24 49 24 99zM370 518h-45l-67 90l-68 -90h-45l80 125h65z" />
    <glyph glyph-name="udieresis.sc" unicode="&#xe033;" horiz-adv-x="514" 
d="M382 180v284h57v-279c0 -56 -8 -104 -39 -140s-73 -54 -143 -54s-112 18 -143 54s-39 80 -39 140v279h57v-284c0 -50 4 -74 24 -99s51 -40 101 -40s81 15 101 40s24 49 24 99zM372 581c0 -23 -18 -43 -43 -43s-43 20 -43 42c0 23 18 43 43 43s43 -20 43 -42zM227 581
c0 -23 -18 -43 -43 -43s-43 20 -43 42c0 23 18 43 43 43s43 -20 43 -42z" />
    <glyph glyph-name="yacute.sc" unicode="&#xe039;" horiz-adv-x="425" 
d="M410 464l-169 -274v-190h-57v190l-169 274h64l134 -229l134 229h63zM316 643l-90 -125h-45l65 125h70z" />
    <glyph glyph-name="thorn.sc" unicode="&#xe02a;" horiz-adv-x="430" 
d="M386 246c0 -50 -17 -84 -48 -108s-73 -35 -123 -35h-78v-103h-57v464h57v-75h78c50 0 92 -11 123 -35s48 -58 48 -108zM327 246c0 40 -16 65 -37 79s-42 19 -82 19h-71v-196h71c40 0 61 5 82 19s37 39 37 79z" />
    <glyph glyph-name="ydieresis.sc" unicode="&#xe03a;" horiz-adv-x="425" 
d="M410 464l-169 -274v-190h-57v190l-169 274h64l134 -229l134 229h63zM328 581c0 -23 -18 -43 -43 -43s-43 20 -43 42c0 23 18 43 43 43s43 -20 43 -42zM183 581c0 -23 -18 -43 -43 -43s-43 20 -43 42c0 23 18 43 43 43s43 -20 43 -42z" />
    <glyph glyph-name="commaaccent" unicode="&#xf6c3;" horiz-adv-x="375" 
d="M178 -48l57 -2c-7 -52 -38 -105 -85 -142l-35 20c32 33 59 82 63 124z" />
    <glyph glyph-name="Abreve" unicode="&#x102;" horiz-adv-x="550" 
d="M550 0h-65l-65 178h-295l-65 -178h-60l242 635h65zM402 228l-129 352l-130 -352h259zM368 815l35 -10c-15 -70 -55 -115 -127 -115c-73 0 -113 45 -128 115l35 10c15 -50 42 -80 92 -80s78 30 93 80z" />
    <glyph glyph-name="Amacron" unicode="&#x100;" horiz-adv-x="550" 
d="M550 0h-65l-65 178h-295l-65 -178h-60l242 635h65zM402 228l-129 352l-130 -352h259zM403 730h-255v45h255v-45z" />
    <glyph glyph-name="Aogonek" unicode="&#x104;" horiz-adv-x="550" 
d="M541 -120l15 -25s-35 -40 -90 -40s-95 30 -95 90c0 56 39 95 104 122l-55 151h-295l-65 -178h-60l242 635h65l243 -635h-65c-38 -22 -64 -49 -64 -85c0 -40 25 -55 55 -55s54 11 65 20zM402 228l-129 352l-130 -352h259z" />
    <glyph glyph-name="AEacute" unicode="&#x1fc;" horiz-adv-x="800" 
d="M755 0h-355v200h-255l-120 -200h-65l392 635h393v-49h-285v-221h265v-50h-265v-264h295v-51zM400 250v336h-23l-202 -336h225zM537 815l-90 -125h-45l65 125h70z" />
    <glyph glyph-name="Cacute" unicode="&#x106;" horiz-adv-x="600" 
d="M566 520l-45 -35s-47 105 -182 105s-227 -112 -227 -272s87 -272 223 -272s193 109 193 109l42 -35s-65 -129 -235 -129s-285 127 -285 327s130 326 290 326s221 -114 226 -124zM434 815l-90 -125h-45l65 125h70z" />
    <glyph glyph-name="Ccaron" unicode="&#x10c;" horiz-adv-x="600" 
d="M566 520l-45 -35s-47 105 -182 105s-227 -112 -227 -272s87 -272 223 -272s193 109 193 109l42 -35s-65 -129 -235 -129s-285 127 -285 327s130 326 290 326s221 -114 226 -124zM449 815l-80 -125h-65l-80 125h45l67 -90l68 90h45z" />
    <glyph glyph-name="Ccircumflex" unicode="&#x108;" horiz-adv-x="600" 
d="M566 520l-45 -35s-47 105 -182 105s-227 -112 -227 -272s87 -272 223 -272s193 109 193 109l42 -35s-65 -129 -235 -129s-285 127 -285 327s130 326 290 326s221 -114 226 -124zM449 690h-45l-67 90l-68 -90h-45l80 125h65z" />
    <glyph glyph-name="Cdotaccent" unicode="&#x10a;" horiz-adv-x="600" 
d="M566 520l-45 -35s-47 105 -182 105s-227 -112 -227 -272s87 -272 223 -272s193 109 193 109l42 -35s-65 -129 -235 -129s-285 127 -285 327s130 326 290 326s221 -114 226 -124zM387 753c0 -28 -23 -51 -50 -51c-28 0 -51 23 -51 50c0 28 23 51 50 51c28 0 51 -23 51 -50
z" />
    <glyph glyph-name="Dcaron" unicode="&#x10e;" horiz-adv-x="640" 
d="M590 318c0 -108 -40 -188 -90 -238s-115 -80 -210 -80h-200v635h200c95 0 160 -30 210 -80s90 -130 90 -237zM528 317c0 83 -28 158 -73 203s-100 65 -165 65h-140v-535h140c65 0 120 20 165 65s73 120 73 202zM420 815l-80 -125h-65l-80 125h45l67 -90l68 90h45z" />
    <glyph glyph-name="Dcroat" unicode="&#x110;" horiz-adv-x="640" 
d="M590 318c0 -108 -40 -188 -90 -238s-115 -80 -210 -80h-200v308h-60v47h60v280h200c95 0 160 -30 210 -80s90 -130 90 -237zM528 317c0 83 -28 158 -73 203s-100 65 -165 65h-140v-230h155v-47h-155v-258h140c65 0 120 20 165 65s73 120 73 202z" />
    <glyph glyph-name="Ebreve" unicode="&#x114;" horiz-adv-x="510" 
d="M465 0h-375v635h365v-49h-305v-221h285v-50h-285v-264h315v-51zM375 815l35 -10c-15 -70 -55 -115 -127 -115c-73 0 -113 45 -128 115l35 10c15 -50 42 -80 92 -80s78 30 93 80z" />
    <glyph glyph-name="Ecaron" unicode="&#x11a;" horiz-adv-x="510" 
d="M465 0h-375v635h365v-49h-305v-221h285v-50h-285v-264h315v-51zM395 815l-80 -125h-65l-80 125h45l67 -90l68 90h45z" />
    <glyph glyph-name="Edotaccent" unicode="&#x116;" horiz-adv-x="510" 
d="M465 0h-375v635h365v-49h-305v-221h285v-50h-285v-264h315v-51zM333 753c0 -28 -23 -51 -50 -51c-28 0 -51 23 -51 50c0 28 23 51 50 51c28 0 51 -23 51 -50z" />
    <glyph glyph-name="Emacron" unicode="&#x112;" horiz-adv-x="510" 
d="M465 0h-375v635h365v-49h-305v-221h285v-50h-285v-264h315v-51zM410 730h-255v45h255v-45z" />
    <glyph glyph-name="Eng" unicode="&#x14a;" horiz-adv-x="660" 
d="M515 -25v25l-370 560v-560h-55v635h72l353 -535v535h55v-645c0 -60 -13 -96 -33 -121s-54 -43 -99 -43c-40 0 -63 11 -63 11l10 48s18 -10 53 -10c41 0 77 25 77 100z" />
    <glyph glyph-name="Eogonek" unicode="&#x118;" horiz-adv-x="510" 
d="M449 -120l15 -25s-35 -40 -90 -40s-95 30 -95 90s55 95 55 95h-244v635h365v-49h-305v-221h285v-50h-285v-264h315v-51h-91c-16 -14 -45 -45 -45 -85s25 -55 55 -55s54 11 65 20z" />
    <glyph glyph-name="Gbreve" unicode="&#x11e;" horiz-adv-x="655" 
d="M585 0h-43l-8 80s-64 -89 -204 -89c-165 0 -280 127 -280 327s130 326 290 326s225 -119 225 -119l-45 -35s-46 100 -181 100s-227 -112 -227 -272s87 -272 223 -272s191 94 191 94v125h-176v50h235v-315zM428 815l35 -10c-15 -70 -55 -115 -127 -115
c-73 0 -113 45 -128 115l35 10c15 -50 42 -80 92 -80s78 30 93 80z" />
    <glyph glyph-name="Gcircumflex" unicode="&#x11c;" horiz-adv-x="655" 
d="M585 0h-43l-8 80s-64 -89 -204 -89c-165 0 -280 127 -280 327s130 326 290 326s225 -119 225 -119l-45 -35s-46 100 -181 100s-227 -112 -227 -272s87 -272 223 -272s191 94 191 94v125h-176v50h235v-315zM448 690h-45l-67 90l-68 -90h-45l80 125h65z" />
    <glyph glyph-name="Gcommaaccent" unicode="&#x122;" horiz-adv-x="655" 
d="M585 0h-43l-8 80s-64 -89 -204 -89c-165 0 -280 127 -280 327s130 326 290 326s225 -119 225 -119l-45 -35s-46 100 -181 100s-227 -112 -227 -272s87 -272 223 -272s191 94 191 94v125h-176v50h235v-315zM318 -48l57 -2c-7 -52 -38 -105 -85 -142l-35 20
c32 33 59 82 63 124z" />
    <glyph glyph-name="Gdotaccent" unicode="&#x120;" horiz-adv-x="655" 
d="M585 0h-43l-8 80s-64 -89 -204 -89c-165 0 -280 127 -280 327s130 326 290 326s225 -119 225 -119l-45 -35s-46 100 -181 100s-227 -112 -227 -272s87 -272 223 -272s191 94 191 94v125h-176v50h235v-315zM386 753c0 -28 -23 -51 -50 -51c-28 0 -51 23 -51 50
c0 28 23 51 50 51c28 0 51 -23 51 -50z" />
    <glyph glyph-name="Hbar" unicode="&#x126;" horiz-adv-x="665" 
d="M575 0h-60v307h-365v-307h-60v470h-79v46h79v119h60v-119h365v119h60v-119h88v-46h-88v-470zM150 357h365v113h-365v-113z" />
    <glyph glyph-name="Hcircumflex" unicode="&#x124;" horiz-adv-x="665" 
d="M575 0h-60v315h-365v-315h-60v635h60v-270h365v270h60v-635zM445 690h-45l-67 90l-68 -90h-45l80 125h65z" />
    <glyph glyph-name="Ibreve" unicode="&#x12c;" horiz-adv-x="240" 
d="M150 0h-60v635h60v-635zM213 815l35 -10c-15 -70 -55 -115 -127 -115c-73 0 -113 45 -128 115l35 10c15 -50 42 -80 92 -80s78 30 93 80z" />
    <glyph glyph-name="Imacron" unicode="&#x12a;" horiz-adv-x="240" 
d="M150 0h-60v635h60v-635zM248 730h-255v45h255v-45z" />
    <glyph glyph-name="Iogonek" unicode="&#x12e;" horiz-adv-x="240" 
d="M192 -120l15 -25s-32 -40 -87 -40c-54 0 -93 30 -93 90c0 52 40 87 63 102v628h60v-635h-24c-22 -18 -49 -47 -49 -85c0 -36 23 -55 53 -55s51 11 62 20z" />
    <glyph glyph-name="Itilde" unicode="&#x128;" horiz-adv-x="240" 
d="M150 0h-60v635h60v-635zM220 800l35 -5c0 -50 -35 -90 -75 -90s-62 22 -77 32c-15 11 -28 21 -43 21s-35 -13 -40 -53l-35 5c0 50 35 90 75 90s62 -22 77 -32c15 -11 28 -21 43 -21s35 13 40 53z" />
    <glyph glyph-name="Jcircumflex" unicode="&#x134;" horiz-adv-x="245" 
d="M95 -25v660h60v-645c0 -60 -15 -95 -35 -120s-55 -45 -95 -45s-65 12 -65 12l10 48s20 -10 55 -10s70 25 70 100zM235 690h-45l-67 90l-68 -90h-45l80 125h65z" />
    <glyph glyph-name="Kcommaaccent" unicode="&#x136;" horiz-adv-x="535" 
d="M525 0h-72l-221 333l-82 -88v-245h-60v635h60v-320l292 320h73l-244 -261zM271 -48l57 -2c-7 -52 -38 -105 -85 -142l-35 20c32 33 59 82 63 124z" />
    <glyph glyph-name="Lacute" unicode="&#x139;" horiz-adv-x="425" 
d="M415 0h-325v635h60v-584h265v-51zM218 815l-90 -125h-45l65 125h70z" />
    <glyph glyph-name="Lcaron" unicode="&#x13d;" horiz-adv-x="425" 
d="M415 0h-325v635h60v-584h265v-51zM281 656l59 -2c-2 -56 -23 -128 -50 -169l-42 4c21 46 33 111 33 167z" />
    <glyph glyph-name="Lcommaaccent" unicode="&#x13b;" horiz-adv-x="425" 
d="M415 0h-325v635h60v-584h265v-51zM238 -48l57 -2c-7 -52 -38 -105 -85 -142l-35 20c32 33 59 82 63 124z" />
    <glyph glyph-name="Ldot" unicode="&#x13f;" horiz-adv-x="425" 
d="M415 0h-325v635h60v-584h265v-51zM379 342c0 -28 -23 -51 -50 -51c-28 0 -51 23 -51 50c0 28 23 51 50 51c28 0 51 -23 51 -50z" />
    <glyph glyph-name="Nacute" unicode="&#x143;" horiz-adv-x="660" 
d="M570 0h-55l-370 560v-560h-55v635h72l353 -535v535h55v-635zM427 815l-90 -125h-45l65 125h70z" />
    <glyph glyph-name="Ncaron" unicode="&#x147;" horiz-adv-x="660" 
d="M570 0h-55l-370 560v-560h-55v635h72l353 -535v535h55v-635zM449 815l-80 -125h-65l-80 125h45l67 -90l68 90h45z" />
    <glyph glyph-name="Ncommaaccent" unicode="&#x145;" horiz-adv-x="660" 
d="M570 0h-55l-370 560v-560h-55v635h72l353 -535v535h55v-635zM308 -48l57 -2c-7 -52 -38 -105 -85 -142l-35 20c32 33 59 82 63 124z" />
    <glyph glyph-name="Obreve" unicode="&#x14e;" horiz-adv-x="695" 
d="M645 318c0 -188 -117 -327 -297 -327s-298 139 -298 326c0 188 117 327 297 327s298 -139 298 -326zM583 318c0 160 -93 273 -235 273c-143 0 -236 -113 -236 -273s93 -273 235 -273c143 0 236 113 236 273zM440 815l35 -10c-15 -70 -55 -115 -127 -115
c-73 0 -113 45 -128 115l35 10c15 -50 42 -80 92 -80s78 30 93 80z" />
    <glyph glyph-name="Ohungarumlaut" unicode="&#x150;" horiz-adv-x="695" 
d="M645 318c0 -188 -117 -327 -297 -327s-298 139 -298 326c0 188 117 327 297 327s298 -139 298 -326zM583 318c0 160 -93 273 -235 273c-143 0 -236 -113 -236 -273s93 -273 235 -273c143 0 236 113 236 273zM518 815l-90 -125h-46l65 125h71zM392 815l-89 -125h-46
l65 125h70z" />
    <glyph glyph-name="Omacron" unicode="&#x14c;" horiz-adv-x="695" 
d="M645 318c0 -188 -117 -327 -297 -327s-298 139 -298 326c0 188 117 327 297 327s298 -139 298 -326zM583 318c0 160 -93 273 -235 273c-143 0 -236 -113 -236 -273s93 -273 235 -273c143 0 236 113 236 273zM475 730h-255v45h255v-45z" />
    <glyph glyph-name="Oslashacute" unicode="&#x1fe;" horiz-adv-x="695" 
d="M645 318c0 -188 -117 -327 -297 -327c-71 0 -132 21 -180 58l-68 -87l-35 28l70 89c-54 59 -85 142 -85 238c0 188 117 327 297 327c73 0 136 -23 184 -62l64 81l35 -28l-66 -84c52 -58 81 -140 81 -233zM583 318c0 74 -20 139 -56 186l-323 -410c38 -31 87 -49 143 -49
c143 0 236 113 236 273zM496 537c-39 34 -89 54 -148 54c-143 0 -236 -113 -236 -273c0 -77 22 -144 61 -192zM460 815l-90 -125h-45l65 125h70z" />
    <glyph glyph-name="Racute" unicode="&#x154;" horiz-adv-x="545" 
d="M515 0h-72l-183 275h-110v-275h-60v635h185c120 0 203 -75 203 -180s-83 -162 -151 -175zM418 455c0 45 -23 85 -53 105s-60 25 -110 25h-105v-260h105c50 0 80 5 110 25s53 60 53 105zM373 815l-90 -125h-45l65 125h70z" />
    <glyph glyph-name="Rcaron" unicode="&#x158;" horiz-adv-x="545" 
d="M515 0h-72l-183 275h-110v-275h-60v635h185c120 0 203 -75 203 -180s-83 -162 -151 -175zM418 455c0 45 -23 85 -53 105s-60 25 -110 25h-105v-260h105c50 0 80 5 110 25s53 60 53 105zM394 815l-80 -125h-65l-80 125h45l67 -90l68 90h45z" />
    <glyph glyph-name="Rcommaaccent" unicode="&#x156;" horiz-adv-x="545" 
d="M515 0h-72l-183 275h-110v-275h-60v635h185c120 0 203 -75 203 -180s-83 -162 -151 -175zM418 455c0 45 -23 85 -53 105s-60 25 -110 25h-105v-260h105c50 0 80 5 110 25s53 60 53 105zM267 -48l57 -2c-7 -52 -38 -105 -85 -142l-35 20c32 33 59 82 63 124z" />
    <glyph glyph-name="Sacute" unicode="&#x15a;" horiz-adv-x="486" 
d="M445 170c0 -101 -80 -179 -213 -179c-132 0 -197 94 -203 105l41 37c6 -9 64 -91 164 -91s153 53 153 123s-61 96 -92 110s-115 46 -135 55s-104 48 -104 150s85 165 195 165s172 -70 186 -91l-37 -39c-14 21 -69 80 -149 80s-138 -40 -138 -110s61 -96 92 -110
s115 -46 135 -55s105 -49 105 -150zM351 815l-90 -125h-45l65 125h70z" />
    <glyph glyph-name="Scedilla" unicode="&#x15e;" horiz-adv-x="486" 
d="M445 170c0 -91 -65 -163 -174 -176l-57 -119h-65l74 116c-126 4 -188 94 -194 105l41 37c6 -9 64 -91 164 -91s153 53 153 123s-61 96 -92 110s-115 46 -135 55s-104 48 -104 150s85 165 195 165s172 -70 186 -91l-37 -39c-14 21 -69 80 -149 80s-138 -40 -138 -110
s61 -96 92 -110s115 -46 135 -55s105 -49 105 -150z" />
    <glyph glyph-name="Scircumflex" unicode="&#x15c;" horiz-adv-x="486" 
d="M445 170c0 -101 -80 -179 -213 -179c-132 0 -197 94 -203 105l41 37c6 -9 64 -91 164 -91s153 53 153 123s-61 96 -92 110s-115 46 -135 55s-104 48 -104 150s85 165 195 165s172 -70 186 -91l-37 -39c-14 21 -69 80 -149 80s-138 -40 -138 -110s61 -96 92 -110
s115 -46 135 -55s105 -49 105 -150zM366 690h-45l-67 90l-68 -90h-45l80 125h65z" />
    <glyph glyph-name="Scommaaccent" unicode="&#x218;" horiz-adv-x="486" 
d="M445 170c0 -101 -80 -179 -213 -179c-132 0 -197 94 -203 105l41 37c6 -9 64 -91 164 -91s153 53 153 123s-61 96 -92 110s-115 46 -135 55s-104 48 -104 150s85 165 195 165s172 -70 186 -91l-37 -39c-14 21 -69 80 -149 80s-138 -40 -138 -110s61 -96 92 -110
s115 -46 135 -55s105 -49 105 -150zM222 -48l57 -2c-7 -52 -38 -105 -85 -142l-35 20c32 33 59 82 63 124z" />
    <glyph glyph-name="Tbar" unicode="&#x166;" horiz-adv-x="480" 
d="M423 263h-153v-263h-60v263h-152v46h152v276h-200v50h460v-50h-200v-276h153v-46z" />
    <glyph glyph-name="Tcaron" unicode="&#x164;" horiz-adv-x="480" 
d="M470 585h-200v-585h-60v585h-200v50h460v-50zM353 815l-80 -125h-65l-80 125h45l67 -90l68 90h45z" />
    <glyph glyph-name="Tcedilla" unicode="&#x162;" horiz-adv-x="480" 
d="M470 585h-200v-585h-60v585h-200v50h460v-50zM228 -48l57 -2c-7 -52 -38 -105 -85 -142l-35 20c32 33 59 82 63 124z" />
    <glyph glyph-name="Tcommaaccent" unicode="&#x21a;" horiz-adv-x="480" 
d="M470 585h-200v-585h-60v585h-200v50h460v-50zM228 -48l57 -2c-7 -52 -38 -105 -85 -142l-35 20c32 33 59 82 63 124z" />
    <glyph glyph-name="Ubreve" unicode="&#x16c;" horiz-adv-x="615" 
d="M475 245v390h60v-385c0 -75 -5 -135 -45 -185s-97 -74 -182 -74s-143 24 -183 74s-45 110 -45 185v385h60v-390c0 -75 5 -105 30 -140s65 -59 137 -59c73 0 113 24 138 59s30 65 30 140zM400 815l35 -10c-15 -70 -55 -115 -127 -115c-73 0 -113 45 -128 115l35 10
c15 -50 42 -80 92 -80s78 30 93 80z" />
    <glyph glyph-name="Uhungarumlaut" unicode="&#x170;" horiz-adv-x="615" 
d="M475 245v390h60v-385c0 -75 -5 -135 -45 -185s-97 -74 -182 -74s-143 24 -183 74s-45 110 -45 185v385h60v-390c0 -75 5 -105 30 -140s65 -59 137 -59c73 0 113 24 138 59s30 65 30 140zM478 815l-90 -125h-46l65 125h71zM352 815l-89 -125h-46l65 125h70z" />
    <glyph glyph-name="Umacron" unicode="&#x16a;" horiz-adv-x="615" 
d="M475 245v390h60v-385c0 -75 -5 -135 -45 -185s-97 -74 -182 -74s-143 24 -183 74s-45 110 -45 185v385h60v-390c0 -75 5 -105 30 -140s65 -59 137 -59c73 0 113 24 138 59s30 65 30 140zM435 730h-255v45h255v-45z" />
    <glyph glyph-name="Uogonek" unicode="&#x172;" horiz-adv-x="615" 
d="M470 -120l15 -25s-35 -40 -90 -40s-95 30 -95 90c0 44 29 74 45 88c-12 -1 -24 -2 -37 -2c-85 0 -143 24 -183 74s-45 110 -45 185v385h60v-390c0 -75 5 -105 30 -140s65 -59 137 -59c73 0 113 24 138 59s30 65 30 140v390h60v-385c0 -75 -5 -135 -45 -185
c-24 -30 -53 -50 -90 -62c-26 -19 -50 -50 -50 -88c0 -40 25 -55 55 -55s54 11 65 20z" />
    <glyph glyph-name="Uring" unicode="&#x16e;" horiz-adv-x="615" 
d="M475 245v390h60v-385c0 -75 -5 -135 -45 -185s-97 -74 -182 -74s-143 24 -183 74s-45 110 -45 185v385h60v-390c0 -75 5 -105 30 -140s65 -59 137 -59c73 0 113 24 138 59s30 65 30 140zM385 753c0 -44 -34 -78 -78 -78s-78 33 -78 77s34 78 78 78s78 -33 78 -77z
M352 753c0 24 -20 45 -45 45s-45 -20 -45 -45s20 -46 45 -46s45 20 45 46z" />
    <glyph glyph-name="Utilde" unicode="&#x168;" horiz-adv-x="615" 
d="M475 245v390h60v-385c0 -75 -5 -135 -45 -185s-97 -74 -182 -74s-143 24 -183 74s-45 110 -45 185v385h60v-390c0 -75 5 -105 30 -140s65 -59 137 -59c73 0 113 24 138 59s30 65 30 140zM407 800l35 -5c0 -50 -35 -90 -75 -90s-62 22 -77 32c-15 11 -28 21 -43 21
s-35 -13 -40 -53l-35 5c0 50 35 90 75 90s62 -22 77 -32c15 -11 28 -21 43 -21s35 13 40 53z" />
    <glyph glyph-name="Wacute" unicode="&#x1e82;" horiz-adv-x="840" 
d="M815 635l-165 -635h-70l-160 565l-160 -565h-70l-165 635h62l140 -565l160 565h70l160 -565l140 565h58zM508 815l-90 -125h-45l65 125h70z" />
    <glyph glyph-name="Wcircumflex" unicode="&#x174;" horiz-adv-x="840" 
d="M815 635l-165 -635h-70l-160 565l-160 -565h-70l-165 635h62l140 -565l160 565h70l160 -565l140 565h58zM533 690h-45l-67 90l-68 -90h-45l80 125h65z" />
    <glyph glyph-name="Wdieresis" unicode="&#x1e84;" horiz-adv-x="840" 
d="M815 635l-165 -635h-70l-160 565l-160 -565h-70l-165 635h62l140 -565l160 565h70l160 -565l140 565h58zM536 753c0 -23 -18 -43 -43 -43s-43 20 -43 42c0 23 18 43 43 43s43 -20 43 -42zM391 753c0 -23 -18 -43 -43 -43s-43 20 -43 42c0 23 18 43 43 43s43 -20 43 -42z
" />
    <glyph glyph-name="Wgrave" unicode="&#x1e80;" horiz-adv-x="840" 
d="M815 635l-165 -635h-70l-160 565l-160 -565h-70l-165 635h62l140 -565l160 565h70l160 -565l140 565h58zM468 690h-45l-90 125h70z" />
    <glyph glyph-name="Ycircumflex" unicode="&#x176;" horiz-adv-x="515" 
d="M505 635l-217 -370v-265h-60v265l-218 370h67l183 -320l182 320h63zM370 690h-45l-67 90l-68 -90h-45l80 125h65z" />
    <glyph glyph-name="Ygrave" unicode="&#x1ef2;" horiz-adv-x="515" 
d="M505 635l-217 -370v-265h-60v265l-218 370h67l183 -320l182 320h63zM310 690h-45l-90 125h70z" />
    <glyph glyph-name="Zacute" unicode="&#x179;" horiz-adv-x="525" 
d="M490 0h-455v46l375 540h-365v49h435v-45l-375 -539h385v-51zM360 815l-90 -125h-45l65 125h70z" />
    <glyph glyph-name="Zdotaccent" unicode="&#x17b;" horiz-adv-x="525" 
d="M490 0h-455v46l375 540h-365v49h435v-45l-375 -539h385v-51zM313 753c0 -28 -23 -51 -50 -51c-28 0 -51 23 -51 50c0 28 23 51 50 51c28 0 51 -23 51 -50z" />
    <glyph glyph-name="Idotaccent" unicode="&#x130;" horiz-adv-x="240" 
d="M150 0h-60v635h60v-635zM171 753c0 -28 -23 -51 -50 -51c-28 0 -51 23 -51 50c0 28 23 51 50 51c28 0 51 -23 51 -50z" />
    <glyph glyph-name="abreve" unicode="&#x103;" horiz-adv-x="450" 
d="M405 0h-65s-10 30 -10 60c-27 -35 -75 -69 -150 -69s-140 44 -140 137s80 123 115 133s96 19 173 19v35c0 75 -53 102 -113 102s-109 -22 -135 -41l-23 44c34 21 90 44 155 44s104 -19 128 -40s45 -54 45 -124v-210c0 -45 10 -70 20 -90zM328 120v116
c-25 0 -89 -5 -118 -10s-110 -21 -110 -96s55 -94 95 -94s103 24 133 84zM318 635l35 -10c-15 -70 -55 -115 -127 -115c-73 0 -113 45 -128 115l35 10c15 -50 42 -80 92 -80s78 30 93 80z" />
    <glyph glyph-name="amacron" unicode="&#x101;" horiz-adv-x="450" 
d="M405 0h-65s-10 30 -10 60c-27 -35 -75 -69 -150 -69s-140 44 -140 137s80 123 115 133s96 19 173 19v35c0 75 -53 102 -113 102s-109 -22 -135 -41l-23 44c34 21 90 44 155 44s104 -19 128 -40s45 -54 45 -124v-210c0 -45 10 -70 20 -90zM328 120v116
c-25 0 -89 -5 -118 -10s-110 -21 -110 -96s55 -94 95 -94s103 24 133 84zM353 550h-255v45h255v-45z" />
    <glyph glyph-name="aogonek" unicode="&#x105;" horiz-adv-x="450" 
d="M399 -122l15 -25s-32 -38 -87 -38c-45 0 -78 27 -78 72c0 52 32 85 87 131c-3 12 -6 26 -6 42c-29 -25 -75 -69 -150 -69s-140 44 -140 137s80 123 115 133s96 19 173 19v35c0 75 -53 102 -113 102s-109 -22 -135 -41l-23 44c34 21 90 44 155 44s104 -19 128 -40
s45 -54 45 -124v-210c0 -45 10 -70 20 -90h-44c-38 -35 -62 -67 -62 -97c0 -22 10 -43 44 -43c28 0 44 10 56 18zM328 117v119c-25 0 -89 -5 -118 -10s-110 -21 -110 -98c0 -55 35 -92 88 -92c65 0 112 47 140 81z" />
    <glyph glyph-name="aeacute" unicode="&#x1fd;" horiz-adv-x="753" 
d="M718 229h-333v-9c0 -105 55 -179 150 -179s145 54 145 54l28 -39s-58 -65 -178 -65c-85 0 -140 44 -170 94c-45 -65 -100 -94 -175 -94s-145 41 -145 131s80 121 115 131s93 19 173 19v43c0 75 -53 102 -113 102s-109 -22 -135 -41l-23 44c34 21 90 44 155 44
s104 -19 128 -40s30 -49 30 -49c4 9 45 89 160 89s188 -89 188 -209v-26zM385 272h275c0 63 -33 145 -132 145s-138 -87 -143 -145zM340 130c-4 11 -12 39 -12 99c-15 0 -73 -4 -108 -9s-120 -20 -120 -95s63 -89 100 -89s101 18 140 94zM484 635l-90 -125h-45l65 125h70z
" />
    <glyph glyph-name="cacute" unicode="&#x107;" horiz-adv-x="437" 
d="M376 114l38 -33c-4 -6 -57 -91 -174 -91s-200 97 -200 237s90 237 210 237s163 -90 163 -90l-40 -30s-36 71 -121 71s-153 -65 -153 -187s68 -187 148 -187s123 64 129 73zM337 635l-90 -125h-45l65 125h70z" />
    <glyph glyph-name="ccaron" unicode="&#x10d;" horiz-adv-x="437" 
d="M376 114l38 -33c-4 -6 -57 -91 -174 -91s-200 97 -200 237s90 237 210 237s163 -90 163 -90l-40 -30s-36 71 -121 71s-153 -65 -153 -187s68 -187 148 -187s123 64 129 73zM361 635l-80 -125h-65l-80 125h45l67 -90l68 90h45z" />
    <glyph glyph-name="ccircumflex" unicode="&#x109;" horiz-adv-x="437" 
d="M376 114l38 -33c-4 -6 -57 -91 -174 -91s-200 97 -200 237s90 237 210 237s163 -90 163 -90l-40 -30s-36 71 -121 71s-153 -65 -153 -187s68 -187 148 -187s123 64 129 73zM361 510h-45l-67 90l-68 -90h-45l80 125h65z" />
    <glyph glyph-name="cdotaccent" unicode="&#x10b;" horiz-adv-x="437" 
d="M376 114l38 -33c-4 -6 -57 -91 -174 -91s-200 97 -200 237s90 237 210 237s163 -90 163 -90l-40 -30s-36 71 -121 71s-153 -65 -153 -187s68 -187 148 -187s123 64 129 73zM299 573c0 -28 -23 -51 -50 -51c-28 0 -51 23 -51 50c0 28 23 51 50 51c28 0 51 -23 51 -50z" />
    <glyph glyph-name="dcaron" unicode="&#x10f;" horiz-adv-x="530" 
d="M450 0h-47l-10 75s-44 -84 -159 -84c-120 0 -194 102 -194 237s85 236 205 236c105 0 143 -79 148 -89v280h57v-655zM395 228c0 102 -55 189 -145 189s-150 -86 -150 -189c0 -102 55 -189 145 -189s150 86 150 189zM522 659l59 -2c-2 -56 -23 -128 -50 -169l-42 4
c21 46 33 111 33 167z" />
    <glyph glyph-name="dcroat" unicode="&#x111;" horiz-adv-x="530" 
d="M450 0h-47l-10 75s-44 -84 -159 -84c-120 0 -194 102 -194 237s85 236 205 236c105 0 143 -79 148 -89v164h-179v46h179v70h57v-70h85v-46h-85v-539zM395 228c0 102 -55 189 -145 189s-150 -86 -150 -189c0 -102 55 -189 145 -189s150 86 150 189z" />
    <glyph glyph-name="ebreve" unicode="&#x115;" horiz-adv-x="468" 
d="M433 220h-333c0 -105 54 -179 150 -179s145 54 145 54l28 -39s-58 -65 -178 -65s-205 89 -205 236c0 148 90 237 205 237s188 -89 188 -214v-30zM375 265c0 75 -35 152 -132 152c-98 0 -138 -87 -143 -152h275zM341 635l35 -10c-15 -70 -55 -115 -127 -115
c-73 0 -113 45 -128 115l35 10c15 -50 42 -80 92 -80s78 30 93 80z" />
    <glyph glyph-name="ecaron" unicode="&#x11b;" horiz-adv-x="468" 
d="M433 220h-333c0 -105 54 -179 150 -179s145 54 145 54l28 -39s-58 -65 -178 -65s-205 89 -205 236c0 148 90 237 205 237s188 -89 188 -214v-30zM375 265c0 75 -35 152 -132 152c-98 0 -138 -87 -143 -152h275zM361 635l-80 -125h-65l-80 125h45l67 -90l68 90h45z" />
    <glyph glyph-name="edotaccent" unicode="&#x117;" horiz-adv-x="468" 
d="M433 220h-333c0 -105 54 -179 150 -179s145 54 145 54l28 -39s-58 -65 -178 -65s-205 89 -205 236c0 148 90 237 205 237s188 -89 188 -214v-30zM375 265c0 75 -35 152 -132 152c-98 0 -138 -87 -143 -152h275zM299 573c0 -28 -23 -51 -50 -51c-28 0 -51 23 -51 50
c0 28 23 51 50 51c28 0 51 -23 51 -50z" />
    <glyph glyph-name="emacron" unicode="&#x113;" horiz-adv-x="468" 
d="M433 220h-333c0 -105 54 -179 150 -179s145 54 145 54l28 -39s-58 -65 -178 -65s-205 89 -205 236c0 148 90 237 205 237s188 -89 188 -214v-30zM375 265c0 75 -35 152 -132 152c-98 0 -138 -87 -143 -152h275zM376 550h-255v45h255v-45z" />
    <glyph glyph-name="eng" unicode="&#x14b;" horiz-adv-x="515" 
d="M132 455l5 -90c26 49 78 99 158 99s145 -45 145 -165v-314c0 -48 -5 -82 -22 -110c-21 -34 -53 -50 -96 -50c-34 0 -54 10 -54 10l5 45c15 -5 30 -7 45 -7s33 2 46 17c18 20 19 65 19 105v284c0 80 -23 133 -103 133s-133 -87 -143 -137v-275h-57v455h52z" />
    <glyph glyph-name="eogonek" unicode="&#x119;" horiz-adv-x="468" 
d="M409 -120l15 -25s-35 -40 -90 -40s-95 30 -95 90c0 45 31 77 46 89c-13 -1 -25 -3 -40 -3c-120 0 -205 89 -205 236c0 148 90 237 205 237s188 -89 188 -214v-30h-333c0 -105 54 -179 150 -179s145 54 145 54l28 -39s-27 -28 -76 -47c-35 -24 -58 -56 -58 -94
c0 -40 25 -55 55 -55s54 11 65 20zM375 265c0 75 -35 152 -132 152c-98 0 -138 -87 -143 -152h275z" />
    <glyph glyph-name="gbreve" unicode="&#x11f;" horiz-adv-x="525" 
d="M445 80c0 -100 -15 -145 -40 -180s-80 -75 -175 -75s-157 43 -167 53l28 43c10 -10 71 -46 139 -46s107 25 126 49s32 66 32 131v40c-3 -6 -43 -90 -158 -90s-190 95 -190 230s90 229 200 229s144 -78 148 -89l10 80h47v-375zM390 235c0 100 -55 182 -142 182
c-88 0 -148 -82 -148 -182s55 -182 142 -182c88 0 148 82 148 182zM347 635l35 -10c-15 -70 -55 -115 -127 -115c-73 0 -113 45 -128 115l35 10c15 -50 42 -80 92 -80s78 30 93 80z" />
    <glyph glyph-name="gcircumflex" unicode="&#x11d;" horiz-adv-x="525" 
d="M445 80c0 -100 -15 -145 -40 -180s-80 -75 -175 -75s-157 43 -167 53l28 43c10 -10 71 -46 139 -46s107 25 126 49s32 66 32 131v40c-3 -6 -43 -90 -158 -90s-190 95 -190 230s90 229 200 229s144 -78 148 -89l10 80h47v-375zM390 235c0 100 -55 182 -142 182
c-88 0 -148 -82 -148 -182s55 -182 142 -182c88 0 148 82 148 182zM367 510h-45l-67 90l-68 -90h-45l80 125h65z" />
    <glyph glyph-name="gcommaaccent" unicode="&#x123;" horiz-adv-x="525" 
d="M445 80c0 -100 -15 -145 -40 -180s-80 -75 -175 -75s-157 43 -167 53l28 43c10 -10 71 -46 139 -46s107 25 126 49s32 66 32 131v40c-3 -6 -43 -90 -158 -90s-190 95 -190 230s90 229 200 229s144 -78 148 -89l10 80h47v-375zM390 235c0 100 -55 182 -142 182
c-88 0 -148 -82 -148 -182s55 -182 142 -182c88 0 148 82 148 182zM273 504l-59 2c5 56 45 121 95 158l31 -25c-40 -39 -62 -87 -67 -135z" />
    <glyph glyph-name="gdotaccent" unicode="&#x121;" horiz-adv-x="525" 
d="M445 80c0 -100 -15 -145 -40 -180s-80 -75 -175 -75s-157 43 -167 53l28 43c10 -10 71 -46 139 -46s107 25 126 49s32 66 32 131v40c-3 -6 -43 -90 -158 -90s-190 95 -190 230s90 229 200 229s144 -78 148 -89l10 80h47v-375zM390 235c0 100 -55 182 -142 182
c-88 0 -148 -82 -148 -182s55 -182 142 -182c88 0 148 82 148 182zM305 573c0 -28 -23 -51 -50 -51c-28 0 -51 23 -51 50c0 28 23 51 50 51c28 0 51 -23 51 -50z" />
    <glyph glyph-name="hbar" unicode="&#x127;" horiz-adv-x="515" 
d="M440 0h-57v279c0 80 -23 133 -103 133s-133 -87 -143 -137v-275h-57v539h-74v46h74v70h57v-70h190v-46h-190v-174c26 49 78 99 158 99s145 -45 145 -165v-299z" />
    <glyph glyph-name="hcircumflex" unicode="&#x125;" horiz-adv-x="515" 
d="M440 0h-57v279c0 80 -23 133 -103 133s-133 -87 -143 -137v-275h-57v655h57v-290c26 49 78 99 158 99s145 -45 145 -165v-299zM221 710h-45l-67 90l-68 -90h-45l80 125h65z" />
    <glyph glyph-name="ibreve" unicode="&#x12d;" horiz-adv-x="217" 
d="M137 0h-57v455h57v-455zM201 635l35 -10c-15 -70 -55 -115 -127 -115c-73 0 -113 45 -128 115l35 10c15 -50 42 -80 92 -80s78 30 93 80z" />
    <glyph glyph-name="imacron" unicode="&#x12b;" horiz-adv-x="217" 
d="M137 0h-57v455h57v-455zM236 550h-255v45h255v-45z" />
    <glyph glyph-name="iogonek" unicode="&#x12f;" horiz-adv-x="217" 
d="M137 0h-18c-22 -18 -49 -47 -49 -85c0 -36 23 -55 53 -55s51 11 62 20l15 -25s-32 -40 -87 -40c-54 0 -93 30 -93 90c0 49 37 83 60 100v450h57v-455zM154 613c0 -25 -20 -46 -45 -46s-46 20 -46 45s20 46 45 46s46 -20 46 -45z" />
    <glyph glyph-name="itilde" unicode="&#x129;" horiz-adv-x="217" 
d="M137 0h-57v455h57v-455zM208 620l35 -5c0 -50 -35 -90 -75 -90s-62 22 -77 32c-15 11 -28 21 -43 21s-35 -13 -40 -53l-35 5c0 50 35 90 75 90s62 -22 77 -32c15 -11 28 -21 43 -21s35 13 40 53z" />
    <glyph glyph-name="jcircumflex" unicode="&#x135;" horiz-adv-x="222" 
d="M224 510h-45l-67 90l-68 -90h-45l80 125h65zM142 455v-470c0 -44 -5 -83 -22 -110c-22 -35 -56 -50 -94 -50c-30 0 -56 10 -56 10l5 45c12 -4 30 -7 47 -7c18 0 35 5 45 17c14 16 18 38 18 95v470h57z" />
    <glyph glyph-name="kcommaaccent" unicode="&#x137;" horiz-adv-x="455" 
d="M445 0h-70l-173 235l-65 -62v-173h-57v655h57v-420l218 220h75l-190 -183zM226 -48l57 -2c-7 -52 -38 -105 -85 -142l-35 20c32 33 59 82 63 124z" />
    <glyph glyph-name="lacute" unicode="&#x13a;" horiz-adv-x="217" 
d="M137 0h-57v655h57v-655zM204 835l-90 -125h-45l65 125h70z" />
    <glyph glyph-name="lcaron" unicode="&#x13e;" horiz-adv-x="217" 
d="M137 0h-57v655h57v-655zM225 656l59 -2c-2 -56 -23 -128 -50 -169l-42 4c21 46 33 111 33 167z" />
    <glyph glyph-name="lcommaaccent" unicode="&#x13c;" horiz-adv-x="217" 
d="M137 0h-57v655h57v-655zM95 -48l57 -2c-7 -52 -38 -105 -85 -142l-35 20c32 33 59 82 63 124z" />
    <glyph glyph-name="ldot" unicode="&#x140;" horiz-adv-x="287" 
d="M137 0h-57v655h57v-655zM302 338c0 -28 -23 -51 -50 -51c-28 0 -51 23 -51 50c0 28 23 51 50 51c28 0 51 -23 51 -50z" />
    <glyph glyph-name="nacute" unicode="&#x144;" horiz-adv-x="515" 
d="M440 0h-57v279c0 80 -23 133 -103 133s-133 -87 -143 -137v-275h-57v455h52l5 -90c26 49 78 99 158 99s145 -45 145 -165v-299zM361 635l-90 -125h-45l65 125h70z" />
    <glyph glyph-name="ncaron" unicode="&#x148;" horiz-adv-x="515" 
d="M440 0h-57v279c0 80 -23 133 -103 133s-133 -87 -143 -137v-275h-57v455h52l5 -90c26 49 78 99 158 99s145 -45 145 -165v-299zM380 635l-80 -125h-65l-80 125h45l67 -90l68 90h45z" />
    <glyph glyph-name="ncommaaccent" unicode="&#x146;" horiz-adv-x="515" 
d="M440 0h-57v279c0 80 -23 133 -103 133s-133 -87 -143 -137v-275h-57v455h52l5 -90c26 49 78 99 158 99s145 -45 145 -165v-299zM242 -48l57 -2c-7 -52 -38 -105 -85 -142l-35 20c32 33 59 82 63 124z" />
    <glyph glyph-name="obreve" unicode="&#x14f;" 
d="M460 228c0 -143 -85 -237 -210 -237s-210 94 -210 236c0 143 85 237 210 237s210 -94 210 -236zM400 228c0 112 -55 188 -150 188s-150 -76 -150 -188c0 -113 55 -189 150 -189s150 76 150 189zM343 635l35 -10c-15 -70 -55 -115 -127 -115c-73 0 -113 45 -128 115l35 10
c15 -50 42 -80 92 -80s78 30 93 80z" />
    <glyph glyph-name="ohungarumlaut" unicode="&#x151;" 
d="M460 228c0 -143 -85 -237 -210 -237s-210 94 -210 236c0 143 85 237 210 237s210 -94 210 -236zM400 228c0 112 -55 188 -150 188s-150 -76 -150 -188c0 -113 55 -189 150 -189s150 76 150 189zM421 635l-90 -125h-46l65 125h71zM295 635l-89 -125h-46l65 125h70z" />
    <glyph glyph-name="omacron" unicode="&#x14d;" 
d="M460 228c0 -143 -85 -237 -210 -237s-210 94 -210 236c0 143 85 237 210 237s210 -94 210 -236zM400 228c0 112 -55 188 -150 188s-150 -76 -150 -188c0 -113 55 -189 150 -189s150 76 150 189zM378 550h-255v45h255v-45z" />
    <glyph glyph-name="oslashacute" unicode="&#x1ff;" 
d="M460 228c0 -143 -85 -237 -210 -237c-50 0 -93 15 -127 42l-49 -61l-30 28l49 61c-34 41 -53 98 -53 166c0 143 85 237 210 237c52 0 97 -16 132 -45l47 59l30 -28l-49 -61c32 -40 50 -96 50 -161zM348 378c-24 24 -58 38 -98 38c-95 0 -150 -76 -150 -188
c0 -49 10 -90 29 -122zM400 227c0 46 -9 86 -26 117l-219 -270c25 -23 57 -35 95 -35c95 0 150 76 150 188zM350 635l-90 -125h-45l65 125h70z" />
    <glyph glyph-name="racute" unicode="&#x155;" horiz-adv-x="325" 
d="M315 460l-10 -58s-10 6 -30 6s-44 -4 -70 -23s-59 -59 -68 -115v-270h-57v455h52l5 -95c25 55 78 105 143 105c20 0 35 -5 35 -5zM276 635l-90 -125h-45l65 125h70z" />
    <glyph glyph-name="rcaron" unicode="&#x159;" horiz-adv-x="325" 
d="M315 460l-10 -58s-10 6 -30 6s-44 -4 -70 -23s-59 -59 -68 -115v-270h-57v455h52l5 -95c25 55 78 105 143 105c20 0 35 -5 35 -5zM305 635l-80 -125h-65l-80 125h45l67 -90l68 90h45z" />
    <glyph glyph-name="rcommaaccent" unicode="&#x157;" horiz-adv-x="325" 
d="M315 460l-10 -58s-10 6 -30 6s-44 -4 -70 -23s-59 -59 -68 -115v-270h-57v455h52l5 -95c25 55 78 105 143 105c20 0 35 -5 35 -5zM108 -48l57 -2c-7 -52 -38 -105 -85 -142l-35 20c32 33 59 82 63 124z" />
    <glyph glyph-name="sacute" unicode="&#x15b;" horiz-adv-x="390" 
d="M355 124c0 -75 -61 -133 -161 -133s-159 67 -169 82l37 35c20 -25 68 -69 133 -69s105 29 105 78s-46 66 -72 76s-72 24 -93 33s-88 38 -88 113s65 126 155 126s144 -54 148 -60l-30 -40c-19 21 -64 53 -120 53s-100 -24 -100 -73s46 -64 75 -75s60 -20 85 -30
s95 -41 95 -116zM301 635l-90 -125h-45l65 125h70z" />
    <glyph glyph-name="scedilla" unicode="&#x15f;" horiz-adv-x="390" 
d="M355 124c0 -66 -48 -120 -127 -131l-57 -118h-65l74 117c-92 5 -146 66 -155 81l37 35c20 -25 68 -69 133 -69s105 29 105 78s-46 66 -72 76s-72 24 -93 33s-88 38 -88 113s65 126 155 126s144 -54 148 -60l-30 -40c-19 21 -64 53 -120 53s-100 -24 -100 -73
s46 -64 75 -75s60 -20 85 -30s95 -41 95 -116z" />
    <glyph glyph-name="scircumflex" unicode="&#x15d;" horiz-adv-x="390" 
d="M355 124c0 -75 -61 -133 -161 -133s-159 67 -169 82l37 35c20 -25 68 -69 133 -69s105 29 105 78s-46 66 -72 76s-72 24 -93 33s-88 38 -88 113s65 126 155 126s144 -54 148 -60l-30 -40c-19 21 -64 53 -120 53s-100 -24 -100 -73s46 -64 75 -75s60 -20 85 -30
s95 -41 95 -116zM316 510h-45l-67 90l-68 -90h-45l80 125h65z" />
    <glyph glyph-name="scommaaccent" unicode="&#x219;" horiz-adv-x="390" 
d="M355 124c0 -75 -61 -133 -161 -133s-159 67 -169 82l37 35c20 -25 68 -69 133 -69s105 29 105 78s-46 66 -72 76s-72 24 -93 33s-88 38 -88 113s65 126 155 126s144 -54 148 -60l-30 -40c-19 21 -64 53 -120 53s-100 -24 -100 -73s46 -64 75 -75s60 -20 85 -30
s95 -41 95 -116zM175 -48l57 -2c-7 -52 -38 -105 -85 -142l-35 20c32 33 59 82 63 124z" />
    <glyph glyph-name="tbar" unicode="&#x167;" horiz-adv-x="300" 
d="M285 212h-134v-67c0 -55 7 -76 22 -90c16 -14 35 -17 55 -17s44 7 44 7l8 -45c-15 -5 -45 -10 -70 -10c-35 0 -65 10 -87 35c-23 25 -29 60 -29 120v67h-69v46h69v152h-69v45h69l8 130h49v-130h134v-45h-134v-152h134v-46z" />
    <glyph glyph-name="tcaron" unicode="&#x165;" horiz-adv-x="300" 
d="M285 410h-134v-265c0 -55 7 -76 22 -90c16 -14 35 -17 55 -17s44 7 44 7l8 -45c-15 -5 -45 -10 -70 -10c-35 0 -65 10 -87 35c-23 25 -29 60 -29 120v265h-69v45h69l8 130h49v-130h134v-45zM235 661l59 -2c-2 -56 -23 -128 -50 -169l-42 4c21 46 33 111 33 167z" />
    <glyph glyph-name="tcedilla" unicode="&#x163;" horiz-adv-x="300" 
d="M285 410h-134v-265c0 -55 7 -76 22 -90c16 -14 35 -17 55 -17s44 7 44 7l8 -45c-15 -5 -45 -10 -70 -10c-35 0 -65 10 -87 35c-23 25 -29 60 -29 120v265h-69v45h69l8 130h49v-130h134v-45zM163 -48l57 -2c-7 -52 -38 -105 -85 -142l-35 20c32 33 59 82 63 124z" />
    <glyph glyph-name="tcommaaccent" unicode="&#x21b;" horiz-adv-x="300" 
d="M285 410h-134v-265c0 -55 7 -76 22 -90c16 -14 35 -17 55 -17s44 7 44 7l8 -45c-15 -5 -45 -10 -70 -10c-35 0 -65 10 -87 35c-23 25 -29 60 -29 120v265h-69v45h69l8 130h49v-130h134v-45zM162 -48l57 -2c-7 -52 -38 -105 -85 -142l-35 20c32 33 59 82 63 124z" />
    <glyph glyph-name="ubreve" unicode="&#x16d;" horiz-adv-x="510" 
d="M430 0h-52l-5 90c-26 -49 -78 -99 -153 -99s-145 39 -145 164v300h57v-285c0 -80 28 -127 100 -127c73 0 131 77 141 134v278h57v-455zM348 635l35 -10c-15 -70 -55 -115 -127 -115c-73 0 -113 45 -128 115l35 10c15 -50 42 -80 92 -80s78 30 93 80z" />
    <glyph glyph-name="uhungarumlaut" unicode="&#x171;" horiz-adv-x="510" 
d="M430 0h-52l-5 90c-26 -49 -78 -99 -153 -99s-145 39 -145 164v300h57v-285c0 -80 28 -127 100 -127c73 0 131 77 141 134v278h57v-455zM426 635l-90 -125h-46l65 125h71zM300 635l-89 -125h-46l65 125h70z" />
    <glyph glyph-name="umacron" unicode="&#x16b;" horiz-adv-x="510" 
d="M430 0h-52l-5 90c-26 -49 -78 -99 -153 -99s-145 39 -145 164v300h57v-285c0 -80 28 -127 100 -127c73 0 131 77 141 134v278h57v-455zM383 550h-255v45h255v-45z" />
    <glyph glyph-name="uogonek" unicode="&#x173;" horiz-adv-x="510" 
d="M377 22l-4 68c-32 -46 -78 -99 -157 -99c-71 0 -141 39 -141 164v300h57v-285c0 -80 28 -127 100 -127c73 0 136 87 141 134v278h57v-455h-34c-38 -35 -62 -67 -62 -97c0 -22 10 -43 44 -43c28 0 44 10 56 18l15 -25s-32 -38 -87 -38c-45 0 -78 27 -78 72
c0 52 35 87 93 135z" />
    <glyph glyph-name="uring" unicode="&#x16f;" horiz-adv-x="510" 
d="M430 0h-52l-5 90c-26 -49 -78 -99 -153 -99s-145 39 -145 164v300h57v-285c0 -80 28 -127 100 -127c73 0 131 77 141 134v278h57v-455zM333 573c0 -44 -34 -78 -78 -78s-78 33 -78 77s34 78 78 78s78 -33 78 -77zM300 573c0 24 -20 45 -45 45s-45 -20 -45 -45
s20 -46 45 -46s45 20 45 46z" />
    <glyph glyph-name="utilde" unicode="&#x169;" horiz-adv-x="510" 
d="M430 0h-52l-5 90c-26 -49 -78 -99 -153 -99s-145 39 -145 164v300h57v-285c0 -80 28 -127 100 -127c73 0 131 77 141 134v278h57v-455zM355 620l35 -5c0 -50 -35 -90 -75 -90s-62 22 -77 32c-15 11 -28 21 -43 21s-35 -13 -40 -53l-35 5c0 50 35 90 75 90s62 -22 77 -32
c15 -11 28 -21 43 -21s35 13 40 53z" />
    <glyph glyph-name="wacute" unicode="&#x1e83;" horiz-adv-x="660" 
d="M640 455l-132 -455h-60l-118 390l-117 -390h-60l-133 455h57l108 -385l112 385h66l112 -385l107 385h58zM418 635l-90 -125h-45l65 125h70z" />
    <glyph glyph-name="wcircumflex" unicode="&#x175;" horiz-adv-x="660" 
d="M640 455l-132 -455h-60l-118 390l-117 -390h-60l-133 455h57l108 -385l112 385h66l112 -385l107 385h58zM443 510h-45l-67 90l-68 -90h-45l80 125h65z" />
    <glyph glyph-name="wdieresis" unicode="&#x1e85;" horiz-adv-x="660" 
d="M640 455l-132 -455h-60l-118 390l-117 -390h-60l-133 455h57l108 -385l112 385h66l112 -385l107 385h58zM446 573c0 -23 -18 -43 -43 -43s-43 20 -43 42c0 23 18 43 43 43s43 -20 43 -42zM301 573c0 -23 -18 -43 -43 -43s-43 20 -43 42c0 23 18 43 43 43s43 -20 43 -42z
" />
    <glyph glyph-name="wgrave" unicode="&#x1e81;" horiz-adv-x="660" 
d="M640 455l-132 -455h-60l-118 390l-117 -390h-60l-133 455h57l108 -385l112 385h66l112 -385l107 385h58zM378 510h-45l-90 125h70z" />
    <glyph glyph-name="ycircumflex" unicode="&#x177;" horiz-adv-x="435" 
d="M425 455l-215 -550c-19 -50 -50 -80 -95 -80s-70 18 -70 18l15 45s25 -13 50 -13s37 10 55 55l28 70l-178 455h60l145 -400l145 400h60zM330 510h-45l-67 90l-68 -90h-45l80 125h65z" />
    <glyph glyph-name="ygrave" unicode="&#x1ef3;" horiz-adv-x="435" 
d="M425 455l-215 -550c-19 -50 -50 -80 -95 -80s-70 18 -70 18l15 45s25 -13 50 -13s37 10 55 55l28 70l-178 455h60l145 -400l145 400h60zM270 510h-45l-90 125h70z" />
    <glyph glyph-name="zacute" unicode="&#x17a;" horiz-adv-x="405" 
d="M380 0h-355v40l278 370h-268v45h335v-37l-278 -370h288v-48zM300 635l-90 -125h-45l65 125h70z" />
    <glyph glyph-name="zdotaccent" unicode="&#x17c;" horiz-adv-x="405" 
d="M380 0h-355v40l278 370h-268v45h335v-37l-278 -370h288v-48zM253 573c0 -28 -23 -51 -50 -51c-28 0 -51 23 -51 50c0 28 23 51 50 51c28 0 51 -23 51 -50z" />
    <glyph glyph-name="kgreenlandic" unicode="&#x138;" horiz-adv-x="455" 
d="M445 0h-70l-173 235l-65 -62v-173h-57v455h57v-220l218 220h75l-190 -183z" />
    <glyph glyph-name="Delta" unicode="&#x2206;" 
d="M500 0h-500l250 650zM435 45l-185 485l-185 -485h370z" />
    <glyph glyph-name="Omega" unicode="&#x2126;" horiz-adv-x="695" 
d="M650 0h-250v45c91 29 191 125 191 280s-96 272 -243 272c-148 0 -244 -117 -244 -272s100 -251 191 -280v-45h-250v45h155c-29 16 -150 105 -150 285s127 314 297 314s298 -134 298 -314s-121 -269 -150 -285h155v-45z" />
    <glyph glyph-name="uni03BC" unicode="&#x3bc;" 
d="M420 0h-52l-5 90c-21 -46 -73 -99 -138 -99s-88 34 -88 34v-195h-57v625h57v-280c0 -85 23 -132 93 -132s128 86 133 134v278h57v-455z" />
    <glyph glyph-name="pi" unicode="&#x3c0;" 
d="M475 410h-75v-410h-50v410h-200v-410h-50v410h-75v45h450v-45z" />
    <glyph glyph-name="Euro" unicode="&#x20ac;" 
d="M390 403v-40h-229s-1 -28 -1 -43s1 -42 1 -42h229v-40h-225c15 -135 60 -199 150 -199s126 87 126 87l40 -27s-46 -108 -171 -108s-188 97 -203 247h-72v40h67s-1 26 -1 41s1 44 1 44h-67v40h72c19 136 84 242 209 242s164 -101 164 -101l-40 -29s-35 85 -125 85
s-136 -86 -150 -197h225z" />
    <glyph glyph-name="litre" unicode="&#x2113;" horiz-adv-x="492" 
d="M402 59c-24 -28 -66 -71 -127 -71c-32 0 -56 11 -73 29c-22 22 -33 59 -33 108v139c-21 -24 -42 -47 -63 -71c-10 9 -20 17 -30 27c31 36 62 71 93 107v244c0 105 40 157 104 157s86 -56 86 -96c0 -94 -47 -179 -110 -266c-10 -13 -25 -34 -34 -45v-204
c0 -63 28 -89 66 -89c40 0 72 31 96 57c8 -9 17 -17 25 -26zM313 627c0 31 -12 61 -41 61c-35 0 -57 -31 -57 -124v-176c7 10 17 24 23 33c45 71 75 143 75 206z" />
    <glyph glyph-name="estimated" unicode="&#x212e;" horiz-adv-x="660" 
d="M627 299h-460v-206c44 -44 99 -67 163 -67c106 0 171 54 221 136c12 -7 24 -15 37 -22c-61 -92 -132 -152 -258 -152c-178 0 -291 140 -291 311c0 172 110 311 292 311c185 0 292 -139 296 -311zM496 337v167c-43 42 -102 69 -165 69c-65 0 -121 -23 -164 -67v-169h329z
" />
    <glyph glyph-name="partialdiff" unicode="&#x2202;" 
d="M460 235c0 -145 -85 -244 -210 -244s-210 99 -210 221c0 123 80 223 205 223c75 0 130 -40 155 -85c-19 76 -73 153 -119 194s-106 76 -191 91l10 40c41 -4 146 -32 225 -108s135 -187 135 -332zM400 215c0 100 -55 176 -150 176s-150 -76 -150 -176
c0 -99 55 -176 150 -176s150 76 150 176z" />
    <glyph glyph-name="product" unicode="&#x220f;" 
d="M490 -170h-195v45h70v735h-200v-735h70v-45h-195v45h75v735h-75v45h450v-45h-75v-735h75v-45z" />
    <glyph glyph-name="summation" unicode="&#x2211;" 
d="M470 -170h-445v40l240 380l-235 365v40h430v-215h-45v170h-328l238 -360l-243 -375h343v180h45v-225z" />
    <glyph glyph-name="uni2219" unicode="&#x2219;" horiz-adv-x="250" 
d="M170 280c0 -25 -20 -45 -45 -45s-45 20 -45 45s20 45 45 45s45 -20 45 -45z" />
    <glyph glyph-name="radical" unicode="&#x221a;" 
d="M485 590h-80l-151 -590h-65l-79 273h-60v45h95l75 -268l150 585h115v-45z" />
    <glyph glyph-name="infinity" unicode="&#x221e;" 
d="M480 296c0 -65 -50 -110 -115 -110s-100 52 -115 73c-15 -20 -50 -73 -115 -73s-115 44 -115 109s50 110 115 110s100 -52 115 -73c15 20 50 73 115 73s115 -44 115 -109zM436 296c0 38 -29 65 -71 65c-41 0 -71 -34 -90 -65c19 -31 49 -66 90 -66s71 25 71 66zM225 295
c-19 31 -49 66 -90 66s-71 -25 -71 -65s30 -66 71 -66s71 34 90 65z" />
    <glyph glyph-name="integral" unicode="&#x222b;" 
d="M405 650l-10 -45s-20 12 -50 12s-47 -11 -57 -26s-13 -32 -13 -67v-570c0 -50 -12 -74 -29 -93s-43 -36 -82 -36c-40 0 -60 10 -69 14l10 45s20 -12 50 -12s47 11 57 26s13 32 13 67v570c0 50 12 74 29 93s43 36 83 36s59 -10 68 -14z" />
    <glyph glyph-name="approxequal" unicode="&#x2248;" 
d="M455 380c-25 -25 -70 -55 -125 -55s-110 55 -165 55s-95 -45 -95 -45l-25 35c25 25 70 55 125 55s110 -55 165 -55s95 45 95 45zM455 220c-25 -25 -70 -55 -125 -55s-110 55 -165 55s-95 -45 -95 -45l-25 35c25 25 70 55 125 55s110 -55 165 -55s95 45 95 45z" />
    <glyph glyph-name="notequal" unicode="&#x2260;" 
d="M450 189h-212l-45 -144h-46l46 144h-143v45h158l39 123h-197v45h212l45 144h46l-46 -144h143v-45h-158l-39 -123h197v-45z" />
    <glyph glyph-name="lessequal" unicode="&#x2264;" 
d="M450 94l-400 179v45l400 179v-52l-345 -149l345 -150v-52zM450 0h-400v45h400v-45z" />
    <glyph glyph-name="greaterequal" unicode="&#x2265;" 
d="M450 273l-400 -179v52l345 149l-345 150v52l400 -179v-45zM450 0h-400v45h400v-45z" />
    <glyph glyph-name="lozenge" unicode="&#x25ca;" 
d="M465 320l-215 -330l-215 330l215 330zM413 320l-163 250l-163 -250l163 -250z" />
    <glyph glyph-name="uni00A0" unicode="&#xa0;" horiz-adv-x="177" 
 />
    <glyph glyph-name="uni00AD" unicode="&#xad;" horiz-adv-x="300" 
d="M255 205h-210v50h210v-50z" />
    <glyph glyph-name="uni02C9" unicode="&#x2c9;" horiz-adv-x="375" 
d="M315 550h-255v45h255v-45z" />
    <glyph glyph-name="zero.fitted" unicode="&#xe097;" horiz-adv-x="538" 
d="M482 318c0 -175 -68 -327 -213 -327s-213 152 -213 327s68 327 213 327s213 -152 213 -327zM422 319c0 148 -48 280 -153 280s-153 -132 -153 -280s48 -280 153 -280s153 132 153 280z" />
    <glyph glyph-name="one.fitted" unicode="&#xf6dc;" horiz-adv-x="360" 
d="M235 0h-57v545c-15 -12 -44 -22 -53 -25s-32 -10 -52 -13l-8 43c20 2 55 12 75 25c20 12 40 32 47 63h48v-638z" />
    <glyph glyph-name="two.fitted" unicode="&#xe098;" horiz-adv-x="487" 
d="M451 0h-410c16 149 151 240 200 281s130 104 130 184s-55 132 -135 132s-125 -52 -146 -81l-39 29c31 44 90 100 190 100s188 -65 188 -175s-98 -180 -153 -225s-148 -112 -168 -197h343v-48z" />
    <glyph glyph-name="three.fitted" unicode="&#xe099;" horiz-adv-x="475" 
d="M420 175c0 -110 -83 -184 -210 -184s-180 99 -180 99l40 30c9 -16 60 -81 145 -81s148 46 148 136s-73 136 -153 136h-50v48h50c75 0 135 46 135 121s-56 119 -126 119s-111 -40 -135 -71l-35 31c21 29 76 86 171 86s180 -60 180 -160s-81 -139 -115 -145
c51 -9 135 -55 135 -165z" />
    <glyph glyph-name="four.fitted" unicode="&#xe09a;" horiz-adv-x="513" 
d="M488 155h-100v-155h-57v155h-308v45l290 435h75v-434h100v-46zM331 201v379l-249 -379h249z" />
    <glyph glyph-name="five.fitted" unicode="&#xe09b;" 
d="M440 200c0 -130 -95 -209 -220 -209s-181 88 -181 88l37 35c4 -6 53 -75 146 -75s161 56 161 158c0 103 -68 157 -160 157c-50 0 -88 -19 -108 -39l-41 20l56 300h305v-47h-262l-42 -213c19 11 49 25 104 25c110 0 205 -70 205 -200z" />
    <glyph glyph-name="six.fitted" unicode="&#xe09c;" horiz-adv-x="521" 
d="M471 200c0 -115 -75 -209 -200 -209c-110 0 -156 68 -175 104s-40 100 -40 220s39 206 75 250s91 80 170 80s131 -34 150 -55l-31 -36c-15 15 -55 43 -115 43s-99 -22 -129 -57s-64 -100 -64 -230c21 24 69 85 174 85s185 -80 185 -195zM414 195c0 85 -43 152 -143 152
s-155 -102 -155 -102c0 -110 55 -208 155 -208s143 73 143 158z" />
    <glyph glyph-name="seven.fitted" unicode="&#xe09d;" horiz-adv-x="467" 
d="M438 590l-285 -590h-60l288 588h-353v47h410v-45z" />
    <glyph glyph-name="eight.fitted" unicode="&#xe09e;" horiz-adv-x="530" 
d="M475 170c0 -115 -90 -179 -210 -179s-210 64 -210 179s100 155 137 170c-27 10 -112 47 -112 147s85 158 185 158s185 -57 185 -157s-85 -138 -113 -148c38 -15 138 -55 138 -170zM395 487c0 75 -60 113 -130 113s-130 -37 -130 -112s80 -118 150 -128
c60 15 110 52 110 127zM417 172c0 88 -92 133 -172 148c-65 -20 -132 -60 -132 -147c0 -88 67 -136 152 -136s152 48 152 135z" />
    <glyph glyph-name="nine.fitted" unicode="&#xe09f;" horiz-adv-x="521" 
d="M465 320c0 -115 -39 -205 -75 -249s-90 -80 -170 -80s-131 33 -155 59l33 39c20 -20 57 -50 117 -50s100 21 130 56s64 100 64 231c-21 -26 -69 -87 -174 -87s-185 82 -185 197s75 209 200 209c110 0 156 -69 175 -105s40 -105 40 -220zM405 390c0 111 -55 209 -155 209
s-143 -71 -143 -156s43 -156 143 -156s155 103 155 103z" />
    <glyph glyph-name="percent.oldstyle" unicode="&#xfe6a;" horiz-adv-x="750" 
d="M695 135c0 -95 -62 -145 -132 -145s-133 50 -133 145s62 145 132 145s133 -50 133 -145zM529 459l-271 -474l-38 21l272 474zM320 330c0 -95 -62 -145 -132 -145s-133 50 -133 145s62 145 132 145s133 -50 133 -145zM648 135c0 65 -38 105 -85 105
c-48 0 -86 -40 -86 -105s38 -105 85 -105c48 0 86 40 86 105zM273 330c0 65 -38 105 -85 105c-48 0 -86 -40 -86 -105s38 -105 85 -105c48 0 86 40 86 105z" />
    <glyph glyph-name="perthousand.oldstyle" unicode="&#xe900;" horiz-adv-x="1050" 
d="M995 135c0 -95 -62 -145 -132 -145s-133 50 -133 145s62 145 132 145s133 -50 133 -145zM695 135c0 -95 -62 -145 -132 -145s-133 50 -133 145s62 145 132 145s133 -50 133 -145zM529 459l-271 -474l-38 21l272 474zM320 330c0 -95 -62 -145 -132 -145s-133 50 -133 145
s62 145 132 145s133 -50 133 -145zM948 135c0 65 -38 105 -85 105c-48 0 -86 -40 -86 -105s38 -105 85 -105c48 0 86 40 86 105zM648 135c0 65 -38 105 -85 105c-48 0 -86 -40 -86 -105s38 -105 85 -105c48 0 86 40 86 105zM273 330c0 65 -38 105 -85 105
c-48 0 -86 -40 -86 -105s38 -105 85 -105c48 0 86 40 86 105z" />
    <glyph glyph-name="zero.taboldstyle" unicode="&#xe100;" horiz-adv-x="498" 
d="M459 233c0 -140 -80 -242 -210 -242s-210 102 -210 242s80 242 210 242s210 -102 210 -242zM399 235c0 112 -55 195 -150 195s-150 -83 -150 -195c0 -113 55 -196 150 -196s150 83 150 196z" />
    <glyph glyph-name="one.taboldstyle" unicode="&#xe101;" horiz-adv-x="498" 
d="M296 0h-57v378c-13 -14 -42 -24 -53 -28s-38 -12 -58 -12l-7 42c25 2 61 14 80 25s41 29 50 65h45v-470z" />
    <glyph glyph-name="two.taboldstyle" unicode="&#xe102;" horiz-adv-x="498" 
d="M458 0h-410c20 130 136 185 196 220s120 60 120 115s-46 92 -126 92s-130 -61 -135 -66l-33 34s63 80 173 80s178 -60 178 -140s-87 -120 -138 -149s-140 -71 -165 -136h340v-50z" />
    <glyph glyph-name="three.taboldstyle" unicode="&#xe103;" horiz-adv-x="498" 
d="M418 15c0 -115 -90 -180 -200 -180s-164 69 -175 83l40 33c10 -15 60 -67 135 -67s143 41 143 131s-78 133 -158 133h-45v48h45c80 0 140 49 140 119s-55 114 -120 114s-104 -33 -125 -59l-35 30c19 21 65 75 165 75s170 -70 170 -155s-65 -132 -115 -142
c40 -8 135 -48 135 -163z" />
    <glyph glyph-name="four.taboldstyle" unicode="&#xe104;" horiz-adv-x="498" 
d="M491 1h-105v-171h-57v171h-308v47l290 418h75v-416h105v-49zM329 49v361l-249 -361h249z" />
    <glyph glyph-name="five.taboldstyle" unicode="&#xe105;" horiz-adv-x="498" 
d="M430 40c0 -125 -95 -205 -215 -205s-175 85 -175 85l38 34s52 -70 142 -70s153 63 153 153s-63 152 -138 152s-104 -25 -120 -39l-41 20l56 295h295v-49h-253l-42 -206c36 19 65 25 115 25c95 0 185 -70 185 -195z" />
    <glyph glyph-name="six.taboldstyle" unicode="&#xe106;" horiz-adv-x="498" 
d="M455 190c0 -110 -80 -200 -195 -200s-161 74 -175 100s-40 85 -40 210s39 206 75 250s90 80 175 80s136 -41 145 -52l-30 -38c-16 14 -55 42 -115 42s-99 -21 -130 -57s-65 -100 -65 -220c0 0 60 85 175 85s180 -90 180 -200zM398 187c0 85 -43 155 -138 155
s-151 -92 -156 -102c0 -120 61 -203 151 -203s143 65 143 150z" />
    <glyph glyph-name="seven.taboldstyle" unicode="&#xe107;" horiz-adv-x="498" 
d="M440 419l-285 -589h-60l288 586h-343v49h400v-46z" />
    <glyph glyph-name="eight.taboldstyle" unicode="&#xe108;" horiz-adv-x="498" 
d="M449 170c0 -110 -80 -179 -200 -179s-200 69 -200 174s78 155 128 175c-19 6 -103 45 -103 145s80 160 175 160s175 -60 175 -160s-84 -139 -103 -145c35 -15 128 -60 128 -170zM369 488c0 70 -50 112 -120 112s-120 -42 -120 -112s70 -118 140 -128
c60 15 100 58 100 128zM391 172c0 85 -82 133 -162 148c-65 -20 -122 -63 -122 -148s57 -135 142 -135s142 50 142 135z" />
    <glyph glyph-name="nine.taboldstyle" unicode="&#xe109;" horiz-adv-x="498" 
d="M453 165c0 -125 -39 -206 -75 -250s-90 -80 -175 -80s-140 42 -150 52l30 38c19 -14 60 -42 120 -42s99 21 130 57s65 100 65 220c-4 -6 -60 -85 -175 -85s-180 90 -180 200s80 200 195 200s159 -71 175 -100s40 -85 40 -210zM394 225c0 120 -61 204 -151 204
s-143 -65 -143 -150s43 -155 138 -155s150 92 156 101z" />
    <glyph glyph-name="zero.denominator" unicode="&#xe10a;" horiz-adv-x="375" 
d="M330 191c0 -108 -49 -199 -144 -199s-144 91 -144 199s49 199 144 199s144 -91 144 -199zM278 191c0 83 -29 156 -92 156s-92 -73 -92 -156s29 -156 92 -156s92 73 92 156z" />
    <glyph glyph-name="one.denominator" unicode="&#xe10b;" horiz-adv-x="375" 
d="M225 0h-52v319c-8 -5 -18 -10 -33 -15s-30 -8 -35 -8l-8 35c13 2 34 9 48 17c14 9 35 28 37 41h43v-389z" />
    <glyph glyph-name="two.denominator" unicode="&#xe10c;" horiz-adv-x="375" 
d="M316 0h-260c10 90 75 141 110 171s83 64 83 107s-28 70 -73 70s-78 -27 -93 -47l-27 32c20 25 55 58 125 58s120 -42 120 -110s-65 -112 -90 -132s-78 -59 -88 -104h193v-45z" />
    <glyph glyph-name="three.denominator" unicode="&#xe10d;" horiz-adv-x="375" 
d="M306 105c0 -65 -58 -113 -133 -113s-115 58 -120 63l30 30c5 -5 40 -50 90 -50s80 27 80 72s-35 73 -75 73h-40v42h35c40 0 73 25 73 65s-33 63 -73 63s-69 -19 -85 -38l-25 30c16 19 50 50 112 50c63 0 121 -35 121 -95s-48 -87 -73 -92c30 -5 83 -35 83 -100z" />
    <glyph glyph-name="four.denominator" unicode="&#xe10e;" horiz-adv-x="375" 
d="M335 82h-59v-82h-51v82h-196v44l182 257h65v-255h59v-46zM225 128v205l-144 -205h144z" />
    <glyph glyph-name="five.denominator" unicode="&#xe10f;" horiz-adv-x="375" 
d="M312 120c0 -79 -58 -127 -141 -127c-84 0 -122 53 -124 58l30 32c7 -8 38 -47 95 -47c54 0 90 29 90 84c0 54 -42 84 -82 84c-42 0 -65 -15 -74 -24l-38 16l36 186h206v-46h-170c-7 -36 -15 -68 -21 -105c8 4 30 14 69 14c64 0 124 -46 124 -125z" />
    <glyph glyph-name="six.denominator" unicode="&#xe110;" horiz-adv-x="375" 
d="M327 125c0 -71 -52 -132 -135 -132c-81 0 -113 59 -122 79c-9 16 -20 49 -20 117c0 70 24 123 49 152c26 29 58 49 111 49c54 0 90 -25 103 -39l-26 -33c-11 12 -41 30 -77 30c-35 0 -55 -10 -74 -31c-17 -18 -35 -57 -37 -118c16 16 54 44 108 44c67 0 120 -47 120 -118
zM278 121c0 46 -29 82 -83 82c-52 0 -86 -44 -94 -55c2 -61 33 -113 91 -113c59 0 86 40 86 86z" />
    <glyph glyph-name="seven.denominator" unicode="&#xe111;" horiz-adv-x="375" 
d="M317 338l-178 -338h-54l178 335h-215v47h269v-44z" />
    <glyph glyph-name="eight.denominator" unicode="&#xe112;" horiz-adv-x="375" 
d="M326 102c0 -71 -61 -109 -140 -109s-140 38 -140 109c0 66 54 92 81 101c-25 11 -66 32 -66 88c0 62 58 99 125 99s124 -37 124 -99c0 -54 -42 -77 -65 -86c32 -11 81 -39 81 -103zM262 291c0 38 -38 58 -76 58c-39 0 -76 -20 -76 -58s41 -59 87 -67c32 10 65 30 65 67z
M276 105c0 46 -55 69 -101 78c-35 -9 -79 -32 -79 -78s43 -70 90 -70c46 0 90 24 90 70z" />
    <glyph glyph-name="nine.denominator" unicode="&#xe113;" horiz-adv-x="375" 
d="M322 194c0 -70 -25 -123 -49 -152c-26 -30 -59 -49 -112 -49s-84 19 -106 43l29 32c16 -18 43 -33 77 -33s55 11 75 31c18 20 35 56 37 116c-16 -17 -50 -44 -108 -44c-67 0 -120 51 -120 122c0 70 52 130 135 130c81 0 112 -59 121 -79c9 -16 21 -49 21 -117zM177 181
c53 0 87 44 94 53c0 64 -33 114 -91 114c-59 0 -86 -38 -86 -85c0 -46 29 -82 83 -82z" />
    <glyph glyph-name="zero.numerator" unicode="&#xe11e;" horiz-adv-x="375" 
d="M330 453c0 -108 -49 -199 -144 -199s-144 91 -144 199s49 199 144 199s144 -91 144 -199zM278 453c0 83 -29 156 -92 156s-92 -73 -92 -156s29 -156 92 -156s92 73 92 156z" />
    <glyph glyph-name="one.numerator" unicode="&#xe11f;" horiz-adv-x="375" 
d="M225 262h-52v319c-8 -5 -18 -10 -33 -15s-30 -8 -35 -8l-8 35c13 2 34 9 48 17c14 9 35 28 37 41h43v-389z" />
    <glyph glyph-name="two.numerator" unicode="&#xe120;" horiz-adv-x="375" 
d="M316 262h-260c10 90 75 141 110 171s83 64 83 107s-28 70 -73 70s-78 -27 -93 -47l-27 32c20 25 55 58 125 58s120 -42 120 -110s-65 -112 -90 -132s-78 -59 -88 -104h193v-45z" />
    <glyph glyph-name="three.numerator" unicode="&#xe121;" horiz-adv-x="375" 
d="M306 367c0 -65 -58 -113 -133 -113s-115 58 -120 63l30 30c5 -5 40 -50 90 -50s80 27 80 72s-35 73 -75 73h-40v42h35c40 0 73 25 73 65s-33 63 -73 63s-69 -19 -85 -38l-25 30c16 19 50 50 112 50c63 0 121 -35 121 -95s-48 -87 -73 -92c30 -5 83 -35 83 -100z" />
    <glyph glyph-name="four.numerator" unicode="&#xe122;" horiz-adv-x="375" 
d="M335 344h-59v-82h-51v82h-196v44l182 257h65v-255h59v-46zM225 390v205l-144 -205h144z" />
    <glyph glyph-name="five.numerator" unicode="&#xe123;" horiz-adv-x="375" 
d="M312 382c0 -79 -58 -127 -141 -127c-84 0 -122 53 -124 58l30 32c7 -8 38 -47 95 -47c54 0 90 29 90 84c0 54 -42 84 -82 84c-42 0 -65 -15 -74 -24l-38 16l36 186h206v-46h-170c-7 -36 -15 -68 -21 -105c8 4 30 14 69 14c64 0 124 -46 124 -125z" />
    <glyph glyph-name="six.numerator" unicode="&#xe124;" horiz-adv-x="375" 
d="M327 387c0 -71 -52 -132 -135 -132c-81 0 -113 59 -122 79c-9 16 -20 49 -20 117c0 70 24 123 49 152c26 29 58 49 111 49c54 0 90 -25 103 -39l-26 -33c-11 12 -41 30 -77 30c-35 0 -55 -10 -74 -31c-17 -18 -35 -57 -37 -118c16 16 54 44 108 44c67 0 120 -47 120 -118
zM278 383c0 46 -29 82 -83 82c-52 0 -86 -44 -94 -55c2 -61 33 -113 91 -113c59 0 86 40 86 86z" />
    <glyph glyph-name="seven.numerator" unicode="&#xe125;" horiz-adv-x="375" 
d="M317 600l-178 -338h-54l178 335h-215v47h269v-44z" />
    <glyph glyph-name="eight.numerator" unicode="&#xe126;" horiz-adv-x="375" 
d="M326 364c0 -71 -61 -109 -140 -109s-140 38 -140 109c0 66 54 92 81 101c-25 11 -66 32 -66 88c0 62 58 99 125 99s124 -37 124 -99c0 -54 -42 -77 -65 -86c32 -11 81 -39 81 -103zM262 553c0 38 -38 58 -76 58c-39 0 -76 -20 -76 -58s41 -59 87 -67c32 10 65 30 65 67z
M276 367c0 46 -55 69 -101 78c-35 -9 -79 -32 -79 -78s43 -70 90 -70c46 0 90 24 90 70z" />
    <glyph glyph-name="nine.numerator" unicode="&#xe127;" horiz-adv-x="375" 
d="M322 456c0 -70 -25 -123 -49 -152c-26 -30 -59 -49 -112 -49s-84 19 -106 43l29 32c16 -18 43 -33 77 -33s55 11 75 31c18 20 35 56 37 116c-16 -17 -50 -44 -108 -44c-67 0 -120 51 -120 122c0 70 52 130 135 130c81 0 112 -59 121 -79c9 -16 21 -49 21 -117zM177 443
c53 0 87 44 94 53c0 64 -33 114 -91 114c-59 0 -86 -38 -86 -85c0 -46 29 -82 83 -82z" />
    <glyph glyph-name="abreve.sc" unicode="&#xe040;" horiz-adv-x="440" 
d="M439 0h-61l-47 122h-226l-47 -122h-57l187 464h64zM314 167l-96 249l-96 -249h192zM313 643l35 -10c-15 -70 -55 -115 -127 -115c-73 0 -113 45 -128 115l35 10c15 -50 42 -80 92 -80s78 30 93 80z" />
    <glyph glyph-name="amacron.sc" unicode="&#xe041;" horiz-adv-x="440" 
d="M439 0h-61l-47 122h-226l-47 -122h-57l187 464h64zM314 167l-96 249l-96 -249h192zM348 558h-255v45h255v-45z" />
    <glyph glyph-name="aogonek.sc" unicode="&#xe042;" horiz-adv-x="440" 
d="M439 0h-50c-47 -26 -70 -55 -70 -91c0 -30 19 -49 50 -49c30 0 49 10 61 18l15 -25s-33 -38 -86 -38c-63 0 -90 38 -90 87s36 90 101 119l-39 101h-226l-47 -122h-57l187 464h64zM314 167l-96 249l-96 -249h192z" />
    <glyph glyph-name="aeacute.sc" unicode="&#xe043;" horiz-adv-x="645" 
d="M600 0h-285v137h-198l-87 -137h-65l305 464h322v-45h-220v-149h205v-45h-205v-179h228v-46zM315 182v237h-20l-150 -237h170zM445 643l-90 -125h-45l65 125h70z" />
    <glyph glyph-name="cacute.sc" unicode="&#xe044;" horiz-adv-x="477" 
d="M416 117l36 -32s-50 -94 -185 -94s-227 96 -227 241s97 241 232 241s177 -91 177 -91l-40 -31c-4 6 -39 74 -139 74s-171 -76 -171 -193s73 -192 173 -192s144 77 144 77zM367 643l-90 -125h-45l65 125h70z" />
    <glyph glyph-name="ccaron.sc" unicode="&#xe045;" horiz-adv-x="477" 
d="M416 117l36 -32s-50 -94 -185 -94s-227 96 -227 241s97 241 232 241s177 -91 177 -91l-40 -31c-4 6 -39 74 -139 74s-171 -76 -171 -193s73 -192 173 -192s144 77 144 77zM382 643l-80 -125h-65l-80 125h45l67 -90l68 90h45z" />
    <glyph glyph-name="ccircumflex.sc" unicode="&#xe046;" horiz-adv-x="477" 
d="M416 117l36 -32s-50 -94 -185 -94s-227 96 -227 241s97 241 232 241s177 -91 177 -91l-40 -31c-4 6 -39 74 -139 74s-171 -76 -171 -193s73 -192 173 -192s144 77 144 77zM382 518h-45l-67 90l-68 -90h-45l80 125h65z" />
    <glyph glyph-name="cdotaccent.sc" unicode="&#xe047;" horiz-adv-x="477" 
d="M416 117l36 -32s-50 -94 -185 -94s-227 96 -227 241s97 241 232 241s177 -91 177 -91l-40 -31c-4 6 -39 74 -139 74s-171 -76 -171 -193s73 -192 173 -192s144 77 144 77zM320 581c0 -28 -23 -51 -50 -51c-28 0 -51 23 -51 50c0 28 23 51 50 51c28 0 51 -23 51 -50z" />
    <glyph glyph-name="dcaron.sc" unicode="&#xe048;" horiz-adv-x="518" 
d="M478 232c0 -80 -32 -139 -71 -175s-85 -57 -165 -57h-162v464h162c80 0 126 -21 165 -57s71 -95 71 -175zM418 232c0 65 -22 114 -56 145s-73 42 -123 42h-102v-374h102c50 0 89 11 123 42s56 80 56 145zM372 643l-80 -125h-65l-80 125h45l67 -90l68 90h45z" />
    <glyph glyph-name="dcroat.sc" unicode="&#xe049;" horiz-adv-x="518" 
d="M478 232c0 -80 -32 -139 -71 -175s-85 -57 -165 -57h-162v220h-45v44h45v200h162c80 0 126 -21 165 -57s71 -95 71 -175zM418 232c0 65 -22 114 -56 145s-73 42 -123 42h-102v-155h118v-44h-118v-175h102c50 0 89 11 123 42s56 80 56 145z" />
    <glyph glyph-name="ebreve.sc" unicode="&#xe04a;" horiz-adv-x="425" 
d="M380 0h-300v464h292v-45h-235v-149h220v-45h-220v-179h243v-46zM324 643l35 -10c-15 -70 -55 -115 -127 -115c-73 0 -113 45 -128 115l35 10c15 -50 42 -80 92 -80s78 30 93 80z" />
    <glyph glyph-name="ecaron.sc" unicode="&#xe04b;" horiz-adv-x="425" 
d="M380 0h-300v464h292v-45h-235v-149h220v-45h-220v-179h243v-46zM344 643l-80 -125h-65l-80 125h45l67 -90l68 90h45z" />
    <glyph glyph-name="edotaccent.sc" unicode="&#xe04c;" horiz-adv-x="425" 
d="M380 0h-300v464h292v-45h-235v-149h220v-45h-220v-179h243v-46zM282 581c0 -28 -23 -51 -50 -51c-28 0 -51 23 -51 50c0 28 23 51 50 51c28 0 51 -23 51 -50z" />
    <glyph glyph-name="emacron.sc" unicode="&#xe04d;" horiz-adv-x="425" 
d="M380 0h-300v464h292v-45h-235v-149h220v-45h-220v-179h243v-46zM359 558h-255v45h255v-45z" />
    <glyph glyph-name="eng.sc" unicode="&#xe04e;" horiz-adv-x="543" 
d="M410 -15v8l-277 402v-395h-53v464h70l260 -378v378h53v-464c0 -60 -18 -84 -32 -98c-15 -15 -40 -30 -75 -30s-65 14 -65 14l15 44s20 -10 45 -10s59 15 59 65z" />
    <glyph glyph-name="eogonek.sc" unicode="&#xe04f;" horiz-adv-x="425" 
d="M378 -120l15 -25s-35 -40 -90 -40s-95 30 -95 90s55 95 55 95h-183v464h292v-45h-235v-149h220v-45h-220v-179h243v-46h-77c-16 -14 -45 -45 -45 -85s25 -55 55 -55s54 11 65 20z" />
    <glyph glyph-name="gbreve.sc" unicode="&#xe050;" horiz-adv-x="530" 
d="M468 0h-39l-12 55s-45 -64 -150 -64c-135 0 -227 96 -227 241s97 241 232 241s177 -89 177 -89l-40 -33c-4 6 -39 74 -139 74s-171 -75 -171 -192c0 -118 67 -193 172 -193s142 72 142 72v79h-132v45h187v-236zM358 643l35 -10c-15 -70 -55 -115 -127 -115
c-73 0 -113 45 -128 115l35 10c15 -50 42 -80 92 -80s78 30 93 80z" />
    <glyph glyph-name="gcircumflex.sc" unicode="&#xe051;" horiz-adv-x="530" 
d="M468 0h-39l-12 55s-45 -64 -150 -64c-135 0 -227 96 -227 241s97 241 232 241s177 -89 177 -89l-40 -33c-4 6 -39 74 -139 74s-171 -75 -171 -192c0 -118 67 -193 172 -193s142 72 142 72v79h-132v45h187v-236zM378 518h-45l-67 90l-68 -90h-45l80 125h65z" />
    <glyph glyph-name="gcommaaccent.sc" unicode="&#xe052;" horiz-adv-x="530" 
d="M468 0h-39l-12 55s-45 -64 -150 -64c-135 0 -227 96 -227 241s97 241 232 241s177 -89 177 -89l-40 -33c-4 6 -39 74 -139 74s-171 -75 -171 -192c0 -118 67 -193 172 -193s142 72 142 72v79h-132v45h187v-236zM250 -48l57 -2c-7 -52 -38 -105 -85 -142l-35 20
c32 33 59 82 63 124z" />
    <glyph glyph-name="gdotaccent.sc" unicode="&#xe053;" horiz-adv-x="530" 
d="M468 0h-39l-12 55s-45 -64 -150 -64c-135 0 -227 96 -227 241s97 241 232 241s177 -89 177 -89l-40 -33c-4 6 -39 74 -139 74s-171 -75 -171 -192c0 -118 67 -193 172 -193s142 72 142 72v79h-132v45h187v-236zM316 581c0 -28 -23 -51 -50 -51c-28 0 -51 23 -51 50
c0 28 23 51 50 51c28 0 51 -23 51 -50z" />
    <glyph glyph-name="hbar.sc" unicode="&#xe054;" horiz-adv-x="546" 
d="M466 0h-57v211h-272v-211h-57v335h-67v46h67v83h57v-83h272v83h57v-83h69v-46h-69v-335zM137 256h272v79h-272v-79z" />
    <glyph glyph-name="hcircumflex.sc" unicode="&#xe055;" horiz-adv-x="546" 
d="M466 0h-57v224h-272v-224h-57v464h57v-195h272v195h57v-464zM386 518h-45l-67 90l-68 -90h-45l80 125h65z" />
    <glyph glyph-name="ibreve.sc" unicode="&#xe056;" horiz-adv-x="217" 
d="M137 0h-57v464h57v-464zM201 643l35 -10c-15 -70 -55 -115 -127 -115c-73 0 -113 45 -128 115l35 10c15 -50 42 -80 92 -80s78 30 93 80z" />
    <glyph glyph-name="ij.sc" unicode="&#xe058;" horiz-adv-x="434" 
d="M137 0h-57v464h57v-464zM297 -15v479h57v-464c0 -60 -18 -84 -32 -98c-15 -15 -40 -30 -75 -30s-65 14 -65 14l15 44s20 -10 45 -10s55 15 55 65z" />
    <glyph glyph-name="imacron.sc" unicode="&#xe059;" horiz-adv-x="217" 
d="M137 0h-57v464h57v-464zM236 558h-255v45h255v-45z" />
    <glyph glyph-name="iogonek.sc" unicode="&#xe05a;" horiz-adv-x="217" 
d="M190 -120l15 -25s-35 -40 -90 -40s-95 30 -95 90c0 53 42 87 60 99v460h57v-464h-22c-16 -14 -45 -45 -45 -85s25 -55 55 -55s54 11 65 20z" />
    <glyph glyph-name="itilde.sc" unicode="&#xe05b;" horiz-adv-x="217" 
d="M137 0h-57v464h57v-464zM208 628l35 -5c0 -50 -35 -90 -75 -90s-62 22 -77 32c-15 11 -28 21 -43 21s-35 -13 -40 -53l-35 5c0 50 35 90 75 90s62 -22 77 -32c15 -11 28 -21 43 -21s35 13 40 53z" />
    <glyph glyph-name="jcircumflex.sc" unicode="&#xe05c;" horiz-adv-x="217" 
d="M80 -15v479h57v-464c0 -60 -18 -84 -32 -98c-15 -15 -40 -30 -75 -30s-65 14 -65 14l15 44s20 -10 45 -10s55 15 55 65zM221 518h-45l-67 90l-68 -90h-45l80 125h65z" />
    <glyph glyph-name="kcommaaccent.sc" unicode="&#xe05d;" horiz-adv-x="445" 
d="M432 0h-69l-163 235l-63 -64v-171h-57v464h57v-229l216 229h71l-186 -190zM224 -48l57 -2c-7 -52 -38 -105 -85 -142l-35 20c32 33 59 82 63 124z" />
    <glyph glyph-name="lacute.sc" unicode="&#xe05e;" horiz-adv-x="363" 
d="M343 0h-263v464h57v-418h206v-46zM204 643l-90 -125h-45l65 125h70z" />
    <glyph glyph-name="lcaron.sc" unicode="&#xe05f;" horiz-adv-x="363" 
d="M343 0h-263v464h57v-418h206v-46zM245 468l59 -2c-2 -56 -23 -128 -50 -169l-42 4c21 46 33 111 33 167z" />
    <glyph glyph-name="lcommaaccent.sc" unicode="&#xe060;" horiz-adv-x="363" 
d="M343 0h-263v464h57v-418h206v-46zM198 -48l57 -2c-7 -52 -38 -105 -85 -142l-35 20c32 33 59 82 63 124z" />
    <glyph glyph-name="ldot.sc" unicode="&#xe061;" horiz-adv-x="363" 
d="M343 0h-263v464h57v-418h206v-46zM342 251c0 -28 -23 -51 -50 -51c-28 0 -51 23 -51 50c0 28 23 51 50 51c28 0 51 -23 51 -50z" />
    <glyph glyph-name="nacute.sc" unicode="&#xe062;" horiz-adv-x="543" 
d="M463 0h-58l-272 395v-395h-53v464h70l260 -378v378h53v-464zM377 643l-90 -125h-45l65 125h70z" />
    <glyph glyph-name="ncaron.sc" unicode="&#xe063;" horiz-adv-x="543" 
d="M463 0h-58l-272 395v-395h-53v464h70l260 -378v378h53v-464zM395 643l-80 -125h-65l-80 125h45l67 -90l68 90h45z" />
    <glyph glyph-name="ncommaaccent.sc" unicode="&#xe064;" horiz-adv-x="543" 
d="M463 0h-58l-272 395v-395h-53v464h70l260 -378v378h53v-464zM248 -48l57 -2c-7 -52 -38 -105 -85 -142l-35 20c32 33 59 82 63 124z" />
    <glyph glyph-name="obreve.sc" unicode="&#xe065;" horiz-adv-x="544" 
d="M504 232c0 -140 -92 -241 -232 -241s-232 101 -232 241s92 241 232 241s232 -101 232 -241zM445 232c0 110 -63 193 -173 193s-173 -82 -173 -192s63 -193 173 -193s173 82 173 192zM365 643l35 -10c-15 -70 -55 -115 -127 -115c-73 0 -113 45 -128 115l35 10
c15 -50 42 -80 92 -80s78 30 93 80z" />
    <glyph glyph-name="ohungarumlaut.sc" unicode="&#xe066;" horiz-adv-x="544" 
d="M504 232c0 -140 -92 -241 -232 -241s-232 101 -232 241s92 241 232 241s232 -101 232 -241zM445 232c0 110 -63 193 -173 193s-173 -82 -173 -192s63 -193 173 -193s173 82 173 192zM443 643l-90 -125h-46l65 125h71zM317 643l-89 -125h-46l65 125h70z" />
    <glyph glyph-name="omacron.sc" unicode="&#xe067;" horiz-adv-x="544" 
d="M504 232c0 -140 -92 -241 -232 -241s-232 101 -232 241s92 241 232 241s232 -101 232 -241zM445 232c0 110 -63 193 -173 193s-173 -82 -173 -192s63 -193 173 -193s173 82 173 192zM400 558h-255v45h255v-45z" />
    <glyph glyph-name="oslashacute.sc" unicode="&#xe068;" horiz-adv-x="544" 
d="M504 232c0 -140 -92 -241 -232 -241c-55 0 -102 15 -139 42l-54 -63l-30 25l54 64c-40 43 -63 103 -63 173c0 140 92 241 232 241c57 0 105 -17 143 -45l49 57l30 -25l-50 -59c38 -42 60 -101 60 -169zM445 232c0 50 -13 94 -37 127l-241 -285c27 -22 63 -34 105 -34
c110 0 173 82 173 192zM382 388c-28 23 -65 37 -110 37c-110 0 -173 -82 -173 -192c0 -52 14 -98 40 -132zM380 635l-90 -125h-45l65 125h70z" />
    <glyph glyph-name="racute.sc" unicode="&#xe069;" horiz-adv-x="455" 
d="M425 0h-69l-136 196h-83v-196h-57v464h150c50 0 90 -13 115 -33s49 -51 49 -101c0 -75 -62 -119 -113 -128zM335 330c0 35 -16 58 -37 72s-40 18 -85 18h-76v-180h76c45 0 64 4 85 18s37 37 37 72zM335 643l-90 -125h-45l65 125h70z" />
    <glyph glyph-name="rcaron.sc" unicode="&#xe06a;" horiz-adv-x="455" 
d="M425 0h-69l-136 196h-83v-196h-57v464h150c50 0 90 -13 115 -33s49 -51 49 -101c0 -75 -62 -119 -113 -128zM335 330c0 35 -16 58 -37 72s-40 18 -85 18h-76v-180h76c45 0 64 4 85 18s37 37 37 72zM350 643l-80 -125h-65l-80 125h45l67 -90l68 90h45z" />
    <glyph glyph-name="rcommaaccent.sc" unicode="&#xe06b;" horiz-adv-x="455" 
d="M425 0h-69l-136 196h-83v-196h-57v464h150c50 0 90 -13 115 -33s49 -51 49 -101c0 -75 -62 -119 -113 -128zM335 330c0 35 -16 58 -37 72s-40 18 -85 18h-76v-180h76c45 0 64 4 85 18s37 37 37 72zM222 -48l57 -2c-7 -52 -38 -105 -85 -142l-35 20c32 33 59 82 63 124z
" />
    <glyph glyph-name="sacute.sc" unicode="&#xe06c;" horiz-adv-x="405" 
d="M365 129c0 -52 -25 -84 -50 -104s-66 -34 -126 -34s-125 29 -159 79l36 33c9 -11 54 -65 129 -65s114 36 114 83s-45 66 -70 76s-102 36 -127 51s-60 45 -60 97s29 82 50 98s54 30 114 30s120 -32 144 -68l-34 -35c-6 9 -51 57 -116 57s-103 -28 -103 -75s46 -65 71 -75
s102 -36 127 -51s60 -45 60 -97zM311 643l-90 -125h-45l65 125h70z" />
    <glyph glyph-name="scedilla.sc" unicode="&#xe06d;" horiz-adv-x="405" 
d="M365 129c0 -52 -25 -84 -50 -104c-18 -15 -44 -26 -80 -31l-57 -119h-65l74 116c-60 1 -124 29 -157 79l36 33c9 -11 54 -65 129 -65s114 36 114 83s-45 66 -70 76s-102 36 -127 51s-60 45 -60 97s29 82 50 98s54 30 114 30s120 -32 144 -68l-34 -35c-6 9 -51 57 -116 57
s-103 -28 -103 -75s46 -65 71 -75s102 -36 127 -51s60 -45 60 -97z" />
    <glyph glyph-name="scircumflex.sc" unicode="&#xe06e;" horiz-adv-x="405" 
d="M365 129c0 -52 -25 -84 -50 -104s-66 -34 -126 -34s-125 29 -159 79l36 33c9 -11 54 -65 129 -65s114 36 114 83s-45 66 -70 76s-102 36 -127 51s-60 45 -60 97s29 82 50 98s54 30 114 30s120 -32 144 -68l-34 -35c-6 9 -51 57 -116 57s-103 -28 -103 -75s46 -65 71 -75
s102 -36 127 -51s60 -45 60 -97zM326 518h-45l-67 90l-68 -90h-45l80 125h65z" />
    <glyph glyph-name="scommaaccent.sc" unicode="&#xe06f;" horiz-adv-x="405" 
d="M365 129c0 -52 -25 -84 -50 -104s-66 -34 -126 -34s-125 29 -159 79l36 33c9 -11 54 -65 129 -65s114 36 114 83s-45 66 -70 76s-102 36 -127 51s-60 45 -60 97s29 82 50 98s54 30 114 30s120 -32 144 -68l-34 -35c-6 9 -51 57 -116 57s-103 -28 -103 -75s46 -65 71 -75
s102 -36 127 -51s60 -45 60 -97zM186 -48l57 -2c-7 -52 -38 -105 -85 -142l-35 20c32 33 59 82 63 124z" />
    <glyph glyph-name="tbar.sc" unicode="&#xe070;" horiz-adv-x="385" 
d="M348 197h-127v-197h-57v197h-127v46h127v176h-154v45h365v-45h-154v-176h127v-46z" />
    <glyph glyph-name="tcaron.sc" unicode="&#xe071;" horiz-adv-x="385" 
d="M375 419h-154v-419h-57v419h-154v45h365v-45zM305 643l-80 -125h-65l-80 125h45l67 -90l68 90h45z" />
    <glyph glyph-name="tcommaaccent.sc" unicode="&#xe072;" horiz-adv-x="385" 
d="M375 419h-154v-419h-57v419h-154v45h365v-45zM177 -48l57 -2c-7 -52 -38 -105 -85 -142l-35 20c32 33 59 82 63 124z" />
    <glyph glyph-name="tcedilla.sc" unicode="&#xe08a;" horiz-adv-x="385" 
d="M375 419h-154v-419h-57v419h-154v45h365v-45zM177 -48l57 -2c-7 -52 -38 -105 -85 -142l-35 20c32 33 59 82 63 124z" />
    <glyph glyph-name="ubreve.sc" unicode="&#xe073;" horiz-adv-x="514" 
d="M382 180v284h57v-279c0 -56 -8 -104 -39 -140s-73 -54 -143 -54s-112 18 -143 54s-39 80 -39 140v279h57v-284c0 -50 4 -74 24 -99s51 -40 101 -40s81 15 101 40s24 49 24 99zM350 643l35 -10c-15 -70 -55 -115 -127 -115c-73 0 -113 45 -128 115l35 10
c15 -50 42 -80 92 -80s78 30 93 80z" />
    <glyph glyph-name="uhungarumlaut.sc" unicode="&#xe074;" horiz-adv-x="514" 
d="M382 180v284h57v-279c0 -56 -8 -104 -39 -140s-73 -54 -143 -54s-112 18 -143 54s-39 80 -39 140v279h57v-284c0 -50 4 -74 24 -99s51 -40 101 -40s81 15 101 40s24 49 24 99zM428 643l-90 -125h-46l65 125h71zM302 643l-89 -125h-46l65 125h70z" />
    <glyph glyph-name="umacron.sc" unicode="&#xe075;" horiz-adv-x="514" 
d="M382 180v284h57v-279c0 -56 -8 -104 -39 -140s-73 -54 -143 -54s-112 18 -143 54s-39 80 -39 140v279h57v-284c0 -50 4 -74 24 -99s51 -40 101 -40s81 15 101 40s24 49 24 99zM385 558h-255v45h255v-45z" />
    <glyph glyph-name="uogonek.sc" unicode="&#xe076;" horiz-adv-x="514" 
d="M407 -120l15 -25s-35 -40 -90 -40s-95 30 -95 90c0 43 28 73 44 87c-8 -1 -16 -1 -24 -1c-70 0 -112 18 -143 54s-39 80 -39 140v279h57v-284c0 -50 4 -74 24 -99s51 -40 101 -40s81 15 101 40s24 49 24 99v284h57v-279c0 -56 -8 -104 -39 -140c-19 -22 -41 -37 -71 -45
c-20 -22 -42 -50 -42 -85c0 -40 25 -55 55 -55s54 11 65 20z" />
    <glyph glyph-name="uring.sc" unicode="&#xe077;" horiz-adv-x="514" 
d="M382 180v284h57v-279c0 -56 -8 -104 -39 -140s-73 -54 -143 -54s-112 18 -143 54s-39 80 -39 140v279h57v-284c0 -50 4 -74 24 -99s51 -40 101 -40s81 15 101 40s24 49 24 99zM335 581c0 -44 -34 -78 -78 -78s-78 33 -78 77s34 78 78 78s78 -33 78 -77zM302 581
c0 24 -20 45 -45 45s-45 -20 -45 -45s20 -46 45 -46s45 20 45 46z" />
    <glyph glyph-name="utilde.sc" unicode="&#xe078;" horiz-adv-x="514" 
d="M382 180v284h57v-279c0 -56 -8 -104 -39 -140s-73 -54 -143 -54s-112 18 -143 54s-39 80 -39 140v279h57v-284c0 -50 4 -74 24 -99s51 -40 101 -40s81 15 101 40s24 49 24 99zM357 628l35 -5c0 -50 -35 -90 -75 -90s-62 22 -77 32c-15 11 -28 21 -43 21s-35 -13 -40 -53
l-35 5c0 50 35 90 75 90s62 -22 77 -32c15 -11 28 -21 43 -21s35 13 40 53z" />
    <glyph glyph-name="wacute.sc" unicode="&#xe079;" horiz-adv-x="686" 
d="M656 464l-128 -464h-65l-120 401l-120 -401h-65l-128 464h59l104 -402l119 402h65l119 -402l104 402h56zM451 643l-90 -125h-45l65 125h70z" />
    <glyph glyph-name="wcircumflex.sc" unicode="&#xe07a;" horiz-adv-x="686" 
d="M656 464l-128 -464h-65l-120 401l-120 -401h-65l-128 464h59l104 -402l119 402h65l119 -402l104 402h56zM456 518h-45l-67 90l-68 -90h-45l80 125h65z" />
    <glyph glyph-name="wdieresis.sc" unicode="&#xe07b;" horiz-adv-x="686" 
d="M656 464l-128 -464h-65l-120 401l-120 -401h-65l-128 464h59l104 -402l119 402h65l119 -402l104 402h56zM459 581c0 -23 -18 -43 -43 -43s-43 20 -43 42c0 23 18 43 43 43s43 -20 43 -42zM314 581c0 -23 -18 -43 -43 -43s-43 20 -43 42c0 23 18 43 43 43s43 -20 43 -42z
" />
    <glyph glyph-name="wgrave.sc" unicode="&#xe07c;" horiz-adv-x="686" 
d="M656 464l-128 -464h-65l-120 401l-120 -401h-65l-128 464h59l104 -402l119 402h65l119 -402l104 402h56zM381 518h-45l-90 125h70z" />
    <glyph glyph-name="ycircumflex.sc" unicode="&#xe07d;" horiz-adv-x="425" 
d="M410 464l-169 -274v-190h-57v190l-169 274h64l134 -229l134 229h63zM325 518h-45l-67 90l-68 -90h-45l80 125h65z" />
    <glyph glyph-name="ygrave.sc" unicode="&#xe07e;" horiz-adv-x="425" 
d="M410 464l-169 -274v-190h-57v190l-169 274h64l134 -229l134 229h63zM250 518h-45l-90 125h70z" />
    <glyph glyph-name="zacute.sc" unicode="&#xe07f;" horiz-adv-x="420" 
d="M390 0h-360v40l282 379h-274v45h342v-40l-282 -378h292v-46zM313 643l-90 -125h-45l65 125h70z" />
    <glyph glyph-name="zdotaccent.sc" unicode="&#xe080;" horiz-adv-x="420" 
d="M390 0h-360v40l282 379h-274v45h342v-40l-282 -378h292v-46zM261 581c0 -28 -23 -51 -50 -51c-28 0 -51 23 -51 50c0 28 23 51 50 51c28 0 51 -23 51 -50z" />
    <glyph glyph-name="idotaccent.sc" unicode="&#xe081;" horiz-adv-x="217" 
d="M137 0h-57v464h57v-464zM159 581c0 -28 -23 -51 -50 -51c-28 0 -51 23 -51 50c0 28 23 51 50 51c28 0 51 -23 51 -50z" />
    <glyph glyph-name="parenleft.cap" unicode="&#xe140;" horiz-adv-x="300" 
d="M265 -64l-25 -25c-75 60 -195 195 -195 415s120 355 195 415l25 -25c-70 -70 -160 -190 -160 -390s90 -320 160 -390z" />
    <glyph glyph-name="parenright.cap" unicode="&#xe141;" horiz-adv-x="300" 
d="M255 326c0 -220 -120 -355 -195 -415l-25 25c70 70 160 190 160 390s-90 320 -160 390l25 25c75 -60 195 -195 195 -415z" />
    <glyph glyph-name="bracketleft.cap" unicode="&#xe13b;" horiz-adv-x="300" 
d="M260 -89h-175v815h175v-40h-122v-735h122v-40z" />
    <glyph glyph-name="bracketright.cap" unicode="&#xe13c;" horiz-adv-x="300" 
d="M215 -89h-175v40h122v735h-122v40h175v-815z" />
    <glyph glyph-name="braceleft.cap" unicode="&#xe139;" horiz-adv-x="300" 
d="M265 -52l-6 -40l-59 10c-75 13 -90 50 -93 125l-5 140c-3 75 -12 115 -72 115h-15v43h15c60 0 69 40 72 115l5 140c3 75 18 112 93 125l59 10l6 -40l-55 -10c-45 -8 -49 -35 -50 -80l-5 -155c-2 -75 -30 -120 -90 -125v-3c60 -5 88 -50 90 -124l5 -155
c1 -45 5 -73 50 -81z" />
    <glyph glyph-name="braceright.cap" unicode="&#xe13a;" horiz-adv-x="300" 
d="M285 298h-15c-60 0 -69 -40 -72 -115l-5 -140c-3 -75 -18 -112 -93 -125l-59 -10l-6 40l55 10c45 8 49 35 50 80l5 155c2 75 30 120 90 125v3c-60 5 -88 50 -90 124l-5 155c-1 45 -5 73 -50 81l-55 10l6 40l59 -10c75 -13 90 -50 93 -125l5 -140c3 -75 12 -115 72 -115
h15v-43z" />
    <glyph glyph-name="exclamdown.cap" unicode="&#xe142;" horiz-adv-x="270" 
d="M180 593c0 -25 -20 -45 -45 -45s-45 20 -45 45s20 45 45 45s45 -20 45 -45zM168 -7h-66l13 460h40z" />
    <glyph glyph-name="questiondown.cap" unicode="&#xe143;" horiz-adv-x="420" 
d="M273 593c0 -25 -21 -45 -45 -45c-25 0 -46 20 -46 45s20 45 45 45s46 -20 46 -45zM375 68c-24 -36 -72 -85 -167 -85s-163 65 -163 145s55 130 80 155s76 65 78 120l2 50h45v-25c0 -35 1 -61 -14 -91s-41 -54 -61 -74s-75 -65 -75 -125s45 -107 115 -107s110 47 125 67z
" />
    <glyph glyph-name="guillemotleft.cap" unicode="&#xe134;" horiz-adv-x="450" 
d="M396 162l-36 -30l-135 168v35l135 168l36 -29l-126 -156zM221 162l-36 -30l-135 168v35l135 168l36 -29l-126 -156z" />
    <glyph glyph-name="guillemotright.cap" unicode="&#xe135;" horiz-adv-x="450" 
d="M400 300l-135 -168l-36 29l126 156l-126 156l36 30l135 -168v-35zM225 300l-135 -168l-36 29l126 156l-126 156l36 30l135 -168v-35z" />
    <glyph glyph-name="guilsinglleft.cap" unicode="&#xe136;" horiz-adv-x="275" 
d="M221 162l-36 -30l-135 168v35l135 168l36 -29l-126 -156z" />
    <glyph glyph-name="guilsinglright.cap" unicode="&#xe137;" horiz-adv-x="275" 
d="M225 300l-135 -168l-36 29l126 156l-126 156l36 30l135 -168v-35z" />
    <glyph glyph-name="hyphen.cap" unicode="&#xe13f;" horiz-adv-x="300" 
d="M255 295h-210v50h210v-50z" />
    <glyph glyph-name="endash.cap" unicode="&#xe13e;" horiz-adv-x="485" 
d="M448 297h-411v46h411v-46z" />
    <glyph glyph-name="emdash.cap" unicode="&#xe13d;" horiz-adv-x="775" 
d="M735 297h-695v46h695v-46z" />
    <glyph glyph-name="periodcentered.cap" unicode="&#xe22b;" horiz-adv-x="250" 
d="M170 337c0 -25 -20 -45 -45 -45s-45 20 -45 45s20 45 45 45s45 -20 45 -45z" />
    <glyph glyph-name="f_i.sc" unicode="&#xe03e;" horiz-adv-x="604" 
d="M524 0h-57v464h57v-464zM357 419h-220v-160h201v-45h-201v-214h-57v464h277v-45z" />
    <glyph glyph-name="f_l.sc" unicode="&#xe03f;" horiz-adv-x="750" 
d="M730 0h-263v464h57v-418h206v-46zM357 419h-220v-160h201v-45h-201v-214h-57v464h277v-45z" />
    <glyph glyph-name="germandbls.sc" unicode="&#xe03d;" horiz-adv-x="810" 
d="M770 129c0 -52 -25 -84 -50 -104s-66 -34 -126 -34s-125 29 -159 79l36 33c9 -11 54 -65 129 -65s114 36 114 83s-45 66 -70 76s-102 36 -127 51s-60 45 -60 97s29 82 50 98s54 30 114 30s120 -32 144 -68l-34 -35c-6 9 -51 57 -116 57s-103 -28 -103 -75s46 -65 71 -75
s102 -36 127 -51s60 -45 60 -97zM365 129c0 -52 -25 -84 -50 -104s-66 -34 -126 -34s-125 29 -159 79l36 33c9 -11 54 -65 129 -65s114 36 114 83s-45 66 -70 76s-102 36 -127 51s-60 45 -60 97s29 82 50 98s54 30 114 30s120 -32 144 -68l-34 -35c-6 9 -51 57 -116 57
s-103 -28 -103 -75s46 -65 71 -75s102 -36 127 -51s60 -45 60 -97z" />
    <glyph glyph-name="sterling.oldstyle" unicode="&#xe508;" horiz-adv-x="475" 
d="M440 0h-390v40l87 10c18 25 36 60 36 90s-6 45 -13 60l-2 5h-93v40h78l-3 5c-2 4 -23 45 -23 85s19 78 49 103s64 37 119 37s114 -26 145 -80l-40 -30s-35 65 -110 65s-105 -50 -105 -90s13 -71 20 -85l5 -10h160v-40h-145l2 -5c4 -10 12 -30 12 -60s-14 -60 -34 -90h245
v-50z" />
    <glyph glyph-name="Euro.oldstyle" unicode="&#xe506;" horiz-adv-x="475" 
d="M360 306v-40h-217s-2 -17 -2 -32s2 -33 2 -33h217v-40h-211c10 -60 56 -123 141 -123s129 63 129 63l32 -32c-4 -6 -51 -78 -166 -78s-178 86 -194 170h-61v40h55s-2 17 -2 32s2 33 2 33h-55v40h61c15 77 79 169 199 169s160 -80 160 -80l-35 -30c-4 6 -40 65 -125 65
s-131 -66 -141 -124h211z" />
    <glyph glyph-name="yen.oldstyle" unicode="&#xe509;" horiz-adv-x="475" 
d="M430 465l-121 -185h119v-40h-145l-18 -27v-38h163v-40h-163v-135h-55v135h-163v40h163v37l-17 28h-146v40h119l-121 185h62l133 -210l130 210h60z" />
    <glyph glyph-name="florin.oldstyle" unicode="&#xe50a;" horiz-adv-x="475" 
d="M455 540l-15 -45c-16 9 -35 18 -65 18s-73 -8 -85 -78l-20 -115h120v-40h-127l-33 -185c-8 -45 -21 -99 -45 -130s-60 -45 -100 -45s-70 20 -70 20l20 45s20 -15 60 -15s64 35 75 95l38 215h-98v40h105l15 90c12 75 36 104 55 120s50 30 90 30s71 -14 80 -20z" />
    <glyph glyph-name="uni2215" unicode="&#x2215;" horiz-adv-x="250" 
d="M325 645l-363 -660l-37 20l363 660z" />
    <glyph glyph-name="uni03A9" unicode="&#x3a9;" horiz-adv-x="695" 
d="M650 0h-250v45c91 29 191 125 191 280s-96 272 -243 272c-148 0 -244 -117 -244 -272s100 -251 191 -280v-45h-250v45h155c-29 16 -150 105 -150 285s127 314 297 314s298 -134 298 -314s-121 -269 -150 -285h155v-45z" />
    <glyph glyph-name="caron.alt" unicode="&#xe503;" horiz-adv-x="375" 
d="M176 656l59 -2c-2 -56 -23 -128 -50 -169l-42 4c21 46 33 111 33 167z" />
    <glyph glyph-name="zero.sc" unicode="&#xe50b;" horiz-adv-x="430" 
d="M390 232c0 -130 -60 -241 -175 -241s-175 111 -175 241s60 241 175 241s175 -111 175 -241zM332 232c0 105 -37 195 -117 195s-117 -90 -117 -195s37 -195 117 -195s117 90 117 195z" />
    <glyph glyph-name="one.sc" unicode="&#xe50c;" horiz-adv-x="350" 
d="M231 0h-56v375c-11 -11 -46 -25 -55 -28s-35 -12 -50 -13l-10 42c14 1 55 14 75 26s42 34 47 64h49v-466z" />
    <glyph glyph-name="two.sc" unicode="&#xe50d;" horiz-adv-x="430" 
d="M380 0h-330c6 100 110 175 150 205s105 75 105 130s-36 93 -100 93s-100 -38 -115 -58l-35 30c21 29 70 74 155 74s150 -54 150 -134s-80 -135 -120 -165s-105 -75 -125 -125h265v-50z" />
    <glyph glyph-name="three.sc" unicode="&#xe50e;" horiz-adv-x="430" 
d="M360 125c0 -85 -75 -134 -170 -134s-136 61 -145 77l36 30c4 -6 39 -61 109 -61s115 33 115 93s-55 93 -110 93h-55v45h55c55 0 97 32 97 82s-42 79 -97 79s-91 -33 -105 -49l-30 30c29 34 70 64 140 64s145 -44 145 -119s-60 -102 -95 -107c45 -5 110 -38 110 -123z" />
    <glyph glyph-name="four.sc" unicode="&#xe50f;" horiz-adv-x="430" 
d="M400 100h-73v-100h-55v100h-242v50l223 314h74v-314h73v-50zM272 150v267l-187 -267h187z" />
    <glyph glyph-name="five.sc" unicode="&#xe510;" horiz-adv-x="430" 
d="M370 145c0 -95 -71 -154 -171 -154s-145 63 -149 69l33 35c9 -11 47 -57 117 -57s115 37 115 107s-53 107 -105 107s-81 -17 -91 -27l-42 17l43 222h247v-49h-210l-27 -140s28 21 90 21c77 0 150 -56 150 -151z" />
    <glyph glyph-name="six.sc" unicode="&#xe511;" horiz-adv-x="430" 
d="M390 150c0 -85 -63 -159 -163 -159s-137 73 -147 94s-25 60 -25 145s29 151 60 185s70 59 135 59s107 -29 122 -44l-27 -36c-15 15 -50 35 -95 35s-70 -12 -94 -38s-47 -74 -47 -159c11 14 56 61 136 61s145 -58 145 -143zM336 145c0 60 -36 105 -106 105
s-113 -61 -119 -70c0 -80 41 -144 116 -144s109 49 109 109z" />
    <glyph glyph-name="seven.sc" unicode="&#xe512;" horiz-adv-x="430" 
d="M385 415l-218 -415h-58l219 414h-268v50h325v-49z" />
    <glyph glyph-name="eight.sc" unicode="&#xe513;" horiz-adv-x="430" 
d="M385 122c0 -85 -75 -131 -170 -131s-170 46 -170 131s78 115 108 125c-25 10 -88 33 -88 108s70 119 150 119s150 -44 150 -119s-70 -101 -90 -106c35 -10 110 -42 110 -127zM312 355c0 50 -47 76 -97 76s-97 -26 -97 -76s52 -77 112 -87c45 15 82 37 82 87zM330 126
c0 60 -70 90 -130 100c-45 -10 -100 -40 -100 -100s55 -90 115 -90s115 30 115 90z" />
    <glyph glyph-name="nine.sc" unicode="&#xe514;" horiz-adv-x="430" 
d="M375 235c0 -85 -30 -150 -60 -185s-70 -59 -135 -59s-101 23 -125 49l30 35c19 -21 51 -39 95 -39s71 13 95 39s46 71 46 156c-16 -19 -56 -61 -136 -61s-145 62 -145 147s63 157 163 157s137 -73 147 -94s25 -60 25 -145zM319 286c0 80 -41 144 -116 144
s-109 -49 -109 -109s36 -105 106 -105s113 61 119 70z" />
    <glyph glyph-name="quotesingle.sc" unicode="&#xe515;" horiz-adv-x="200" 
d="M133 475l-15 -160h-35l-16 160h66z" />
    <glyph glyph-name="quotedbl.sc" unicode="&#xe516;" horiz-adv-x="320" 
d="M253 475l-15 -160h-35l-16 160h66zM132 475l-14 -160h-35l-16 160h65z" />
    <glyph glyph-name="degree.sc" unicode="&#xe517;" horiz-adv-x="300" 
d="M260 385c0 -60 -50 -110 -110 -110s-110 50 -110 110s50 110 110 110s110 -50 110 -110zM220 385c0 40 -30 70 -70 70s-70 -30 -70 -70s30 -70 70 -70s70 30 70 70z" />
    <glyph glyph-name="slash.sc" unicode="&#xe518;" horiz-adv-x="400" 
d="M363 497l-290 -574l-36 20l290 574z" />
    <glyph glyph-name="fraction.sc" unicode="&#xe519;" horiz-adv-x="250" 
d="M295 465l-308 -478l-32 23l308 478z" />
    <glyph glyph-name="backslash.sc" unicode="&#xe51a;" horiz-adv-x="400" 
d="M363 -57l-35 -20l-291 574l35 20z" />
    <glyph glyph-name="parenleft.sc" unicode="&#xe51b;" horiz-adv-x="250" 
d="M215 -60l-23 -23c-50 45 -157 145 -157 315s105 270 155 315l25 -25c-50 -50 -120 -140 -120 -290s70 -242 120 -292z" />
    <glyph glyph-name="parenright.sc" unicode="&#xe51c;" horiz-adv-x="250" 
d="M215 232c0 -170 -105 -270 -155 -315l-25 25c50 50 120 140 120 290s-70 242 -120 292l23 23c50 -45 157 -145 157 -315z" />
    <glyph glyph-name="bracketleft.sc" unicode="&#xe51d;" horiz-adv-x="250" 
d="M210 -80h-145v624h145v-40h-92v-544h92v-40z" />
    <glyph glyph-name="bracketright.sc" unicode="&#xe51e;" horiz-adv-x="250" 
d="M185 -80h-145v40h92v544h-92v40h145v-624z" />
    <glyph glyph-name="braceleft.sc" unicode="&#xe51f;" horiz-adv-x="250" 
d="M240 -43l-5 -40l-35 5c-75 11 -88 50 -92 125l-5 90c-2 45 -15 75 -60 75h-18v43h18c45 0 58 30 60 75l5 90c4 75 17 114 92 125l35 5l5 -40l-30 -5c-45 -8 -48 -35 -50 -80l-5 -105c-3 -55 -30 -85 -85 -85v-3c55 0 82 -30 85 -85l5 -104c2 -45 5 -74 50 -81z" />
    <glyph glyph-name="braceright.sc" unicode="&#xe520;" horiz-adv-x="250" 
d="M225 212h-18c-45 0 -58 -30 -60 -75l-5 -90c-4 -75 -17 -114 -92 -125l-35 -5l-5 40l30 5c45 8 48 35 50 80l5 105c3 55 30 85 85 85v3c-55 0 -82 30 -85 85l-5 104c-2 45 -5 74 -50 81l-30 5l5 40l35 -5c75 -11 88 -50 92 -125l5 -90c2 -45 15 -75 60 -75h18v-43z" />
    <glyph glyph-name="asterisk.sc" unicode="&#xe521;" horiz-adv-x="367" 
d="M315 445l-107 -30l68 -84l-30 -25l-62 92l-63 -92l-30 25l68 84l-107 30l14 38l102 -38l-5 110h41l-5 -110l102 38z" />
    <glyph glyph-name="hyphen.sc" unicode="&#xe522;" horiz-adv-x="300" 
d="M255 240h-210v55h210v-55z" />
    <glyph glyph-name="endash.sc" unicode="&#xe523;" horiz-adv-x="440" 
d="M425 245h-410v48h410v-48z" />
    <glyph glyph-name="emdash.sc" unicode="&#xe524;" horiz-adv-x="775" 
d="M740 245h-705v48h705v-48z" />
    <glyph glyph-name="at.sc" unicode="&#xe525;" horiz-adv-x="763" 
d="M708 270c0 -75 -26 -135 -61 -175s-79 -62 -122 -62c-42 0 -85 22 -85 67c0 0 -40 -67 -115 -67s-120 52 -120 137s41 156 77 190s72 50 120 50s80 -25 90 -45l16 35h45l-63 -240c-4 -14 -6 -28 -6 -39c0 -28 13 -46 49 -46c50 0 129 70 129 200s-104 238 -264 238
s-296 -125 -296 -303c0 -177 118 -275 278 -275s225 57 225 57l18 -32s-65 -68 -245 -68s-323 110 -323 320s167 343 342 343c115 0 188 -43 237 -94s74 -116 74 -191zM477 308c-5 27 -32 60 -75 60s-72 -20 -95 -48c-22 -27 -49 -82 -49 -152s37 -90 77 -90s90 34 107 99z
" />
    <glyph glyph-name="bar.sc" unicode="&#xe526;" horiz-adv-x="250" 
d="M148 -100h-46v665h46v-665z" />
    <glyph glyph-name="dagger.sc" unicode="&#xe527;" horiz-adv-x="430" 
d="M385 293l-153 10l11 -160l-15 -248h-30l-11 247l11 161l-153 -11v51l153 -11l-11 161h56l-11 -161l153 11v-50z" />
    <glyph glyph-name="daggerdbl.sc" unicode="&#xe528;" horiz-adv-x="430" 
d="M385 43l-153 10l11 -161h-56l11 161l-153 -11v51l153 -11l-11 110l11 111l-153 -11v51l153 -11l-11 161h56l-11 -161l153 11v-51l-153 11l11 -110l-11 -111l153 11v-50z" />
    <glyph glyph-name="section.sc" unicode="&#xe529;" horiz-adv-x="475" 
d="M431 233c0 -58 -40 -101 -61 -113c7 -5 33 -33 33 -80c0 -41 -19 -74 -43 -97c-28 -26 -76 -50 -141 -50c-88 0 -157 53 -176 80l34 37c24 -26 70 -70 145 -70s128 38 128 93s-57 73 -77 80l-120 42c-14 5 -42 19 -62 40c-17 17 -32 42 -32 80c0 63 43 100 61 112
c-7 6 -33 33 -33 80c0 39 17 72 48 96c31 25 73 39 121 39c96 0 146 -44 165 -62l-29 -38c-23 23 -73 54 -136 54c-62 0 -117 -28 -117 -85c0 -56 61 -71 76 -76l120 -41c13 -5 44 -19 66 -44c18 -20 30 -45 30 -77zM379 221c0 55 -46 77 -83 90l-82 28c-24 8 -44 15 -61 24
c0 0 -42 -21 -42 -76s45 -77 83 -90l82 -28c24 -9 40 -14 61 -24c0 0 42 21 42 76z" />
    <glyph glyph-name="paragraph.sc" unicode="&#xe52a;" horiz-adv-x="430" 
d="M425 553h-52v-711h-45v711h-63v-378h-12c-143 0 -223 82 -223 208c0 127 80 210 222 210h173v-40z" />
    <glyph glyph-name="bullet.sc" unicode="&#xe52b;" horiz-adv-x="430" 
d="M300 230c0 -50 -35 -85 -85 -85s-85 35 -85 85s35 85 85 85s85 -35 85 -85z" />
    <glyph glyph-name="registered.sc" unicode="&#xe52c;" 
d="M460 343c0 -118 -92 -211 -210 -211c-117 0 -210 93 -210 210c0 118 92 211 210 211c117 0 210 -93 210 -210zM428 342c0 103 -75 178 -178 178c-102 0 -178 -75 -178 -177c0 -103 75 -178 178 -178c102 0 178 75 178 177zM354 223h-47l-59 96h-34v-96h-37v241h78
c45 0 83 -22 83 -72s-42 -68 -51 -69zM299 392c0 30 -19 44 -49 44h-37v-88h37c30 0 49 14 49 44z" />
    <glyph glyph-name="copyright.sc" unicode="&#xe52d;" horiz-adv-x="565" 
d="M525 233c0 -138 -105 -243 -242 -243c-138 0 -243 105 -243 243c0 137 105 242 242 242c138 0 243 -105 243 -242zM490 233c0 114 -92 207 -207 207s-208 -92 -208 -207s92 -208 207 -208s208 92 208 208zM387 325l-24 -28s-25 36 -75 36s-93 -33 -93 -100
c0 -68 42 -101 92 -101s75 36 75 36l25 -28s-32 -45 -102 -45s-133 52 -133 137s63 138 133 138s102 -45 102 -45z" />
    <glyph glyph-name="trademark.sc" unicode="&#xe52e;" horiz-adv-x="540" 
d="M507 223h-40l-9 207l-67 -207h-36l-67 207l-9 -207h-37l13 241h60l59 -192l59 192h60zM215 434h-74v-211h-39v211h-74v30h187v-30z" />
    <glyph glyph-name="zero.tabsc" unicode="&#xe52f;" horiz-adv-x="430" 
d="M390 232c0 -130 -60 -241 -175 -241s-175 111 -175 241s60 241 175 241s175 -111 175 -241zM332 232c0 105 -37 195 -117 195s-117 -90 -117 -195s37 -195 117 -195s117 90 117 195z" />
    <glyph glyph-name="one.tabsc" unicode="&#xe530;" horiz-adv-x="430" 
d="M263 0h-56v375c-11 -11 -46 -25 -55 -28s-35 -12 -50 -13l-10 42c14 1 55 14 75 26s42 34 47 64h49v-466z" />
    <glyph glyph-name="two.tabsc" unicode="&#xe531;" horiz-adv-x="430" 
d="M380 0h-330c6 100 110 175 150 205s105 75 105 130s-36 93 -100 93s-100 -38 -115 -58l-35 30c21 29 70 74 155 74s150 -54 150 -134s-80 -135 -120 -165s-105 -75 -125 -125h265v-50z" />
    <glyph glyph-name="three.tabsc" unicode="&#xe532;" horiz-adv-x="430" 
d="M360 125c0 -85 -75 -134 -170 -134s-136 61 -145 77l36 30c4 -6 39 -61 109 -61s115 33 115 93s-55 93 -110 93h-55v45h55c55 0 97 32 97 82s-42 79 -97 79s-91 -33 -105 -49l-30 30c29 34 70 64 140 64s145 -44 145 -119s-60 -102 -95 -107c45 -5 110 -38 110 -123z" />
    <glyph glyph-name="four.tabsc" unicode="&#xe533;" horiz-adv-x="430" 
d="M400 100h-73v-100h-55v100h-242v50l223 314h74v-314h73v-50zM272 150v267l-187 -267h187z" />
    <glyph glyph-name="five.tabsc" unicode="&#xe534;" horiz-adv-x="430" 
d="M370 145c0 -95 -71 -154 -171 -154s-145 63 -149 69l33 35c9 -11 47 -57 117 -57s115 37 115 107s-53 107 -105 107s-81 -17 -91 -27l-42 17l43 222h247v-49h-210l-27 -140s28 21 90 21c77 0 150 -56 150 -151z" />
    <glyph glyph-name="six.tabsc" unicode="&#xe535;" horiz-adv-x="430" 
d="M390 150c0 -85 -63 -159 -163 -159s-137 73 -147 94s-25 60 -25 145s29 151 60 185s70 59 135 59s107 -29 122 -44l-27 -36c-15 15 -50 35 -95 35s-70 -12 -94 -38s-47 -74 -47 -159c11 14 56 61 136 61s145 -58 145 -143zM336 145c0 60 -36 105 -106 105
s-113 -61 -119 -70c0 -80 41 -144 116 -144s109 49 109 109z" />
    <glyph glyph-name="seven.tabsc" unicode="&#xe536;" horiz-adv-x="430" 
d="M385 415l-218 -415h-58l219 414h-268v50h325v-49z" />
    <glyph glyph-name="eight.tabsc" unicode="&#xe537;" horiz-adv-x="430" 
d="M385 122c0 -85 -75 -131 -170 -131s-170 46 -170 131s78 115 108 125c-25 10 -88 33 -88 108s70 119 150 119s150 -44 150 -119s-70 -101 -90 -106c35 -10 110 -42 110 -127zM312 355c0 50 -47 76 -97 76s-97 -26 -97 -76s52 -77 112 -87c45 15 82 37 82 87zM330 126
c0 60 -70 90 -130 100c-45 -10 -100 -40 -100 -100s55 -90 115 -90s115 30 115 90z" />
    <glyph glyph-name="nine.tabsc" unicode="&#xe538;" horiz-adv-x="430" 
d="M375 235c0 -85 -30 -150 -60 -185s-70 -59 -135 -59s-101 23 -125 49l30 35c19 -21 51 -39 95 -39s71 13 95 39s46 71 46 156c-16 -19 -56 -61 -136 -61s-145 62 -145 147s63 157 163 157s137 -73 147 -94s25 -60 25 -145zM319 286c0 80 -41 144 -116 144
s-109 -49 -109 -109s36 -105 106 -105s113 61 119 70z" />
    <glyph glyph-name="numbersign.oldstyle" unicode="&#xfe5f;" horiz-adv-x="430" 
d="M405 295h-86l-27 -125h85v-35h-92l-28 -135h-40l28 135h-101l-28 -135h-40l28 135h-79v35h86l27 125h-85v35h92l28 135h40l-28 -135h101l28 135h40l-28 -135h79v-35zM279 295h-101l-27 -125h101z" />
    <glyph glyph-name="guillemotleft.sc" unicode="&#xe082;" horiz-adv-x="450" 
d="M396 87l-36 -30l-135 168v35l135 168l36 -29l-126 -156zM221 87l-36 -30l-135 168v35l135 168l36 -29l-126 -156z" />
    <glyph glyph-name="guillemotright.sc" unicode="&#xe083;" horiz-adv-x="450" 
d="M400 225l-135 -168l-36 29l126 156l-126 156l36 30l135 -168v-35zM225 225l-135 -168l-36 29l126 156l-126 156l36 30l135 -168v-35z" />
    <glyph glyph-name="guilsinglleft.sc" unicode="&#xe084;" horiz-adv-x="275" 
d="M221 87l-36 -30l-135 168v35l135 168l36 -29l-126 -156z" />
    <glyph glyph-name="guilsinglright.sc" unicode="&#xe085;" horiz-adv-x="275" 
d="M225 225l-135 -168l-36 29l126 156l-126 156l36 30l135 -168v-35z" />
    </font>
</defs>
</svg>
