<?xml version="1.0" standalone="no"?>
<!DOCTYPE svg PUBLIC "-//W3C//DTD SVG 1.1//EN" "http://www.w3.org/Graphics/SVG/1.1/DTD/svg11.dtd" >
<svg>
<metadata>
Created by FontForge 20120731 at Fri Mar 11 04:49:49 2016
 By www-data
Please review the description of this font at http://www.monotypeimaging.com.
</metadata>
<defs>
<font id="SlatePro-BkItalic" horiz-adv-x="474" >
  <font-face 
    font-family="Slate Pro Bk"
    font-weight="350"
    font-style="italic"
    font-stretch="normal"
    units-per-em="1000"
    panose-1="2 0 5 6 4 0 0 9 0 4"
    ascent="655"
    descent="-345"
    x-height="459"
    cap-height="635"
    bbox="-150 -195 964 837"
    underline-thickness="50"
    underline-position="-50"
    slope="-7.5"
    stemh="59"
    stemv="70"
    unicode-range="U+0020-FE6A"
  />
<missing-glyph horiz-adv-x="500" 
d="M12 0v665h475v-665h-475zM88 618l162 -243l161 243h-323zM60 575v-484l161 242zM440 575l-162 -242l162 -243v485zM411 48l-161 242l-162 -242h323z" />
    <glyph glyph-name="fi" unicode="fi" horiz-adv-x="478" 
d="M476 618c0 -34 -21 -57 -55 -57c-25 0 -44 19 -44 44c0 33 21 56 55 56c25 0 44 -19 44 -43zM441 458l-60 -458h-71l60 458h71zM349 642l-17 -51c-14 10 -39 15 -59 15c-19 0 -34 -4 -45 -13s-23 -27 -27 -62l-9 -72h117l-8 -53h-116l-56 -423c-4 -33 -14 -86 -38 -117
c-24 -30 -56 -41 -84 -41c-29 0 -52 10 -56 12l18 53s18 -7 28 -7s23 2 36 16c14 15 21 40 25 73l56 433h-73l8 53h72l9 69c8 59 28 86 48 104s52 30 90 30c41 0 74 -13 81 -19z" />
    <glyph glyph-name="fl" unicode="fl" horiz-adv-x="479" 
d="M468 655l-86 -655h-71l86 655h71zM349 642l-17 -51c-14 10 -39 15 -59 15c-19 0 -34 -4 -45 -13s-23 -27 -27 -62l-9 -72h117l-8 -53h-116l-56 -423c-4 -33 -14 -86 -38 -117c-24 -30 -56 -41 -84 -41c-29 0 -52 10 -56 12l18 53s18 -7 28 -7s23 2 36 16
c14 15 21 40 25 73l56 433h-73l8 53h72l9 69c8 59 28 86 48 104s52 30 90 30c41 0 74 -13 81 -19z" />
    <glyph glyph-name="f_f" unicode="ff" horiz-adv-x="548" 
d="M350 642l-18 -51c-14 10 -39 15 -59 15c-19 0 -34 -4 -45 -13s-23 -27 -27 -62l-9 -72h202l10 68c8 59 28 86 48 104s52 30 90 30c41 0 74 -13 82 -19l-18 -51c-14 10 -39 15 -59 15c-19 0 -34 -4 -45 -13s-23 -27 -27 -62l-9 -72h117l-8 -53h-116l-56 -423
c-4 -33 -14 -86 -38 -117c-24 -30 -56 -41 -84 -41c-29 0 -52 10 -56 12l18 53s18 -7 28 -7s23 2 36 16c14 15 21 40 25 73l56 434h-203l-56 -423c-4 -33 -14 -86 -38 -117c-24 -30 -56 -41 -84 -41c-29 0 -52 10 -56 12l18 53s18 -7 28 -7s23 2 36 16c14 15 21 40 25 73
l56 434h-73l8 53h72l9 68c8 59 28 86 48 104s52 30 90 30c41 0 74 -13 82 -19z" />
    <glyph glyph-name="f_f_i" unicode="ffi" horiz-adv-x="752" 
d="M350 642l-18 -51c-14 10 -39 15 -59 15c-19 0 -34 -4 -45 -13s-23 -27 -27 -62l-9 -72h202l10 68c8 59 28 86 48 104s52 30 90 30c41 0 74 -13 82 -19l-18 -51c-14 10 -39 15 -59 15c-19 0 -34 -4 -45 -13s-23 -27 -27 -62l-9 -72h117l-8 -53h-116l-56 -423
c-4 -33 -14 -86 -38 -117c-24 -30 -56 -41 -84 -41c-29 0 -52 10 -56 12l18 53s18 -7 28 -7s23 2 36 16c14 15 21 40 25 73l56 434h-203l-56 -423c-4 -33 -14 -86 -38 -117c-24 -30 -56 -41 -84 -41c-29 0 -52 10 -56 12l18 53s18 -7 28 -7s23 2 36 16c14 15 21 40 25 73
l56 434h-73l8 53h72l9 68c8 59 28 86 48 104s52 30 90 30c41 0 74 -13 82 -19zM750 618c0 -34 -21 -57 -55 -57c-25 0 -44 19 -44 44c0 33 21 56 55 56c25 0 44 -19 44 -43zM715 459l-60 -459h-71l60 459h71z" />
    <glyph glyph-name="f_f_l" unicode="ffl" horiz-adv-x="753" 
d="M350 642l-18 -51c-14 10 -39 15 -59 15c-19 0 -34 -4 -45 -13s-23 -27 -27 -62l-9 -72h202l10 68c8 59 28 86 48 104s52 30 90 30c41 0 74 -13 82 -19l-18 -51c-14 10 -39 15 -59 15c-19 0 -34 -4 -45 -13s-23 -27 -27 -62l-9 -72h117l-8 -53h-116l-56 -423
c-4 -33 -14 -86 -38 -117c-24 -30 -56 -41 -84 -41c-29 0 -52 10 -56 12l18 53s18 -7 28 -7s23 2 36 16c14 15 21 40 25 73l56 434h-203l-56 -423c-4 -33 -14 -86 -38 -117c-24 -30 -56 -41 -84 -41c-29 0 -52 10 -56 12l18 53s18 -7 28 -7s23 2 36 16c14 15 21 40 25 73
l56 434h-73l8 53h72l9 68c8 59 28 86 48 104s52 30 90 30c41 0 74 -13 82 -19zM742 655l-86 -655h-71l86 655h71z" />
    <glyph glyph-name="IJ" unicode="IJ" horiz-adv-x="499" 
d="M201 635l-84 -635h-73l83 635h74zM455 635l-84 -645c-7 -52 -22 -98 -47 -124c-24 -26 -56 -41 -100 -41c-45 0 -71 21 -71 21l22 53s21 -13 50 -13c46 0 62 38 69 90l87 659h74z" />
    <glyph glyph-name="ij" unicode="ij" horiz-adv-x="409" 
d="M202 618c0 -34 -21 -57 -54 -57c-25 0 -44 19 -44 44c0 33 21 56 54 56c25 0 44 -19 44 -43zM167 459l-60 -459h-71l60 459h71zM408 618c0 -34 -21 -57 -55 -57c-25 0 -44 19 -44 44c0 33 21 56 55 56c25 0 44 -19 44 -43zM373 459l-61 -463c-7 -50 -17 -99 -42 -130
c-24 -31 -57 -41 -91 -41s-61 15 -61 15l17 55s20 -11 36 -11c14 0 29 2 42 17s22 44 26 75l63 483h71z" />
    <glyph glyph-name="napostrophe" unicode="&#x2019;n" horiz-adv-x="540" 
d="M106 650l66 -19c-10 -77 -68 -157 -135 -199l-31 28c53 44 90 111 100 190zM486 344c0 -22 -2 -37 -5 -63l-37 -281h-71l37 272c2 17 4 31 4 49c0 52 -26 84 -76 84c-64 0 -113 -55 -143 -120l-38 -285h-71l60 459h61v-79c29 44 79 89 156 89c78 0 123 -50 123 -125z" />
    <glyph glyph-name=".notdef" horiz-adv-x="500" 
d="M12 0v665h475v-665h-475zM88 618l162 -243l161 243h-323zM60 575v-484l161 242zM440 575l-162 -242l162 -243v485zM411 48l-161 242l-162 -242h323z" />
    <glyph glyph-name="space" unicode=" " horiz-adv-x="164" 
 />
    <glyph glyph-name="exclam" unicode="!" horiz-adv-x="261" 
d="M213 642l-75 -462h-50l46 462h79zM144 46c0 -33 -22 -56 -55 -56c-25 0 -43 19 -43 44c0 33 21 56 54 56c25 0 44 -19 44 -44z" />
    <glyph glyph-name="quotedbl" unicode="&#x22;" horiz-adv-x="377" 
d="M326 650l-45 -222h-44l16 222h73zM186 650l-45 -222h-44l16 222h73z" />
    <glyph glyph-name="numbersign" unicode="#" 
d="M467 451l-10 -47h-90l-54 -171h98l-10 -47h-102l-57 -182h-52l57 182h-103l-57 -182h-52l57 182h-85l10 47h90l54 171h-98l11 47h101l57 182h52l-57 -182h103l57 182h52l-57 -182h85zM315 404h-103l-53 -171h103z" />
    <glyph glyph-name="dollar" unicode="$" 
d="M453 551l-43 -40c-15 20 -50 61 -104 66l-30 -226s39 -23 59 -37c19 -15 76 -58 76 -132c0 -75 -39 -115 -70 -138c-30 -23 -71 -36 -113 -39l-14 -93h-49l13 95c-66 5 -132 45 -162 102l45 41c29 -49 77 -79 126 -84l31 233l-19 10c-52 28 -117 65 -117 161
s82 165 183 166l10 71h49l-10 -73c54 -5 109 -36 139 -83zM258 579c-56 0 -111 -41 -111 -101s38 -82 65 -98l18 -10zM345 172c0 46 -27 75 -66 98l-15 9l-30 -216c71 5 111 53 111 109z" />
    <glyph glyph-name="percent" unicode="%" horiz-adv-x="712" 
d="M656 198c0 -103 -55 -208 -156 -208c-78 0 -116 64 -116 149c0 103 54 208 155 208c79 0 117 -64 117 -149zM596 637l-441 -651l-39 26l441 651zM328 510c0 -103 -54 -208 -155 -208c-79 0 -117 64 -117 149c0 104 55 208 156 208c78 0 116 -63 116 -149zM596 198
c0 55 -15 101 -62 101c-62 0 -91 -86 -91 -159c0 -55 15 -101 62 -101c61 0 91 86 91 159zM269 510c0 55 -15 101 -62 101c-62 0 -91 -86 -91 -159c0 -55 15 -100 62 -100c61 0 91 86 91 158z" />
    <glyph glyph-name="ampersand" unicode="&#x26;" horiz-adv-x="594" 
d="M549 321c-5 -22 -27 -73 -43 -104c-16 -30 -38 -64 -58 -88l94 -129h-83l-56 79c-38 -40 -98 -89 -196 -89c-97 0 -173 56 -173 162c0 107 93 163 148 193l21 12l-7 10c-5 6 -51 61 -51 126c0 93 75 152 163 152s140 -55 140 -124s-54 -121 -106 -151l-46 -27l116 -165
c15 19 29 40 44 69s29 66 38 94zM383 516c0 47 -28 77 -80 77c-53 0 -91 -45 -91 -91c0 -47 25 -78 34 -90l19 -28l38 23c47 28 80 63 80 109zM368 128l-134 187l-29 -16c-40 -23 -99 -65 -99 -135c0 -71 45 -112 111 -112s121 40 151 76z" />
    <glyph glyph-name="quoteright" unicode="&#x2019;" horiz-adv-x="237" 
d="M171 650l66 -19c-10 -77 -68 -157 -135 -199l-31 28c53 44 90 111 100 190z" />
    <glyph glyph-name="parenleft" unicode="(" horiz-adv-x="289" 
d="M285 699l29 -33c-113 -109 -205 -265 -205 -461c0 -148 47 -237 103 -313l-36 -31c-58 56 -136 172 -136 349c0 214 109 378 245 489z" />
    <glyph glyph-name="parenright" unicode=")" horiz-adv-x="289" 
d="M251 350c0 -214 -110 -378 -246 -489l-29 33c114 109 206 265 206 461c0 148 -48 237 -104 313l36 31c58 -57 137 -172 137 -349z" />
    <glyph glyph-name="asterisk" unicode="*" horiz-adv-x="393" 
d="M365 514l-119 -32l63 -102l-45 -26l-50 104l-76 -104l-39 35l88 93l-105 32l21 48l100 -45l8 124h54l-26 -124l109 45z" />
    <glyph glyph-name="plus" unicode="+" 
d="M428 325l-7 -54h-159l-24 -179h-55l23 179h-160l8 54h158l24 179h56l-24 -179h160z" />
    <glyph glyph-name="comma" unicode="," horiz-adv-x="237" 
d="M91 107l66 -19c-10 -76 -68 -157 -136 -199l-30 28c53 44 90 111 100 190z" />
    <glyph glyph-name="hyphen" unicode="-" horiz-adv-x="286" 
d="M248 259l-11 -55h-200l12 55h199z" />
    <glyph glyph-name="period" unicode="." horiz-adv-x="237" 
d="M141 47c0 -34 -22 -57 -55 -57c-25 0 -43 20 -43 44c0 34 21 57 54 57c25 0 44 -20 44 -44z" />
    <glyph glyph-name="slash" unicode="/" horiz-adv-x="384" 
d="M439 670l-450 -767l-44 26l449 768z" />
    <glyph glyph-name="zero" unicode="0" 
d="M444 391c0 -213 -99 -401 -242 -401c-132 0 -172 119 -172 255c0 213 99 400 242 400c132 0 172 -118 172 -254zM372 397c0 117 -29 188 -105 188c-93 0 -165 -160 -165 -344c0 -117 29 -189 105 -189c93 0 165 161 165 345z" />
    <glyph glyph-name="one" unicode="1" 
d="M337 638l-84 -638h-71l71 534c-17 -12 -56 -32 -94 -39l-13 51c26 6 53 17 74 28c21 12 53 39 62 64h55z" />
    <glyph glyph-name="two" unicode="2" 
d="M433 482c0 -105 -93 -172 -162 -227c-68 -55 -149 -113 -182 -194h308l-8 -61h-388c22 145 139 230 200 279s162 112 162 197c0 84 -63 109 -115 109c-53 0 -102 -29 -139 -84l-45 40c25 37 88 104 188 104s181 -58 181 -163z" />
    <glyph glyph-name="three" unicode="3" 
d="M424 493c0 -93 -75 -147 -134 -156c44 -9 113 -51 113 -151c0 -61 -28 -110 -66 -143c-38 -32 -90 -53 -154 -53c-108 0 -160 72 -179 105l47 37c28 -42 68 -81 138 -81s143 47 143 135c0 89 -59 119 -127 119h-45l7 59h50c76 0 138 51 138 121s-52 102 -116 102
s-106 -44 -125 -70l-39 41c6 9 65 87 170 87s179 -60 179 -152z" />
    <glyph glyph-name="four" unicode="4" 
d="M445 208l-7 -58h-83l-20 -150h-71l20 150h-283l6 60l323 425h89l-57 -427h83zM339 565l-267 -357h219z" />
    <glyph glyph-name="five" unicode="5" 
d="M446 635l-8 -60h-233l-60 -195s31 23 99 23c67 0 172 -49 172 -186c0 -130 -92 -227 -218 -227c-127 0 -171 73 -188 103l46 36c21 -32 58 -79 140 -79c81 0 150 61 150 160c0 95 -62 137 -126 137s-100 -32 -107 -40l-43 24l90 304h286z" />
    <glyph glyph-name="six" unicode="6" 
d="M457 590l-39 -46c-16 19 -50 44 -108 44c-52 0 -94 -27 -123 -63s-58 -94 -72 -200c16 19 70 73 155 73s161 -54 161 -177s-78 -231 -212 -231s-179 121 -179 247c0 123 34 239 82 305c46 64 111 103 193 103c79 0 128 -41 142 -55zM361 219c0 72 -40 122 -105 122
s-117 -45 -146 -92c-1 -7 -2 -21 -2 -34c0 -109 46 -167 117 -167c76 0 136 70 136 171z" />
    <glyph glyph-name="seven" unicode="7" 
d="M466 635l-10 -58l-335 -577h-77l340 575h-324l8 60h398z" />
    <glyph glyph-name="eight" unicode="8" 
d="M445 493c0 -83 -73 -137 -123 -153c7 -3 102 -48 102 -158c0 -119 -98 -192 -210 -192s-189 59 -189 167c0 104 76 157 143 181c-18 10 -86 45 -86 139c0 98 87 168 195 168s168 -63 168 -152zM376 486c0 66 -40 104 -106 104c-65 0 -119 -47 -119 -112
c0 -56 39 -91 89 -107l29 -9l40 18c36 16 67 55 67 106zM355 177c0 61 -39 107 -93 125l-40 14l-28 -12c-59 -25 -99 -76 -99 -141c0 -74 54 -115 125 -115s135 54 135 129z" />
    <glyph glyph-name="nine" unicode="9" 
d="M434 399c0 -123 -34 -239 -82 -306c-46 -63 -111 -103 -193 -103c-79 0 -128 40 -146 59l39 46c24 -24 57 -47 112 -47s95 27 124 63s59 94 71 199c-21 -24 -74 -72 -156 -72c-83 0 -160 54 -160 177s78 230 212 230s179 -120 179 -246zM364 386c1 6 2 20 2 35
c0 109 -46 167 -117 167c-76 0 -136 -70 -136 -171c0 -77 42 -121 107 -121s125 54 144 90z" />
    <glyph glyph-name="colon" unicode=":" horiz-adv-x="237" 
d="M194 406c0 -33 -22 -57 -55 -57c-25 0 -43 20 -43 44c0 34 21 57 54 57c25 0 44 -19 44 -44zM141 47c0 -34 -22 -57 -55 -57c-25 0 -43 19 -43 44c0 33 21 57 54 57c25 0 44 -20 44 -44z" />
    <glyph glyph-name="semicolon" unicode=";" horiz-adv-x="237" 
d="M194 406c0 -33 -22 -57 -55 -57c-25 0 -43 20 -43 44c0 34 21 57 54 57c25 0 44 -19 44 -44zM157 88c-10 -76 -68 -157 -136 -199l-30 28c53 44 90 111 100 190z" />
    <glyph glyph-name="less" unicode="&#x3c;" 
d="M441 504l-9 -63l-332 -144l294 -147l-8 -59l-351 180l7 54z" />
    <glyph glyph-name="equal" unicode="=" 
d="M438 412l-7 -54h-374l7 54h374zM417 238l-7 -54h-374l7 54h374z" />
    <glyph glyph-name="greater" unicode="&#x3e;" 
d="M439 325l-7 -54l-398 -180l8 64l332 144l-294 147l8 58z" />
    <glyph glyph-name="question" unicode="?" horiz-adv-x="398" 
d="M386 507c0 -78 -48 -117 -75 -143l-78 -75c-15 -14 -21 -22 -25 -33c-5 -10 -8 -24 -10 -38l-6 -37h-56l4 39c2 20 5 50 15 70s25 33 41 49l66 62c21 20 54 48 54 98c0 51 -33 85 -92 85s-99 -44 -116 -68l-41 41c25 35 78 88 168 88s151 -61 151 -138zM194 46
c0 -33 -21 -56 -55 -56c-24 0 -43 19 -43 44c0 33 21 56 54 56c25 0 44 -19 44 -44z" />
    <glyph glyph-name="at" unicode="@" horiz-adv-x="796" 
d="M738 308c0 -86 -27 -156 -66 -203c-37 -46 -86 -70 -134 -70c-63 0 -88 39 -89 69c-5 -10 -52 -69 -121 -69s-113 51 -113 140c0 85 37 161 82 206c43 43 81 55 125 55c45 0 85 -24 98 -47l18 37h50l-70 -224c-5 -17 -13 -46 -13 -70c0 -27 10 -50 43 -50
c62 0 140 93 140 225c0 134 -103 238 -258 238c-179 0 -317 -148 -317 -334s119 -283 273 -283c150 0 225 52 225 52l18 -38c-8 -5 -90 -60 -249 -60c-164 0 -322 104 -322 328s173 384 369 384c104 0 188 -38 242 -98c43 -49 69 -112 69 -188zM501 334c-9 35 -41 56 -77 56
c-34 0 -63 -17 -90 -48c-29 -32 -60 -94 -60 -164c0 -72 34 -92 69 -92s94 40 112 100z" />
    <glyph glyph-name="A" unicode="A" horiz-adv-x="522" 
d="M483 0h-78l-34 170h-259l-78 -170h-75l304 635h82zM360 228l-68 337l-154 -337h222z" />
    <glyph glyph-name="B" unicode="B" horiz-adv-x="532" 
d="M476 199c0 -72 -29 -118 -69 -151c-40 -32 -101 -48 -170 -48h-193l83 635h177c49 0 90 -10 119 -30c35 -24 53 -61 53 -111c0 -46 -15 -78 -36 -101c-22 -25 -53 -41 -84 -49c30 -6 57 -19 77 -38c27 -25 43 -61 43 -107zM401 485c0 37 -17 61 -33 73
c-16 11 -37 19 -74 19h-102l-27 -210h103c38 0 68 7 92 27c25 20 41 53 41 91zM400 200c0 42 -19 70 -41 86c-21 16 -49 24 -90 24h-112l-32 -251h115c47 0 81 9 111 32c31 24 49 66 49 109z" />
    <glyph glyph-name="C" unicode="C" horiz-adv-x="580" 
d="M565 500l-60 -30s-27 111 -157 111c-131 0 -228 -145 -228 -312c0 -149 75 -213 170 -213s158 67 184 114l52 -42c-36 -55 -104 -138 -243 -138s-240 91 -240 270c0 219 134 385 310 385s212 -145 212 -145z" />
    <glyph glyph-name="D" unicode="D" horiz-adv-x="612" 
d="M569 372c0 -111 -37 -211 -96 -275c-57 -62 -133 -97 -234 -97h-195l83 635h197c79 0 136 -23 176 -63c39 -39 69 -99 69 -200zM492 372c0 73 -20 126 -51 157c-31 32 -76 47 -131 47h-117l-68 -515h117c68 0 135 31 179 82c44 52 71 138 71 229z" />
    <glyph glyph-name="E" unicode="E" horiz-adv-x="485" 
d="M475 635l-8 -59h-274l-27 -208h257l-9 -60h-256l-33 -247h287l-8 -61h-360l83 635h348z" />
    <glyph glyph-name="F" unicode="F" horiz-adv-x="446" 
d="M459 635l-8 -59h-258l-30 -224h236l-8 -60h-235l-39 -292h-73l83 635h332z" />
    <glyph glyph-name="G" unicode="G" horiz-adv-x="618" 
d="M563 508l-58 -32c-26 73 -89 105 -158 105s-130 -42 -170 -105s-57 -135 -57 -212c0 -76 21 -124 45 -153s62 -56 129 -56c66 0 132 39 168 96l15 111h-152l8 60h223l-42 -322h-51l-2 71c-35 -40 -87 -81 -183 -81c-97 0 -150 49 -172 75c-23 26 -63 88 -63 194
s35 209 90 276s130 110 221 110s178 -45 209 -137z" />
    <glyph glyph-name="H" unicode="H" horiz-adv-x="635" 
d="M591 635l-83 -635h-74l41 308h-317l-41 -308h-73l83 635h74l-35 -266h316l35 266h74z" />
    <glyph glyph-name="I" unicode="I" horiz-adv-x="244" 
d="M201 635l-84 -635h-73l83 635h74z" />
    <glyph glyph-name="J" unicode="J" horiz-adv-x="255" 
d="M211 635l-84 -645c-7 -52 -22 -98 -47 -124c-24 -26 -56 -41 -100 -41c-45 0 -71 21 -71 21l22 53s21 -13 50 -13c46 0 62 38 69 90l87 659h74z" />
    <glyph glyph-name="K" unicode="K" horiz-adv-x="517" 
d="M546 635l-262 -262l188 -373h-85l-157 319l-82 -81l-31 -238h-73l83 635h74l-40 -305l294 305h91z" />
    <glyph glyph-name="L" unicode="L" horiz-adv-x="403" 
d="M367 61l-8 -61h-315l83 635h74l-76 -574h242z" />
    <glyph glyph-name="M" unicode="M" horiz-adv-x="747" 
d="M691 635l-53 -635h-74l51 542l-250 -542h-67l-106 542l-93 -542h-72l117 635h99l104 -534l245 534h99z" />
    <glyph glyph-name="N" unicode="N" horiz-adv-x="634" 
d="M590 635l-83 -635h-76l-247 539l-70 -539h-70l83 635h86l239 -522l68 522h70z" />
    <glyph glyph-name="O" unicode="O" horiz-adv-x="655" 
d="M612 381c0 -206 -120 -391 -322 -391c-152 0 -247 105 -247 264c0 206 120 391 322 391c152 0 247 -105 247 -264zM535 378c0 119 -59 205 -177 205c-132 0 -238 -133 -238 -324c0 -118 59 -204 177 -204c132 0 238 133 238 323z" />
    <glyph glyph-name="P" unicode="P" horiz-adv-x="503" 
d="M480 463c0 -60 -24 -119 -65 -158s-101 -58 -164 -58h-102l-32 -247h-73l83 635h171c55 0 98 -14 132 -44c34 -29 50 -71 50 -128zM406 455c0 47 -13 74 -32 93s-48 29 -86 29h-96l-35 -272h93c47 0 84 13 110 36c26 24 46 63 46 114z" />
    <glyph glyph-name="Q" unicode="Q" horiz-adv-x="655" 
d="M612 381c0 -206 -112 -327 -199 -364c0 -45 33 -84 66 -96l-58 -52c-41 20 -80 66 -80 126c0 0 -26 -5 -51 -5c-152 0 -247 105 -247 264c0 206 120 391 322 391c152 0 247 -105 247 -264zM535 378c0 119 -59 205 -177 205c-132 0 -238 -133 -238 -324
c0 -118 59 -204 177 -204c132 0 238 133 238 323z" />
    <glyph glyph-name="R" unicode="R" horiz-adv-x="520" 
d="M480 471c0 -99 -70 -173 -161 -188l139 -283h-85l-130 275h-90l-36 -275h-73l83 635h178c105 0 175 -60 175 -164zM406 465c0 43 -14 69 -34 87c-19 18 -48 25 -86 25h-94l-32 -245h98c42 0 76 10 103 32c28 23 45 59 45 101z" />
    <glyph glyph-name="S" unicode="S" horiz-adv-x="465" 
d="M452 553l-45 -47c-25 32 -71 76 -143 76s-118 -42 -118 -97c0 -50 34 -75 60 -94s69 -42 93 -58s52 -37 71 -58s39 -50 39 -102c0 -53 -25 -102 -59 -133s-85 -50 -145 -50c-40 0 -85 9 -126 35c-33 21 -57 48 -75 77l50 40c26 -44 86 -88 156 -88c50 0 80 18 95 33
s31 38 31 78c0 58 -50 86 -71 100s-41 27 -64 40c-25 15 -50 31 -66 45s-62 52 -62 119s32 108 64 133c33 25 73 42 133 42c45 0 78 -11 104 -25s52 -33 78 -66z" />
    <glyph glyph-name="T" unicode="T" horiz-adv-x="443" 
d="M479 635l-9 -59h-180l-76 -576h-74l76 576h-181l8 59h436z" />
    <glyph glyph-name="U" unicode="U" horiz-adv-x="599" 
d="M559 635l-51 -385c-10 -77 -28 -139 -65 -184c-38 -47 -92 -76 -186 -76c-91 0 -138 33 -166 78c-19 31 -27 68 -27 112c0 21 2 43 5 67l50 388h74l-51 -390c-3 -23 -5 -43 -5 -61c0 -26 4 -47 13 -67c17 -36 51 -61 116 -61c64 0 102 24 127 59c24 34 34 76 41 130
l52 390h73z" />
    <glyph glyph-name="V" unicode="V" horiz-adv-x="513" 
d="M545 635l-290 -635h-81l-123 635h77l98 -547l242 547h77z" />
    <glyph glyph-name="W" unicode="W" horiz-adv-x="796" 
d="M811 635l-238 -635h-83l-63 544l-211 -544h-82l-66 635h77l48 -539l206 539h81l66 -539l189 539h76z" />
    <glyph glyph-name="X" unicode="X" horiz-adv-x="493" 
d="M515 635l-224 -310l151 -325h-84l-120 272l-190 -272h-85l241 327l-141 308h82l110 -255l175 255h85z" />
    <glyph glyph-name="Y" unicode="Y" horiz-adv-x="490" 
d="M522 635l-248 -372l-35 -263h-73l34 263l-150 372h79l116 -310l197 310h80z" />
    <glyph glyph-name="Z" unicode="Z" horiz-adv-x="504" 
d="M504 635l-6 -54l-404 -520h346l-8 -61h-432l7 56l405 520h-328l7 59h413z" />
    <glyph glyph-name="bracketleft" unicode="[" horiz-adv-x="289" 
d="M312 681l-7 -49h-111l-94 -719h112l-6 -48h-175l108 816h173z" />
    <glyph glyph-name="backslash" unicode="\" horiz-adv-x="440" 
d="M365 -80l-52 -17l-238 776l52 17z" />
    <glyph glyph-name="bracketright" unicode="]" horiz-adv-x="289" 
d="M258 681l-108 -816h-173l7 48h111l94 719h-113l7 49h175z" />
    <glyph glyph-name="asciicircum" unicode="^" 
d="M427 315h-59l-96 266l-167 -266h-58l204 320h57z" />
    <glyph glyph-name="underscore" unicode="_" 
d="M445 -83l-6 -49h-457l6 49h457z" />
    <glyph glyph-name="quoteleft" unicode="&#x2018;" horiz-adv-x="237" 
d="M186 650l30 -29c-52 -44 -90 -111 -100 -189l-65 19c9 76 67 157 135 199z" />
    <glyph glyph-name="a" unicode="a" horiz-adv-x="496" 
d="M460 459l-61 -459h-60v73s-45 -83 -142 -83c-98 0 -160 74 -160 193c0 150 85 286 223 286c93 0 117 -74 121 -85l18 75h61zM362 270c0 93 -44 140 -100 140c-96 0 -151 -110 -151 -220c0 -93 44 -140 100 -140c96 0 151 109 151 220z" />
    <glyph glyph-name="b" unicode="b" horiz-adv-x="501" 
d="M463 275c0 -150 -85 -285 -225 -285c-95 0 -121 73 -124 81l-16 -71h-61l86 655h71l-35 -265c3 5 47 79 142 79c100 0 162 -75 162 -194zM389 270c0 93 -44 140 -102 140c-98 0 -153 -110 -153 -220c0 -93 44 -140 102 -140c98 0 153 109 153 220z" />
    <glyph glyph-name="c" unicode="c" horiz-adv-x="429" 
d="M421 362l-53 -31c-1 2 -20 77 -108 77c-90 0 -152 -97 -152 -211c0 -96 45 -144 115 -144c75 0 119 60 126 73l45 -40c-18 -28 -74 -96 -178 -96c-105 0 -179 72 -179 200c0 161 97 279 226 279c128 0 155 -103 158 -107z" />
    <glyph glyph-name="d" unicode="d" horiz-adv-x="501" 
d="M489 655l-86 -655h-60v73c-4 -8 -48 -83 -143 -83c-100 0 -163 73 -163 193c0 150 85 286 225 286c95 0 121 -79 121 -79l35 265h71zM367 270c0 93 -45 140 -103 140c-98 0 -153 -110 -153 -220c0 -93 44 -140 102 -140c98 0 154 109 154 220z" />
    <glyph glyph-name="e" unicode="e" horiz-adv-x="435" 
d="M411 349c0 -65 -47 -105 -108 -131c-62 -26 -149 -35 -195 -39v-14c0 -55 34 -116 106 -116c73 0 125 50 135 60l33 -43c-44 -45 -102 -76 -181 -76c-78 0 -164 50 -164 199c0 148 102 280 233 280c94 0 141 -54 141 -120zM344 349c0 33 -21 66 -76 66
c-72 0 -141 -70 -157 -182c60 4 123 15 160 30c36 14 73 38 73 86z" />
    <glyph glyph-name="f" unicode="f" horiz-adv-x="274" 
d="M350 642l-18 -51c-14 10 -39 15 -59 15c-19 0 -34 -4 -45 -13s-23 -27 -27 -62l-9 -72h117l-8 -53h-116l-56 -423c-4 -33 -14 -86 -38 -117c-24 -30 -56 -41 -84 -41c-29 0 -52 10 -56 12l18 53s18 -7 28 -7s23 2 36 16c14 15 21 40 25 73l56 434h-73l8 53h72l9 68
c8 59 28 86 48 104s52 30 90 30c41 0 74 -13 82 -19z" />
    <glyph glyph-name="g" unicode="g" horiz-adv-x="501" 
d="M464 459l-54 -407c-8 -57 -24 -114 -57 -153s-88 -74 -173 -74c-84 0 -148 48 -163 61l35 52c31 -27 78 -51 131 -51c52 0 87 16 112 43c26 28 37 66 44 115l6 44c-10 -20 -57 -83 -144 -83s-164 57 -164 185c0 148 87 278 225 278c96 0 120 -72 123 -84l18 74h61z
M367 277c0 93 -49 133 -102 133c-98 0 -154 -108 -154 -210c0 -93 48 -133 101 -133c100 0 155 108 155 210z" />
    <glyph glyph-name="h" unicode="h" horiz-adv-x="490" 
d="M437 341c0 -22 -3 -47 -8 -84l-34 -257h-71l32 237c5 34 9 61 9 85c0 52 -26 83 -77 83c-63 0 -113 -56 -142 -121l-38 -284h-71l86 655h71l-37 -276c31 46 81 90 157 90s123 -49 123 -128z" />
    <glyph glyph-name="i" unicode="i" horiz-adv-x="204" 
d="M202 618c0 -34 -21 -57 -54 -57c-25 0 -44 19 -44 44c0 33 21 56 54 56c25 0 44 -19 44 -43zM167 459l-60 -459h-71l60 459h71z" />
    <glyph glyph-name="j" unicode="j" horiz-adv-x="205" 
d="M204 618c0 -34 -21 -57 -55 -57c-25 0 -44 19 -44 44c0 33 21 56 55 56c25 0 44 -19 44 -43zM169 459l-61 -463c-7 -50 -17 -99 -42 -130c-24 -31 -57 -41 -91 -41s-61 15 -61 15l17 55s20 -11 36 -11c14 0 29 2 42 17s22 44 26 75l63 483h71z" />
    <glyph glyph-name="k" unicode="k" horiz-adv-x="439" 
d="M449 459l-203 -185l151 -274h-81l-122 226l-64 -58l-22 -168h-71l86 655h71l-53 -404l217 208h91z" />
    <glyph glyph-name="l" unicode="l" horiz-adv-x="205" 
d="M194 655l-86 -655h-71l86 655h71z" />
    <glyph glyph-name="m" unicode="m" horiz-adv-x="742" 
d="M689 344c0 -25 -3 -52 -7 -82l-35 -262h-71l34 249c4 27 7 54 7 75c0 45 -22 81 -68 81c-62 0 -114 -70 -135 -122l-37 -283h-71l34 256c3 24 6 46 6 69c0 47 -22 80 -68 80c-59 0 -114 -70 -134 -122l-37 -283h-71l60 459h61v-79c29 47 82 89 149 89
c68 0 106 -49 112 -96c37 56 90 96 158 96c67 0 113 -50 113 -125z" />
    <glyph glyph-name="n" unicode="n" horiz-adv-x="490" 
d="M436 344c0 -22 -2 -37 -5 -63l-37 -281h-71l37 272c2 17 4 31 4 49c0 52 -26 84 -76 84c-64 0 -113 -55 -143 -120l-38 -285h-71l60 459h61v-79c29 44 79 89 156 89c78 0 123 -50 123 -125z" />
    <glyph glyph-name="o" unicode="o" horiz-adv-x="485" 
d="M447 275c0 -157 -91 -285 -234 -285c-112 0 -176 76 -176 194c0 157 91 285 235 285c111 0 175 -76 175 -194zM374 270c0 76 -33 141 -109 141c-99 0 -154 -111 -154 -221c0 -77 32 -141 108 -141c99 0 155 111 155 221z" />
    <glyph glyph-name="p" unicode="p" horiz-adv-x="501" 
d="M463 275c0 -150 -85 -285 -225 -285c-95 0 -120 77 -122 81l-31 -240h-71l83 628h61v-69c3 5 48 79 143 79c100 0 162 -75 162 -194zM389 270c0 93 -44 140 -102 140c-98 0 -153 -110 -153 -220c0 -93 44 -140 102 -140c98 0 153 109 153 220z" />
    <glyph glyph-name="q" unicode="q" horiz-adv-x="501" 
d="M464 459l-83 -628h-71l33 240c-4 -7 -48 -81 -143 -81c-100 0 -163 73 -163 193c0 150 85 286 225 286c95 0 120 -72 123 -84l18 74h61zM367 270c0 93 -44 140 -102 140c-98 0 -153 -110 -153 -220c0 -93 44 -140 102 -140c98 0 153 109 153 220z" />
    <glyph glyph-name="r" unicode="r" horiz-adv-x="320" 
d="M332 460l-18 -71s-13 8 -42 8c-30 0 -54 -16 -74 -36c-20 -19 -45 -59 -56 -92l-35 -269h-71l60 459h61v-82c25 50 73 92 131 92c32 0 44 -9 44 -9z" />
    <glyph glyph-name="s" unicode="s" horiz-adv-x="371" 
d="M360 393l-40 -43c-14 16 -31 32 -47 41s-43 21 -73 21s-46 -7 -55 -13s-26 -21 -26 -49s14 -39 25 -48s37 -23 63 -37s52 -27 72 -42s50 -46 50 -96c0 -49 -24 -82 -49 -102s-64 -35 -112 -35s-85 17 -101 26s-50 34 -65 59l44 41c10 -15 32 -35 48 -45s46 -23 81 -23
c25 0 48 9 61 19s25 26 25 51s-12 39 -23 48s-32 21 -66 39s-55 27 -73 42s-47 40 -47 95c0 60 39 90 54 100s45 26 95 26s88 -19 98 -24c10 -6 42 -25 61 -51z" />
    <glyph glyph-name="t" unicode="t" horiz-adv-x="299" 
d="M310 459l-7 -53h-117l-32 -226c-4 -28 -8 -56 -8 -78c0 -34 19 -51 48 -51c31 0 57 13 57 13v-57c-13 -6 -42 -17 -76 -17c-66 0 -100 42 -100 107c0 33 6 72 11 105l29 204h-69l7 53h69l29 128h59l-18 -128h118z" />
    <glyph glyph-name="u" unicode="u" horiz-adv-x="480" 
d="M444 459l-60 -459h-61v78c-31 -51 -88 -88 -149 -88c-56 0 -83 25 -98 50c-16 25 -20 55 -20 81s2 48 5 73l35 265h71l-34 -255c-3 -25 -6 -57 -6 -71c0 -23 5 -44 15 -56c9 -12 26 -23 56 -23s59 13 85 39s44 60 52 82l38 284h71z" />
    <glyph glyph-name="v" unicode="v" horiz-adv-x="415" 
d="M434 459l-224 -459h-74l-99 459h73l73 -382l177 382h74z" />
    <glyph glyph-name="w" unicode="w" horiz-adv-x="630" 
d="M641 459l-183 -459h-75l-52 371l-149 -371h-75l-64 459h71l44 -372l146 372h77l48 -372l142 372h70z" />
    <glyph glyph-name="x" unicode="x" horiz-adv-x="396" 
d="M414 459l-175 -223l125 -236h-77l-94 193l-143 -193h-77l185 236l-117 223h77l86 -180l132 180h78z" />
    <glyph glyph-name="y" unicode="y" horiz-adv-x="420" 
d="M439 459l-262 -538c-32 -67 -66 -96 -114 -96c-43 0 -67 20 -70 22l25 51s17 -12 37 -12c21 0 38 7 58 53l28 63l-99 457h73l73 -382l177 382h74z" />
    <glyph glyph-name="z" unicode="z" horiz-adv-x="387" 
d="M388 459l-7 -51l-291 -353h253l-7 -55h-337l8 50l292 355h-240l8 54h321z" />
    <glyph glyph-name="braceleft" unicode="{" horiz-adv-x="289" 
d="M308 641l-56 -14c-41 -10 -46 -28 -55 -82l-24 -140c-12 -71 -30 -124 -97 -132l-1 -3c53 -6 68 -53 68 -95c0 -7 0 -14 -1 -20l-18 -158c-1 -7 -1 -12 -1 -18c0 -44 21 -52 44 -61l43 -16l-13 -44l-53 12c-56 13 -83 44 -83 103c0 8 1 16 2 25l18 160c1 9 1 16 1 24
c0 46 -19 62 -49 62h-20l8 55h20c52 0 62 51 72 106l24 141c12 74 24 116 105 129l58 10z" />
    <glyph glyph-name="bar" unicode="|" horiz-adv-x="268" 
d="M162 -135h-57v816h57v-816z" />
    <glyph glyph-name="braceright" unicode="}" horiz-adv-x="289" 
d="M268 299l-8 -55h-20c-52 0 -62 -51 -71 -105l-24 -141c-13 -75 -25 -116 -106 -130l-58 -10l-7 44l55 14c41 10 46 28 55 82l24 140c12 72 30 124 97 132l1 4c-53 5 -68 51 -68 94c0 7 0 13 1 20l18 158c1 6 1 12 1 18c0 44 -21 52 -43 61l-44 16l14 44l52 -12
c56 -14 83 -44 83 -101c0 -8 -1 -17 -2 -26l-18 -161c-1 -9 -2 -17 -2 -24c0 -46 20 -62 50 -62h20z" />
    <glyph glyph-name="asciitilde" unicode="~" 
d="M408 372l47 -20c-26 -83 -77 -132 -133 -132c-49 0 -70 22 -96 46c-26 25 -46 50 -80 50c-35 0 -61 -38 -80 -93l-47 20c26 83 77 132 133 132c49 0 70 -22 96 -46c26 -25 46 -50 80 -50c35 0 61 38 80 93z" />
    <glyph glyph-name="exclamdown" unicode="&#xa1;" horiz-adv-x="261" 
d="M194 425c0 -34 -21 -57 -55 -57c-25 0 -43 20 -43 44c0 34 21 57 54 57c25 0 44 -20 44 -44zM151 278l-46 -461h-78l74 461h50z" />
    <glyph glyph-name="cent" unicode="&#xa2;" 
d="M445 454l-48 -31s-15 64 -86 74l-47 -357c59 5 95 43 110 69l41 -39c-22 -31 -72 -84 -158 -89l-13 -95h-47l12 95c-79 8 -148 68 -148 193c0 156 87 270 210 281l12 90h47l-12 -91c95 -10 124 -88 127 -100zM264 497c-79 -13 -133 -103 -133 -217c0 -96 38 -128 86 -138
z" />
    <glyph glyph-name="sterling" unicode="&#xa3;" 
d="M465 556l-45 -34c-5 13 -39 67 -110 67s-116 -60 -116 -132c0 -53 11 -97 13 -106l2 -9h165l-7 -45h-150c2 -9 6 -34 6 -66c0 -31 -11 -113 -66 -173h253l-8 -58h-395l9 44l74 13c54 56 66 135 66 170s-4 61 -7 70h-95l7 45h80l-3 14c-2 9 -11 50 -11 98
c0 47 16 96 49 132s76 59 139 59c75 0 125 -38 150 -89z" />
    <glyph glyph-name="fraction" unicode="&#x2044;" horiz-adv-x="164" 
d="M327 638l-440 -651l-37 25l440 651z" />
    <glyph glyph-name="yen" unicode="&#xa5;" 
d="M487 635l-182 -293h116l-6 -45h-139l-14 -23l-8 -60h151l-7 -44h-150l-22 -170h-69l23 170h-151l6 44h151l8 62l-8 21h-141l7 45h118l-106 293h79l94 -298l171 298h79z" />
    <glyph glyph-name="florin" unicode="&#x192;" 
d="M494 631l-27 -47c-7 5 -23 19 -58 19c-56 0 -76 -61 -87 -101l-33 -119h113l-7 -46h-120l-94 -326c-15 -52 -32 -97 -59 -128c-26 -29 -57 -46 -99 -46c-43 0 -66 19 -72 25l29 49s13 -15 47 -15c35 0 63 37 82 101l98 339h-103l7 47h110l34 118c14 51 34 99 63 125
c27 24 57 35 94 35c40 0 67 -17 82 -30z" />
    <glyph glyph-name="section" unicode="&#xa7;" 
d="M459 576l-36 -45c-23 29 -77 58 -138 58s-109 -34 -109 -88c0 -53 46 -71 80 -84c29 -10 59 -19 88 -34c31 -16 84 -51 84 -124c0 -77 -67 -122 -77 -130c4 -4 29 -30 29 -83c0 -49 -27 -94 -68 -122c-32 -23 -75 -38 -131 -38c-115 0 -170 83 -175 88l40 41
c12 -17 66 -70 140 -70c75 0 126 37 126 93s-49 74 -83 86c-29 11 -59 20 -88 35c-30 16 -81 51 -81 120c0 72 53 116 77 133c0 0 -29 27 -29 79c0 49 24 88 57 114c32 26 76 40 126 40c93 0 151 -48 168 -69zM364 249c0 47 -44 73 -71 83l-64 25c-17 6 -44 19 -54 26
c-20 -11 -51 -44 -51 -90c0 -47 44 -73 71 -84l64 -24c20 -8 43 -18 54 -26c20 11 51 43 51 90z" />
    <glyph glyph-name="currency" unicode="&#xa4;" horiz-adv-x="512" 
d="M474 139l-39 -40l-82 82c-10 -10 -48 -32 -97 -32s-87 22 -98 32l-81 -82l-40 40l81 81c-9 11 -32 49 -32 98s23 87 32 98l-81 81l40 40l81 -82c10 10 49 32 98 32c48 0 87 -22 97 -32l82 82l39 -40l-81 -81c9 -11 32 -49 32 -98s-23 -87 -32 -98zM370 318
c0 63 -51 114 -114 114s-114 -51 -114 -114s51 -114 114 -114s114 51 114 114z" />
    <glyph glyph-name="quotesingle" unicode="'" horiz-adv-x="237" 
d="M186 650l-45 -222h-44l16 222h73z" />
    <glyph glyph-name="quotedblleft" unicode="&#x201c;" horiz-adv-x="385" 
d="M364 621c-52 -44 -90 -111 -100 -189l-66 19c10 76 68 157 136 199zM216 621c-52 -44 -90 -111 -100 -189l-65 19c9 76 67 157 135 199z" />
    <glyph glyph-name="guillemotleft" unicode="&#xab;" horiz-adv-x="420" 
d="M369 398l-137 -154l95 -160l-39 -27l-108 164l6 48l150 160zM205 398l-136 -154l94 -160l-39 -27l-108 164l7 48l149 160z" />
    <glyph glyph-name="guilsinglleft" unicode="&#x2039;" horiz-adv-x="272" 
d="M221 398l-137 -154l95 -160l-39 -27l-108 164l6 48l150 160z" />
    <glyph glyph-name="guilsinglright" unicode="&#x203a;" horiz-adv-x="272" 
d="M229 268l-7 -49l-150 -159l-33 31l137 153l-94 160l39 28z" />
    <glyph glyph-name="endash" unicode="&#x2013;" horiz-adv-x="445" 
d="M415 257l-9 -50h-376l9 50h376z" />
    <glyph glyph-name="dagger" unicode="&#x2020;" 
d="M451 463l-7 -59l-176 10l-19 -214l-55 -321h-37l31 321l39 214l-177 -10l8 59l175 -10l19 217h62l-40 -217z" />
    <glyph glyph-name="daggerdbl" unicode="&#x2021;" 
d="M451 463l-7 -59l-176 10l-10 -140l-28 -139l177 10l-7 -60l-176 10l-19 -216h-61l39 216l-177 -10l7 60l176 -10l11 139l27 140l-177 -10l8 59l175 -10l19 217h62l-40 -217z" />
    <glyph glyph-name="periodcentered" unicode="&#xb7;" horiz-adv-x="237" 
d="M168 287c0 -33 -21 -57 -55 -57c-24 0 -43 20 -43 45c0 33 21 57 55 57c24 0 43 -20 43 -45z" />
    <glyph glyph-name="paragraph" unicode="&#xb6;" 
d="M478 635l-7 -46h-49l-99 -755h-50l98 755h-65l-54 -411h-25c-126 0 -189 83 -189 202c0 148 95 255 249 255h191z" />
    <glyph glyph-name="bullet" unicode="&#x2022;" 
d="M348 324c0 -75 -53 -125 -121 -125c-63 0 -101 48 -101 108c0 74 53 125 122 125c62 0 100 -48 100 -108z" />
    <glyph glyph-name="quotesinglbase" unicode="&#x201a;" horiz-adv-x="237" 
d="M91 107l66 -19c-10 -76 -68 -157 -136 -199l-30 28c53 44 90 111 100 190z" />
    <glyph glyph-name="quotedblbase" unicode="&#x201e;" horiz-adv-x="385" 
d="M301 88c-10 -76 -64 -157 -131 -199l-31 28c53 44 90 111 101 190zM150 88c-10 -76 -63 -157 -131 -199l-30 28c53 44 90 111 100 190z" />
    <glyph glyph-name="quotedblright" unicode="&#x201d;" horiz-adv-x="385" 
d="M384 631c-9 -77 -67 -157 -135 -199l-30 28c52 44 89 111 100 190zM236 631c-9 -77 -67 -157 -135 -199l-30 28c52 44 90 111 100 190z" />
    <glyph glyph-name="guillemotright" unicode="&#xbb;" horiz-adv-x="420" 
d="M386 268l-6 -49l-150 -159l-33 31l137 153l-94 160l38 28zM223 268l-7 -49l-149 -159l-33 31l136 153l-94 160l39 28z" />
    <glyph glyph-name="ellipsis" unicode="&#x2026;" horiz-adv-x="698" 
d="M602 47c0 -34 -21 -57 -55 -57c-24 0 -43 19 -43 44c0 33 21 57 54 57c25 0 44 -20 44 -44zM371 47c0 -34 -21 -57 -54 -57c-25 0 -43 19 -43 44c0 33 21 57 54 57c25 0 43 -20 43 -44zM141 47c0 -34 -22 -57 -55 -57c-25 0 -43 19 -43 44c0 33 21 57 54 57
c25 0 44 -20 44 -44z" />
    <glyph glyph-name="perthousand" unicode="&#x2030;" horiz-adv-x="1020" 
d="M964 198c0 -103 -55 -208 -156 -208c-78 0 -116 63 -116 149c0 103 54 208 155 208c79 0 117 -64 117 -149zM656 198c0 -103 -55 -208 -156 -208c-78 0 -116 64 -116 149c0 103 54 208 155 208c79 0 117 -64 117 -149zM596 637l-441 -651l-39 26l441 651zM328 510
c0 -103 -54 -208 -155 -208c-79 0 -117 64 -117 149c0 104 55 208 156 208c78 0 116 -63 116 -149zM904 198c0 55 -15 101 -62 101c-62 0 -91 -86 -91 -159c0 -55 15 -101 62 -101c61 0 91 86 91 159zM596 198c0 55 -15 101 -62 101c-62 0 -91 -86 -91 -159
c0 -55 15 -101 62 -101c61 0 91 86 91 159zM269 510c0 55 -15 101 -62 101c-62 0 -91 -86 -91 -159c0 -55 15 -100 62 -100c61 0 91 86 91 158z" />
    <glyph glyph-name="questiondown" unicode="&#xbf;" horiz-adv-x="398" 
d="M302 425c0 -33 -21 -57 -54 -57c-25 0 -44 20 -44 44c0 34 21 57 55 57c24 0 43 -19 43 -44zM331 -98c-25 -35 -78 -88 -168 -88s-151 60 -151 138c0 77 48 117 75 143l79 75c14 14 20 22 25 33c4 10 7 24 9 38l6 37h57l-5 -39c-2 -20 -5 -50 -15 -70s-24 -34 -41 -50
l-66 -61c-21 -20 -54 -48 -54 -99c0 -50 34 -84 92 -84c59 0 100 44 117 68z" />
    <glyph glyph-name="grave" unicode="`" horiz-adv-x="363" 
d="M253 514h-50l-73 126h77z" />
    <glyph glyph-name="acute" unicode="&#xb4;" horiz-adv-x="363" 
d="M288 640l-103 -126h-50l76 126h77z" />
    <glyph glyph-name="circumflex" unicode="&#x2c6;" horiz-adv-x="363" 
d="M290 514h-49l-47 86l-72 -86h-50l92 126h70z" />
    <glyph glyph-name="tilde" unicode="&#x2dc;" horiz-adv-x="363" 
d="M282 627l40 -10c-10 -52 -47 -91 -91 -91c-39 0 -55 21 -65 30c-9 10 -21 25 -40 25c-22 0 -40 -28 -45 -54l-40 10c10 52 47 91 91 91c39 0 55 -20 65 -30c9 -9 21 -24 40 -24c22 0 40 28 45 53z" />
    <glyph glyph-name="macron" unicode="&#xaf;" horiz-adv-x="363" 
d="M307 602l-7 -50h-244l7 50h244z" />
    <glyph glyph-name="breve" unicode="&#x2d8;" horiz-adv-x="363" 
d="M269 641l36 -10c-20 -66 -67 -117 -140 -117s-103 50 -107 117l39 10c6 -43 27 -77 75 -77s82 37 97 77z" />
    <glyph glyph-name="dotaccent" unicode="&#x2d9;" horiz-adv-x="363" 
d="M226 584c0 -31 -19 -53 -50 -53c-22 0 -39 18 -39 40c0 31 19 53 50 53c22 0 39 -18 39 -40z" />
    <glyph glyph-name="dieresis" unicode="&#xa8;" horiz-adv-x="363" 
d="M295 584c0 -31 -20 -53 -51 -53c-22 0 -39 18 -39 40c0 31 19 53 50 53c22 0 40 -18 40 -40zM158 584c0 -31 -19 -53 -50 -53c-22 0 -40 18 -40 40c0 31 20 53 51 53c22 0 39 -18 39 -40z" />
    <glyph glyph-name="ring" unicode="&#x2da;" horiz-adv-x="363" 
d="M262 591c0 -53 -36 -91 -89 -91c-41 0 -72 31 -72 70c0 53 36 91 89 91c41 0 72 -31 72 -70zM225 586c0 21 -16 40 -38 40c-29 0 -49 -21 -49 -51c0 -21 16 -40 38 -40c29 0 49 21 49 51z" />
    <glyph glyph-name="cedilla" unicode="&#xb8;" horiz-adv-x="363" 
d="M223 0l-60 -126h-79l87 126h52z" />
    <glyph glyph-name="hungarumlaut" unicode="&#x2dd;" horiz-adv-x="363" 
d="M331 640l-103 -126h-51l77 126h77zM206 640l-103 -126h-51l77 126h77z" />
    <glyph glyph-name="ogonek" unicode="&#x2db;" horiz-adv-x="363" 
d="M347 -117l16 -32c-10 -9 -51 -37 -102 -37c-52 0 -81 31 -81 77c0 47 35 90 71 114l45 -5c-25 -16 -58 -54 -58 -92c0 -30 20 -44 50 -44c31 0 51 14 59 19z" />
    <glyph glyph-name="caron" unicode="&#x2c7;" horiz-adv-x="363" 
d="M290 640l-91 -126h-70l-57 126h50l47 -88l72 88h49z" />
    <glyph glyph-name="emdash" unicode="&#x2014;" horiz-adv-x="742" 
d="M705 257l-9 -50h-659l9 50h659z" />
    <glyph glyph-name="AE" unicode="&#xc6;" horiz-adv-x="777" 
d="M767 635l-8 -59h-258l-26 -208h239l-8 -60h-240l-32 -247h270l-8 -61h-343l25 193h-228l-133 -193h-83l448 635h385zM428 577h-14l-225 -325h197z" />
    <glyph glyph-name="ordfeminine" unicode="&#xaa;" horiz-adv-x="356" 
d="M322 548c0 -17 -2 -33 -5 -52l-14 -89c-2 -15 -5 -50 -6 -57c0 -15 2 -37 8 -48h-61s-5 20 -5 44c-10 -16 -48 -49 -99 -49s-96 32 -96 96s49 90 85 102c35 12 83 16 132 16c0 0 3 22 3 36c0 34 -26 53 -71 53s-79 -19 -93 -30l-21 39c14 11 62 36 122 36
s121 -26 121 -97zM255 473c-37 0 -72 -5 -95 -13c-24 -8 -56 -24 -56 -64s27 -53 57 -53s69 26 82 52z" />
    <glyph glyph-name="Lslash" unicode="&#x141;" horiz-adv-x="403" 
d="M367 61l-8 -61h-315l33 255l-60 -32l9 61l59 32l42 319h74l-37 -277l118 63l-8 -61l-118 -63l-31 -236h242z" />
    <glyph glyph-name="Oslash" unicode="&#xd8;" horiz-adv-x="655" 
d="M644 635l-78 -88c30 -44 46 -100 46 -166c0 -206 -120 -391 -322 -391c-68 0 -124 21 -166 58l-74 -83l-39 35l78 88c-30 44 -46 100 -46 166c0 206 120 391 322 391c68 0 124 -21 166 -58l74 83zM484 533c-30 32 -72 50 -126 50c-132 0 -238 -133 -238 -324
c0 -42 7 -80 22 -111zM535 378c0 41 -7 79 -21 110l-342 -385c30 -31 71 -48 125 -48c132 0 238 133 238 323z" />
    <glyph glyph-name="OE" unicode="&#x152;" horiz-adv-x="854" 
d="M844 635l-8 -59h-257l-27 -208h239l-8 -60h-239l-32 -247h269l-9 -61h-342l5 39c-2 -2 -55 -49 -145 -49c-153 0 -247 106 -247 264c0 206 120 391 322 391c95 0 144 -49 144 -49l5 39h330zM499 524c-26 35 -78 59 -141 59c-132 0 -238 -133 -238 -324
c0 -118 60 -204 177 -204c71 0 126 36 148 58z" />
    <glyph glyph-name="ordmasculine" unicode="&#xba;" horiz-adv-x="356" 
d="M352 497c0 -104 -66 -200 -173 -200c-87 0 -137 54 -137 146c0 104 66 202 174 202c87 0 136 -56 136 -148zM292 493c0 66 -26 105 -82 105c-67 0 -107 -77 -107 -148c0 -66 25 -105 82 -105c67 0 107 78 107 148z" />
    <glyph glyph-name="ae" unicode="&#xe6;" horiz-adv-x="707" 
d="M683 354c0 -57 -38 -105 -112 -129c-38 -13 -95 -18 -159 -18c-13 0 -28 1 -32 1c-1 -8 -1 -18 -1 -27c0 -106 64 -132 107 -132c73 0 124 50 134 60l34 -43c-44 -45 -102 -76 -181 -76s-121 46 -140 83c-45 -58 -95 -83 -167 -83c-71 0 -133 31 -133 123
c0 91 87 125 135 138s119 17 151 17c4 25 9 45 9 65c0 58 -45 78 -95 78c-58 0 -105 -24 -127 -42l-28 49c33 25 99 51 163 51c111 0 136 -64 140 -89c21 36 78 89 164 89s138 -50 138 -115zM616 350c0 35 -22 65 -77 65c-70 0 -132 -67 -151 -155c0 0 16 -1 49 -1
c31 0 74 3 105 13c48 15 74 42 74 78zM314 130c-2 11 -5 31 -5 59c0 9 0 18 1 27c-47 0 -98 -8 -128 -17c-30 -10 -79 -33 -79 -84s39 -71 89 -71c48 0 107 41 122 86z" />
    <glyph glyph-name="dotlessi" unicode="&#x131;" horiz-adv-x="204" 
d="M167 459l-60 -459h-71l60 459h71z" />
    <glyph glyph-name="lslash" unicode="&#x142;" horiz-adv-x="205" 
d="M217 427l-8 -65l-59 -41l-42 -321h-71l36 270l-58 -41l8 65l58 41l42 320h71l-36 -268z" />
    <glyph glyph-name="oslash" unicode="&#xf8;" horiz-adv-x="485" 
d="M465 454l-50 -57c21 -32 32 -72 32 -122c0 -157 -91 -285 -234 -285c-48 0 -88 14 -116 39l-46 -53l-31 28l49 57c-21 32 -32 73 -32 123c0 157 91 285 235 285c48 0 88 -14 116 -40l46 53zM342 376c-17 22 -43 35 -77 35c-99 0 -154 -111 -154 -221c0 -26 3 -49 11 -69z
M374 270c0 25 -4 47 -11 67l-220 -255c18 -20 43 -33 76 -33c99 0 155 111 155 221z" />
    <glyph glyph-name="oe" unicode="&#x153;" horiz-adv-x="745" 
d="M721 349c0 -66 -51 -109 -108 -131c-58 -23 -137 -36 -195 -39v-17c0 -50 33 -113 107 -113c73 0 124 50 134 60l33 -43c-44 -45 -102 -76 -181 -76c-78 0 -125 48 -140 92c-8 -15 -53 -92 -159 -92c-111 0 -175 76 -175 194c0 157 91 285 235 285c81 0 126 -48 139 -94
c25 35 80 94 170 94c93 0 140 -54 140 -120zM654 349c0 33 -21 66 -76 66c-72 0 -141 -70 -157 -182c60 4 123 15 160 30c37 14 73 38 73 86zM365 270c0 76 -28 141 -104 141c-94 0 -150 -115 -150 -221c0 -77 32 -141 104 -141c95 0 150 115 150 221z" />
    <glyph glyph-name="germandbls" unicode="&#xdf;" horiz-adv-x="498" 
d="M461 219c0 -71 -24 -130 -63 -170c-35 -37 -84 -59 -143 -59c-45 0 -75 16 -75 16l17 54s19 -12 59 -12c70 0 132 71 132 166c0 92 -52 134 -116 134h-32l7 53h32c61 0 107 44 107 109c0 50 -24 94 -89 94s-91 -41 -102 -124l-66 -497c-4 -34 -13 -86 -38 -117
c-24 -30 -56 -41 -84 -41s-51 9 -56 12l18 53s19 -7 29 -7s23 2 36 16c13 15 20 41 24 73l56 433h-72l7 53h72l5 37c8 65 32 106 64 131s71 35 116 35c46 0 85 -18 111 -44c23 -23 40 -56 40 -96c0 -84 -53 -129 -108 -144c33 -6 112 -43 112 -158z" />
    <glyph glyph-name="one.superior" unicode="&#xb9;" horiz-adv-x="370" 
d="M294 771l-49 -389h-57l40 312c-13 -10 -42 -20 -68 -25l-10 42c36 6 85 31 98 60h46z" />
    <glyph glyph-name="logicalnot" unicode="&#xac;" 
d="M433 412l-28 -228h-55l22 178h-320l7 50h374z" />
    <glyph glyph-name="mu" unicode="&#xb5;" 
d="M438 459l-61 -459h-61v76c-25 -33 -66 -84 -141 -84c-50 0 -67 32 -67 32l-24 -193h-70l83 628h71l-39 -295c-1 -10 -2 -19 -2 -28c0 -49 22 -81 71 -81c58 0 116 71 131 120l38 284h71z" />
    <glyph glyph-name="trademark" unicode="&#x2122;" horiz-adv-x="666" 
d="M630 635l-28 -330h-50l27 281l-113 -281h-50l-36 281l-51 -281h-46l63 330h72l32 -273l107 273h73zM305 635l-6 -41h-92l-39 -289h-47l39 289h-92l6 41h231z" />
    <glyph glyph-name="Eth" unicode="&#xd0;" horiz-adv-x="612" 
d="M569 372c0 -111 -37 -211 -96 -275c-57 -62 -133 -97 -234 -97h-195l40 308h-57l7 54h57l36 273h197c79 0 136 -23 176 -63c39 -39 69 -99 69 -200zM492 372c0 73 -20 126 -51 157c-31 32 -76 47 -131 47h-117l-28 -214h109l-8 -54h-108l-33 -247h117c68 0 135 31 179 82
c44 52 71 138 71 229z" />
    <glyph glyph-name="onehalf" unicode="&#xbd;" horiz-adv-x="748" 
d="M204 651l-49 -389h-57l40 312c-13 -10 -42 -20 -68 -25l-10 42c36 6 85 31 98 60h46zM568 638l-440 -651l-37 25l440 651zM683 288c0 -65 -57 -103 -89 -127c-32 -25 -89 -67 -110 -109h183l-7 -52h-255c18 95 103 155 147 189c43 33 74 58 74 92c0 33 -20 61 -67 61
s-76 -37 -84 -48l-30 33c13 19 52 64 119 64c68 0 119 -38 119 -103z" />
    <glyph glyph-name="plusminus" unicode="&#xb1;" 
d="M444 336l-7 -54h-159l-23 -177h-56l24 177h-160l7 54h159l23 178h56l-23 -178h159zM408 54l-7 -54h-374l7 54h374z" />
    <glyph glyph-name="Thorn" unicode="&#xde;" horiz-adv-x="503" 
d="M462 356c0 -60 -24 -115 -64 -153c-41 -39 -101 -59 -165 -59h-98l-18 -144h-73l83 635h74l-15 -111h94c56 0 99 -14 132 -44c34 -30 50 -72 50 -124zM388 348c0 43 -12 70 -32 89c-19 18 -47 29 -86 29h-91l-36 -264h89c47 0 84 13 110 37s46 62 46 109z" />
    <glyph glyph-name="onequarter" unicode="&#xbc;" horiz-adv-x="729" 
d="M568 638l-440 -651l-37 25l440 651zM204 651l-49 -389h-57l40 312c-13 -10 -42 -20 -68 -25l-10 42c36 6 85 31 98 60h46zM669 135l-7 -48h-57l-11 -87h-56l12 87h-181l7 48l197 248h68l-31 -248h59zM582 334l-155 -199h129z" />
    <glyph glyph-name="divide" unicode="&#xf7;" 
d="M310 468c0 -33 -21 -57 -54 -57c-25 0 -44 20 -44 45c0 33 21 57 55 57c24 0 43 -20 43 -45zM428 325l-7 -54h-375l8 54h374zM262 140c0 -33 -21 -57 -55 -57c-24 0 -43 20 -43 44c0 34 21 57 55 57c24 0 43 -19 43 -44z" />
    <glyph glyph-name="brokenbar" unicode="&#xa6;" horiz-adv-x="268" 
d="M162 355h-57v326h57v-326zM162 -135h-57v325h57v-325z" />
    <glyph glyph-name="degree" unicode="&#xb0;" horiz-adv-x="353" 
d="M321 527c0 -82 -55 -146 -140 -146c-66 0 -112 54 -112 118c0 82 56 146 140 146c66 0 112 -55 112 -118zM273 524c0 42 -26 76 -69 76c-55 0 -87 -42 -87 -98c0 -42 27 -77 69 -77c55 0 87 43 87 99z" />
    <glyph glyph-name="thorn" unicode="&#xfe;" horiz-adv-x="501" 
d="M463 275c0 -149 -83 -285 -224 -285c-97 0 -123 81 -123 81l-31 -240h-71l109 824h71l-36 -266c3 5 48 80 144 80c100 0 161 -75 161 -194zM389 270c0 93 -44 140 -102 140c-98 0 -153 -110 -153 -220c0 -93 44 -140 102 -140c98 0 153 109 153 220z" />
    <glyph glyph-name="threequarters" unicode="&#xbe;" horiz-adv-x="813" 
d="M753 135l-7 -48h-57l-11 -87h-56l12 87h-181l7 48l197 248h68l-31 -248h59zM666 334l-155 -199h129zM662 638l-440 -651l-37 25l440 651zM320 556c0 -59 -59 -89 -79 -91c21 -4 66 -24 66 -87c0 -68 -61 -124 -139 -124s-114 58 -118 62l37 36c9 -16 39 -50 82 -50
s81 29 81 76s-34 61 -67 61h-36l6 47h36c44 0 76 26 76 64c0 37 -27 57 -66 57s-64 -26 -77 -41l-28 37c11 11 47 51 112 51s114 -36 114 -98z" />
    <glyph glyph-name="two.superior" unicode="&#xb2;" horiz-adv-x="370" 
d="M355 670c0 -65 -57 -103 -89 -127c-32 -25 -89 -67 -110 -109h183l-7 -52h-255c18 95 103 155 147 189c43 33 74 58 74 92c0 33 -20 61 -67 61s-76 -37 -84 -48l-30 33c13 19 52 64 119 64c68 0 119 -38 119 -103z" />
    <glyph glyph-name="registered" unicode="&#xae;" horiz-adv-x="658" 
d="M640 469c0 -162 -128 -289 -289 -289s-288 127 -288 289c0 161 127 288 288 288s289 -127 289 -288zM603 469c0 141 -111 251 -252 251s-251 -110 -251 -251c0 -142 110 -252 251 -252s252 110 252 252zM470 543c0 -66 -44 -96 -77 -101l64 -137h-51l-59 131h-49
l-18 -131h-47l44 330h97c52 0 96 -26 96 -92zM420 541c0 40 -22 54 -55 54h-46l-16 -119h45c48 0 72 24 72 65z" />
    <glyph glyph-name="minus" unicode="&#x2212;" 
d="M428 325l-7 -54h-375l8 54h374z" />
    <glyph glyph-name="eth" unicode="&#xf0;" horiz-adv-x="485" 
d="M447 275c0 -158 -92 -285 -234 -285c-111 0 -176 75 -176 189c0 150 98 255 222 255c61 0 99 -31 116 -63c-11 56 -45 121 -91 174l-101 -65l-22 34l94 60c-28 26 -63 46 -82 56l24 38c27 -10 76 -38 103 -64l103 66l22 -34l-94 -60c21 -23 49 -58 70 -98
c21 -41 46 -103 46 -203zM373 245c0 70 -32 133 -108 133c-89 0 -154 -90 -154 -195c0 -71 33 -135 108 -135c89 0 154 92 154 197z" />
    <glyph glyph-name="multiply" unicode="&#xd7;" 
d="M407 421l-134 -126l102 -129l-43 -38l-100 127l-131 -127l-37 44l135 126l-102 129l43 38l100 -127l131 127z" />
    <glyph glyph-name="three.superior" unicode="&#xb3;" horiz-adv-x="370" 
d="M349 676c0 -59 -59 -89 -79 -91c21 -4 66 -24 66 -87c0 -68 -61 -124 -139 -124s-114 58 -118 62l37 36c9 -16 39 -50 82 -50s81 29 81 76s-34 61 -67 61h-36l6 47h36c44 0 76 26 76 64c0 37 -27 57 -66 57s-64 -26 -77 -41l-28 37c11 11 47 51 112 51s114 -36 114 -98z
" />
    <glyph glyph-name="copyright" unicode="&#xa9;" horiz-adv-x="733" 
d="M694 317c0 -187 -140 -327 -327 -327c-188 0 -328 140 -328 327c0 188 140 328 328 328c187 0 327 -140 327 -328zM655 317c0 159 -130 289 -288 289c-159 0 -289 -130 -289 -289c0 -158 130 -288 289 -288c158 0 288 130 288 288zM515 441l-35 -35c-1 2 -29 50 -101 50
c-71 0 -127 -61 -127 -149c0 -87 59 -123 113 -123s94 32 104 46l28 -39c-12 -14 -54 -59 -137 -59s-167 57 -167 178c0 120 90 197 185 197c96 0 133 -59 137 -66z" />
    <glyph glyph-name="Aacute" unicode="&#xc1;" horiz-adv-x="522" 
d="M483 0h-78l-34 170h-259l-78 -170h-75l304 635h82zM360 228l-68 337l-154 -337h222zM433 816l-103 -126h-50l76 126h77z" />
    <glyph glyph-name="Acircumflex" unicode="&#xc2;" horiz-adv-x="522" 
d="M483 0h-78l-34 170h-259l-78 -170h-75l304 635h82zM360 228l-68 337l-154 -337h222zM419 690h-49l-47 86l-72 -86h-50l92 126h70z" />
    <glyph glyph-name="Adieresis" unicode="&#xc4;" horiz-adv-x="522" 
d="M483 0h-78l-34 170h-259l-78 -170h-75l304 635h82zM360 228l-68 337l-154 -337h222zM431 760c0 -31 -20 -53 -51 -53c-22 0 -39 18 -39 40c0 31 19 53 50 53c22 0 40 -18 40 -40zM294 760c0 -31 -19 -53 -50 -53c-22 0 -40 18 -40 40c0 31 20 53 51 53
c22 0 39 -18 39 -40z" />
    <glyph glyph-name="Agrave" unicode="&#xc0;" horiz-adv-x="522" 
d="M483 0h-78l-34 170h-259l-78 -170h-75l304 635h82zM360 228l-68 337l-154 -337h222zM350 690h-50l-73 126h77z" />
    <glyph glyph-name="Aring" unicode="&#xc5;" horiz-adv-x="522" 
d="M483 0h-78l-34 170h-259l-78 -170h-75l304 635h82zM360 228l-68 337l-154 -337h222zM400 767c0 -53 -36 -91 -89 -91c-41 0 -72 31 -72 70c0 53 36 91 89 91c41 0 72 -31 72 -70zM363 762c0 21 -16 40 -38 40c-29 0 -49 -21 -49 -51c0 -21 16 -40 38 -40
c29 0 49 21 49 51z" />
    <glyph glyph-name="Atilde" unicode="&#xc3;" horiz-adv-x="522" 
d="M483 0h-78l-34 170h-259l-78 -170h-75l304 635h82zM360 228l-68 337l-154 -337h222zM420 803l40 -10c-10 -52 -47 -91 -91 -91c-39 0 -55 21 -65 30c-9 10 -21 25 -40 25c-22 0 -40 -28 -45 -54l-40 10c10 52 47 91 91 91c39 0 55 -20 65 -30c9 -9 21 -24 40 -24
c22 0 40 28 45 53z" />
    <glyph glyph-name="Ccedilla" unicode="&#xc7;" horiz-adv-x="580" 
d="M565 500l-60 -30s-27 111 -157 111c-131 0 -228 -145 -228 -312c0 -149 76 -213 171 -213s157 67 183 114l52 -42c-36 -55 -99 -129 -223 -137l-43 -122h-78l68 123c-108 11 -207 89 -207 268c0 219 134 385 310 385s212 -145 212 -145z" />
    <glyph glyph-name="Eacute" unicode="&#xc9;" horiz-adv-x="485" 
d="M475 635l-8 -59h-274l-27 -208h257l-9 -60h-256l-33 -247h287l-8 -61h-360l83 635h348zM418 816l-103 -126h-50l76 126h77z" />
    <glyph glyph-name="Ecircumflex" unicode="&#xca;" horiz-adv-x="485" 
d="M475 635l-8 -59h-274l-27 -208h257l-9 -60h-256l-33 -247h287l-8 -61h-360l83 635h348zM415 690h-49l-47 86l-72 -86h-50l92 126h70z" />
    <glyph glyph-name="Edieresis" unicode="&#xcb;" horiz-adv-x="485" 
d="M475 635l-8 -59h-274l-27 -208h257l-9 -60h-256l-33 -247h287l-8 -61h-360l83 635h348zM429 760c0 -31 -20 -53 -51 -53c-22 0 -39 18 -39 40c0 31 19 53 50 53c22 0 40 -18 40 -40zM292 760c0 -31 -19 -53 -50 -53c-22 0 -40 18 -40 40c0 31 20 53 51 53
c22 0 39 -18 39 -40z" />
    <glyph glyph-name="Egrave" unicode="&#xc8;" horiz-adv-x="485" 
d="M475 635l-8 -59h-274l-27 -208h257l-9 -60h-256l-33 -247h287l-8 -61h-360l83 635h348zM361 690h-50l-73 126h77z" />
    <glyph glyph-name="Iacute" unicode="&#xcd;" horiz-adv-x="244" 
d="M201 635l-84 -635h-73l83 635h74zM289 816l-103 -126h-50l76 126h77z" />
    <glyph glyph-name="Icircumflex" unicode="&#xce;" horiz-adv-x="244" 
d="M201 635l-84 -635h-73l83 635h74zM279 690h-49l-47 86l-72 -86h-50l92 126h70z" />
    <glyph glyph-name="Idieresis" unicode="&#xcf;" horiz-adv-x="244" 
d="M201 635l-84 -635h-73l83 635h74zM292 760c0 -31 -20 -53 -51 -53c-22 0 -39 18 -39 40c0 31 19 53 50 53c22 0 40 -18 40 -40zM155 760c0 -31 -19 -53 -50 -53c-22 0 -40 18 -40 40c0 31 20 53 51 53c22 0 39 -18 39 -40z" />
    <glyph glyph-name="Igrave" unicode="&#xcc;" horiz-adv-x="244" 
d="M201 635l-84 -635h-73l83 635h74zM216 690h-50l-73 126h77z" />
    <glyph glyph-name="Ntilde" unicode="&#xd1;" horiz-adv-x="634" 
d="M590 635l-83 -635h-76l-247 539l-70 -539h-70l83 635h86l239 -522l68 522h70zM471 803l40 -10c-10 -52 -47 -91 -91 -91c-39 0 -55 21 -65 30c-9 10 -21 25 -40 25c-22 0 -40 -28 -45 -54l-40 10c10 52 47 91 91 91c39 0 55 -20 65 -30c9 -9 21 -24 40 -24
c22 0 40 28 45 53z" />
    <glyph glyph-name="Oacute" unicode="&#xd3;" horiz-adv-x="655" 
d="M612 381c0 -206 -120 -391 -322 -391c-152 0 -247 105 -247 264c0 206 120 391 322 391c152 0 247 -105 247 -264zM535 378c0 119 -59 205 -177 205c-132 0 -238 -133 -238 -324c0 -118 59 -204 177 -204c132 0 238 133 238 323zM502 816l-103 -126h-50l76 126h77z" />
    <glyph glyph-name="Ocircumflex" unicode="&#xd4;" horiz-adv-x="655" 
d="M612 381c0 -206 -120 -391 -322 -391c-152 0 -247 105 -247 264c0 206 120 391 322 391c152 0 247 -105 247 -264zM535 378c0 119 -59 205 -177 205c-132 0 -238 -133 -238 -324c0 -118 59 -204 177 -204c132 0 238 133 238 323zM484 690h-49l-47 86l-72 -86h-50l92 126
h70z" />
    <glyph glyph-name="Odieresis" unicode="&#xd6;" horiz-adv-x="655" 
d="M612 381c0 -206 -120 -391 -322 -391c-152 0 -247 105 -247 264c0 206 120 391 322 391c152 0 247 -105 247 -264zM535 378c0 119 -59 205 -177 205c-132 0 -238 -133 -238 -324c0 -118 59 -204 177 -204c132 0 238 133 238 323zM498 760c0 -31 -20 -53 -51 -53
c-22 0 -39 18 -39 40c0 31 19 53 50 53c22 0 40 -18 40 -40zM361 760c0 -31 -19 -53 -50 -53c-22 0 -40 18 -40 40c0 31 20 53 51 53c22 0 39 -18 39 -40z" />
    <glyph glyph-name="Ograve" unicode="&#xd2;" horiz-adv-x="655" 
d="M612 381c0 -206 -120 -391 -322 -391c-152 0 -247 105 -247 264c0 206 120 391 322 391c152 0 247 -105 247 -264zM535 378c0 119 -59 205 -177 205c-132 0 -238 -133 -238 -324c0 -118 59 -204 177 -204c132 0 238 133 238 323zM413 690h-50l-73 126h77z" />
    <glyph glyph-name="Otilde" unicode="&#xd5;" horiz-adv-x="655" 
d="M612 381c0 -206 -120 -391 -322 -391c-152 0 -247 105 -247 264c0 206 120 391 322 391c152 0 247 -105 247 -264zM535 378c0 119 -59 205 -177 205c-132 0 -238 -133 -238 -324c0 -118 59 -204 177 -204c132 0 238 133 238 323zM485 803l40 -10c-10 -52 -47 -91 -91 -91
c-39 0 -55 21 -65 30c-9 10 -21 25 -40 25c-22 0 -40 -28 -45 -54l-40 10c10 52 47 91 91 91c39 0 55 -20 65 -30c9 -9 21 -24 40 -24c22 0 40 28 45 53z" />
    <glyph glyph-name="Scaron" unicode="&#x160;" horiz-adv-x="465" 
d="M452 553l-45 -47c-25 32 -71 76 -143 76s-118 -42 -118 -97c0 -50 34 -75 60 -94s69 -42 93 -58s52 -37 71 -58s39 -50 39 -102c0 -53 -25 -102 -59 -133s-85 -50 -145 -50c-40 0 -85 9 -126 35c-33 21 -57 48 -75 77l50 40c26 -44 86 -88 156 -88c50 0 80 18 95 33
s31 38 31 78c0 58 -50 86 -71 100s-41 27 -64 40c-25 15 -50 31 -66 45s-62 52 -62 119s32 108 64 133c33 25 73 42 133 42c45 0 78 -11 104 -25s52 -33 78 -66zM418 816l-91 -126h-70l-57 126h50l47 -88l72 88h49z" />
    <glyph glyph-name="Uacute" unicode="&#xda;" horiz-adv-x="599" 
d="M559 635l-51 -385c-10 -77 -28 -139 -65 -184c-38 -47 -92 -76 -186 -76c-91 0 -138 33 -166 78c-19 31 -27 68 -27 112c0 21 2 43 5 67l50 388h74l-51 -390c-3 -23 -5 -43 -5 -61c0 -26 4 -47 13 -67c17 -36 51 -61 116 -61c64 0 102 24 127 59c24 34 34 76 41 130
l52 390h73zM461 816l-103 -126h-50l76 126h77z" />
    <glyph glyph-name="Ucircumflex" unicode="&#xdb;" horiz-adv-x="599" 
d="M559 635l-51 -385c-10 -77 -28 -139 -65 -184c-38 -47 -92 -76 -186 -76c-91 0 -138 33 -166 78c-19 31 -27 68 -27 112c0 21 2 43 5 67l50 388h74l-51 -390c-3 -23 -5 -43 -5 -61c0 -26 4 -47 13 -67c17 -36 51 -61 116 -61c64 0 102 24 127 59c24 34 34 76 41 130
l52 390h73zM454 690h-49l-47 86l-72 -86h-50l92 126h70z" />
    <glyph glyph-name="Udieresis" unicode="&#xdc;" horiz-adv-x="599" 
d="M559 635l-51 -385c-10 -77 -28 -139 -65 -184c-38 -47 -92 -76 -186 -76c-91 0 -138 33 -166 78c-19 31 -27 68 -27 112c0 21 2 43 5 67l50 388h74l-51 -390c-3 -23 -5 -43 -5 -61c0 -26 4 -47 13 -67c17 -36 51 -61 116 -61c64 0 102 24 127 59c24 34 34 76 41 130
l52 390h73zM468 760c0 -31 -20 -53 -51 -53c-22 0 -39 18 -39 40c0 31 19 53 50 53c22 0 40 -18 40 -40zM331 760c0 -31 -19 -53 -50 -53c-22 0 -40 18 -40 40c0 31 20 53 51 53c22 0 39 -18 39 -40z" />
    <glyph glyph-name="Ugrave" unicode="&#xd9;" horiz-adv-x="599" 
d="M559 635l-51 -385c-10 -77 -28 -139 -65 -184c-38 -47 -92 -76 -186 -76c-91 0 -138 33 -166 78c-19 31 -27 68 -27 112c0 21 2 43 5 67l50 388h74l-51 -390c-3 -23 -5 -43 -5 -61c0 -26 4 -47 13 -67c17 -36 51 -61 116 -61c64 0 102 24 127 59c24 34 34 76 41 130
l52 390h73zM389 690h-50l-73 126h77z" />
    <glyph glyph-name="Yacute" unicode="&#xdd;" horiz-adv-x="490" 
d="M522 635l-248 -372l-35 -263h-73l34 263l-150 372h79l116 -310l197 310h80zM411 816l-103 -126h-50l76 126h77z" />
    <glyph glyph-name="Ydieresis" unicode="&#x178;" horiz-adv-x="490" 
d="M522 635l-248 -372l-35 -263h-73l34 263l-150 372h79l116 -310l197 310h80zM415 760c0 -31 -20 -53 -51 -53c-22 0 -39 18 -39 40c0 31 19 53 50 53c22 0 40 -18 40 -40zM278 760c0 -31 -19 -53 -50 -53c-22 0 -40 18 -40 40c0 31 20 53 51 53c22 0 39 -18 39 -40z" />
    <glyph glyph-name="Zcaron" unicode="&#x17d;" horiz-adv-x="504" 
d="M504 635l-6 -54l-404 -520h346l-8 -61h-432l7 56l405 520h-328l7 59h413zM432 816l-91 -126h-70l-57 126h50l47 -88l72 88h49z" />
    <glyph glyph-name="aacute" unicode="&#xe1;" horiz-adv-x="496" 
d="M460 458l-61 -459h-60v73s-45 -83 -142 -83c-98 0 -160 74 -160 193c0 150 85 286 223 286c93 0 117 -74 121 -85l18 75h61zM362 269c0 93 -44 140 -100 140c-96 0 -151 -110 -151 -220c0 -93 44 -140 100 -140c96 0 151 109 151 220zM404 640l-103 -126h-50l76 126h77z
" />
    <glyph glyph-name="acircumflex" unicode="&#xe2;" horiz-adv-x="496" 
d="M460 458l-61 -459h-60v73s-45 -83 -142 -83c-98 0 -160 74 -160 193c0 150 85 286 223 286c93 0 117 -74 121 -85l18 75h61zM362 269c0 93 -44 140 -100 140c-96 0 -151 -110 -151 -220c0 -93 44 -140 100 -140c96 0 151 109 151 220zM390 514h-49l-47 86l-72 -86h-50
l92 126h70z" />
    <glyph glyph-name="adieresis" unicode="&#xe4;" horiz-adv-x="496" 
d="M460 458l-61 -459h-60v73s-45 -83 -142 -83c-98 0 -160 74 -160 193c0 150 85 286 223 286c93 0 117 -74 121 -85l18 75h61zM362 269c0 93 -44 140 -100 140c-96 0 -151 -110 -151 -220c0 -93 44 -140 100 -140c96 0 151 109 151 220zM403 584c0 -31 -20 -53 -51 -53
c-22 0 -39 18 -39 40c0 31 19 53 50 53c22 0 40 -18 40 -40zM266 584c0 -31 -19 -53 -50 -53c-22 0 -40 18 -40 40c0 31 20 53 51 53c22 0 39 -18 39 -40z" />
    <glyph glyph-name="agrave" unicode="&#xe0;" horiz-adv-x="496" 
d="M460 458l-61 -459h-60v73s-45 -83 -142 -83c-98 0 -160 74 -160 193c0 150 85 286 223 286c93 0 117 -74 121 -85l18 75h61zM362 269c0 93 -44 140 -100 140c-96 0 -151 -110 -151 -220c0 -93 44 -140 100 -140c96 0 151 109 151 220zM315 514h-50l-73 126h77z" />
    <glyph glyph-name="aring" unicode="&#xe5;" horiz-adv-x="496" 
d="M460 458l-61 -459h-60v73s-45 -83 -142 -83c-98 0 -160 74 -160 193c0 150 85 286 223 286c93 0 117 -74 121 -85l18 75h61zM362 269c0 93 -44 140 -100 140c-96 0 -151 -110 -151 -220c0 -93 44 -140 100 -140c96 0 151 109 151 220zM368 591c0 -53 -36 -91 -89 -91
c-41 0 -72 31 -72 70c0 53 36 91 89 91c41 0 72 -31 72 -70zM331 586c0 21 -16 40 -38 40c-29 0 -49 -21 -49 -51c0 -21 16 -40 38 -40c29 0 49 21 49 51z" />
    <glyph glyph-name="atilde" unicode="&#xe3;" horiz-adv-x="496" 
d="M460 458l-61 -459h-60v73s-45 -83 -142 -83c-98 0 -160 74 -160 193c0 150 85 286 223 286c93 0 117 -74 121 -85l18 75h61zM362 269c0 93 -44 140 -100 140c-96 0 -151 -110 -151 -220c0 -93 44 -140 100 -140c96 0 151 109 151 220zM390 627l40 -10
c-10 -52 -47 -91 -91 -91c-39 0 -55 21 -65 30c-9 10 -21 25 -40 25c-22 0 -40 -28 -45 -54l-40 10c10 52 47 91 91 91c39 0 55 -20 65 -30c9 -9 21 -24 40 -24c22 0 40 28 45 53z" />
    <glyph glyph-name="ccedilla" unicode="&#xe7;" horiz-adv-x="429" 
d="M421 362l-53 -31c-1 2 -20 77 -108 77c-90 0 -152 -97 -152 -211c0 -96 45 -144 115 -144c75 0 119 60 126 73l45 -40c-18 -27 -69 -90 -162 -95l-43 -117h-78l68 119c-39 6 -142 43 -142 197c0 161 97 279 226 279c128 0 155 -103 158 -107z" />
    <glyph glyph-name="eacute" unicode="&#xe9;" horiz-adv-x="435" 
d="M411 349c0 -65 -47 -105 -108 -131c-62 -26 -149 -35 -195 -39v-14c0 -55 34 -116 106 -116c73 0 125 50 135 60l33 -43c-44 -45 -102 -76 -181 -76c-78 0 -164 50 -164 199c0 148 102 280 233 280c94 0 141 -54 141 -120zM344 349c0 33 -21 66 -76 66
c-72 0 -141 -70 -157 -182c60 4 123 15 160 30c36 14 73 38 73 86zM377 640l-103 -126h-50l76 126h77z" />
    <glyph glyph-name="ecircumflex" unicode="&#xea;" horiz-adv-x="435" 
d="M411 349c0 -65 -47 -105 -108 -131c-62 -26 -149 -35 -195 -39v-14c0 -55 34 -116 106 -116c73 0 125 50 135 60l33 -43c-44 -45 -102 -76 -181 -76c-78 0 -164 50 -164 199c0 148 102 280 233 280c94 0 141 -54 141 -120zM344 349c0 33 -21 66 -76 66
c-72 0 -141 -70 -157 -182c60 4 123 15 160 30c36 14 73 38 73 86zM388 514h-49l-47 86l-72 -86h-50l92 126h70z" />
    <glyph glyph-name="edieresis" unicode="&#xeb;" horiz-adv-x="435" 
d="M411 349c0 -65 -47 -105 -108 -131c-62 -26 -149 -35 -195 -39v-14c0 -55 34 -116 106 -116c73 0 125 50 135 60l33 -43c-44 -45 -102 -76 -181 -76c-78 0 -164 50 -164 199c0 148 102 280 233 280c94 0 141 -54 141 -120zM344 349c0 33 -21 66 -76 66
c-72 0 -141 -70 -157 -182c60 4 123 15 160 30c36 14 73 38 73 86zM399 584c0 -31 -20 -53 -51 -53c-22 0 -39 18 -39 40c0 31 19 53 50 53c22 0 40 -18 40 -40zM262 584c0 -31 -19 -53 -50 -53c-22 0 -40 18 -40 40c0 31 20 53 51 53c22 0 39 -18 39 -40z" />
    <glyph glyph-name="egrave" unicode="&#xe8;" horiz-adv-x="435" 
d="M411 349c0 -65 -47 -105 -108 -131c-62 -26 -149 -35 -195 -39v-14c0 -55 34 -116 106 -116c73 0 125 50 135 60l33 -43c-44 -45 -102 -76 -181 -76c-78 0 -164 50 -164 199c0 148 102 280 233 280c94 0 141 -54 141 -120zM344 349c0 33 -21 66 -76 66
c-72 0 -141 -70 -157 -182c60 4 123 15 160 30c36 14 73 38 73 86zM315 514h-50l-73 126h77z" />
    <glyph glyph-name="iacute" unicode="&#xed;" horiz-adv-x="204" 
d="M167 458l-60 -459h-71l60 459h71zM259 640l-103 -126h-50l76 126h77z" />
    <glyph glyph-name="icircumflex" unicode="&#xee;" horiz-adv-x="204" 
d="M167 458l-60 -459h-71l60 459h71zM248 514h-49l-47 86l-72 -86h-50l92 126h70z" />
    <glyph glyph-name="idieresis" unicode="&#xef;" horiz-adv-x="204" 
d="M167 458l-60 -459h-71l60 459h71zM260 584c0 -31 -20 -53 -51 -53c-22 0 -39 18 -39 40c0 31 19 53 50 53c22 0 40 -18 40 -40zM123 584c0 -31 -19 -53 -50 -53c-22 0 -40 18 -40 40c0 31 20 53 51 53c22 0 39 -18 39 -40z" />
    <glyph glyph-name="igrave" unicode="&#xec;" horiz-adv-x="204" 
d="M167 458l-60 -459h-71l60 459h71zM186 514h-50l-73 126h77z" />
    <glyph glyph-name="ntilde" unicode="&#xf1;" horiz-adv-x="490" 
d="M436 344c0 -22 -2 -37 -5 -63l-37 -281h-71l37 272c2 17 4 31 4 49c0 52 -26 84 -76 84c-64 0 -113 -55 -143 -120l-38 -285h-71l60 459h61v-79c29 44 79 89 156 89c78 0 123 -50 123 -125zM390 627l40 -10c-10 -52 -47 -91 -91 -91c-39 0 -55 21 -65 30
c-9 10 -21 25 -40 25c-22 0 -40 -28 -45 -54l-40 10c10 52 47 91 91 91c39 0 55 -20 65 -30c9 -9 21 -24 40 -24c22 0 40 28 45 53z" />
    <glyph glyph-name="oacute" unicode="&#xf3;" horiz-adv-x="485" 
d="M447 275c0 -157 -91 -285 -234 -285c-112 0 -176 76 -176 194c0 157 91 285 235 285c111 0 175 -76 175 -194zM374 270c0 76 -33 141 -109 141c-99 0 -154 -111 -154 -221c0 -77 32 -141 108 -141c99 0 155 111 155 221zM398 640l-103 -126h-50l76 126h77z" />
    <glyph glyph-name="ocircumflex" unicode="&#xf4;" horiz-adv-x="485" 
d="M447 275c0 -157 -91 -285 -234 -285c-112 0 -176 76 -176 194c0 157 91 285 235 285c111 0 175 -76 175 -194zM374 270c0 76 -33 141 -109 141c-99 0 -154 -111 -154 -221c0 -77 32 -141 108 -141c99 0 155 111 155 221zM388 514h-49l-47 86l-72 -86h-50l92 126h70z" />
    <glyph glyph-name="odieresis" unicode="&#xf6;" horiz-adv-x="485" 
d="M447 275c0 -157 -91 -285 -234 -285c-112 0 -176 76 -176 194c0 157 91 285 235 285c111 0 175 -76 175 -194zM374 270c0 76 -33 141 -109 141c-99 0 -154 -111 -154 -221c0 -77 32 -141 108 -141c99 0 155 111 155 221zM401 584c0 -31 -20 -53 -51 -53
c-22 0 -39 18 -39 40c0 31 19 53 50 53c22 0 40 -18 40 -40zM264 584c0 -31 -19 -53 -50 -53c-22 0 -40 18 -40 40c0 31 20 53 51 53c22 0 39 -18 39 -40z" />
    <glyph glyph-name="ograve" unicode="&#xf2;" horiz-adv-x="485" 
d="M447 275c0 -157 -91 -285 -234 -285c-112 0 -176 76 -176 194c0 157 91 285 235 285c111 0 175 -76 175 -194zM374 270c0 76 -33 141 -109 141c-99 0 -154 -111 -154 -221c0 -77 32 -141 108 -141c99 0 155 111 155 221zM320 514h-50l-73 126h77z" />
    <glyph glyph-name="otilde" unicode="&#xf5;" horiz-adv-x="485" 
d="M447 275c0 -157 -91 -285 -234 -285c-112 0 -176 76 -176 194c0 157 91 285 235 285c111 0 175 -76 175 -194zM374 270c0 76 -33 141 -109 141c-99 0 -154 -111 -154 -221c0 -77 32 -141 108 -141c99 0 155 111 155 221zM390 627l40 -10c-10 -52 -47 -91 -91 -91
c-39 0 -55 21 -65 30c-9 10 -21 25 -40 25c-22 0 -40 -28 -45 -54l-40 10c10 52 47 91 91 91c39 0 55 -20 65 -30c9 -9 21 -24 40 -24c22 0 40 28 45 53z" />
    <glyph glyph-name="scaron" unicode="&#x161;" horiz-adv-x="371" 
d="M360 393l-40 -43c-14 16 -31 32 -47 41s-43 21 -73 21s-46 -7 -55 -13s-26 -21 -26 -49s14 -39 25 -48s37 -23 63 -37s52 -27 72 -42s50 -46 50 -96c0 -49 -24 -82 -49 -102s-64 -35 -112 -35s-85 17 -101 26s-50 34 -65 59l44 41c10 -15 32 -35 48 -45s46 -23 81 -23
c25 0 48 9 61 19s25 26 25 51s-12 39 -23 48s-32 21 -66 39s-55 27 -73 42s-47 40 -47 95c0 60 39 90 54 100s45 26 95 26s88 -19 98 -24c10 -6 42 -25 61 -51zM347 640l-91 -126h-70l-57 126h50l47 -88l72 88h49z" />
    <glyph glyph-name="uacute" unicode="&#xfa;" horiz-adv-x="480" 
d="M444 458l-60 -459h-61v78c-31 -51 -88 -88 -149 -88c-56 0 -83 25 -98 50c-16 25 -20 55 -20 81s2 48 5 73l35 265h71l-34 -255c-3 -25 -6 -57 -6 -71c0 -23 5 -44 15 -56c9 -12 26 -23 56 -23s59 13 85 39s44 60 52 82l38 284h71zM396 640l-103 -126h-50l76 126h77z" />
    <glyph glyph-name="ucircumflex" unicode="&#xfb;" horiz-adv-x="480" 
d="M444 458l-60 -459h-61v78c-31 -51 -88 -88 -149 -88c-56 0 -83 25 -98 50c-16 25 -20 55 -20 81s2 48 5 73l35 265h71l-34 -255c-3 -25 -6 -57 -6 -71c0 -23 5 -44 15 -56c9 -12 26 -23 56 -23s59 13 85 39s44 60 52 82l38 284h71zM384 514h-49l-47 86l-72 -86h-50
l92 126h70z" />
    <glyph glyph-name="udieresis" unicode="&#xfc;" horiz-adv-x="480" 
d="M444 458l-60 -459h-61v78c-31 -51 -88 -88 -149 -88c-56 0 -83 25 -98 50c-16 25 -20 55 -20 81s2 48 5 73l35 265h71l-34 -255c-3 -25 -6 -57 -6 -71c0 -23 5 -44 15 -56c9 -12 26 -23 56 -23s59 13 85 39s44 60 52 82l38 284h71zM398 584c0 -31 -20 -53 -51 -53
c-22 0 -39 18 -39 40c0 31 19 53 50 53c22 0 40 -18 40 -40zM261 584c0 -31 -19 -53 -50 -53c-22 0 -40 18 -40 40c0 31 20 53 51 53c22 0 39 -18 39 -40z" />
    <glyph glyph-name="ugrave" unicode="&#xf9;" horiz-adv-x="480" 
d="M444 458l-60 -459h-61v78c-31 -51 -88 -88 -149 -88c-56 0 -83 25 -98 50c-16 25 -20 55 -20 81s2 48 5 73l35 265h71l-34 -255c-3 -25 -6 -57 -6 -71c0 -23 5 -44 15 -56c9 -12 26 -23 56 -23s59 13 85 39s44 60 52 82l38 284h71zM322 514h-50l-73 126h77z" />
    <glyph glyph-name="yacute" unicode="&#xfd;" horiz-adv-x="420" 
d="M439 458l-262 -538c-32 -67 -66 -96 -114 -96c-43 0 -67 20 -70 22l25 51s17 -12 37 -12c21 0 38 7 58 53l28 63l-99 457h73l73 -382l177 382h74zM371 640l-103 -126h-50l76 126h77z" />
    <glyph glyph-name="ydieresis" unicode="&#xff;" horiz-adv-x="420" 
d="M439 458l-262 -538c-32 -67 -66 -96 -114 -96c-43 0 -67 20 -70 22l25 51s17 -12 37 -12c21 0 38 7 58 53l28 63l-99 457h73l73 -382l177 382h74zM369 584c0 -31 -20 -53 -51 -53c-22 0 -39 18 -39 40c0 31 19 53 50 53c22 0 40 -18 40 -40zM232 584
c0 -31 -19 -53 -50 -53c-22 0 -40 18 -40 40c0 31 20 53 51 53c22 0 39 -18 39 -40z" />
    <glyph glyph-name="zcaron" unicode="&#x17e;" horiz-adv-x="387" 
d="M388 458l-7 -51l-291 -353h253l-7 -55h-337l8 50l292 355h-240l8 54h321zM359 640l-91 -126h-70l-57 126h50l47 -88l72 88h49z" />
    <glyph glyph-name="dollar.oldstyle" unicode="&#xf724;" horiz-adv-x="441" 
d="M398 403l-39 -39c-16 22 -44 48 -84 57l-19 -152l30 -17c48 -27 79 -66 79 -113c0 -48 -25 -83 -47 -102c-23 -20 -61 -35 -97 -36l-12 -92h-46l13 93c-54 5 -107 39 -130 79l40 40c14 -21 51 -57 98 -63l21 163l-34 18c-30 16 -75 48 -75 108c0 61 39 93 57 105
c17 11 48 25 85 25l11 84h46l-11 -86c42 -5 90 -35 114 -72zM231 423c-43 -2 -74 -26 -74 -68c0 -41 32 -55 44 -61l13 -8zM304 131c0 41 -33 60 -57 73l-19 -147c47 4 76 33 76 74z" />
    <glyph glyph-name="zero.oldstyle" unicode="&#xf730;" horiz-adv-x="478" 
d="M435 281c0 -135 -72 -291 -225 -291c-117 0 -166 89 -166 197c0 135 71 291 224 291c117 0 167 -89 167 -197zM365 277c0 71 -25 142 -103 142c-107 0 -148 -134 -148 -228c0 -70 25 -142 103 -142c106 0 148 134 148 228z" />
    <glyph glyph-name="one.oldstyle" unicode="&#xf731;" horiz-adv-x="320" 
d="M246 474l-61 -474h-71l47 370c-16 -15 -55 -33 -93 -39l-13 52c25 6 53 16 73 27c22 12 53 39 63 64h55z" />
    <glyph glyph-name="two.oldstyle" unicode="&#xf732;" horiz-adv-x="473" 
d="M411 350c0 -88 -74 -122 -143 -164c-69 -41 -123 -73 -154 -126h294l-7 -60h-384c31 127 137 186 192 221c38 24 65 39 84 52c21 16 50 38 50 73c0 48 -43 74 -95 74c-53 0 -97 -27 -130 -66l-38 41c35 42 95 83 174 83c77 0 157 -39 157 -128z" />
    <glyph glyph-name="three.oldstyle" unicode="&#xf733;" horiz-adv-x="472" 
d="M408 326c0 -95 -78 -145 -134 -151c38 -6 114 -41 114 -146c0 -61 -27 -112 -69 -145c-38 -30 -89 -47 -148 -47c-117 0 -168 95 -177 104l46 36c17 -29 62 -80 135 -80c72 0 143 44 143 133s-65 113 -127 113h-46l8 59h49c76 0 137 47 137 117c0 69 -49 101 -113 101
s-102 -42 -122 -65l-38 41c8 13 66 82 168 82s174 -55 174 -152z" />
    <glyph glyph-name="four.oldstyle" unicode="&#xf734;" horiz-adv-x="478" 
d="M441 58l-8 -57h-83l-23 -163h-71l23 163h-283l6 59l319 419h92l-56 -421h84zM334 413l-267 -355h219z" />
    <glyph glyph-name="five.oldstyle" unicode="&#xf735;" horiz-adv-x="478" 
d="M445 468l-8 -58h-233l-60 -193s29 24 98 24s172 -44 172 -182c0 -129 -91 -222 -217 -222c-127 0 -170 74 -188 104l46 36c22 -34 58 -79 140 -79s149 57 149 156c0 94 -63 131 -125 131c-61 0 -97 -28 -108 -39l-42 23l89 299h287z" />
    <glyph glyph-name="six.oldstyle" unicode="&#xf736;" horiz-adv-x="478" 
d="M461 576l-38 -45c-17 18 -51 43 -108 43c-52 0 -93 -26 -123 -62c-30 -37 -58 -92 -72 -190c15 20 72 75 156 75c83 0 160 -53 160 -176s-78 -231 -213 -231c-134 0 -179 121 -179 247c0 124 34 225 82 292c46 63 111 102 193 102c84 0 132 -43 142 -55zM366 219
c0 72 -39 123 -106 123c-66 0 -114 -46 -145 -85l-1 -5c-1 -11 -1 -22 -1 -32c0 -116 46 -172 116 -172c77 0 137 70 137 171z" />
    <glyph glyph-name="seven.oldstyle" unicode="&#xf737;" horiz-adv-x="473" 
d="M461 468l-10 -57l-331 -573h-76l335 571h-320l8 59h394z" />
    <glyph glyph-name="eight.oldstyle" unicode="&#xf738;" horiz-adv-x="479" 
d="M444 493c0 -80 -63 -135 -118 -153c6 -3 98 -47 98 -158c0 -118 -93 -192 -205 -192c-113 0 -184 59 -184 166c0 105 69 161 136 184c-11 6 -79 42 -79 136c0 99 81 168 189 168s163 -68 163 -151zM376 486c0 66 -36 103 -101 103c-66 0 -115 -46 -115 -111
c0 -66 45 -94 85 -106l26 -8l29 11c29 11 76 45 76 111zM354 177c0 75 -52 115 -94 128l-34 11l-21 -8c-52 -19 -101 -70 -101 -145c0 -74 48 -116 120 -116s130 55 130 130z" />
    <glyph glyph-name="nine.oldstyle" unicode="&#xf739;" horiz-adv-x="479" 
d="M434 232c0 -124 -29 -225 -77 -292c-46 -63 -112 -103 -194 -103c-79 0 -129 42 -146 60l38 45c19 -21 55 -47 112 -47c53 0 94 27 124 63c31 37 56 85 68 189c-15 -20 -73 -76 -157 -76s-159 55 -159 177c0 123 78 230 212 230s179 -120 179 -246zM365 215
c1 11 1 22 1 32c0 118 -47 174 -117 174c-76 0 -136 -70 -136 -171c0 -72 39 -122 105 -122c67 0 118 51 147 87z" />
    <glyph glyph-name="cent.oldstyle" unicode="&#xf7a2;" horiz-adv-x="441" 
d="M403 349l-45 -30s-16 54 -69 62l-38 -290c48 4 76 42 86 56l40 -38c-6 -9 -47 -68 -134 -78l-10 -80h-51l11 81c-74 10 -134 70 -134 172c0 133 80 227 187 235l11 79h51l-11 -80c81 -10 106 -89 106 -89zM239 382c-64 -9 -113 -81 -113 -173c0 -78 39 -110 75 -118z" />
    <glyph glyph-name="oneeighth" unicode="&#x215b;" horiz-adv-x="757" 
d="M204 651l-49 -389h-57l40 312c-13 -10 -42 -20 -68 -25l-10 42c36 6 85 31 98 60h46zM568 638l-440 -651l-37 25l440 651zM692 297c0 -51 -46 -81 -77 -91c15 -8 64 -31 64 -94c0 -74 -67 -118 -136 -118c-68 0 -121 36 -121 102c0 62 49 94 87 107c-11 6 -52 28 -52 83
c0 62 57 104 124 104s111 -38 111 -93zM640 292c0 33 -26 57 -61 57c-39 0 -69 -24 -69 -62c0 -32 20 -49 51 -60l14 -5l14 6c30 13 51 34 51 64zM625 107c0 37 -19 56 -55 71l-20 8l-15 -6c-38 -15 -60 -42 -60 -78c0 -39 28 -65 70 -65c44 0 80 27 80 70z" />
    <glyph glyph-name="threeeighths" unicode="&#x215c;" horiz-adv-x="861" 
d="M672 638l-440 -651l-37 25l440 651zM796 297c0 -51 -46 -81 -77 -91c15 -8 64 -31 64 -94c0 -74 -67 -118 -136 -118c-68 0 -121 36 -121 102c0 62 49 94 87 107c-11 6 -52 28 -52 83c0 62 57 104 124 104s111 -38 111 -93zM744 292c0 33 -26 57 -61 57
c-39 0 -69 -24 -69 -62c0 -32 20 -49 51 -60l14 -5l14 6c30 13 51 34 51 64zM729 107c0 37 -19 56 -55 71l-20 8l-15 -6c-38 -15 -60 -42 -60 -78c0 -39 28 -65 70 -65c44 0 80 27 80 70zM320 556c0 -59 -59 -89 -79 -91c21 -4 66 -24 66 -87c0 -68 -61 -124 -139 -124
s-114 58 -118 62l37 36c9 -16 39 -50 82 -50s81 29 81 76s-34 61 -67 61h-36l6 47h36c44 0 76 26 76 64c0 37 -27 57 -66 57s-64 -26 -77 -41l-28 37c11 11 47 51 112 51s114 -36 114 -98z" />
    <glyph glyph-name="fiveeighths" unicode="&#x215d;" horiz-adv-x="862" 
d="M673 638l-440 -651l-37 25l440 651zM797 297c0 -51 -46 -81 -77 -91c15 -8 64 -31 64 -94c0 -74 -67 -118 -136 -118c-68 0 -121 36 -121 102c0 62 49 94 87 107c-11 6 -52 28 -52 83c0 62 57 104 124 104s111 -38 111 -93zM745 292c0 33 -26 57 -61 57
c-39 0 -69 -24 -69 -62c0 -32 20 -49 51 -60l14 -5l14 6c30 13 51 34 51 64zM730 107c0 37 -19 56 -55 71l-20 8l-15 -6c-38 -15 -60 -42 -60 -78c0 -39 28 -65 70 -65c44 0 80 27 80 70zM330 644l-5 -48h-153l-28 -103s19 12 58 12c69 0 111 -48 111 -112
c0 -71 -47 -138 -142 -138c-77 0 -110 43 -121 61l31 35c12 -19 41 -48 87 -48c58 0 89 34 89 84c0 42 -22 74 -74 74c-38 0 -68 -20 -71 -23l-29 19l53 187h194z" />
    <glyph glyph-name="seveneighths" unicode="&#x215e;" horiz-adv-x="771" 
d="M582 638l-440 -651l-37 25l440 651zM706 297c0 -51 -46 -81 -77 -91c15 -8 64 -31 64 -94c0 -74 -67 -118 -136 -118c-68 0 -121 36 -121 102c0 62 49 94 87 107c-11 6 -52 28 -52 83c0 62 57 104 124 104s111 -38 111 -93zM654 292c0 33 -26 57 -61 57
c-39 0 -69 -24 -69 -62c0 -32 20 -49 51 -60l14 -5l14 6c30 13 51 34 51 64zM639 107c0 37 -19 56 -55 71l-20 8l-15 -6c-38 -15 -60 -42 -60 -78c0 -39 28 -65 70 -65c44 0 80 27 80 70zM330 644l-7 -42l-201 -340h-62l205 332h-191l6 50h250z" />
    <glyph glyph-name="onethird" unicode="&#x2153;" horiz-adv-x="750" 
d="M204 651l-49 -389h-57l40 312c-13 -10 -42 -20 -68 -25l-10 42c36 6 85 31 98 60h46zM561 638l-440 -651l-37 25l440 651zM685 294c0 -59 -59 -89 -79 -91c21 -4 66 -24 66 -87c0 -68 -61 -124 -139 -124s-114 58 -118 62l37 36c9 -16 39 -50 82 -50s81 29 81 76
s-34 61 -67 61h-36l6 47h36c44 0 76 26 76 64c0 37 -27 57 -66 57s-64 -26 -77 -41l-28 37c11 11 47 51 112 51s114 -36 114 -98z" />
    <glyph glyph-name="twothirds" unicode="&#x2154;" horiz-adv-x="876" 
d="M697 638l-440 -651l-37 25l440 651zM811 294c0 -59 -59 -89 -79 -91c21 -4 66 -24 66 -87c0 -68 -61 -124 -139 -124s-114 58 -118 62l37 36c9 -16 39 -50 82 -50s81 29 81 76s-34 61 -67 61h-36l6 47h36c44 0 76 26 76 64c0 37 -27 57 -66 57s-64 -26 -77 -41l-28 37
c11 11 47 51 112 51s114 -36 114 -98zM328 550c0 -65 -57 -103 -89 -127c-32 -25 -89 -67 -110 -109h183l-7 -52h-255c18 95 103 155 147 189c43 33 74 58 74 92c0 33 -20 61 -67 61s-76 -37 -84 -48l-30 33c13 19 52 64 119 64c68 0 119 -38 119 -103z" />
    <glyph glyph-name="zero.superior" unicode="&#x2070;" horiz-adv-x="370" 
d="M365 618c0 -116 -53 -243 -160 -243c-91 0 -119 74 -119 155c0 130 61 242 161 242c91 0 118 -77 118 -154zM313 621c0 70 -26 106 -70 106c-59 0 -104 -83 -104 -199c0 -60 16 -107 70 -107c66 0 104 102 104 200z" />
    <glyph glyph-name="four.superior" unicode="&#x2074;" horiz-adv-x="370" 
d="M364 517l-7 -48h-57l-11 -87h-56l12 87h-181l7 48l197 248h68l-31 -248h59zM277 716l-155 -199h129z" />
    <glyph glyph-name="five.superior" unicode="&#x2075;" horiz-adv-x="370" 
d="M358 764l-5 -48h-153l-28 -103s19 12 58 12c69 0 111 -48 111 -112c0 -71 -47 -138 -142 -138c-77 0 -110 43 -121 61l31 35c12 -19 41 -48 87 -48c58 0 89 34 89 84c0 42 -22 74 -74 74c-38 0 -68 -20 -71 -23l-29 19l53 187h194z" />
    <glyph glyph-name="six.superior" unicode="&#x2076;" horiz-adv-x="370" 
d="M363 739l-27 -40c-8 9 -30 28 -66 28c-30 0 -53 -12 -73 -34c-23 -25 -38 -60 -45 -108c12 12 48 39 100 39c69 0 104 -50 104 -107c0 -70 -50 -141 -141 -141c-76 0 -121 61 -121 155c0 76 22 140 54 180s69 61 125 61c50 0 79 -22 90 -33zM301 514c0 43 -28 67 -65 67
c-36 0 -74 -23 -87 -50c0 0 -1 -8 -1 -15c0 -57 29 -94 74 -94c49 0 79 41 79 92z" />
    <glyph glyph-name="seven.superior" unicode="&#x2077;" horiz-adv-x="370" 
d="M379 764l-7 -42l-201 -340h-62l205 332h-191l6 50h250z" />
    <glyph glyph-name="eight.superior" unicode="&#x2078;" horiz-adv-x="370" 
d="M361 679c0 -51 -46 -81 -77 -91c15 -8 64 -31 64 -94c0 -74 -67 -118 -136 -118c-68 0 -121 36 -121 102c0 62 49 94 87 107c-11 6 -52 28 -52 83c0 62 57 104 124 104s111 -38 111 -93zM309 674c0 33 -26 57 -61 57c-39 0 -69 -24 -69 -62c0 -32 20 -49 51 -60l14 -5
l14 6c30 13 51 34 51 64zM294 489c0 37 -19 56 -55 71l-20 8l-15 -6c-38 -15 -60 -42 -60 -78c0 -39 28 -65 70 -65c44 0 80 27 80 70z" />
    <glyph glyph-name="nine.superior" unicode="&#x2079;" horiz-adv-x="370" 
d="M87 413l27 40c8 -9 34 -31 73 -31c30 0 56 11 75 33c22 26 37 60 44 108c-12 -12 -46 -42 -98 -42c-66 0 -106 47 -106 113c0 67 50 138 141 138c76 0 121 -55 121 -155c0 -76 -21 -140 -53 -180s-71 -61 -127 -61c-55 0 -86 26 -97 37zM157 638c0 -47 28 -71 65 -71
c41 0 74 23 87 50c0 0 1 8 1 15c0 62 -29 94 -72 94c-39 0 -81 -31 -81 -88z" />
    <glyph glyph-name="zero.inferior" unicode="&#x2080;" horiz-adv-x="370" 
d="M302 116c0 -116 -53 -243 -160 -243c-91 0 -119 74 -119 155c0 130 61 242 161 242c91 0 118 -77 118 -154zM250 119c0 70 -26 106 -70 106c-59 0 -104 -83 -104 -199c0 -60 16 -107 70 -107c66 0 104 102 104 200z" />
    <glyph glyph-name="one.inferior" unicode="&#x2081;" horiz-adv-x="370" 
d="M231 269l-49 -389h-57l40 312c-13 -10 -42 -20 -68 -25l-10 42c36 6 85 31 98 60h46z" />
    <glyph glyph-name="two.inferior" unicode="&#x2082;" horiz-adv-x="370" 
d="M292 168c0 -65 -57 -103 -89 -127c-32 -25 -89 -67 -110 -109h183l-7 -52h-255c18 95 103 155 147 189c43 33 74 58 74 92c0 33 -20 61 -67 61s-76 -37 -84 -48l-30 33c13 19 52 64 119 64c68 0 119 -38 119 -103z" />
    <glyph glyph-name="three.inferior" unicode="&#x2083;" horiz-adv-x="370" 
d="M286 174c0 -59 -59 -89 -79 -91c21 -4 66 -24 66 -87c0 -68 -61 -124 -139 -124s-114 58 -118 62l37 36c9 -16 39 -50 82 -50s81 29 81 76s-34 61 -67 61h-36l6 47h36c44 0 76 26 76 64c0 37 -27 57 -66 57s-64 -26 -77 -41l-28 37c11 11 47 51 112 51s114 -36 114 -98z
" />
    <glyph glyph-name="four.inferior" unicode="&#x2084;" horiz-adv-x="370" 
d="M301 15l-7 -48h-57l-11 -87h-56l12 87h-181l7 48l197 248h68l-31 -248h59zM214 214l-155 -199h129z" />
    <glyph glyph-name="five.inferior" unicode="&#x2085;" horiz-adv-x="370" 
d="M295 262l-5 -48h-153l-28 -103s19 12 58 12c69 0 111 -48 111 -112c0 -71 -47 -138 -142 -138c-77 0 -110 43 -121 61l31 35c12 -19 41 -48 87 -48c58 0 89 34 89 84c0 42 -22 74 -74 74c-38 0 -68 -20 -71 -23l-29 19l53 187h194z" />
    <glyph glyph-name="six.inferior" unicode="&#x2086;" horiz-adv-x="370" 
d="M300 237l-27 -40c-8 9 -30 28 -66 28c-30 0 -53 -12 -73 -34c-23 -25 -38 -60 -45 -108c12 12 48 39 100 39c69 0 104 -50 104 -107c0 -70 -50 -141 -141 -141c-76 0 -121 61 -121 155c0 76 22 140 54 180s69 61 125 61c50 0 79 -22 90 -33zM238 12c0 43 -28 67 -65 67
c-36 0 -74 -23 -87 -50c0 0 -1 -8 -1 -15c0 -57 29 -94 74 -94c49 0 79 41 79 92z" />
    <glyph glyph-name="seven.inferior" unicode="&#x2087;" horiz-adv-x="370" 
d="M316 262l-7 -42l-201 -340h-62l205 332h-191l6 50h250z" />
    <glyph glyph-name="eight.inferior" unicode="&#x2088;" horiz-adv-x="370" 
d="M298 177c0 -51 -46 -81 -77 -91c15 -8 64 -31 64 -94c0 -74 -67 -118 -136 -118c-68 0 -121 36 -121 102c0 62 49 94 87 107c-11 6 -52 28 -52 83c0 62 57 104 124 104s111 -38 111 -93zM246 172c0 33 -26 57 -61 57c-39 0 -69 -24 -69 -62c0 -32 20 -49 51 -60l14 -5
l14 6c30 13 51 34 51 64zM231 -13c0 37 -19 56 -55 71l-20 8l-15 -6c-38 -15 -60 -42 -60 -78c0 -39 28 -65 70 -65c44 0 80 27 80 70z" />
    <glyph glyph-name="nine.inferior" unicode="&#x2089;" horiz-adv-x="370" 
d="M24 -89l27 40c8 -9 34 -31 73 -31c30 0 56 11 75 33c22 26 37 60 44 108c-12 -12 -46 -42 -98 -42c-66 0 -106 47 -106 113c0 67 50 138 141 138c76 0 121 -55 121 -155c0 -76 -21 -140 -53 -180s-71 -61 -127 -61c-55 0 -86 26 -97 37zM94 136c0 -47 28 -71 65 -71
c41 0 74 23 87 50c0 0 1 8 1 15c0 62 -29 94 -72 94c-39 0 -81 -31 -81 -88z" />
    <glyph glyph-name="commaaccent" unicode="&#xf6c3;" horiz-adv-x="375" 
d="M165 -47l70 -3c-14 -62 -52 -115 -114 -145l-39 26c47 32 75 71 83 122z" />
    <glyph glyph-name="Abreve" unicode="&#x102;" horiz-adv-x="522" 
d="M483 0h-78l-34 170h-259l-78 -170h-75l304 635h82zM360 228l-68 337l-154 -337h222zM411 817l36 -10c-20 -66 -67 -117 -140 -117s-103 50 -107 117l39 10c6 -43 27 -77 75 -77s82 37 97 77z" />
    <glyph glyph-name="Amacron" unicode="&#x100;" horiz-adv-x="522" 
d="M483 0h-78l-34 170h-259l-78 -170h-75l304 635h82zM360 228l-68 337l-154 -337h222zM438 778l-7 -50h-244l7 50h244z" />
    <glyph glyph-name="Aogonek" unicode="&#x104;" horiz-adv-x="522" 
d="M460 -117l16 -32c-10 -9 -44 -37 -92 -37c-56 0 -82 33 -82 79c0 48 31 93 99 127l-30 150h-259l-78 -170h-75l304 635h82l138 -635h-55c-40 -24 -68 -57 -68 -92c0 -30 17 -44 44 -44c26 0 48 14 56 19zM360 228l-68 337l-154 -337h222z" />
    <glyph glyph-name="AEacute" unicode="&#x1fc;" horiz-adv-x="777" 
d="M767 635l-8 -59h-258l-26 -208h239l-8 -60h-240l-32 -247h270l-8 -61h-343l25 193h-228l-133 -193h-83l448 635h385zM428 577h-14l-225 -325h197zM588 816l-103 -126h-50l76 126h77z" />
    <glyph glyph-name="Cacute" unicode="&#x106;" horiz-adv-x="580" 
d="M565 500l-60 -30s-27 111 -157 111c-131 0 -228 -145 -228 -312c0 -149 75 -213 170 -213s158 67 184 114l52 -42c-36 -55 -104 -138 -243 -138s-240 91 -240 270c0 219 134 385 310 385s212 -145 212 -145zM480 816l-103 -126h-50l76 126h77z" />
    <glyph glyph-name="Ccaron" unicode="&#x10c;" horiz-adv-x="580" 
d="M565 500l-60 -30s-27 111 -157 111c-131 0 -228 -145 -228 -312c0 -149 75 -213 170 -213s158 67 184 114l52 -42c-36 -55 -104 -138 -243 -138s-240 91 -240 270c0 219 134 385 310 385s212 -145 212 -145zM484 816l-91 -126h-70l-57 126h50l47 -88l72 88h49z" />
    <glyph glyph-name="Ccircumflex" unicode="&#x108;" horiz-adv-x="580" 
d="M565 500l-60 -30s-27 111 -157 111c-131 0 -228 -145 -228 -312c0 -149 75 -213 170 -213s158 67 184 114l52 -42c-36 -55 -104 -138 -243 -138s-240 91 -240 270c0 219 134 385 310 385s212 -145 212 -145zM465 690h-49l-47 86l-72 -86h-50l92 126h70z" />
    <glyph glyph-name="Cdotaccent" unicode="&#x10a;" horiz-adv-x="580" 
d="M565 500l-60 -30s-27 111 -157 111c-131 0 -228 -145 -228 -312c0 -149 75 -213 170 -213s158 67 184 114l52 -42c-36 -55 -104 -138 -243 -138s-240 91 -240 270c0 219 134 385 310 385s212 -145 212 -145zM414 760c0 -31 -19 -53 -50 -53c-22 0 -39 18 -39 40
c0 31 19 53 50 53c22 0 39 -18 39 -40z" />
    <glyph glyph-name="Dcaron" unicode="&#x10e;" horiz-adv-x="612" 
d="M569 372c0 -111 -37 -211 -96 -275c-57 -62 -133 -97 -234 -97h-195l83 635h197c79 0 136 -23 176 -63c39 -39 69 -99 69 -200zM492 372c0 73 -20 126 -51 157c-31 32 -76 47 -131 47h-117l-68 -515h117c68 0 135 31 179 82c44 52 71 138 71 229zM466 816l-91 -126h-70
l-57 126h50l47 -88l72 88h49z" />
    <glyph glyph-name="Dcroat" unicode="&#x110;" horiz-adv-x="612" 
d="M569 372c0 -111 -37 -211 -96 -275c-57 -62 -133 -97 -234 -97h-195l40 308h-57l7 54h57l36 273h197c79 0 136 -23 176 -63c39 -39 69 -99 69 -200zM492 372c0 73 -20 126 -51 157c-31 32 -76 47 -131 47h-117l-28 -214h109l-8 -54h-108l-33 -247h117c68 0 135 31 179 82
c44 52 71 138 71 229z" />
    <glyph glyph-name="Ebreve" unicode="&#x114;" horiz-adv-x="485" 
d="M475 635l-8 -59h-274l-27 -208h257l-9 -60h-256l-33 -247h287l-8 -61h-360l83 635h348zM417 817l36 -10c-20 -66 -67 -117 -140 -117s-103 50 -107 117l39 10c6 -43 27 -77 75 -77s82 37 97 77z" />
    <glyph glyph-name="Ecaron" unicode="&#x11a;" horiz-adv-x="485" 
d="M475 635l-8 -59h-274l-27 -208h257l-9 -60h-256l-33 -247h287l-8 -61h-360l83 635h348zM438 816l-91 -126h-70l-57 126h50l47 -88l72 88h49z" />
    <glyph glyph-name="Edotaccent" unicode="&#x116;" horiz-adv-x="485" 
d="M475 635l-8 -59h-274l-27 -208h257l-9 -60h-256l-33 -247h287l-8 -61h-360l83 635h348zM362 760c0 -31 -19 -53 -50 -53c-22 0 -39 18 -39 40c0 31 19 53 50 53c22 0 39 -18 39 -40z" />
    <glyph glyph-name="Emacron" unicode="&#x112;" horiz-adv-x="485" 
d="M475 635l-8 -59h-274l-27 -208h257l-9 -60h-256l-33 -247h287l-8 -61h-360l83 635h348zM444 778l-7 -50h-244l7 50h244z" />
    <glyph glyph-name="Eng" unicode="&#x14a;" horiz-adv-x="634" 
d="M590 635l-84 -645c-7 -52 -22 -98 -47 -124c-24 -26 -56 -41 -100 -41c-45 0 -71 21 -71 21l22 53s21 -13 50 -13c46 0 67 38 74 90l2 15l-252 548l-70 -539h-70l83 635h86l239 -522l68 522h70z" />
    <glyph glyph-name="Eogonek" unicode="&#x118;" horiz-adv-x="485" 
d="M379 -117l16 -32c-10 -9 -51 -37 -102 -37c-52 0 -81 31 -81 77c0 44 30 85 63 109h-231l83 635h348l-8 -59h-274l-27 -208h257l-9 -60h-256l-33 -247h287l-8 -61h-76c-25 -16 -58 -54 -58 -92c0 -30 20 -44 50 -44c31 0 51 14 59 19z" />
    <glyph glyph-name="Gbreve" unicode="&#x11e;" horiz-adv-x="618" 
d="M563 508l-58 -32c-26 73 -89 105 -158 105s-130 -42 -170 -105s-57 -135 -57 -212c0 -76 21 -124 45 -153s62 -56 129 -56c66 0 132 39 168 96l15 111h-152l8 60h223l-42 -322h-51l-2 71c-35 -40 -87 -81 -183 -81c-97 0 -150 49 -172 75c-23 26 -63 88 -63 194
s35 209 90 276s130 110 221 110s178 -45 209 -137zM471 817l36 -10c-20 -66 -67 -117 -140 -117s-103 50 -107 117l39 10c6 -43 27 -77 75 -77s82 37 97 77z" />
    <glyph glyph-name="Gcircumflex" unicode="&#x11c;" horiz-adv-x="618" 
d="M563 508l-58 -32c-26 73 -89 105 -158 105s-130 -42 -170 -105s-57 -135 -57 -212c0 -76 21 -124 45 -153s62 -56 129 -56c66 0 132 39 168 96l15 111h-152l8 60h223l-42 -322h-51l-2 71c-35 -40 -87 -81 -183 -81c-97 0 -150 49 -172 75c-23 26 -63 88 -63 194
s35 209 90 276s130 110 221 110s178 -45 209 -137zM473 690h-49l-47 86l-72 -86h-50l92 126h70z" />
    <glyph glyph-name="Gcommaaccent" unicode="&#x122;" horiz-adv-x="618" 
d="M563 508l-58 -32c-26 73 -89 105 -158 105s-130 -42 -170 -105s-57 -135 -57 -212c0 -76 21 -124 45 -153s62 -56 129 -56c66 0 132 39 168 96l15 111h-152l8 60h223l-42 -322h-51l-2 71c-35 -40 -87 -81 -183 -81c-97 0 -150 49 -172 75c-23 26 -63 88 -63 194
s35 209 90 276s130 110 221 110s178 -45 209 -137zM254 -47l70 -3c-14 -62 -52 -115 -114 -145l-39 26c47 32 75 71 83 122z" />
    <glyph glyph-name="Gdotaccent" unicode="&#x120;" horiz-adv-x="618" 
d="M563 508l-58 -32c-26 73 -89 105 -158 105s-130 -42 -170 -105s-57 -135 -57 -212c0 -76 21 -124 45 -153s62 -56 129 -56c66 0 132 39 168 96l15 111h-152l8 60h223l-42 -322h-51l-2 71c-35 -40 -87 -81 -183 -81c-97 0 -150 49 -172 75c-23 26 -63 88 -63 194
s35 209 90 276s130 110 221 110s178 -45 209 -137zM416 760c0 -31 -19 -53 -50 -53c-22 0 -39 18 -39 40c0 31 19 53 50 53c22 0 39 -18 39 -40z" />
    <glyph glyph-name="Hbar" unicode="&#x126;" horiz-adv-x="635" 
d="M668 525l-9 -50h-89l-62 -475h-74l40 303h-317l-40 -303h-73l62 475h-87l9 50h84l15 110h74l-15 -110h316l15 110h74l-15 -110h92zM165 364h316l15 111h-316z" />
    <glyph glyph-name="Hcircumflex" unicode="&#x124;" horiz-adv-x="635" 
d="M591 635l-83 -635h-74l41 308h-317l-41 -308h-73l83 635h74l-35 -266h316l35 266h74zM471 690h-49l-47 86l-72 -86h-50l92 126h70z" />
    <glyph glyph-name="Ibreve" unicode="&#x12c;" horiz-adv-x="244" 
d="M201 635l-84 -635h-73l83 635h74zM274 817l36 -10c-20 -66 -67 -117 -140 -117s-103 50 -107 117l39 10c6 -43 27 -77 75 -77s82 37 97 77z" />
    <glyph glyph-name="Imacron" unicode="&#x12a;" horiz-adv-x="244" 
d="M201 635l-84 -635h-73l83 635h74zM301 778l-7 -50h-244l7 50h244z" />
    <glyph glyph-name="Iogonek" unicode="&#x12e;" horiz-adv-x="244" 
d="M141 -117l16 -32c-10 -9 -51 -37 -102 -37c-52 0 -81 31 -81 77c0 47 34 90 70 114l83 630h74l-84 -635h-27c-25 -16 -58 -54 -58 -92c0 -30 20 -44 50 -44c31 0 51 14 59 19z" />
    <glyph glyph-name="Itilde" unicode="&#x128;" horiz-adv-x="244" 
d="M201 635l-84 -635h-73l83 635h74zM276 803l40 -10c-10 -52 -47 -91 -91 -91c-39 0 -55 21 -65 30c-9 10 -21 25 -40 25c-22 0 -40 -28 -45 -54l-40 10c10 52 47 91 91 91c39 0 55 -20 65 -30c9 -9 21 -24 40 -24c22 0 40 28 45 53z" />
    <glyph glyph-name="Jcircumflex" unicode="&#x134;" horiz-adv-x="255" 
d="M211 635l-84 -645c-7 -52 -22 -98 -47 -124c-24 -26 -56 -41 -100 -41c-45 0 -71 21 -71 21l22 53s21 -13 50 -13c46 0 62 38 69 90l87 659h74zM288 690h-49l-47 86l-72 -86h-50l92 126h70z" />
    <glyph glyph-name="Kcommaaccent" unicode="&#x136;" horiz-adv-x="517" 
d="M546 635l-262 -262l188 -373h-85l-157 319l-82 -81l-31 -238h-73l83 635h74l-40 -305l294 305h91zM217 -47l70 -3c-14 -62 -52 -115 -114 -145l-39 26c47 32 75 71 83 122z" />
    <glyph glyph-name="Lacute" unicode="&#x139;" horiz-adv-x="403" 
d="M367 61l-8 -61h-315l83 635h74l-76 -574h242zM288 816l-103 -126h-50l76 126h77z" />
    <glyph glyph-name="Lcaron" unicode="&#x13d;" horiz-adv-x="403" 
d="M367 61l-8 -61h-315l83 635h74l-76 -574h242zM324 656l69 -1c-11 -81 -41 -136 -70 -170l-49 5c28 45 45 100 50 166z" />
    <glyph glyph-name="Lcommaaccent" unicode="&#x13b;" horiz-adv-x="403" 
d="M367 61l-8 -61h-315l83 635h74l-76 -574h242zM177 -47l70 -3c-14 -62 -52 -115 -114 -145l-39 26c47 32 75 71 83 122z" />
    <glyph glyph-name="Ldot" unicode="&#x13f;" horiz-adv-x="403" 
d="M367 61l-8 -61h-315l83 635h74l-76 -574h242zM367 342c0 -31 -19 -53 -50 -53c-22 0 -39 18 -39 40c0 31 19 53 50 53c22 0 39 -18 39 -40z" />
    <glyph glyph-name="Nacute" unicode="&#x143;" horiz-adv-x="634" 
d="M590 635l-83 -635h-76l-247 539l-70 -539h-70l83 635h86l239 -522l68 522h70zM487 816l-103 -126h-50l76 126h77z" />
    <glyph glyph-name="Ncaron" unicode="&#x147;" horiz-adv-x="634" 
d="M590 635l-83 -635h-76l-247 539l-70 -539h-70l83 635h86l239 -522l68 522h70zM497 816l-91 -126h-70l-57 126h50l47 -88l72 88h49z" />
    <glyph glyph-name="Ncommaaccent" unicode="&#x145;" horiz-adv-x="634" 
d="M590 635l-83 -635h-76l-247 539l-70 -539h-70l83 635h86l239 -522l68 522h70zM245 -47l70 -3c-14 -62 -52 -115 -114 -145l-39 26c47 32 75 71 83 122z" />
    <glyph glyph-name="Obreve" unicode="&#x14e;" horiz-adv-x="655" 
d="M612 381c0 -206 -120 -391 -322 -391c-152 0 -247 105 -247 264c0 206 120 391 322 391c152 0 247 -105 247 -264zM535 378c0 119 -59 205 -177 205c-132 0 -238 -133 -238 -324c0 -118 59 -204 177 -204c132 0 238 133 238 323zM480 817l36 -10
c-20 -66 -67 -117 -140 -117s-103 50 -107 117l39 10c6 -43 27 -77 75 -77s82 37 97 77z" />
    <glyph glyph-name="Ohungarumlaut" unicode="&#x150;" horiz-adv-x="655" 
d="M612 381c0 -206 -120 -391 -322 -391c-152 0 -247 105 -247 264c0 206 120 391 322 391c152 0 247 -105 247 -264zM535 378c0 119 -59 205 -177 205c-132 0 -238 -133 -238 -324c0 -118 59 -204 177 -204c132 0 238 133 238 323zM561 816l-103 -126h-51l77 126h77z
M436 816l-103 -126h-51l77 126h77z" />
    <glyph glyph-name="Omacron" unicode="&#x14c;" horiz-adv-x="655" 
d="M612 381c0 -206 -120 -391 -322 -391c-152 0 -247 105 -247 264c0 206 120 391 322 391c152 0 247 -105 247 -264zM535 378c0 119 -59 205 -177 205c-132 0 -238 -133 -238 -324c0 -118 59 -204 177 -204c132 0 238 133 238 323zM507 778l-7 -50h-244l7 50h244z" />
    <glyph glyph-name="Oslashacute" unicode="&#x1fe;" horiz-adv-x="655" 
d="M644 635l-78 -88c30 -44 46 -100 46 -166c0 -206 -120 -391 -322 -391c-68 0 -124 21 -166 58l-74 -83l-39 35l78 88c-30 44 -46 100 -46 166c0 206 120 391 322 391c68 0 124 -21 166 -58l74 83zM484 533c-30 32 -72 50 -126 50c-132 0 -238 -133 -238 -324
c0 -42 7 -80 22 -111zM535 378c0 41 -7 79 -21 110l-342 -385c30 -31 71 -48 125 -48c132 0 238 133 238 323zM502 816l-103 -126h-50l76 126h77z" />
    <glyph glyph-name="Racute" unicode="&#x154;" horiz-adv-x="520" 
d="M480 471c0 -99 -70 -173 -161 -188l139 -283h-85l-130 275h-90l-36 -275h-73l83 635h178c105 0 175 -60 175 -164zM406 465c0 43 -14 69 -34 87c-19 18 -48 25 -86 25h-94l-32 -245h98c42 0 76 10 103 32c28 23 45 59 45 101zM410 816l-103 -126h-50l76 126h77z" />
    <glyph glyph-name="Rcaron" unicode="&#x158;" horiz-adv-x="520" 
d="M480 471c0 -99 -70 -173 -161 -188l139 -283h-85l-130 275h-90l-36 -275h-73l83 635h178c105 0 175 -60 175 -164zM406 465c0 43 -14 69 -34 87c-19 18 -48 25 -86 25h-94l-32 -245h98c42 0 76 10 103 32c28 23 45 59 45 101zM431 816l-91 -126h-70l-57 126h50l47 -88
l72 88h49z" />
    <glyph glyph-name="Rcommaaccent" unicode="&#x156;" horiz-adv-x="520" 
d="M480 471c0 -99 -70 -173 -161 -188l139 -283h-85l-130 275h-90l-36 -275h-73l83 635h178c105 0 175 -60 175 -164zM406 465c0 43 -14 69 -34 87c-19 18 -48 25 -86 25h-94l-32 -245h98c42 0 76 10 103 32c28 23 45 59 45 101zM212 -47l70 -3c-14 -62 -52 -115 -114 -145
l-39 26c47 32 75 71 83 122z" />
    <glyph glyph-name="Sacute" unicode="&#x15a;" horiz-adv-x="465" 
d="M452 553l-45 -47c-25 32 -71 76 -143 76s-118 -42 -118 -97c0 -50 34 -75 60 -94s69 -42 93 -58s52 -37 71 -58s39 -50 39 -102c0 -53 -25 -102 -59 -133s-85 -50 -145 -50c-40 0 -85 9 -126 35c-33 21 -57 48 -75 77l50 40c26 -44 86 -88 156 -88c50 0 80 18 95 33
s31 38 31 78c0 58 -50 86 -71 100s-41 27 -64 40c-25 15 -50 31 -66 45s-62 52 -62 119s32 108 64 133c33 25 73 42 133 42c45 0 78 -11 104 -25s52 -33 78 -66zM394 816l-103 -126h-50l76 126h77z" />
    <glyph glyph-name="Scedilla" unicode="&#x15e;" horiz-adv-x="465" 
d="M452 553l-45 -47c-25 32 -71 76 -143 76s-118 -42 -118 -97c0 -50 34 -75 60 -94s69 -42 93 -58s52 -37 71 -58s39 -50 39 -102c0 -53 -25 -102 -59 -133c-29 -26 -70 -44 -118 -49l-56 -117h-79l81 118c-33 3 -67 12 -99 33c-33 21 -57 48 -75 77l50 40
c26 -44 86 -88 156 -88c50 0 80 18 95 33s31 38 31 78c0 58 -50 86 -71 100s-41 27 -64 40c-25 15 -50 31 -66 45s-62 52 -62 119s32 108 64 133c33 25 73 42 133 42c45 0 78 -11 104 -25s52 -33 78 -66z" />
    <glyph glyph-name="Scircumflex" unicode="&#x15c;" horiz-adv-x="465" 
d="M452 553l-45 -47c-25 32 -71 76 -143 76s-118 -42 -118 -97c0 -50 34 -75 60 -94s69 -42 93 -58s52 -37 71 -58s39 -50 39 -102c0 -53 -25 -102 -59 -133s-85 -50 -145 -50c-40 0 -85 9 -126 35c-33 21 -57 48 -75 77l50 40c26 -44 86 -88 156 -88c50 0 80 18 95 33
s31 38 31 78c0 58 -50 86 -71 100s-41 27 -64 40c-25 15 -50 31 -66 45s-62 52 -62 119s32 108 64 133c33 25 73 42 133 42c45 0 78 -11 104 -25s52 -33 78 -66zM389 690h-49l-47 86l-72 -86h-50l92 126h70z" />
    <glyph glyph-name="Scommaaccent" unicode="&#x218;" horiz-adv-x="465" 
d="M452 553l-45 -47c-25 32 -71 76 -143 76s-118 -42 -118 -97c0 -50 34 -75 60 -94s69 -42 93 -58s52 -37 71 -58s39 -50 39 -102c0 -53 -25 -102 -59 -133s-85 -50 -145 -50c-40 0 -85 9 -126 35c-33 21 -57 48 -75 77l50 40c26 -44 86 -88 156 -88c50 0 80 18 95 33
s31 38 31 78c0 58 -50 86 -71 100s-41 27 -64 40c-25 15 -50 31 -66 45s-62 52 -62 119s32 108 64 133c33 25 73 42 133 42c45 0 78 -11 104 -25s52 -33 78 -66zM169 -47l70 -3c-14 -62 -52 -115 -114 -145l-39 26c47 32 75 71 83 122z" />
    <glyph glyph-name="Tbar" unicode="&#x166;" horiz-adv-x="443" 
d="M408 313l-9 -52h-150l-34 -261h-74l34 261h-152l9 52h150l35 263h-181l8 59h436l-9 -59h-180l-35 -263h152z" />
    <glyph glyph-name="Tcaron" unicode="&#x164;" horiz-adv-x="443" 
d="M479 635l-9 -59h-180l-76 -576h-74l76 576h-181l8 59h436zM395 816l-91 -126h-70l-57 126h50l47 -88l72 88h49z" />
    <glyph glyph-name="Tcedilla" unicode="&#x162;" horiz-adv-x="443" 
d="M479 635l-9 -59h-180l-76 -576h-74l76 576h-181l8 59h436zM145 -47l70 -3c-14 -62 -52 -115 -114 -145l-39 26c47 32 75 71 83 122z" />
    <glyph glyph-name="Tcommaaccent" unicode="&#x21a;" horiz-adv-x="443" 
d="M479 635l-9 -59h-180l-76 -576h-74l76 576h-181l8 59h436zM145 -47l70 -3c-14 -62 -52 -115 -114 -145l-39 26c47 32 75 71 83 122z" />
    <glyph glyph-name="Ubreve" unicode="&#x16c;" horiz-adv-x="599" 
d="M559 635l-51 -385c-10 -77 -28 -139 -65 -184c-38 -47 -92 -76 -186 -76c-91 0 -138 33 -166 78c-19 31 -27 68 -27 112c0 21 2 43 5 67l50 388h74l-51 -390c-3 -23 -5 -43 -5 -61c0 -26 4 -47 13 -67c17 -36 51 -61 116 -61c64 0 102 24 127 59c24 34 34 76 41 130
l52 390h73zM447 817l36 -10c-20 -66 -67 -117 -140 -117s-103 50 -107 117l39 10c6 -43 27 -77 75 -77s82 37 97 77z" />
    <glyph glyph-name="Uhungarumlaut" unicode="&#x170;" horiz-adv-x="599" 
d="M559 635l-51 -385c-10 -77 -28 -139 -65 -184c-38 -47 -92 -76 -186 -76c-91 0 -138 33 -166 78c-19 31 -27 68 -27 112c0 21 2 43 5 67l50 388h74l-51 -390c-3 -23 -5 -43 -5 -61c0 -26 4 -47 13 -67c17 -36 51 -61 116 -61c64 0 102 24 127 59c24 34 34 76 41 130
l52 390h73zM528 816l-103 -126h-51l77 126h77zM403 816l-103 -126h-51l77 126h77z" />
    <glyph glyph-name="Umacron" unicode="&#x16a;" horiz-adv-x="599" 
d="M559 635l-51 -385c-10 -77 -28 -139 -65 -184c-38 -47 -92 -76 -186 -76c-91 0 -138 33 -166 78c-19 31 -27 68 -27 112c0 21 2 43 5 67l50 388h74l-51 -390c-3 -23 -5 -43 -5 -61c0 -26 4 -47 13 -67c17 -36 51 -61 116 -61c64 0 102 24 127 59c24 34 34 76 41 130
l52 390h73zM479 778l-7 -50h-244l7 50h244z" />
    <glyph glyph-name="Uogonek" unicode="&#x172;" horiz-adv-x="599" 
d="M412 -117l16 -32c-10 -9 -51 -37 -102 -37c-52 0 -81 31 -81 77c0 40 25 76 54 101c-13 -1 -27 -2 -42 -2c-91 0 -138 33 -166 78c-19 31 -27 68 -27 112c0 21 2 43 5 67l50 388h74l-51 -390c-3 -23 -5 -43 -5 -61c0 -26 4 -47 13 -67c17 -36 51 -61 116 -61
c64 0 102 24 127 59c24 34 34 76 41 130l52 390h73l-51 -385c-10 -77 -28 -139 -65 -184c-18 -22 -39 -40 -66 -53c-50 -35 -74 -70 -74 -105c0 -30 20 -44 50 -44c31 0 51 14 59 19z" />
    <glyph glyph-name="Uring" unicode="&#x16e;" horiz-adv-x="599" 
d="M559 635l-51 -385c-10 -77 -28 -139 -65 -184c-38 -47 -92 -76 -186 -76c-91 0 -138 33 -166 78c-19 31 -27 68 -27 112c0 21 2 43 5 67l50 388h74l-51 -390c-3 -23 -5 -43 -5 -61c0 -26 4 -47 13 -67c17 -36 51 -61 116 -61c64 0 102 24 127 59c24 34 34 76 41 130
l52 390h73zM435 767c0 -53 -36 -91 -89 -91c-41 0 -72 31 -72 70c0 53 36 91 89 91c41 0 72 -31 72 -70zM398 762c0 21 -16 40 -38 40c-29 0 -49 -21 -49 -51c0 -21 16 -40 38 -40c29 0 49 21 49 51z" />
    <glyph glyph-name="Utilde" unicode="&#x168;" horiz-adv-x="599" 
d="M559 635l-51 -385c-10 -77 -28 -139 -65 -184c-38 -47 -92 -76 -186 -76c-91 0 -138 33 -166 78c-19 31 -27 68 -27 112c0 21 2 43 5 67l50 388h74l-51 -390c-3 -23 -5 -43 -5 -61c0 -26 4 -47 13 -67c17 -36 51 -61 116 -61c64 0 102 24 127 59c24 34 34 76 41 130
l52 390h73zM454 803l40 -10c-10 -52 -47 -91 -91 -91c-39 0 -55 21 -65 30c-9 10 -21 25 -40 25c-22 0 -40 -28 -45 -54l-40 10c10 52 47 91 91 91c39 0 55 -20 65 -30c9 -9 21 -24 40 -24c22 0 40 28 45 53z" />
    <glyph glyph-name="Wacute" unicode="&#x1e82;" horiz-adv-x="796" 
d="M811 635l-238 -635h-83l-63 544l-211 -544h-82l-66 635h77l48 -539l206 539h81l66 -539l189 539h76zM555 816l-103 -126h-50l76 126h77z" />
    <glyph glyph-name="Wcircumflex" unicode="&#x174;" horiz-adv-x="796" 
d="M811 635l-238 -635h-83l-63 544l-211 -544h-82l-66 635h77l48 -539l206 539h81l66 -539l189 539h76zM550 690h-49l-47 86l-72 -86h-50l92 126h70z" />
    <glyph glyph-name="Wdieresis" unicode="&#x1e84;" horiz-adv-x="796" 
d="M811 635l-238 -635h-83l-63 544l-211 -544h-82l-66 635h77l48 -539l206 539h81l66 -539l189 539h76zM561 760c0 -31 -20 -53 -51 -53c-22 0 -39 18 -39 40c0 31 19 53 50 53c22 0 40 -18 40 -40zM424 760c0 -31 -19 -53 -50 -53c-22 0 -40 18 -40 40c0 31 20 53 51 53
c22 0 39 -18 39 -40z" />
    <glyph glyph-name="Wgrave" unicode="&#x1e80;" horiz-adv-x="796" 
d="M811 635l-238 -635h-83l-63 544l-211 -544h-82l-66 635h77l48 -539l206 539h81l66 -539l189 539h76zM489 690h-50l-73 126h77z" />
    <glyph glyph-name="Ycircumflex" unicode="&#x176;" horiz-adv-x="490" 
d="M522 635l-248 -372l-35 -263h-73l34 263l-150 372h79l116 -310l197 310h80zM394 690h-49l-47 86l-72 -86h-50l92 126h70z" />
    <glyph glyph-name="Ygrave" unicode="&#x1ef2;" horiz-adv-x="490" 
d="M522 635l-248 -372l-35 -263h-73l34 263l-150 372h79l116 -310l197 310h80zM333 690h-50l-73 126h77z" />
    <glyph glyph-name="Zacute" unicode="&#x179;" horiz-adv-x="504" 
d="M504 635l-6 -54l-404 -520h346l-8 -61h-432l7 56l405 520h-328l7 59h413zM413 816l-103 -126h-50l76 126h77z" />
    <glyph glyph-name="Zdotaccent" unicode="&#x17b;" horiz-adv-x="504" 
d="M504 635l-6 -54l-404 -520h346l-8 -61h-432l7 56l405 520h-328l7 59h413zM351 760c0 -31 -19 -53 -50 -53c-22 0 -39 18 -39 40c0 31 19 53 50 53c22 0 39 -18 39 -40z" />
    <glyph glyph-name="Idotaccent" unicode="&#x130;" horiz-adv-x="244" 
d="M201 635l-84 -635h-73l83 635h74zM219 760c0 -31 -19 -53 -50 -53c-22 0 -39 18 -39 40c0 31 19 53 50 53c22 0 39 -18 39 -40z" />
    <glyph glyph-name="abreve" unicode="&#x103;" horiz-adv-x="496" 
d="M460 459l-61 -459h-60v73s-45 -83 -142 -83c-98 0 -160 74 -160 193c0 150 85 286 223 286c93 0 117 -74 121 -85l18 75h61zM362 270c0 93 -44 140 -100 140c-96 0 -151 -110 -151 -220c0 -93 44 -140 100 -140c96 0 151 109 151 220zM385 641l36 -10
c-20 -66 -67 -117 -140 -117s-103 50 -107 117l39 10c6 -43 27 -77 75 -77s82 37 97 77z" />
    <glyph glyph-name="amacron" unicode="&#x101;" horiz-adv-x="496" 
d="M460 459l-61 -459h-60v73s-45 -83 -142 -83c-98 0 -160 74 -160 193c0 150 85 286 223 286c93 0 117 -74 121 -85l18 75h61zM362 270c0 93 -44 140 -100 140c-96 0 -151 -110 -151 -220c0 -93 44 -140 100 -140c96 0 151 109 151 220zM412 602l-7 -50h-244l7 50h244z" />
    <glyph glyph-name="aogonek" unicode="&#x105;" horiz-adv-x="496" 
d="M460 459l-61 -459h-29c-40 -26 -70 -58 -70 -94c0 -28 17 -42 41 -42c26 0 46 14 54 19l16 -32c-10 -9 -41 -37 -89 -37c-53 0 -80 31 -80 77c0 48 30 87 97 127v55s-45 -83 -142 -83c-98 0 -160 74 -160 193c0 150 85 286 223 286c93 0 117 -74 121 -85l18 75h61z
M362 270c0 93 -44 140 -100 140c-96 0 -151 -110 -151 -220c0 -93 44 -140 100 -140c96 0 151 109 151 220z" />
    <glyph glyph-name="aeacute" unicode="&#x1fd;" horiz-adv-x="707" 
d="M683 354c0 -57 -38 -105 -112 -129c-38 -13 -95 -18 -159 -18c-13 0 -28 1 -32 1c-1 -8 -1 -18 -1 -27c0 -106 64 -132 107 -132c73 0 124 50 134 60l34 -43c-44 -45 -102 -76 -181 -76s-121 46 -140 83c-45 -58 -95 -83 -167 -83c-71 0 -133 31 -133 123
c0 91 87 125 135 138s119 17 151 17c4 25 9 45 9 65c0 58 -45 78 -95 78c-58 0 -105 -24 -127 -42l-28 49c33 25 99 51 163 51c111 0 136 -64 140 -89c21 36 78 89 164 89s138 -50 138 -115zM616 350c0 35 -22 65 -77 65c-70 0 -132 -67 -151 -155c0 0 16 -1 49 -1
c31 0 74 3 105 13c48 15 74 42 74 78zM314 130c-2 11 -5 31 -5 59c0 9 0 18 1 27c-47 0 -98 -8 -128 -17c-30 -10 -79 -33 -79 -84s39 -71 89 -71c48 0 107 41 122 86zM516 640l-103 -126h-50l76 126h77z" />
    <glyph glyph-name="cacute" unicode="&#x107;" horiz-adv-x="429" 
d="M421 362l-53 -31c-1 2 -20 77 -108 77c-90 0 -152 -97 -152 -211c0 -96 45 -144 115 -144c75 0 119 60 126 73l45 -40c-18 -28 -74 -96 -178 -96c-105 0 -179 72 -179 200c0 161 97 279 226 279c128 0 155 -103 158 -107zM379 640l-103 -126h-50l76 126h77z" />
    <glyph glyph-name="ccaron" unicode="&#x10d;" horiz-adv-x="429" 
d="M421 362l-53 -31c-1 2 -20 77 -108 77c-90 0 -152 -97 -152 -211c0 -96 45 -144 115 -144c75 0 119 60 126 73l45 -40c-18 -28 -74 -96 -178 -96c-105 0 -179 72 -179 200c0 161 97 279 226 279c128 0 155 -103 158 -107zM393 640l-91 -126h-70l-57 126h50l47 -88l72 88
h49z" />
    <glyph glyph-name="ccircumflex" unicode="&#x109;" horiz-adv-x="429" 
d="M421 362l-53 -31c-1 2 -20 77 -108 77c-90 0 -152 -97 -152 -211c0 -96 45 -144 115 -144c75 0 119 60 126 73l45 -40c-18 -28 -74 -96 -178 -96c-105 0 -179 72 -179 200c0 161 97 279 226 279c128 0 155 -103 158 -107zM374 514h-49l-47 86l-72 -86h-50l92 126h70z" />
    <glyph glyph-name="cdotaccent" unicode="&#x10b;" horiz-adv-x="429" 
d="M421 362l-53 -31c-1 2 -20 77 -108 77c-90 0 -152 -97 -152 -211c0 -96 45 -144 115 -144c75 0 119 60 126 73l45 -40c-18 -28 -74 -96 -178 -96c-105 0 -179 72 -179 200c0 161 97 279 226 279c128 0 155 -103 158 -107zM324 584c0 -31 -19 -53 -50 -53
c-22 0 -39 18 -39 40c0 31 19 53 50 53c22 0 39 -18 39 -40z" />
    <glyph glyph-name="dcaron" unicode="&#x10f;" horiz-adv-x="501" 
d="M489 655l-86 -655h-60v73c-4 -8 -48 -83 -143 -83c-100 0 -163 73 -163 193c0 150 85 286 225 286c95 0 121 -79 121 -79l35 265h71zM367 270c0 93 -45 140 -103 140c-98 0 -153 -110 -153 -220c0 -93 44 -140 102 -140c98 0 154 109 154 220zM560 660l69 -1
c-11 -81 -41 -136 -70 -170l-49 5c28 45 45 100 50 166z" />
    <glyph glyph-name="dcroat" unicode="&#x111;" horiz-adv-x="501" 
d="M565 589l-9 -52h-83l-70 -537h-60v73c-4 -8 -48 -83 -143 -83c-100 0 -163 73 -163 193c0 150 85 286 225 286c90 0 118 -72 121 -79l19 147h-183l10 52h180l9 66h71l-9 -66h85zM367 270c0 93 -45 140 -103 140c-98 0 -153 -110 -153 -220c0 -93 44 -140 102 -140
c98 0 154 109 154 220z" />
    <glyph glyph-name="ebreve" unicode="&#x115;" horiz-adv-x="435" 
d="M411 349c0 -65 -47 -105 -108 -131c-62 -26 -149 -35 -195 -39v-14c0 -55 34 -116 106 -116c73 0 125 50 135 60l33 -43c-44 -45 -102 -76 -181 -76c-78 0 -164 50 -164 199c0 148 102 280 233 280c94 0 141 -54 141 -120zM344 349c0 33 -21 66 -76 66
c-72 0 -141 -70 -157 -182c60 4 123 15 160 30c36 14 73 38 73 86zM376 641l36 -10c-20 -66 -67 -117 -140 -117s-103 50 -107 117l39 10c6 -43 27 -77 75 -77s82 37 97 77z" />
    <glyph glyph-name="ecaron" unicode="&#x11b;" horiz-adv-x="435" 
d="M411 349c0 -65 -47 -105 -108 -131c-62 -26 -149 -35 -195 -39v-14c0 -55 34 -116 106 -116c73 0 125 50 135 60l33 -43c-44 -45 -102 -76 -181 -76c-78 0 -164 50 -164 199c0 148 102 280 233 280c94 0 141 -54 141 -120zM344 349c0 33 -21 66 -76 66
c-72 0 -141 -70 -157 -182c60 4 123 15 160 30c36 14 73 38 73 86zM397 640l-91 -126h-70l-57 126h50l47 -88l72 88h49z" />
    <glyph glyph-name="edotaccent" unicode="&#x117;" horiz-adv-x="435" 
d="M411 349c0 -65 -47 -105 -108 -131c-62 -26 -149 -35 -195 -39v-14c0 -55 34 -116 106 -116c73 0 125 50 135 60l33 -43c-44 -45 -102 -76 -181 -76c-78 0 -164 50 -164 199c0 148 102 280 233 280c94 0 141 -54 141 -120zM344 349c0 33 -21 66 -76 66
c-72 0 -141 -70 -157 -182c60 4 123 15 160 30c36 14 73 38 73 86zM328 584c0 -31 -19 -53 -50 -53c-22 0 -39 18 -39 40c0 31 19 53 50 53c22 0 39 -18 39 -40z" />
    <glyph glyph-name="emacron" unicode="&#x113;" horiz-adv-x="435" 
d="M411 349c0 -65 -47 -105 -108 -131c-62 -26 -149 -35 -195 -39v-14c0 -55 34 -116 106 -116c73 0 125 50 135 60l33 -43c-44 -45 -102 -76 -181 -76c-78 0 -164 50 -164 199c0 148 102 280 233 280c94 0 141 -54 141 -120zM344 349c0 33 -21 66 -76 66
c-72 0 -141 -70 -157 -182c60 4 123 15 160 30c36 14 73 38 73 86zM403 602l-7 -50h-244l7 50h244z" />
    <glyph glyph-name="eng" unicode="&#x14b;" horiz-adv-x="490" 
d="M436 344c0 -27 -4 -50 -8 -82l-34 -266c-7 -53 -17 -99 -42 -130c-24 -31 -57 -41 -91 -41s-61 15 -61 15l17 55s20 -11 36 -11c14 0 29 2 42 17s22 41 26 75l37 282c3 21 6 41 6 65c0 50 -26 82 -78 82c-62 0 -111 -55 -141 -120l-38 -285h-71l60 459h61v-79
c29 44 79 89 156 89c78 0 123 -50 123 -125z" />
    <glyph glyph-name="eogonek" unicode="&#x119;" horiz-adv-x="435" 
d="M345 -117l16 -32c-10 -9 -51 -37 -102 -37c-52 0 -81 31 -81 77c0 39 24 76 53 101c-10 -1 -20 -2 -30 -2c-78 0 -164 50 -164 199c0 148 102 280 233 280c94 0 141 -54 141 -120c0 -65 -47 -105 -108 -131c-62 -26 -149 -35 -195 -39v-14c0 -55 34 -116 106 -116
c73 0 125 50 135 60l33 -43c-20 -20 -42 -37 -67 -50c-50 -32 -79 -72 -79 -108c0 -30 20 -44 50 -44c31 0 51 14 59 19zM344 349c0 33 -21 66 -76 66c-72 0 -141 -70 -157 -182c60 4 123 15 160 30c36 14 73 38 73 86z" />
    <glyph glyph-name="gbreve" unicode="&#x11f;" horiz-adv-x="501" 
d="M464 459l-54 -407c-8 -57 -24 -114 -57 -153s-88 -74 -173 -74c-84 0 -148 48 -163 61l35 52c31 -27 78 -51 131 -51c52 0 87 16 112 43c26 28 37 66 44 115l6 44c-10 -20 -57 -83 -144 -83s-164 57 -164 185c0 148 87 278 225 278c96 0 120 -72 123 -84l18 74h61z
M367 277c0 93 -49 133 -102 133c-98 0 -154 -108 -154 -210c0 -93 48 -133 101 -133c100 0 155 108 155 210zM384 641l36 -10c-20 -66 -67 -117 -140 -117s-103 50 -107 117l39 10c6 -43 27 -77 75 -77s82 37 97 77z" />
    <glyph glyph-name="gcircumflex" unicode="&#x11d;" horiz-adv-x="501" 
d="M464 459l-54 -407c-8 -57 -24 -114 -57 -153s-88 -74 -173 -74c-84 0 -148 48 -163 61l35 52c31 -27 78 -51 131 -51c52 0 87 16 112 43c26 28 37 66 44 115l6 44c-10 -20 -57 -83 -144 -83s-164 57 -164 185c0 148 87 278 225 278c96 0 120 -72 123 -84l18 74h61z
M367 277c0 93 -49 133 -102 133c-98 0 -154 -108 -154 -210c0 -93 48 -133 101 -133c100 0 155 108 155 210zM386 514h-49l-47 86l-72 -86h-50l92 126h70z" />
    <glyph glyph-name="gcommaaccent" unicode="&#x123;" horiz-adv-x="501" 
d="M464 459l-54 -407c-8 -57 -24 -114 -57 -153s-88 -74 -173 -74c-84 0 -148 48 -163 61l35 52c31 -27 78 -51 131 -51c52 0 87 16 112 43c26 28 37 66 44 115l6 44c-10 -20 -57 -83 -144 -83s-164 57 -164 185c0 148 87 278 225 278c96 0 120 -72 123 -84l18 74h61z
M367 277c0 93 -49 133 -102 133c-98 0 -154 -108 -154 -210c0 -93 48 -133 101 -133c100 0 155 108 155 210zM315 509l-70 3c14 62 52 115 114 145l39 -26c-47 -32 -75 -71 -83 -122z" />
    <glyph glyph-name="gdotaccent" unicode="&#x121;" horiz-adv-x="501" 
d="M464 459l-54 -407c-8 -57 -24 -114 -57 -153s-88 -74 -173 -74c-84 0 -148 48 -163 61l35 52c31 -27 78 -51 131 -51c52 0 87 16 112 43c26 28 37 66 44 115l6 44c-10 -20 -57 -83 -144 -83s-164 57 -164 185c0 148 87 278 225 278c96 0 120 -72 123 -84l18 74h61z
M367 277c0 93 -49 133 -102 133c-98 0 -154 -108 -154 -210c0 -93 48 -133 101 -133c100 0 155 108 155 210zM329 584c0 -31 -19 -53 -50 -53c-22 0 -39 18 -39 40c0 31 19 53 50 53c22 0 39 -18 39 -40z" />
    <glyph glyph-name="hbar" unicode="&#x127;" horiz-adv-x="490" 
d="M437 344c0 -14 -1 -32 -3 -49l-39 -295h-71l39 287c1 11 2 21 2 30c0 56 -26 88 -79 88c-61 0 -111 -56 -140 -121l-38 -284h-71l70 537h-78l10 52h75l9 66h71l-9 -66h190l-9 -52h-188l-21 -158c31 46 81 90 157 90s123 -49 123 -125z" />
    <glyph glyph-name="hcircumflex" unicode="&#x125;" horiz-adv-x="490" 
d="M437 341c0 -22 -3 -47 -8 -84l-34 -257h-71l32 237c5 34 9 61 9 85c0 52 -26 83 -77 83c-63 0 -113 -56 -142 -121l-38 -284h-71l86 655h71l-37 -276c31 46 81 90 157 90s123 -49 123 -128zM270 710h-49l-47 86l-72 -86h-50l92 126h70z" />
    <glyph glyph-name="ibreve" unicode="&#x12d;" horiz-adv-x="204" 
d="M167 459l-60 -459h-71l60 459h71zM240 641l36 -10c-20 -66 -67 -117 -140 -117s-103 50 -107 117l39 10c6 -43 27 -77 75 -77s82 37 97 77z" />
    <glyph glyph-name="imacron" unicode="&#x12b;" horiz-adv-x="204" 
d="M167 459l-60 -459h-71l60 459h71zM267 602l-7 -50h-244l7 50h244z" />
    <glyph glyph-name="iogonek" unicode="&#x12f;" horiz-adv-x="204" 
d="M133 -117l16 -32c-10 -9 -51 -37 -102 -37c-52 0 -81 31 -81 77c0 47 34 90 70 114l60 454h71l-60 -459h-25c-25 -16 -58 -54 -58 -92c0 -30 20 -44 50 -44c31 0 51 14 59 19zM202 618c0 -34 -21 -57 -54 -57c-25 0 -44 19 -44 44c0 33 21 56 54 56c25 0 44 -19 44 -43z
" />
    <glyph glyph-name="itilde" unicode="&#x129;" horiz-adv-x="204" 
d="M167 459l-60 -459h-71l60 459h71zM242 627l40 -10c-10 -52 -47 -91 -91 -91c-39 0 -55 21 -65 30c-9 10 -21 25 -40 25c-22 0 -40 -28 -45 -54l-40 10c10 52 47 91 91 91c39 0 55 -20 65 -30c9 -9 21 -24 40 -24c22 0 40 28 45 53z" />
    <glyph glyph-name="jcircumflex" unicode="&#x135;" horiz-adv-x="205" 
d="M169 459l-61 -463c-7 -50 -17 -99 -42 -130c-24 -31 -57 -41 -91 -41s-61 15 -61 15l17 55s20 -11 36 -11c14 0 29 2 42 17s22 44 26 75l63 483h71zM248 514h-49l-47 86l-72 -86h-50l92 126h70z" />
    <glyph glyph-name="kcommaaccent" unicode="&#x137;" horiz-adv-x="439" 
d="M449 459l-203 -185l151 -274h-81l-122 226l-64 -58l-22 -168h-71l86 655h71l-53 -404l217 208h91zM180 -47l70 -3c-14 -62 -52 -115 -114 -145l-39 26c47 32 75 71 83 122z" />
    <glyph glyph-name="lacute" unicode="&#x13a;" horiz-adv-x="205" 
d="M194 655l-86 -655h-71l86 655h71zM280 835l-103 -126h-50l76 126h77z" />
    <glyph glyph-name="lcaron" unicode="&#x13e;" horiz-adv-x="205" 
d="M194 655l-86 -655h-71l86 655h71zM266 657l69 -1c-11 -81 -41 -136 -70 -170l-49 5c28 45 45 100 50 166z" />
    <glyph glyph-name="lcommaaccent" unicode="&#x13c;" horiz-adv-x="205" 
d="M194 655l-86 -655h-71l86 655h71zM46 -47l70 -3c-14 -62 -52 -115 -114 -145l-39 26c47 32 75 71 83 122z" />
    <glyph glyph-name="ldot" unicode="&#x140;" horiz-adv-x="265" 
d="M194 655l-86 -655h-71l86 655h71zM293 347c0 -31 -19 -53 -50 -53c-22 0 -39 18 -39 40c0 31 19 53 50 53c22 0 39 -18 39 -40z" />
    <glyph glyph-name="nacute" unicode="&#x144;" horiz-adv-x="490" 
d="M436 344c0 -22 -2 -37 -5 -63l-37 -281h-71l37 272c2 17 4 31 4 49c0 52 -26 84 -76 84c-64 0 -113 -55 -143 -120l-38 -285h-71l60 459h61v-79c29 44 79 89 156 89c78 0 123 -50 123 -125zM404 640l-103 -126h-50l76 126h77z" />
    <glyph glyph-name="ncaron" unicode="&#x148;" horiz-adv-x="490" 
d="M436 344c0 -22 -2 -37 -5 -63l-37 -281h-71l37 272c2 17 4 31 4 49c0 52 -26 84 -76 84c-64 0 -113 -55 -143 -120l-38 -285h-71l60 459h61v-79c29 44 79 89 156 89c78 0 123 -50 123 -125zM413 640l-91 -126h-70l-57 126h50l47 -88l72 88h49z" />
    <glyph glyph-name="ncommaaccent" unicode="&#x146;" horiz-adv-x="490" 
d="M436 344c0 -22 -2 -37 -5 -63l-37 -281h-71l37 272c2 17 4 31 4 49c0 52 -26 84 -76 84c-64 0 -113 -55 -143 -120l-38 -285h-71l60 459h61v-79c29 44 79 89 156 89c78 0 123 -50 123 -125zM186 -47l70 -3c-14 -62 -52 -115 -114 -145l-39 26c47 32 75 71 83 122z" />
    <glyph glyph-name="obreve" unicode="&#x14f;" horiz-adv-x="485" 
d="M447 275c0 -157 -91 -285 -234 -285c-112 0 -176 76 -176 194c0 157 91 285 235 285c111 0 175 -76 175 -194zM374 270c0 76 -33 141 -109 141c-99 0 -154 -111 -154 -221c0 -77 32 -141 108 -141c99 0 155 111 155 221zM382 641l36 -10c-20 -66 -67 -117 -140 -117
s-103 50 -107 117l39 10c6 -43 27 -77 75 -77s82 37 97 77z" />
    <glyph glyph-name="ohungarumlaut" unicode="&#x151;" horiz-adv-x="485" 
d="M447 275c0 -157 -91 -285 -234 -285c-112 0 -176 76 -176 194c0 157 91 285 235 285c111 0 175 -76 175 -194zM374 270c0 76 -33 141 -109 141c-99 0 -154 -111 -154 -221c0 -77 32 -141 108 -141c99 0 155 111 155 221zM463 640l-103 -126h-51l77 126h77zM338 640
l-103 -126h-51l77 126h77z" />
    <glyph glyph-name="omacron" unicode="&#x14d;" horiz-adv-x="485" 
d="M447 275c0 -157 -91 -285 -234 -285c-112 0 -176 76 -176 194c0 157 91 285 235 285c111 0 175 -76 175 -194zM374 270c0 76 -33 141 -109 141c-99 0 -154 -111 -154 -221c0 -77 32 -141 108 -141c99 0 155 111 155 221zM409 602l-7 -50h-244l7 50h244z" />
    <glyph glyph-name="oslashacute" unicode="&#x1ff;" horiz-adv-x="485" 
d="M465 454l-50 -57c21 -32 32 -72 32 -122c0 -157 -91 -285 -234 -285c-48 0 -88 14 -116 39l-46 -53l-31 28l49 57c-21 32 -32 73 -32 123c0 157 91 285 235 285c48 0 88 -14 116 -40l46 53zM342 376c-17 22 -43 35 -77 35c-99 0 -154 -111 -154 -221c0 -26 3 -49 11 -69z
M374 270c0 25 -4 47 -11 67l-220 -255c18 -20 43 -33 76 -33c99 0 155 111 155 221zM428 640l-103 -126h-50l76 126h77z" />
    <glyph glyph-name="racute" unicode="&#x155;" horiz-adv-x="320" 
d="M332 460l-18 -71s-13 8 -42 8c-30 0 -54 -16 -74 -36c-20 -19 -45 -59 -56 -92l-35 -269h-71l60 459h61v-82c25 50 73 92 131 92c32 0 44 -9 44 -9zM328 640l-103 -126h-50l76 126h77z" />
    <glyph glyph-name="rcaron" unicode="&#x159;" horiz-adv-x="320" 
d="M332 460l-18 -71s-13 8 -42 8c-30 0 -54 -16 -74 -36c-20 -19 -45 -59 -56 -92l-35 -269h-71l60 459h61v-82c25 50 73 92 131 92c32 0 44 -9 44 -9zM339 640l-91 -126h-70l-57 126h50l47 -88l72 88h49z" />
    <glyph glyph-name="rcommaaccent" unicode="&#x157;" horiz-adv-x="320" 
d="M332 460l-18 -71s-13 8 -42 8c-30 0 -54 -16 -74 -36c-20 -19 -45 -59 -56 -92l-35 -269h-71l60 459h61v-82c25 50 73 92 131 92c32 0 44 -9 44 -9zM51 -47l70 -3c-14 -62 -52 -115 -114 -145l-39 26c47 32 75 71 83 122z" />
    <glyph glyph-name="sacute" unicode="&#x15b;" horiz-adv-x="371" 
d="M360 393l-40 -43c-14 16 -31 32 -47 41s-43 21 -73 21s-46 -7 -55 -13s-26 -21 -26 -49s14 -39 25 -48s37 -23 63 -37s52 -27 72 -42s50 -46 50 -96c0 -49 -24 -82 -49 -102s-64 -35 -112 -35s-85 17 -101 26s-50 34 -65 59l44 41c10 -15 32 -35 48 -45s46 -23 81 -23
c25 0 48 9 61 19s25 26 25 51s-12 39 -23 48s-32 21 -66 39s-55 27 -73 42s-47 40 -47 95c0 60 39 90 54 100s45 26 95 26s88 -19 98 -24c10 -6 42 -25 61 -51zM333 640l-103 -126h-50l76 126h77z" />
    <glyph glyph-name="scedilla" unicode="&#x15f;" horiz-adv-x="371" 
d="M360 393l-40 -43c-14 16 -31 32 -47 41s-43 21 -73 21s-46 -7 -55 -13s-26 -21 -26 -49s14 -39 25 -48s37 -23 63 -37s52 -27 72 -42s50 -46 50 -96c0 -49 -24 -82 -49 -102c-20 -16 -50 -29 -85 -33l-56 -118h-79l81 118c-35 5 -61 16 -74 24c-16 9 -50 34 -65 59l44 41
c10 -15 32 -35 48 -45s46 -23 81 -23c25 0 48 9 61 19s25 26 25 51s-12 39 -23 48s-32 21 -66 39s-55 27 -73 42s-47 40 -47 95c0 60 39 90 54 100s45 26 95 26s88 -19 98 -24c10 -6 42 -25 61 -51z" />
    <glyph glyph-name="scircumflex" unicode="&#x15d;" horiz-adv-x="371" 
d="M360 393l-40 -43c-14 16 -31 32 -47 41s-43 21 -73 21s-46 -7 -55 -13s-26 -21 -26 -49s14 -39 25 -48s37 -23 63 -37s52 -27 72 -42s50 -46 50 -96c0 -49 -24 -82 -49 -102s-64 -35 -112 -35s-85 17 -101 26s-50 34 -65 59l44 41c10 -15 32 -35 48 -45s46 -23 81 -23
c25 0 48 9 61 19s25 26 25 51s-12 39 -23 48s-32 21 -66 39s-55 27 -73 42s-47 40 -47 95c0 60 39 90 54 100s45 26 95 26s88 -19 98 -24c10 -6 42 -25 61 -51zM326 514h-49l-47 86l-72 -86h-50l92 126h70z" />
    <glyph glyph-name="scommaaccent" unicode="&#x219;" horiz-adv-x="371" 
d="M360 393l-40 -43c-14 16 -31 32 -47 41s-43 21 -73 21s-46 -7 -55 -13s-26 -21 -26 -49s14 -39 25 -48s37 -23 63 -37s52 -27 72 -42s50 -46 50 -96c0 -49 -24 -82 -49 -102s-64 -35 -112 -35s-85 17 -101 26s-50 34 -65 59l44 41c10 -15 32 -35 48 -45s46 -23 81 -23
c25 0 48 9 61 19s25 26 25 51s-12 39 -23 48s-32 21 -66 39s-55 27 -73 42s-47 40 -47 95c0 60 39 90 54 100s45 26 95 26s88 -19 98 -24c10 -6 42 -25 61 -51zM125 -47l70 -3c-14 -62 -52 -115 -114 -145l-39 26c47 32 75 71 83 122z" />
    <glyph glyph-name="tbar" unicode="&#x167;" horiz-adv-x="299" 
d="M283 263l-9 -51h-116l-4 -32c-4 -35 -8 -58 -8 -80c0 -32 19 -49 49 -49s56 13 56 13v-57c-13 -6 -47 -17 -78 -17c-32 0 -61 10 -78 34c-15 22 -20 49 -20 73c0 32 6 72 11 105l1 10h-68l9 51h66l21 143h-69l7 53h69l29 128h59l-18 -128h118l-7 -53h-117l-21 -143h118z
" />
    <glyph glyph-name="tcaron" unicode="&#x165;" horiz-adv-x="299" 
d="M310 459l-7 -53h-117l-32 -226c-4 -28 -8 -56 -8 -78c0 -34 19 -51 48 -51c31 0 57 13 57 13v-57c-13 -6 -42 -17 -76 -17c-66 0 -100 42 -100 107c0 33 6 72 11 105l29 204h-69l7 53h69l29 128h59l-18 -128h118zM288 656l69 -1c-11 -81 -41 -136 -70 -170l-49 5
c28 45 45 100 50 166z" />
    <glyph glyph-name="tcedilla" unicode="&#x163;" horiz-adv-x="299" 
d="M310 459l-7 -53h-117l-32 -226c-4 -28 -8 -56 -8 -78c0 -34 19 -51 48 -51c31 0 57 13 57 13v-57c-13 -6 -42 -17 -76 -17c-66 0 -100 42 -100 107c0 33 6 72 11 105l29 204h-69l7 53h69l29 128h59l-18 -128h118zM117 -47l70 -3c-14 -62 -52 -115 -114 -145l-39 26
c47 32 75 71 83 122z" />
    <glyph glyph-name="tcommaaccent" unicode="&#x21b;" horiz-adv-x="299" 
d="M310 459l-7 -53h-117l-32 -226c-4 -28 -8 -56 -8 -78c0 -34 19 -51 48 -51c31 0 57 13 57 13v-57c-13 -6 -42 -17 -76 -17c-66 0 -100 42 -100 107c0 33 6 72 11 105l29 204h-69l7 53h69l29 128h59l-18 -128h118zM116 -47l70 -3c-14 -62 -52 -115 -114 -145l-39 26
c47 32 75 71 83 122z" />
    <glyph glyph-name="ubreve" unicode="&#x16d;" horiz-adv-x="480" 
d="M444 459l-60 -459h-61v78c-31 -51 -88 -88 -149 -88c-56 0 -83 25 -98 50c-16 25 -20 55 -20 81s2 48 5 73l35 265h71l-34 -255c-3 -25 -6 -57 -6 -71c0 -23 5 -44 15 -56c9 -12 26 -23 56 -23s59 13 85 39s44 60 52 82l38 284h71zM380 641l36 -10
c-20 -66 -67 -117 -140 -117s-103 50 -107 117l39 10c6 -43 27 -77 75 -77s82 37 97 77z" />
    <glyph glyph-name="uhungarumlaut" unicode="&#x171;" horiz-adv-x="480" 
d="M444 459l-60 -459h-61v78c-31 -51 -88 -88 -149 -88c-56 0 -83 25 -98 50c-16 25 -20 55 -20 81s2 48 5 73l35 265h71l-34 -255c-3 -25 -6 -57 -6 -71c0 -23 5 -44 15 -56c9 -12 26 -23 56 -23s59 13 85 39s44 60 52 82l38 284h71zM460 640l-103 -126h-51l77 126h77z
M335 640l-103 -126h-51l77 126h77z" />
    <glyph glyph-name="umacron" unicode="&#x16b;" horiz-adv-x="480" 
d="M444 459l-60 -459h-61v78c-31 -51 -88 -88 -149 -88c-56 0 -83 25 -98 50c-16 25 -20 55 -20 81s2 48 5 73l35 265h71l-34 -255c-3 -25 -6 -57 -6 -71c0 -23 5 -44 15 -56c9 -12 26 -23 56 -23s59 13 85 39s44 60 52 82l38 284h71zM410 602l-7 -50h-244l7 50h244z" />
    <glyph glyph-name="uogonek" unicode="&#x173;" horiz-adv-x="480" 
d="M444 459l-60 -459h-33c-40 -26 -70 -58 -70 -94c0 -28 17 -42 41 -42c26 0 46 14 54 19l16 -32c-10 -9 -41 -37 -89 -37c-53 0 -80 31 -80 77c0 48 31 89 100 129v58c-31 -51 -88 -88 -149 -88c-56 0 -83 25 -98 50c-16 25 -20 55 -20 81s2 48 5 73l35 265h71l-34 -255
c-3 -25 -6 -57 -6 -71c0 -23 5 -44 15 -56c9 -12 26 -23 56 -23s59 13 85 39s44 60 52 82l38 284h71z" />
    <glyph glyph-name="uring" unicode="&#x16f;" horiz-adv-x="480" 
d="M444 459l-60 -459h-61v78c-31 -51 -88 -88 -149 -88c-56 0 -83 25 -98 50c-16 25 -20 55 -20 81s2 48 5 73l35 265h71l-34 -255c-3 -25 -6 -57 -6 -71c0 -23 5 -44 15 -56c9 -12 26 -23 56 -23s59 13 85 39s44 60 52 82l38 284h71zM366 591c0 -53 -36 -91 -89 -91
c-41 0 -72 31 -72 70c0 53 36 91 89 91c41 0 72 -31 72 -70zM329 586c0 21 -16 40 -38 40c-29 0 -49 -21 -49 -51c0 -21 16 -40 38 -40c29 0 49 21 49 51z" />
    <glyph glyph-name="utilde" unicode="&#x169;" horiz-adv-x="480" 
d="M444 459l-60 -459h-61v78c-31 -51 -88 -88 -149 -88c-56 0 -83 25 -98 50c-16 25 -20 55 -20 81s2 48 5 73l35 265h71l-34 -255c-3 -25 -6 -57 -6 -71c0 -23 5 -44 15 -56c9 -12 26 -23 56 -23s59 13 85 39s44 60 52 82l38 284h71zM387 627l40 -10
c-10 -52 -47 -91 -91 -91c-39 0 -55 21 -65 30c-9 10 -21 25 -40 25c-22 0 -40 -28 -45 -54l-40 10c10 52 47 91 91 91c39 0 55 -20 65 -30c9 -9 21 -24 40 -24c22 0 40 28 45 53z" />
    <glyph glyph-name="wacute" unicode="&#x1e83;" horiz-adv-x="630" 
d="M641 459l-183 -459h-75l-52 371l-149 -371h-75l-64 459h71l44 -372l146 372h77l48 -372l142 372h70zM460 640l-103 -126h-50l76 126h77z" />
    <glyph glyph-name="wcircumflex" unicode="&#x175;" horiz-adv-x="630" 
d="M641 459l-183 -459h-75l-52 371l-149 -371h-75l-64 459h71l44 -372l146 372h77l48 -372l142 372h70zM455 514h-49l-47 86l-72 -86h-50l92 126h70z" />
    <glyph glyph-name="wdieresis" unicode="&#x1e85;" horiz-adv-x="630" 
d="M641 459l-183 -459h-75l-52 371l-149 -371h-75l-64 459h71l44 -372l146 372h77l48 -372l142 372h70zM466 584c0 -31 -20 -53 -51 -53c-22 0 -39 18 -39 40c0 31 19 53 50 53c22 0 40 -18 40 -40zM329 584c0 -31 -19 -53 -50 -53c-22 0 -40 18 -40 40c0 31 20 53 51 53
c22 0 39 -18 39 -40z" />
    <glyph glyph-name="wgrave" unicode="&#x1e81;" horiz-adv-x="630" 
d="M641 459l-183 -459h-75l-52 371l-149 -371h-75l-64 459h71l44 -372l146 372h77l48 -372l142 372h70zM394 514h-50l-73 126h77z" />
    <glyph glyph-name="ycircumflex" unicode="&#x177;" horiz-adv-x="420" 
d="M439 459l-262 -538c-32 -67 -66 -96 -114 -96c-43 0 -67 20 -70 22l25 51s17 -12 37 -12c21 0 38 7 58 53l28 63l-99 457h73l73 -382l177 382h74zM349 514h-49l-47 86l-72 -86h-50l92 126h70z" />
    <glyph glyph-name="ygrave" unicode="&#x1ef3;" horiz-adv-x="420" 
d="M439 459l-262 -538c-32 -67 -66 -96 -114 -96c-43 0 -67 20 -70 22l25 51s17 -12 37 -12c21 0 38 7 58 53l28 63l-99 457h73l73 -382l177 382h74zM288 514h-50l-73 126h77z" />
    <glyph glyph-name="zacute" unicode="&#x17a;" horiz-adv-x="387" 
d="M388 459l-7 -51l-291 -353h253l-7 -55h-337l8 50l292 355h-240l8 54h321zM339 640l-103 -126h-50l76 126h77z" />
    <glyph glyph-name="zdotaccent" unicode="&#x17c;" horiz-adv-x="387" 
d="M388 459l-7 -51l-291 -353h253l-7 -55h-337l8 50l292 355h-240l8 54h321zM277 584c0 -31 -19 -53 -50 -53c-22 0 -39 18 -39 40c0 31 19 53 50 53c22 0 39 -18 39 -40z" />
    <glyph glyph-name="kgreenlandic" unicode="&#x138;" horiz-adv-x="439" 
d="M449 459l-203 -185l151 -274h-81l-122 226l-64 -58l-22 -168h-71l60 459h71l-27 -208l217 208h91z" />
    <glyph glyph-name="Delta" unicode="&#x2206;" horiz-adv-x="511" 
d="M512 0h-512l256 651zM428 57l-172 449l-173 -449h345z" />
    <glyph glyph-name="Omega" unicode="&#x2126;" horiz-adv-x="682" 
d="M641 0h-251v55c86 31 181 122 181 272c0 151 -92 259 -230 259s-229 -108 -229 -258c0 -151 94 -242 180 -273v-55h-251v56h148c-26 14 -142 101 -142 278c0 178 125 310 294 310s294 -132 294 -310c0 -177 -116 -264 -142 -278h148v-56z" />
    <glyph glyph-name="uni03BC" unicode="&#x3bc;" 
d="M438 459l-61 -459h-61v76c-25 -33 -66 -84 -141 -84c-50 0 -67 32 -67 32l-24 -193h-70l83 628h71l-39 -295c-1 -10 -2 -19 -2 -28c0 -49 22 -81 71 -81c58 0 116 71 131 120l38 284h71z" />
    <glyph glyph-name="pi" unicode="&#x3c0;" horiz-adv-x="512" 
d="M487 402h-75v-402h-62v402h-189v-402h-61v402h-76v56h463v-56z" />
    <glyph glyph-name="Euro" unicode="&#x20ac;" 
d="M477 534l-49 -30c-6 18 -23 85 -99 85s-130 -100 -150 -183h200l-6 -44h-203s-5 -23 -7 -42s-3 -42 -3 -42h202l-6 -45h-197c1 -90 20 -182 108 -182c74 0 114 70 123 89l43 -35c-4 -7 -54 -115 -178 -115s-167 105 -168 243h-69l7 45h63s2 24 4 42c1 17 5 42 5 42h-62
l7 44h65c32 118 108 239 225 239c116 0 142 -101 145 -111z" />
    <glyph glyph-name="litre" unicode="&#x2113;" horiz-adv-x="499" 
d="M382 90l26 -33c-24 -28 -68 -69 -130 -69c-34 0 -60 11 -77 30c-23 24 -35 62 -35 112v129l-62 -69l-31 31l93 104v239c0 109 44 164 112 164s90 -59 90 -100c0 -94 -47 -178 -111 -264c-10 -13 -26 -34 -35 -44v-195c0 -64 28 -90 66 -90c39 0 71 29 94 55zM318 622
c0 31 -11 59 -40 59c-35 0 -56 -32 -56 -120v-170c7 9 18 23 24 32c43 67 72 138 72 199z" />
    <glyph glyph-name="estimated" unicode="&#x212e;" horiz-adv-x="665" 
d="M628 299h-461v-206c44 -44 99 -67 164 -67c106 0 171 54 221 136c13 -7 24 -15 37 -22c-61 -92 -132 -152 -258 -152c-179 0 -292 140 -292 312s111 311 293 311c185 0 292 -139 296 -312zM497 337v169c-43 41 -102 68 -166 68s-121 -23 -164 -67v-170h330z" />
    <glyph glyph-name="partialdiff" unicode="&#x2202;" horiz-adv-x="512" 
d="M472 236c0 -147 -87 -245 -216 -245s-217 98 -217 222c0 125 84 221 206 221c73 0 126 -36 150 -77c-20 72 -71 142 -118 183c-46 40 -105 73 -183 88l16 48c58 -9 157 -44 229 -114c71 -69 133 -180 133 -326zM399 216c0 95 -53 167 -143 167s-144 -72 -144 -167
c0 -94 54 -166 144 -166s143 71 143 166z" />
    <glyph glyph-name="product" unicode="&#x220f;" horiz-adv-x="512" 
d="M500 -174h-202v56h65v717h-189v-716h66v-57h-202v56h75v717h-75v56h462v-56h-75v-716h75v-57z" />
    <glyph glyph-name="summation" unicode="&#x2211;" horiz-adv-x="512" 
d="M482 -174h-457v50l238 374l-233 356v49h442v-221h-57v164h-309l233 -348l-239 -367h325v178h57v-235z" />
    <glyph glyph-name="uni2219" unicode="&#x2219;" horiz-adv-x="237" 
d="M168 287c0 -33 -21 -57 -55 -57c-24 0 -43 20 -43 45c0 33 21 57 55 57c24 0 43 -20 43 -45z" />
    <glyph glyph-name="radical" unicode="&#x221a;" horiz-adv-x="512" 
d="M496 578h-82l-152 -578h-74l-79 270h-62v57h105l72 -258l145 566h127v-57z" />
    <glyph glyph-name="infinity" unicode="&#x221e;" horiz-adv-x="512" 
d="M492 298c0 -68 -52 -115 -120 -115c-64 0 -100 50 -116 71c-16 -21 -53 -71 -116 -71c-68 0 -120 47 -120 115s52 116 120 116c63 0 99 -50 116 -71c16 21 52 71 115 71c69 0 121 -48 121 -116zM437 298c0 38 -28 62 -67 62s-68 -33 -86 -62c18 -28 47 -62 86 -62
s67 24 67 62zM228 298c-18 29 -48 62 -87 62s-67 -24 -67 -62s28 -62 67 -62s69 34 87 62z" />
    <glyph glyph-name="integral" unicode="&#x222b;" horiz-adv-x="512" 
d="M413 649l-11 -54s-20 11 -48 11s-45 -9 -55 -24c-10 -14 -12 -32 -12 -64v-567c0 -48 -12 -74 -30 -94c-19 -20 -46 -36 -86 -36s-63 10 -73 14l11 55c1 0 21 -12 49 -12s45 10 54 24c10 15 13 32 13 65v566c0 48 11 75 30 95c18 19 45 36 86 36s63 -10 72 -15z" />
    <glyph glyph-name="approxequal" unicode="&#x2248;" 
d="M459 383c-30 -26 -80 -55 -136 -55s-107 53 -160 53c-54 0 -100 -42 -103 -43l-22 44c31 26 81 54 136 54c56 0 107 -53 161 -53s101 43 103 44zM437 214c-30 -25 -80 -54 -136 -54s-107 53 -160 53c-54 0 -100 -43 -103 -44l-22 44c32 26 81 55 136 55
c56 0 107 -53 161 -53s101 42 103 44z" />
    <glyph glyph-name="notequal" unicode="&#x2260;" 
d="M438 412l-7 -54h-137l-53 -120h176l-7 -54h-192l-62 -145h-61l62 145h-121l7 54h137l53 120h-176l7 54h192l62 144h61l-62 -144h121z" />
    <glyph glyph-name="lessequal" unicode="&#x2264;" 
d="M458 515l-8 -64l-332 -143l294 -146l-8 -59l-351 179l7 54zM397 54l-7 -54h-374l7 54h374z" />
    <glyph glyph-name="greaterequal" unicode="&#x2265;" 
d="M447 336l-7 -54l-399 -179l8 64l333 143l-295 147l8 58zM406 54l-7 -54h-374l7 54h374z" />
    <glyph glyph-name="lozenge" unicode="&#x25ca;" horiz-adv-x="512" 
d="M478 320l-222 -331l-223 331l223 331zM412 320l-156 235l-156 -235l156 -236z" />
    <glyph glyph-name="uni00A0" unicode="&#xa0;" horiz-adv-x="164" 
 />
    <glyph glyph-name="uni00AD" unicode="&#xad;" horiz-adv-x="286" 
d="M248 259l-11 -55h-200l12 55h199z" />
    <glyph glyph-name="uni02C9" unicode="&#x2c9;" horiz-adv-x="363" 
d="M307 599l-7 -50h-244l7 50h244z" />
    <glyph glyph-name="zero.fitted" unicode="&#xe097;" horiz-adv-x="510" 
d="M470 391c0 -213 -99 -401 -242 -401c-132 0 -172 119 -172 255c0 213 99 400 242 400c132 0 172 -118 172 -254zM398 397c0 117 -29 188 -105 188c-93 0 -165 -160 -165 -344c0 -117 29 -189 105 -189c93 0 165 161 165 345z" />
    <glyph glyph-name="one.fitted" unicode="&#xf6dc;" horiz-adv-x="329" 
d="M266 638l-84 -638h-71l71 534c-17 -12 -56 -32 -94 -39l-13 51c26 6 53 17 74 28c21 12 53 39 62 64h55z" />
    <glyph glyph-name="two.fitted" unicode="&#xe098;" horiz-adv-x="463" 
d="M441 482c0 -105 -93 -172 -162 -227c-68 -55 -149 -113 -182 -194h308l-8 -61h-388c22 145 139 230 200 279s162 112 162 197c0 84 -63 109 -115 109c-53 0 -102 -29 -139 -84l-45 40c25 37 88 104 188 104s181 -58 181 -163z" />
    <glyph glyph-name="three.fitted" unicode="&#xe099;" 
d="M426 493c0 -93 -75 -147 -134 -156c44 -9 113 -51 113 -151c0 -61 -28 -110 -66 -143c-38 -32 -90 -53 -154 -53c-108 0 -160 72 -179 105l47 37c28 -42 68 -81 138 -81s143 47 143 135c0 89 -59 119 -127 119h-45l7 59h50c76 0 138 51 138 121s-52 102 -116 102
s-106 -44 -125 -70l-39 41c6 9 65 87 170 87s179 -60 179 -152z" />
    <glyph glyph-name="four.fitted" unicode="&#xe09a;" horiz-adv-x="480" 
d="M448 208l-7 -58h-83l-20 -150h-71l20 150h-283l6 60l323 425h89l-57 -427h83zM342 565l-267 -357h219z" />
    <glyph glyph-name="five.fitted" unicode="&#xe09b;" 
d="M446 635l-8 -60h-233l-60 -195s31 23 99 23c67 0 172 -49 172 -186c0 -130 -92 -227 -218 -227c-127 0 -171 73 -188 103l46 36c21 -32 58 -79 140 -79c81 0 150 61 150 160c0 95 -62 137 -126 137s-100 -32 -107 -40l-43 24l90 304h286z" />
    <glyph glyph-name="six.fitted" unicode="&#xe09c;" horiz-adv-x="490" 
d="M471 590l-39 -46c-16 19 -50 44 -108 44c-52 0 -94 -27 -123 -63s-58 -94 -72 -200c16 19 70 73 155 73s161 -54 161 -177s-78 -231 -212 -231s-179 121 -179 247c0 123 34 239 82 305c46 64 111 103 193 103c79 0 128 -41 142 -55zM375 219c0 72 -40 122 -105 122
s-117 -45 -146 -92c-1 -7 -2 -21 -2 -34c0 -109 46 -167 117 -167c76 0 136 70 136 171z" />
    <glyph glyph-name="seven.fitted" unicode="&#xe09d;" horiz-adv-x="441" 
d="M464 635l-10 -58l-335 -577h-77l340 575h-324l8 60h398z" />
    <glyph glyph-name="eight.fitted" unicode="&#xe09e;" horiz-adv-x="494" 
d="M462 493c0 -83 -73 -137 -123 -153c7 -3 102 -48 102 -158c0 -119 -98 -192 -210 -192s-189 59 -189 167c0 104 76 157 143 181c-18 10 -86 45 -86 139c0 98 87 168 195 168s168 -63 168 -152zM393 486c0 66 -40 104 -106 104c-65 0 -119 -47 -119 -112
c0 -56 39 -91 89 -107l29 -9l40 18c36 16 67 55 67 106zM372 177c0 61 -39 107 -93 125l-40 14l-28 -12c-59 -25 -99 -76 -99 -141c0 -74 54 -115 125 -115s135 54 135 129z" />
    <glyph glyph-name="nine.fitted" unicode="&#xe09f;" horiz-adv-x="495" 
d="M456 399c0 -123 -34 -239 -82 -306c-46 -63 -111 -103 -193 -103c-79 0 -128 40 -146 59l39 46c24 -24 57 -47 112 -47s95 27 124 63s59 94 71 199c-21 -24 -74 -72 -156 -72c-83 0 -160 54 -160 177s78 230 212 230s179 -120 179 -246zM386 386c1 6 2 20 2 35
c0 109 -46 167 -117 167c-76 0 -136 -70 -136 -171c0 -77 42 -121 107 -121s125 54 144 90z" />
    <glyph glyph-name="percent.oldstyle" unicode="&#xfe6a;" horiz-adv-x="652" 
d="M614 162c0 -83 -56 -172 -144 -172c-68 0 -109 43 -109 124c0 83 56 172 144 172c68 0 109 -43 109 -124zM502 460l-317 -475l-35 23l317 475zM291 354c0 -83 -56 -172 -144 -172c-68 0 -109 43 -109 124c0 83 56 172 144 172c68 0 109 -44 109 -124zM560 161
c0 46 -17 78 -60 78c-56 0 -85 -75 -85 -124c0 -46 17 -78 60 -78c56 0 85 75 85 124zM237 353c0 46 -17 77 -60 77c-57 0 -85 -75 -85 -123c0 -47 17 -78 59 -78c57 0 86 75 86 124z" />
    <glyph glyph-name="perthousand.oldstyle" unicode="&#xe900;" horiz-adv-x="939" 
d="M901 162c0 -83 -56 -172 -144 -172c-68 0 -109 43 -109 124c0 83 56 172 144 172c68 0 109 -43 109 -124zM614 162c0 -83 -56 -172 -144 -172c-68 0 -109 43 -109 124c0 83 56 172 144 172c68 0 109 -43 109 -124zM502 460l-317 -475l-35 23l317 475zM291 354
c0 -83 -56 -172 -144 -172c-68 0 -109 43 -109 124c0 83 56 172 144 172c68 0 109 -44 109 -124zM847 161c0 46 -17 78 -60 78c-57 0 -85 -75 -85 -124c0 -46 17 -78 59 -78c57 0 86 75 86 124zM560 161c0 46 -17 78 -60 78c-56 0 -85 -75 -85 -124c0 -46 17 -78 60 -78
c56 0 85 75 85 124zM237 353c0 46 -17 77 -60 77c-57 0 -85 -75 -85 -123c0 -47 17 -78 59 -78c57 0 86 75 86 124z" />
    <glyph glyph-name="zero.taboldstyle" unicode="&#xe100;" horiz-adv-x="475" 
d="M430 281c0 -135 -72 -291 -225 -291c-117 0 -166 89 -166 197c0 135 71 291 224 291c117 0 167 -89 167 -197zM360 277c0 71 -25 142 -103 142c-107 0 -148 -134 -148 -228c0 -70 25 -142 103 -142c106 0 148 134 148 228z" />
    <glyph glyph-name="one.taboldstyle" unicode="&#xe101;" horiz-adv-x="475" 
d="M323 474l-61 -474h-71l47 370c-16 -15 -55 -33 -93 -39l-13 52c25 6 53 16 73 27c22 12 53 39 63 64h55z" />
    <glyph glyph-name="two.taboldstyle" unicode="&#xe102;" horiz-adv-x="475" 
d="M413 350c0 -88 -74 -122 -143 -164c-69 -41 -123 -73 -154 -126h294l-7 -60h-384c31 127 137 186 192 221c38 24 65 39 84 52c21 16 50 38 50 73c0 48 -43 74 -95 74c-53 0 -97 -27 -130 -66l-38 41c35 42 95 83 174 83c77 0 157 -39 157 -128z" />
    <glyph glyph-name="three.taboldstyle" unicode="&#xe103;" horiz-adv-x="475" 
d="M413 326c0 -95 -78 -145 -134 -151c38 -6 114 -41 114 -146c0 -61 -27 -112 -69 -145c-38 -30 -89 -47 -148 -47c-117 0 -168 95 -177 104l46 36c17 -29 62 -80 135 -80c72 0 143 44 143 133s-65 113 -127 113h-46l8 59h49c76 0 137 47 137 117c0 69 -49 101 -113 101
s-102 -42 -122 -65l-38 41c8 13 66 82 168 82s174 -55 174 -152z" />
    <glyph glyph-name="four.taboldstyle" unicode="&#xe104;" horiz-adv-x="475" 
d="M438 58l-8 -57h-83l-23 -163h-71l23 163h-283l6 59l319 419h92l-56 -421h84zM331 413l-267 -355h219z" />
    <glyph glyph-name="five.taboldstyle" unicode="&#xe105;" horiz-adv-x="475" 
d="M436 468l-8 -58h-233l-60 -193s29 24 98 24s172 -44 172 -182c0 -129 -91 -222 -217 -222c-127 0 -170 74 -188 104l46 36c22 -34 58 -79 140 -79s149 57 149 156c0 94 -63 131 -125 131c-61 0 -97 -28 -108 -39l-42 23l89 299h287z" />
    <glyph glyph-name="six.taboldstyle" unicode="&#xe106;" horiz-adv-x="475" 
d="M459 576l-38 -45c-17 18 -51 43 -108 43c-52 0 -93 -26 -123 -62c-30 -37 -58 -92 -72 -190c15 20 72 75 156 75c83 0 160 -53 160 -176s-78 -231 -213 -231c-134 0 -179 121 -179 247c0 124 34 225 82 292c46 63 111 102 193 102c84 0 132 -43 142 -55zM364 219
c0 72 -39 123 -106 123c-66 0 -114 -46 -145 -85l-1 -5c-1 -11 -1 -22 -1 -32c0 -116 46 -172 116 -172c77 0 137 70 137 171z" />
    <glyph glyph-name="seven.taboldstyle" unicode="&#xe107;" horiz-adv-x="475" 
d="M459 468l-10 -57l-331 -573h-76l335 571h-320l8 59h394z" />
    <glyph glyph-name="eight.taboldstyle" unicode="&#xe108;" horiz-adv-x="475" 
d="M448 493c0 -80 -63 -135 -118 -153c6 -3 98 -47 98 -158c0 -118 -93 -192 -205 -192c-113 0 -184 59 -184 166c0 105 69 161 136 184c-11 6 -79 42 -79 136c0 99 81 168 189 168s163 -68 163 -151zM380 486c0 66 -36 103 -101 103c-66 0 -115 -46 -115 -111
c0 -66 45 -94 85 -106l26 -8l29 11c29 11 76 45 76 111zM358 177c0 75 -52 115 -94 128l-34 11l-21 -8c-52 -19 -101 -70 -101 -145c0 -74 48 -116 120 -116s130 55 130 130z" />
    <glyph glyph-name="nine.taboldstyle" unicode="&#xe109;" horiz-adv-x="475" 
d="M430 232c0 -124 -29 -225 -77 -292c-46 -63 -112 -103 -194 -103c-79 0 -129 42 -146 60l38 45c19 -21 55 -47 112 -47c53 0 94 27 124 63c31 37 56 85 68 189c-15 -20 -73 -76 -157 -76s-159 55 -159 177c0 123 78 230 212 230s179 -120 179 -246zM361 215
c1 11 1 22 1 32c0 118 -47 174 -117 174c-76 0 -136 -70 -136 -171c0 -72 39 -122 105 -122c67 0 118 51 147 87z" />
    <glyph glyph-name="zero.denominator" unicode="&#xe10a;" horiz-adv-x="370" 
d="M317 236c0 -116 -53 -243 -160 -243c-91 0 -119 74 -119 155c0 130 61 242 161 242c91 0 118 -77 118 -154zM265 239c0 70 -26 106 -70 106c-59 0 -104 -83 -104 -199c0 -60 16 -107 70 -107c66 0 104 102 104 200z" />
    <glyph glyph-name="one.denominator" unicode="&#xe10b;" horiz-adv-x="370" 
d="M246 389l-49 -389h-57l40 312c-13 -10 -42 -20 -68 -25l-10 42c36 6 85 31 98 60h46z" />
    <glyph glyph-name="two.denominator" unicode="&#xe10c;" horiz-adv-x="370" 
d="M307 288c0 -65 -57 -103 -89 -127c-32 -25 -89 -67 -110 -109h183l-7 -52h-255c18 95 103 155 147 189c43 33 74 58 74 92c0 33 -20 61 -67 61s-76 -37 -84 -48l-30 33c13 19 52 64 119 64c68 0 119 -38 119 -103z" />
    <glyph glyph-name="three.denominator" unicode="&#xe10d;" horiz-adv-x="370" 
d="M301 294c0 -59 -59 -89 -79 -91c21 -4 66 -24 66 -87c0 -68 -61 -124 -139 -124s-114 58 -118 62l37 36c9 -16 39 -50 82 -50s81 29 81 76s-34 61 -67 61h-36l6 47h36c44 0 76 26 76 64c0 37 -27 57 -66 57s-64 -26 -77 -41l-28 37c11 11 47 51 112 51s114 -36 114 -98z
" />
    <glyph glyph-name="four.denominator" unicode="&#xe10e;" horiz-adv-x="370" 
d="M316 135l-7 -48h-57l-11 -87h-56l12 87h-181l7 48l197 248h68l-31 -248h59zM229 334l-155 -199h129z" />
    <glyph glyph-name="five.denominator" unicode="&#xe10f;" horiz-adv-x="370" 
d="M310 382l-5 -48h-153l-28 -103s19 12 58 12c69 0 111 -48 111 -112c0 -71 -47 -138 -142 -138c-77 0 -110 43 -121 61l31 35c12 -19 41 -48 87 -48c58 0 89 34 89 84c0 42 -22 74 -74 74c-38 0 -68 -20 -71 -23l-29 19l53 187h194z" />
    <glyph glyph-name="six.denominator" unicode="&#xe110;" horiz-adv-x="370" 
d="M315 357l-27 -40c-8 9 -30 28 -66 28c-30 0 -53 -12 -73 -34c-23 -25 -38 -60 -45 -108c12 12 48 39 100 39c69 0 104 -50 104 -107c0 -70 -50 -141 -141 -141c-76 0 -121 61 -121 155c0 76 22 140 54 180s69 61 125 61c50 0 79 -22 90 -33zM253 132c0 43 -28 67 -65 67
c-36 0 -74 -23 -87 -50c0 0 -1 -8 -1 -15c0 -57 29 -94 74 -94c49 0 79 41 79 92z" />
    <glyph glyph-name="seven.denominator" unicode="&#xe111;" horiz-adv-x="370" 
d="M331 382l-7 -42l-201 -340h-62l205 332h-191l6 50h250z" />
    <glyph glyph-name="eight.denominator" unicode="&#xe112;" horiz-adv-x="370" 
d="M313 297c0 -51 -46 -81 -77 -91c15 -8 64 -31 64 -94c0 -74 -67 -118 -136 -118c-68 0 -121 36 -121 102c0 62 49 94 87 107c-11 6 -52 28 -52 83c0 62 57 104 124 104s111 -38 111 -93zM261 292c0 33 -26 57 -61 57c-39 0 -69 -24 -69 -62c0 -32 20 -49 51 -60l14 -5
l14 6c30 13 51 34 51 64zM246 107c0 37 -19 56 -55 71l-20 8l-15 -6c-38 -15 -60 -42 -60 -78c0 -39 28 -65 70 -65c44 0 80 27 80 70z" />
    <glyph glyph-name="nine.denominator" unicode="&#xe113;" horiz-adv-x="370" 
d="M39 31l27 40c8 -9 34 -31 73 -31c30 0 56 11 75 33c22 26 37 60 44 108c-12 -12 -46 -42 -98 -42c-66 0 -106 47 -106 113c0 67 50 138 141 138c76 0 121 -55 121 -155c0 -76 -21 -140 -53 -180s-71 -61 -127 -61c-55 0 -86 26 -97 37zM109 256c0 -47 28 -71 65 -71
c41 0 74 23 87 50c0 0 1 8 1 15c0 62 -29 94 -72 94c-39 0 -81 -31 -81 -88z" />
    <glyph glyph-name="zero.numerator" unicode="&#xe11e;" horiz-adv-x="370" 
d="M349 498c0 -116 -53 -243 -160 -243c-91 0 -119 74 -119 155c0 130 61 242 161 242c91 0 118 -77 118 -154zM297 501c0 70 -26 106 -70 106c-59 0 -104 -83 -104 -199c0 -60 16 -107 70 -107c66 0 104 102 104 200z" />
    <glyph glyph-name="one.numerator" unicode="&#xe11f;" horiz-adv-x="370" 
d="M278 651l-49 -389h-57l40 312c-13 -10 -42 -20 -68 -25l-10 42c36 6 85 31 98 60h46z" />
    <glyph glyph-name="two.numerator" unicode="&#xe120;" horiz-adv-x="370" 
d="M339 550c0 -65 -57 -103 -89 -127c-32 -25 -89 -67 -110 -109h183l-7 -52h-255c18 95 103 155 147 189c43 33 74 58 74 92c0 33 -20 61 -67 61s-76 -37 -84 -48l-30 33c13 19 52 64 119 64c68 0 119 -38 119 -103z" />
    <glyph glyph-name="three.numerator" unicode="&#xe121;" horiz-adv-x="370" 
d="M333 556c0 -59 -59 -89 -79 -91c21 -4 66 -24 66 -87c0 -68 -61 -124 -139 -124s-114 58 -118 62l37 36c9 -16 39 -50 82 -50s81 29 81 76s-34 61 -67 61h-36l6 47h36c44 0 76 26 76 64c0 37 -27 57 -66 57s-64 -26 -77 -41l-28 37c11 11 47 51 112 51s114 -36 114 -98z
" />
    <glyph glyph-name="four.numerator" unicode="&#xe122;" horiz-adv-x="370" 
d="M348 397l-7 -48h-57l-11 -87h-56l12 87h-181l7 48l197 248h68l-31 -248h59zM261 596l-155 -199h129z" />
    <glyph glyph-name="five.numerator" unicode="&#xe123;" horiz-adv-x="370" 
d="M342 644l-5 -48h-153l-28 -103s19 12 58 12c69 0 111 -48 111 -112c0 -71 -47 -138 -142 -138c-77 0 -110 43 -121 61l31 35c12 -19 41 -48 87 -48c58 0 89 34 89 84c0 42 -22 74 -74 74c-38 0 -68 -20 -71 -23l-29 19l53 187h194z" />
    <glyph glyph-name="six.numerator" unicode="&#xe124;" horiz-adv-x="370" 
d="M347 619l-27 -40c-8 9 -30 28 -66 28c-30 0 -53 -12 -73 -34c-23 -25 -38 -60 -45 -108c12 12 48 39 100 39c69 0 104 -50 104 -107c0 -70 -50 -141 -141 -141c-76 0 -121 61 -121 155c0 76 22 140 54 180s69 61 125 61c50 0 79 -22 90 -33zM285 394c0 43 -28 67 -65 67
c-36 0 -74 -23 -87 -50c0 0 -1 -8 -1 -15c0 -57 29 -94 74 -94c49 0 79 41 79 92z" />
    <glyph glyph-name="seven.numerator" unicode="&#xe125;" horiz-adv-x="370" 
d="M363 644l-7 -42l-201 -340h-62l205 332h-191l6 50h250z" />
    <glyph glyph-name="eight.numerator" unicode="&#xe126;" horiz-adv-x="370" 
d="M345 559c0 -51 -46 -81 -77 -91c15 -8 64 -31 64 -94c0 -74 -67 -118 -136 -118c-68 0 -121 36 -121 102c0 62 49 94 87 107c-11 6 -52 28 -52 83c0 62 57 104 124 104s111 -38 111 -93zM293 554c0 33 -26 57 -61 57c-39 0 -69 -24 -69 -62c0 -32 20 -49 51 -60l14 -5
l14 6c30 13 51 34 51 64zM278 369c0 37 -19 56 -55 71l-20 8l-15 -6c-38 -15 -60 -42 -60 -78c0 -39 28 -65 70 -65c44 0 80 27 80 70z" />
    <glyph glyph-name="nine.numerator" unicode="&#xe127;" horiz-adv-x="370" 
d="M71 293l27 40c8 -9 34 -31 73 -31c30 0 56 11 75 33c22 26 37 60 44 108c-12 -12 -46 -42 -98 -42c-66 0 -106 47 -106 113c0 67 50 138 141 138c76 0 121 -55 121 -155c0 -76 -21 -140 -53 -180s-71 -61 -127 -61c-55 0 -86 26 -97 37zM141 518c0 -47 28 -71 65 -71
c41 0 74 23 87 50c0 0 1 8 1 15c0 62 -29 94 -72 94c-39 0 -81 -31 -81 -88z" />
    <glyph glyph-name="parenleft.cap" unicode="&#xe140;" horiz-adv-x="289" 
d="M290 744l29 -33c-113 -109 -205 -265 -205 -461c0 -148 47 -237 103 -313l-36 -31c-58 56 -136 172 -136 349c0 214 109 378 245 489z" />
    <glyph glyph-name="parenright.cap" unicode="&#xe141;" horiz-adv-x="289" 
d="M256 395c0 -214 -110 -378 -246 -489l-29 33c114 109 206 265 206 461c0 148 -48 237 -104 313l36 31c58 -57 137 -172 137 -349z" />
    <glyph glyph-name="bracketleft.cap" unicode="&#xe13b;" horiz-adv-x="289" 
d="M317 726l-7 -49h-111l-94 -719h112l-6 -48h-175l108 816h173z" />
    <glyph glyph-name="bracketright.cap" unicode="&#xe13c;" horiz-adv-x="289" 
d="M263 726l-108 -816h-173l7 48h111l94 719h-113l7 49h175z" />
    <glyph glyph-name="braceleft.cap" unicode="&#xe139;" horiz-adv-x="289" 
d="M313 686l-56 -14c-41 -10 -46 -28 -55 -82l-24 -140c-12 -71 -30 -124 -97 -132l-1 -3c53 -6 68 -53 68 -95c0 -7 0 -14 -1 -20l-18 -158c-1 -7 -1 -12 -1 -18c0 -44 21 -52 44 -61l43 -16l-13 -44l-53 12c-56 13 -83 44 -83 103c0 8 1 16 2 25l18 160c1 9 1 16 1 24
c0 46 -19 62 -49 62h-20l8 55h20c52 0 62 51 72 106l24 141c12 74 24 116 105 129l58 10z" />
    <glyph glyph-name="braceright.cap" unicode="&#xe13a;" horiz-adv-x="289" 
d="M273 344l-8 -55h-20c-52 0 -62 -51 -71 -105l-24 -141c-13 -75 -25 -116 -106 -130l-58 -10l-7 44l55 14c41 10 46 28 55 82l24 140c12 72 30 124 97 132l1 4c-53 5 -68 51 -68 94c0 7 0 13 1 20l18 158c1 6 1 12 1 18c0 44 -21 52 -43 61l-44 16l14 44l52 -12
c56 -14 83 -44 83 -101c0 -8 -1 -17 -2 -26l-18 -161c-1 -9 -2 -17 -2 -24c0 -46 20 -62 50 -62h20z" />
    <glyph glyph-name="exclamdown.cap" unicode="&#xe142;" horiz-adv-x="261" 
d="M216 601c0 -34 -21 -57 -55 -57c-25 0 -43 20 -43 44c0 34 21 57 54 57c25 0 44 -20 44 -44zM173 454l-46 -461h-78l74 461h50z" />
    <glyph glyph-name="questiondown.cap" unicode="&#xe143;" horiz-adv-x="398" 
d="M326 596c0 -33 -21 -57 -54 -57c-25 0 -44 20 -44 44c0 34 21 57 55 57c24 0 43 -19 43 -44zM355 73c-25 -35 -78 -88 -168 -88s-151 60 -151 138c0 77 48 117 75 143l79 75c14 14 20 22 25 33c4 10 7 24 9 38l6 37h57l-5 -39c-2 -20 -5 -50 -15 -70s-24 -34 -41 -50
l-66 -61c-21 -20 -54 -48 -54 -99c0 -50 34 -84 92 -84c59 0 100 44 117 68z" />
    <glyph glyph-name="guillemotleft.cap" unicode="&#xe134;" horiz-adv-x="420" 
d="M385 474l-137 -154l95 -160l-39 -27l-108 164l6 48l150 160zM221 474l-136 -154l94 -160l-39 -27l-108 164l7 48l149 160z" />
    <glyph glyph-name="guillemotright.cap" unicode="&#xe135;" horiz-adv-x="420" 
d="M382 344l-6 -49l-150 -159l-33 31l137 153l-94 160l38 28zM219 344l-7 -49l-149 -159l-33 31l136 153l-94 160l39 28z" />
    <glyph glyph-name="guilsinglleft.cap" unicode="&#xe136;" horiz-adv-x="272" 
d="M221 474l-137 -154l95 -160l-39 -27l-108 164l6 48l150 160z" />
    <glyph glyph-name="guilsinglright.cap" unicode="&#xe137;" horiz-adv-x="272" 
d="M220 344l-7 -49l-150 -159l-33 31l137 153l-94 160l39 28z" />
    <glyph glyph-name="hyphen.cap" unicode="&#xe13f;" horiz-adv-x="286" 
d="M258 349l-11 -55h-200l12 55h199z" />
    <glyph glyph-name="endash.cap" unicode="&#xe13e;" horiz-adv-x="445" 
d="M425 347l-9 -50h-376l9 50h376z" />
    <glyph glyph-name="emdash.cap" unicode="&#xe13d;" horiz-adv-x="742" 
d="M715 347l-9 -50h-659l9 50h659z" />
    <glyph glyph-name="periodcentered.cap" unicode="&#xe22b;" horiz-adv-x="237" 
d="M178 347c0 -33 -21 -57 -55 -57c-24 0 -43 20 -43 45c0 33 21 57 55 57c24 0 43 -20 43 -45z" />
    <glyph glyph-name="sterling.oldstyle" unicode="&#xe508;" horiz-adv-x="441" 
d="M425 395l-46 -36c-11 25 -43 62 -95 62c-62 0 -95 -45 -95 -106c0 -19 6 -47 11 -64h142l-5 -43h-127c2 -5 5 -25 5 -40c0 -29 -10 -75 -39 -110h213l-7 -58h-363l6 47l83 11c23 28 41 67 41 109c0 14 -3 33 -6 41h-84l6 43h68c-3 16 -11 41 -11 69c0 43 14 81 42 110
c31 32 75 48 124 48c68 0 119 -42 137 -83z" />
    <glyph glyph-name="Euro.oldstyle" unicode="&#xe506;" horiz-adv-x="441" 
d="M441 396l-41 -35c-21 40 -55 62 -104 62c-66 0 -114 -57 -129 -112h178l-5 -43h-186c-4 -19 -7 -45 -7 -63h184l-5 -44h-179c6 -65 43 -112 104 -112s93 35 117 61l37 -38c-35 -40 -79 -82 -166 -82c-100 0 -153 74 -160 171h-57l6 44h50c0 18 5 52 8 63h-50l6 43h55
c27 86 97 167 199 167c82 0 125 -43 145 -82z" />
    <glyph glyph-name="yen.oldstyle" unicode="&#xe509;" horiz-adv-x="441" 
d="M432 468l-134 -188h104l-6 -44h-128l-19 -25l-5 -38h145l-6 -43h-144l-17 -130h-66l17 130h-144l5 43h144l5 37l-12 26h-129l5 44h104l-86 188h76l83 -201l134 201h74z" />
    <glyph glyph-name="florin.oldstyle" unicode="&#xe50a;" horiz-adv-x="441" 
d="M463 525l-27 -45c-7 5 -23 18 -58 18c-57 0 -74 -57 -85 -98l-23 -81h113l-5 -45h-120l-51 -179c-15 -52 -33 -97 -59 -127s-56 -47 -99 -47c-42 0 -66 19 -72 25l29 49s12 -15 47 -15c36 0 63 37 82 101l55 193h-104l5 45h111l24 83c14 52 35 97 61 120
c27 23 57 33 93 33s63 -14 83 -30z" />
    <glyph glyph-name="uni2215" unicode="&#x2215;" horiz-adv-x="331" 
d="M404 638l-440 -651l-37 25l440 651z" />
    <glyph glyph-name="uni03A9" unicode="&#x3a9;" horiz-adv-x="682" 
d="M641 0h-251v55c86 31 181 122 181 272c0 151 -92 259 -230 259s-229 -108 -229 -258c0 -151 94 -242 180 -273v-55h-251v56h148c-26 14 -142 101 -142 278c0 178 125 310 294 310s294 -132 294 -310c0 -177 -116 -264 -142 -278h148v-56z" />
    <glyph glyph-name="caron.alt" unicode="&#xe503;" horiz-adv-x="375" 
d="M198 656l69 -1c-11 -81 -41 -136 -70 -170l-49 5c28 45 45 100 50 166z" />
    <glyph glyph-name="numbersign.oldstyle" unicode="&#xfe5f;" horiz-adv-x="430" 
d="M404 293h-83l-37 -117h89l-14 -43h-89l-42 -133h-48l42 133h-93l-42 -133h-48l42 133h-74l14 43h74l37 117h-80l14 43h80l40 129h48l-40 -129h93l40 129h48l-40 -129h83zM273 293h-93l-37 -117h93z" />
    </font>
</defs>
</svg>
